<?xml version="1.0" encoding="UTF-8" ?>
<svg version="1.1" width="32" height="32" xmlns="http://www.w3.org/2000/svg" shape-rendering="crispEdges">
<rect x="13" y="1" width="1" height="1" fill="#B12434" />
<rect x="14" y="1" width="1" height="1" fill="#B32534" />
<rect x="15" y="1" width="2" height="1" fill="#B42534" />
<rect x="17" y="1" width="1" height="1" fill="#B32534" />
<rect x="18" y="1" width="1" height="1" fill="#B12434" />
<rect x="11" y="2" width="1" height="1" fill="#B02334" />
<rect x="12" y="2" width="1" height="1" fill="#B22434" />
<rect x="13" y="2" width="1" height="1" fill="#B42534" />
<rect x="14" y="2" width="1" height="1" fill="#B62635" />
<rect x="15" y="2" width="2" height="1" fill="#B82735" />
<rect x="17" y="2" width="1" height="1" fill="#B62635" />
<rect x="18" y="2" width="1" height="1" fill="#B42534" />
<rect x="19" y="2" width="1" height="1" fill="#B22434" />
<rect x="20" y="2" width="1" height="1" fill="#B02334" />
<rect x="10" y="3" width="1" height="1" fill="#AE2334" />
<rect x="11" y="3" width="1" height="1" fill="#B12434" />
<rect x="12" y="3" width="1" height="1" fill="#B52634" />
<rect x="13" y="3" width="1" height="1" fill="#B82735" />
<rect x="14" y="3" width="1" height="1" fill="#BA2835" />
<rect x="15" y="3" width="2" height="1" fill="#BC2835" />
<rect x="17" y="3" width="1" height="1" fill="#BA2835" />
<rect x="18" y="3" width="1" height="1" fill="#B82735" />
<rect x="19" y="3" width="1" height="1" fill="#B52634" />
<rect x="20" y="3" width="1" height="1" fill="#B12434" />
<rect x="21" y="3" width="1" height="1" fill="#AE2334" />
<rect x="9" y="4" width="1" height="4" fill="#AE2334" />
<rect x="10" y="4" width="1" height="1" fill="#AF2334" />
<rect x="11" y="4" width="1" height="1" fill="#B32534" />
<rect x="12" y="4" width="1" height="1" fill="#B72635" />
<rect x="13" y="4" width="1" height="1" fill="#BB2835" />
<rect x="14" y="4" width="1" height="1" fill="#BE2936" />
<rect x="15" y="4" width="2" height="1" fill="#C02A36" />
<rect x="17" y="4" width="1" height="1" fill="#BE2936" />
<rect x="18" y="4" width="1" height="1" fill="#BB2835" />
<rect x="19" y="4" width="1" height="1" fill="#B72635" />
<rect x="20" y="4" width="1" height="1" fill="#B32534" />
<rect x="21" y="4" width="1" height="1" fill="#AF2334" />
<rect x="22" y="4" width="1" height="4" fill="#AE2334" />
<rect x="8" y="5" width="1" height="5" fill="#AE2334" />
<rect x="10" y="5" width="1" height="1" fill="#B02434" />
<rect x="11" y="5" width="1" height="1" fill="#B52534" />
<rect x="12" y="5" width="1" height="1" fill="#BA2835" />
<rect x="13" y="5" width="1" height="1" fill="#BF2A36" />
<rect x="14" y="5" width="1" height="1" fill="#C32C36" />
<rect x="15" y="5" width="2" height="1" fill="#C52C36" />
<rect x="17" y="5" width="1" height="1" fill="#C32C36" />
<rect x="18" y="5" width="1" height="1" fill="#BF2A36" />
<rect x="19" y="5" width="1" height="1" fill="#BA2835" />
<rect x="20" y="5" width="1" height="1" fill="#B52534" />
<rect x="21" y="5" width="1" height="1" fill="#B02434" />
<rect x="23" y="5" width="1" height="5" fill="#AE2334" />
<rect x="7" y="6" width="1" height="4" fill="#AE2334" />
<rect x="10" y="6" width="1" height="1" fill="#B12434" />
<rect x="11" y="6" width="1" height="1" fill="#B62635" />
<rect x="12" y="6" width="1" height="1" fill="#BD2935" />
<rect x="13" y="6" width="1" height="1" fill="#C32C36" />
<rect x="14" y="6" width="1" height="1" fill="#C82D37" />
<rect x="15" y="6" width="2" height="1" fill="#CA2E37" />
<rect x="17" y="6" width="1" height="1" fill="#C82D37" />
<rect x="18" y="6" width="1" height="1" fill="#C32C36" />
<rect x="19" y="6" width="1" height="1" fill="#BD2935" />
<rect x="20" y="6" width="1" height="1" fill="#B62635" />
<rect x="21" y="6" width="1" height="1" fill="#B12434" />
<rect x="24" y="6" width="1" height="4" fill="#AE2334" />
<rect x="6" y="7" width="1" height="3" fill="#AE2334" />
<rect x="10" y="7" width="1" height="1" fill="#B22434" />
<rect x="11" y="7" width="1" height="1" fill="#B82735" />
<rect x="12" y="7" width="1" height="1" fill="#BF2A36" />
<rect x="13" y="7" width="1" height="1" fill="#C72D37" />
<rect x="14" y="7" width="1" height="1" fill="#CC2F37" />
<rect x="15" y="7" width="2" height="1" fill="#CF3038" />
<rect x="17" y="7" width="1" height="1" fill="#CC2F37" />
<rect x="18" y="7" width="1" height="1" fill="#C72D37" />
<rect x="19" y="7" width="1" height="1" fill="#BF2A36" />
<rect x="20" y="7" width="1" height="1" fill="#B82735" />
<rect x="21" y="7" width="1" height="1" fill="#B22434" />
<rect x="25" y="7" width="1" height="4" fill="#AE2334" />
<rect x="9" y="8" width="1" height="1" fill="#AF2334" />
<rect x="10" y="8" width="1" height="1" fill="#B32534" />
<rect x="11" y="8" width="1" height="1" fill="#B92735" />
<rect x="12" y="8" width="1" height="1" fill="#C02A36" />
<rect x="13" y="8" width="1" height="1" fill="#C92E37" />
<rect x="14" y="8" width="1" height="1" fill="#CF3038" />
<rect x="15" y="8" width="2" height="1" fill="#D23238" />
<rect x="17" y="8" width="1" height="1" fill="#CF3038" />
<rect x="18" y="8" width="1" height="1" fill="#C92E37" />
<rect x="19" y="8" width="1" height="1" fill="#C02A36" />
<rect x="20" y="8" width="1" height="1" fill="#B92735" />
<rect x="21" y="8" width="1" height="1" fill="#B32534" />
<rect x="22" y="8" width="1" height="1" fill="#AF2334" />
<rect x="5" y="9" width="1" height="2" fill="#AE2334" />
<rect x="9" y="9" width="1" height="1" fill="#B02334" />
<rect x="10" y="9" width="1" height="1" fill="#B52534" />
<rect x="11" y="9" width="1" height="1" fill="#BB2835" />
<rect x="12" y="9" width="1" height="1" fill="#C22B36" />
<rect x="13" y="9" width="1" height="1" fill="#CB2F37" />
<rect x="14" y="9" width="1" height="1" fill="#D23238" />
<rect x="15" y="9" width="2" height="1" fill="#D53338" />
<rect x="17" y="9" width="1" height="1" fill="#D23238" />
<rect x="18" y="9" width="1" height="1" fill="#CB2F37" />
<rect x="19" y="9" width="1" height="1" fill="#C22B36" />
<rect x="20" y="9" width="1" height="1" fill="#BB2835" />
<rect x="21" y="9" width="1" height="1" fill="#B52534" />
<rect x="22" y="9" width="1" height="1" fill="#B02334" />
<rect x="26" y="9" width="1" height="2" fill="#AE2334" />
<rect x="6" y="10" width="1" height="1" fill="#AF2334" />
<rect x="7" y="10" width="1" height="1" fill="#B02334" />
<rect x="8" y="10" width="1" height="1" fill="#B02434" />
<rect x="9" y="10" width="1" height="1" fill="#B42534" />
<rect x="10" y="10" width="1" height="1" fill="#B92735" />
<rect x="11" y="10" width="1" height="1" fill="#BF2A36" />
<rect x="12" y="10" width="1" height="1" fill="#C62C36" />
<rect x="13" y="10" width="1" height="1" fill="#CE3037" />
<rect x="14" y="10" width="1" height="1" fill="#D53338" />
<rect x="15" y="10" width="2" height="1" fill="#D83439" />
<rect x="17" y="10" width="1" height="1" fill="#D53338" />
<rect x="18" y="10" width="1" height="1" fill="#CE3037" />
<rect x="19" y="10" width="1" height="1" fill="#C62C36" />
<rect x="20" y="10" width="1" height="1" fill="#BE2936" />
<rect x="21" y="10" width="1" height="1" fill="#B82735" />
<rect x="22" y="10" width="1" height="1" fill="#B32534" />
<rect x="23" y="10" width="1" height="1" fill="#B02334" />
<rect x="24" y="10" width="1" height="1" fill="#AF2334" />
<rect x="5" y="11" width="1" height="1" fill="#B02434" />
<rect x="6" y="11" width="1" height="1" fill="#B22434" />
<rect x="7" y="11" width="1" height="1" fill="#B32534" />
<rect x="8" y="11" width="1" height="1" fill="#EC4270" />
<rect x="9" y="11" width="1" height="1" fill="#B92735" />
<rect x="10" y="11" width="1" height="1" fill="#BE2935" />
<rect x="11" y="11" width="1" height="1" fill="#C32C36" />
<rect x="12" y="11" width="1" height="1" fill="#EB3F5A" />
<rect x="13" y="11" width="1" height="1" fill="#D13138" />
<rect x="14" y="11" width="1" height="1" fill="#D83439" />
<rect x="15" y="11" width="1" height="1" fill="#DA3539" />
<rect x="16" y="11" width="1" height="1" fill="#E93D49" />
<rect x="17" y="11" width="1" height="1" fill="#D83439" />
<rect x="18" y="11" width="1" height="1" fill="#D13138" />
<rect x="19" y="11" width="1" height="1" fill="#CA2E37" />
<rect x="20" y="11" width="1" height="1" fill="#EB4061" />
<rect x="21" y="11" width="1" height="1" fill="#BD2935" />
<rect x="22" y="11" width="1" height="1" fill="#B82735" />
<rect x="23" y="11" width="1" height="1" fill="#B32534" />
<rect x="24" y="11" width="1" height="1" fill="#EC4273" />
<rect x="25" y="11" width="1" height="1" fill="#B02434" />
<rect x="26" y="11" width="1" height="1" fill="#AF2334" />
<rect x="4" y="12" width="1" height="1" fill="#B02434" />
<rect x="5" y="12" width="1" height="1" fill="#B22434" />
<rect x="6" y="12" width="1" height="1" fill="#B42534" />
<rect x="7" y="12" width="1" height="1" fill="#B72635" />
<rect x="8" y="12" width="1" height="1" fill="#B92735" />
<rect x="9" y="12" width="1" height="1" fill="#BE2935" />
<rect x="10" y="12" width="1" height="1" fill="#C32B36" />
<rect x="11" y="12" width="1" height="1" fill="#C92E37" />
<rect x="12" y="12" width="1" height="1" fill="#CE3037" />
<rect x="13" y="12" width="1" height="1" fill="#D53338" />
<rect x="14" y="12" width="1" height="1" fill="#DB3539" />
<rect x="15" y="12" width="2" height="1" fill="#DD3639" />
<rect x="17" y="12" width="1" height="1" fill="#DB3539" />
<rect x="18" y="12" width="1" height="1" fill="#D53338" />
<rect x="19" y="12" width="1" height="1" fill="#CE3037" />
<rect x="20" y="12" width="1" height="1" fill="#C82D37" />
<rect x="21" y="12" width="1" height="1" fill="#C22B36" />
<rect x="22" y="12" width="1" height="1" fill="#BC2935" />
<rect x="23" y="12" width="1" height="1" fill="#B72635" />
<rect x="24" y="12" width="1" height="1" fill="#B42534" />
<rect x="25" y="12" width="1" height="1" fill="#B22434" />
<rect x="26" y="12" width="1" height="1" fill="#B02434" />
<rect x="27" y="12" width="1" height="2" fill="#AF2334" />
<rect x="4" y="13" width="1" height="1" fill="#B12434" />
<rect x="5" y="13" width="1" height="1" fill="#B32534" />
<rect x="6" y="13" width="1" height="1" fill="#EC416F" />
<rect x="7" y="13" width="1" height="1" fill="#B92735" />
<rect x="8" y="13" width="1" height="1" fill="#EB4168" />
<rect x="9" y="13" width="1" height="1" fill="#C12B36" />
<rect x="10" y="13" width="1" height="1" fill="#EB405E" />
<rect x="11" y="13" width="1" height="1" fill="#CC2F37" />
<rect x="12" y="13" width="1" height="1" fill="#D13138" />
<rect x="13" y="13" width="1" height="1" fill="#D83439" />
<rect x="14" y="13" width="1" height="1" fill="#E93D46" />
<rect x="15" y="13" width="2" height="1" fill="#DF3739" />
<rect x="17" y="13" width="1" height="1" fill="#DD3639" />
<rect x="18" y="13" width="1" height="1" fill="#EA3D4C" />
<rect x="19" y="13" width="1" height="1" fill="#D13138" />
<rect x="20" y="13" width="1" height="1" fill="#CB2F37" />
<rect x="21" y="13" width="1" height="1" fill="#C42C36" />
<rect x="22" y="13" width="1" height="1" fill="#EB4066" />
<rect x="23" y="13" width="1" height="1" fill="#B92735" />
<rect x="24" y="13" width="1" height="1" fill="#B62635" />
<rect x="25" y="13" width="1" height="1" fill="#B32534" />
<rect x="26" y="13" width="1" height="1" fill="#EC4274" />
<rect x="4" y="14" width="1" height="1" fill="#B22434" />
<rect x="5" y="14" width="1" height="2" fill="#B52634" />
<rect x="6" y="14" width="1" height="1" fill="#B82735" />
<rect x="7" y="14" width="1" height="1" fill="#BC2835" />
<rect x="8" y="14" width="1" height="1" fill="#BF2A36" />
<rect x="9" y="14" width="1" height="1" fill="#EB4060" />
<rect x="10" y="14" width="1" height="1" fill="#C92E37" />
<rect x="11" y="14" width="1" height="1" fill="#CE3037" />
<rect x="12" y="14" width="1" height="1" fill="#D43238" />
<rect x="13" y="14" width="1" height="3" fill="#DA3539" />
<rect x="14" y="14" width="1" height="1" fill="#DE3739" />
<rect x="15" y="14" width="2" height="1" fill="#E0373A" />
<rect x="17" y="14" width="1" height="1" fill="#DE3739" />
<rect x="18" y="14" width="1" height="1" fill="#DA3539" />
<rect x="19" y="14" width="1" height="1" fill="#D33238" />
<rect x="20" y="14" width="1" height="1" fill="#CD2F37" />
<rect x="21" y="14" width="1" height="2" fill="#C72D37" />
<rect x="22" y="14" width="1" height="1" fill="#C12B36" />
<rect x="23" y="14" width="1" height="1" fill="#BC2835" />
<rect x="24" y="14" width="1" height="1" fill="#B82735" />
<rect x="25" y="14" width="1" height="2" fill="#B52634" />
<rect x="26" y="14" width="1" height="1" fill="#B22434" />
<rect x="27" y="14" width="1" height="2" fill="#B02334" />
<rect x="4" y="15" width="1" height="1" fill="#EC4273" />
<rect x="6" y="15" width="1" height="1" fill="#EC416C" />
<rect x="7" y="15" width="1" height="1" fill="#BC2935" />
<rect x="8" y="15" width="1" height="1" fill="#EB4065" />
<rect x="9" y="15" width="1" height="1" fill="#C52C36" />
<rect x="10" y="15" width="1" height="1" fill="#EB3F5A" />
<rect x="11" y="15" width="1" height="1" fill="#CF3038" />
<rect x="12" y="15" width="1" height="1" fill="#EA3E4F" />
<rect x="14" y="15" width="1" height="1" fill="#E93D44" />
<rect x="15" y="15" width="1" height="1" fill="#E1383A" />
<rect x="16" y="15" width="1" height="1" fill="#E93C43" />
<rect x="17" y="15" width="1" height="1" fill="#DF3739" />
<rect x="18" y="15" width="1" height="1" fill="#E93D49" />
<rect x="19" y="15" width="1" height="1" fill="#D43238" />
<rect x="20" y="15" width="1" height="1" fill="#EA3F56" />
<rect x="22" y="15" width="1" height="1" fill="#EB4063" />
<rect x="23" y="15" width="1" height="1" fill="#BC2935" />
<rect x="24" y="15" width="1" height="1" fill="#EC416C" />
<rect x="26" y="15" width="1" height="1" fill="#EC4273" />
<rect x="4" y="16" width="1" height="1" fill="#B22434" />
<rect x="5" y="16" width="1" height="1" fill="#B52534" />
<rect x="6" y="16" width="1" height="1" fill="#B82735" />
<rect x="7" y="16" width="1" height="1" fill="#EC4169" />
<rect x="8" y="16" width="1" height="1" fill="#BF2A36" />
<rect x="9" y="16" width="1" height="1" fill="#C32C36" />
<rect x="10" y="16" width="1" height="1" fill="#C92E37" />
<rect x="11" y="16" width="1" height="1" fill="#CE3037" />
<rect x="12" y="16" width="1" height="1" fill="#D43238" />
<rect x="14" y="16" width="1" height="1" fill="#DE3739" />
<rect x="15" y="16" width="1" height="1" fill="#E93C43" />
<rect x="16" y="16" width="1" height="1" fill="#E0373A" />
<rect x="17" y="16" width="1" height="1" fill="#DE3739" />
<rect x="18" y="16" width="1" height="1" fill="#DA3539" />
<rect x="19" y="16" width="1" height="1" fill="#D33238" />
<rect x="20" y="16" width="1" height="1" fill="#CD2F37" />
<rect x="21" y="16" width="1" height="1" fill="#C62D36" />
<rect x="22" y="16" width="1" height="1" fill="#C12A36" />
<rect x="23" y="16" width="1" height="1" fill="#BB2835" />
<rect x="24" y="16" width="1" height="1" fill="#B82735" />
<rect x="25" y="16" width="1" height="1" fill="#B52534" />
<rect x="26" y="16" width="1" height="1" fill="#B22434" />
<rect x="27" y="16" width="1" height="1" fill="#AF2334" />
<rect x="4" y="17" width="1" height="1" fill="#EC4274" />
<rect x="5" y="17" width="1" height="1" fill="#B32534" />
<rect x="6" y="17" width="1" height="1" fill="#EC416F" />
<rect x="7" y="17" width="1" height="1" fill="#B92735" />
<rect x="8" y="17" width="1" height="1" fill="#EC4169" />
<rect x="9" y="17" width="1" height="1" fill="#C12A36" />
<rect x="10" y="17" width="1" height="1" fill="#EB405E" />
<rect x="11" y="17" width="1" height="1" fill="#CB2F37" />
<rect x="12" y="17" width="1" height="1" fill="#EA3E52" />
<rect x="13" y="17" width="1" height="1" fill="#D83439" />
<rect x="14" y="17" width="1" height="1" fill="#E93D46" />
<rect x="15" y="17" width="1" height="1" fill="#DF3739" />
<rect x="16" y="17" width="1" height="1" fill="#E93D44" />
<rect x="17" y="17" width="1" height="1" fill="#DD3639" />
<rect x="18" y="17" width="1" height="1" fill="#EA3D4C" />
<rect x="19" y="17" width="1" height="1" fill="#D13138" />
<rect x="20" y="17" width="1" height="1" fill="#EB3F5A" />
<rect x="21" y="17" width="1" height="1" fill="#C42C36" />
<rect x="22" y="17" width="1" height="1" fill="#EB4066" />
<rect x="23" y="17" width="1" height="1" fill="#B92735" />
<rect x="24" y="17" width="1" height="1" fill="#EC416F" />
<rect x="25" y="17" width="1" height="1" fill="#B32534" />
<rect x="26" y="17" width="1" height="1" fill="#EC4274" />
<rect x="27" y="17" width="1" height="1" fill="#F95C91" />
<rect x="4" y="18" width="1" height="1" fill="#F95B90" />
<rect x="5" y="18" width="1" height="1" fill="#EC4273" />
<rect x="6" y="18" width="1" height="1" fill="#B42534" />
<rect x="7" y="18" width="1" height="1" fill="#EC416E" />
<rect x="8" y="18" width="1" height="1" fill="#B92735" />
<rect x="9" y="18" width="1" height="1" fill="#EB4167" />
<rect x="10" y="18" width="1" height="1" fill="#F35073" />
<rect x="11" y="18" width="1" height="1" fill="#EB3F5C" />
<rect x="12" y="18" width="1" height="1" fill="#CE3037" />
<rect x="13" y="18" width="1" height="1" fill="#EA3E4F" />
<rect x="14" y="18" width="1" height="1" fill="#DB3539" />
<rect x="15" y="18" width="1" height="1" fill="#E93D47" />
<rect x="16" y="18" width="1" height="1" fill="#DD3639" />
<rect x="17" y="18" width="1" height="1" fill="#E93D49" />
<rect x="18" y="18" width="1" height="1" fill="#D53338" />
<rect x="19" y="18" width="1" height="1" fill="#EA3F56" />
<rect x="20" y="18" width="1" height="1" fill="#C72D37" />
<rect x="21" y="18" width="1" height="1" fill="#EB4063" />
<rect x="22" y="18" width="1" height="1" fill="#BC2835" />
<rect x="23" y="18" width="1" height="1" fill="#EC416E" />
<rect x="24" y="18" width="1" height="1" fill="#F85989" />
<rect x="25" y="18" width="1" height="1" fill="#EC4273" />
<rect x="26" y="18" width="1" height="1" fill="#F95B90" />
<rect x="27" y="18" width="1" height="1" fill="#AE2334" />
<rect x="5" y="19" width="1" height="1" fill="#EC4275" />
<rect x="6" y="19" width="1" height="1" fill="#EC4274" />
<rect x="7" y="19" width="1" height="1" fill="#B32534" />
<rect x="8" y="19" width="1" height="1" fill="#EC4271" />
<rect x="9" y="19" width="1" height="1" fill="#F65784" />
<rect x="10" y="19" width="1" height="1" fill="#EB4167" />
<rect x="11" y="19" width="1" height="1" fill="#F35073" />
<rect x="12" y="19" width="1" height="1" fill="#EB3F5A" />
<rect x="13" y="19" width="1" height="1" fill="#D13138" />
<rect x="14" y="19" width="1" height="1" fill="#EA3D4C" />
<rect x="15" y="19" width="1" height="1" fill="#DA3539" />
<rect x="16" y="19" width="1" height="1" fill="#E93D49" />
<rect x="17" y="19" width="1" height="1" fill="#D83439" />
<rect x="18" y="19" width="1" height="1" fill="#EA3E53" />
<rect x="19" y="19" width="1" height="1" fill="#F14D69" />
<rect x="20" y="19" width="1" height="1" fill="#EB4062" />
<rect x="21" y="19" width="1" height="1" fill="#F5547D" />
<rect x="22" y="19" width="1" height="1" fill="#EC416E" />
<rect x="23" y="19" width="1" height="1" fill="#F85A8C" />
<rect x="24" y="19" width="1" height="1" fill="#EC4274" />
<rect x="25" y="19" width="1" height="1" fill="#F95B90" />
<rect x="26" y="19" width="1" height="1" fill="#EC4276" />
<rect x="5" y="20" width="1" height="1" fill="#EC4277" />
<rect x="6" y="20" width="1" height="1" fill="#F95C92" />
<rect x="7" y="20" width="1" height="1" fill="#EC4276" />
<rect x="8" y="20" width="1" height="1" fill="#F95B90" />
<rect x="9" y="20" width="1" height="1" fill="#EC4272" />
<rect x="10" y="20" width="1" height="1" fill="#F65683" />
<rect x="11" y="20" width="1" height="1" fill="#EB4066" />
<rect x="12" y="20" width="1" height="1" fill="#F24F6F" />
<rect x="13" y="20" width="1" height="1" fill="#EA3F56" />
<rect x="14" y="20" width="1" height="1" fill="#D53338" />
<rect x="15" y="20" width="1" height="1" fill="#EA3D4C" />
<rect x="16" y="20" width="1" height="1" fill="#D83439" />
<rect x="17" y="20" width="1" height="1" fill="#EA3E4F" />
<rect x="18" y="20" width="1" height="1" fill="#CE3037" />
<rect x="19" y="20" width="1" height="1" fill="#EB405F" />
<rect x="20" y="20" width="1" height="1" fill="#F5537A" />
<rect x="21" y="20" width="1" height="1" fill="#EC416D" />
<rect x="22" y="20" width="1" height="1" fill="#F85A8C" />
<rect x="23" y="20" width="1" height="1" fill="#EC4276" />
<rect x="24" y="20" width="1" height="1" fill="#F95C92" />
<rect x="25" y="20" width="1" height="1" fill="#EC4277" />
<rect x="26" y="20" width="1" height="1" fill="#F95C93" />
<rect x="5" y="21" width="1" height="1" fill="#F95C93" />
<rect x="6" y="21" width="3" height="1" fill="#EC4277" />
<rect x="9" y="21" width="1" height="1" fill="#F95B90" />
<rect x="10" y="21" width="1" height="1" fill="#EC4270" />
<rect x="11" y="21" width="1" height="1" fill="#EC416A" />
<rect x="12" y="21" width="1" height="1" fill="#EB4062" />
<rect x="13" y="21" width="1" height="1" fill="#CB2F37" />
<rect x="14" y="21" width="1" height="1" fill="#EA3E51" />
<rect x="15" y="21" width="2" height="1" fill="#EA3E4F" />
<rect x="17" y="21" width="1" height="1" fill="#D23238" />
<rect x="18" y="21" width="1" height="1" fill="#EA3F59" />
<rect x="19" y="21" width="1" height="1" fill="#EB4062" />
<rect x="20" y="21" width="1" height="1" fill="#EC416A" />
<rect x="21" y="21" width="1" height="1" fill="#F75889" />
<rect x="22" y="21" width="1" height="1" fill="#EC4275" />
<rect x="23" y="21" width="1" height="1" fill="#F95C93" />
<rect x="24" y="21" width="1" height="1" fill="#EC4277" />
<rect x="25" y="21" width="1" height="1" fill="#F95C93" />
<rect x="26" y="21" width="1" height="1" fill="#EC4277" />
<rect x="6" y="22" width="1" height="1" fill="#F95C93" />
<rect x="7" y="22" width="1" height="3" fill="#EC4277" />
<rect x="8" y="22" width="1" height="1" fill="#F95C93" />
<rect x="9" y="22" width="1" height="1" fill="#EC4276" />
<rect x="10" y="22" width="1" height="1" fill="#F8598B" />
<rect x="11" y="22" width="1" height="1" fill="#EC416B" />
<rect x="12" y="22" width="1" height="1" fill="#F45277" />
<rect x="13" y="22" width="1" height="1" fill="#EB3F5B" />
<rect x="14" y="22" width="1" height="1" fill="#CF3038" />
<rect x="15" y="22" width="1" height="1" fill="#EA3E52" />
<rect x="16" y="22" width="1" height="1" fill="#D23238" />
<rect x="17" y="22" width="1" height="1" fill="#EA3E55" />
<rect x="18" y="22" width="1" height="1" fill="#F14D6A" />
<rect x="19" y="22" width="1" height="1" fill="#EB4064" />
<rect x="20" y="22" width="1" height="1" fill="#F65682" />
<rect x="21" y="22" width="1" height="1" fill="#EC4271" />
<rect x="22" y="22" width="1" height="1" fill="#F95C91" />
<rect x="23" y="22" width="1" height="4" fill="#EC4277" />
<rect x="24" y="22" width="1" height="1" fill="#F95C93" />
<rect x="25" y="22" width="1" height="2" fill="#EC4277" />
<rect x="6" y="23" width="1" height="1" fill="#EC4277" />
<rect x="8" y="23" width="2" height="1" fill="#EC4277" />
<rect x="10" y="23" width="1" height="1" fill="#EC4273" />
<rect x="11" y="23" width="1" height="1" fill="#EC416D" />
<rect x="12" y="23" width="1" height="1" fill="#EB4066" />
<rect x="13" y="23" width="1" height="1" fill="#EB3F5E" />
<rect x="14" y="23" width="1" height="1" fill="#EA3F58" />
<rect x="15" y="23" width="2" height="1" fill="#EA3E55" />
<rect x="17" y="23" width="1" height="1" fill="#EA3F58" />
<rect x="18" y="23" width="1" height="1" fill="#EB3F5E" />
<rect x="19" y="23" width="1" height="1" fill="#EB4066" />
<rect x="20" y="23" width="1" height="1" fill="#EC416D" />
<rect x="21" y="23" width="1" height="1" fill="#EC4273" />
<rect x="22" y="23" width="1" height="1" fill="#EC4277" />
<rect x="24" y="23" width="1" height="1" fill="#EC4277" />
<rect x="8" y="24" width="1" height="1" fill="#F95C93" />
<rect x="9" y="24" width="1" height="3" fill="#EC4277" />
<rect x="10" y="24" width="1" height="1" fill="#F85A8E" />
<rect x="11" y="24" width="1" height="1" fill="#EC416F" />
<rect x="12" y="24" width="1" height="1" fill="#F5547D" />
<rect x="13" y="24" width="1" height="1" fill="#EB4061" />
<rect x="14" y="24" width="1" height="1" fill="#C82D37" />
<rect x="15" y="24" width="1" height="1" fill="#EB3F5A" />
<rect x="16" y="24" width="1" height="1" fill="#CA2E37" />
<rect x="17" y="24" width="1" height="1" fill="#EB3F5C" />
<rect x="18" y="24" width="1" height="1" fill="#F35072" />
<rect x="19" y="24" width="1" height="1" fill="#EB4168" />
<rect x="20" y="24" width="1" height="1" fill="#F75886" />
<rect x="21" y="24" width="1" height="1" fill="#EC4274" />
<rect x="22" y="24" width="1" height="1" fill="#F95C93" />
<rect x="24" y="24" width="1" height="1" fill="#F95C93" />
<rect x="8" y="25" width="1" height="1" fill="#EC4277" />
<rect x="10" y="25" width="1" height="1" fill="#EC4275" />
<rect x="11" y="25" width="1" height="1" fill="#EC4270" />
<rect x="12" y="25" width="1" height="1" fill="#EC416B" />
<rect x="13" y="25" width="1" height="1" fill="#EB4065" />
<rect x="14" y="25" width="1" height="1" fill="#EB4061" />
<rect x="15" y="25" width="2" height="1" fill="#EB405F" />
<rect x="17" y="25" width="1" height="1" fill="#EB4061" />
<rect x="18" y="25" width="1" height="1" fill="#EB4065" />
<rect x="19" y="25" width="1" height="1" fill="#EC416B" />
<rect x="20" y="25" width="1" height="1" fill="#EC4270" />
<rect x="21" y="25" width="1" height="1" fill="#EC4275" />
<rect x="22" y="25" width="1" height="1" fill="#EC4277" />
<rect x="10" y="26" width="1" height="1" fill="#F95C91" />
<rect x="11" y="26" width="1" height="1" fill="#EC4272" />
<rect x="12" y="26" width="1" height="1" fill="#EC416E" />
<rect x="13" y="26" width="1" height="1" fill="#EC4169" />
<rect x="14" y="26" width="1" height="1" fill="#F5537A" />
<rect x="15" y="26" width="2" height="1" fill="#EB4064" />
<rect x="17" y="26" width="1" height="1" fill="#EB4066" />
<rect x="18" y="26" width="1" height="1" fill="#F5557F" />
<rect x="19" y="26" width="1" height="1" fill="#EC416E" />
<rect x="20" y="26" width="1" height="1" fill="#EC4272" />
<rect x="21" y="26" width="1" height="1" fill="#EC4276" />
<rect x="22" y="26" width="1" height="1" fill="#F95C93" />
<rect x="10" y="27" width="1" height="1" fill="#EC4277" />
<rect x="11" y="27" width="1" height="1" fill="#EC4274" />
<rect x="12" y="27" width="1" height="1" fill="#EC4270" />
<rect x="13" y="27" width="1" height="1" fill="#EC416D" />
<rect x="14" y="27" width="1" height="1" fill="#EC416A" />
<rect x="15" y="27" width="2" height="1" fill="#EC4169" />
<rect x="17" y="27" width="1" height="1" fill="#EC416A" />
<rect x="18" y="27" width="1" height="1" fill="#EC416D" />
<rect x="19" y="27" width="1" height="1" fill="#EC4270" />
<rect x="20" y="27" width="1" height="1" fill="#EC4274" />
<rect x="21" y="27" width="1" height="1" fill="#EC4277" />
<rect x="11" y="28" width="1" height="1" fill="#EC4275" />
<rect x="12" y="28" width="1" height="1" fill="#F85A8C" />
<rect x="13" y="28" width="1" height="1" fill="#EC4270" />
<rect x="14" y="28" width="1" height="1" fill="#EC416F" />
<rect x="15" y="28" width="2" height="1" fill="#EC416D" />
<rect x="17" y="28" width="1" height="1" fill="#EC416F" />
<rect x="18" y="28" width="1" height="1" fill="#EC4270" />
<rect x="19" y="28" width="1" height="1" fill="#EC4273" />
<rect x="20" y="28" width="1" height="1" fill="#F95B90" />
<rect x="13" y="29" width="1" height="1" fill="#EC4273" />
<rect x="14" y="29" width="1" height="1" fill="#EC4272" />
<rect x="15" y="29" width="2" height="1" fill="#EC4271" />
<rect x="17" y="29" width="1" height="1" fill="#EC4272" />
<rect x="18" y="29" width="1" height="1" fill="#EC4273" />
</svg>