<?xml version="1.0" encoding="UTF-8" ?>
<svg version="1.1" width="100" height="28" xmlns="http://www.w3.org/2000/svg" shape-rendering="crispEdges">
<rect x="87" y="0" width="1" height="1" fill="#FF1E1E" />
<rect x="93" y="0" width="1" height="1" fill="#FF1E1E" />
<rect x="94" y="1" width="1" height="2" fill="#FF1E1E" />
<rect x="95" y="2" width="1" height="3" fill="#FF1E1E" />
<rect x="85" y="3" width="2" height="1" fill="#FF1E1E" />
<rect x="3" y="4" width="1" height="6" fill="#FF1E1E" />
<rect x="44" y="4" width="1" height="2" fill="#FF1E1E" />
<rect x="74" y="4" width="2" height="2" fill="#FF1E1E" />
<rect x="84" y="4" width="2" height="2" fill="#FF1E1E" />
<rect x="4" y="5" width="1" height="1" fill="#FF1E1E" />
<rect x="10" y="5" width="1" height="1" fill="#FFDCDC" />
<rect x="22" y="5" width="1" height="2" fill="#FF0505" />
<rect x="30" y="5" width="1" height="5" fill="#FF1E1E" />
<rect x="50" y="5" width="1" height="10" fill="#FF1E1E" />
<rect x="70" y="5" width="1" height="15" fill="#FF1E1E" />
<rect x="76" y="5" width="1" height="8" fill="#FF1E1E" />
<rect x="90" y="5" width="1" height="3" fill="#FFDCDC" />
<rect x="2" y="6" width="1" height="3" fill="#FF1E1E" />
<rect x="9" y="6" width="1" height="1" fill="#FFDCDC" />
<rect x="10" y="6" width="1" height="20" fill="#FF1E1E" />
<rect x="15" y="6" width="1" height="5" fill="#FF0505" />
<rect x="20" y="6" width="2" height="8" fill="#FF0505" />
<rect x="29" y="6" width="1" height="5" fill="#FF1E1E" />
<rect x="37" y="6" width="1" height="8" fill="#FF0505" />
<rect x="43" y="6" width="1" height="2" fill="#FF1E1E" />
<rect x="49" y="6" width="1" height="9" fill="#FF1E1E" />
<rect x="69" y="6" width="1" height="14" fill="#FF1E1E" />
<rect x="75" y="6" width="1" height="2" fill="#FF1E1E" />
<rect x="84" y="6" width="1" height="4" fill="#FF0505" />
<rect x="85" y="6" width="1" height="1" fill="#FF1E1E" />
<rect x="89" y="6" width="1" height="3" fill="#FFDCDC" />
<rect x="9" y="7" width="1" height="17" fill="#FF1E1E" />
<rect x="77" y="7" width="1" height="7" fill="#FF1E1E" />
<rect x="56" y="8" width="1" height="1" fill="#FF1E1E" />
<rect x="63" y="8" width="2" height="1" fill="#FF0505" />
<rect x="90" y="8" width="1" height="16" fill="#FF1E1E" />
<rect x="11" y="9" width="1" height="14" fill="#FF1E1E" />
<rect x="31" y="9" width="1" height="1" fill="#FF1E1E" />
<rect x="51" y="9" width="1" height="5" fill="#FF1E1E" />
<rect x="57" y="9" width="1" height="1" fill="#FF1E1E" />
<rect x="63" y="9" width="1" height="4" fill="#FF0505" />
<rect x="71" y="9" width="1" height="10" fill="#FF1E1E" />
<rect x="89" y="9" width="1" height="15" fill="#FF1E1E" />
<rect x="91" y="9" width="1" height="14" fill="#FF1E1E" />
<rect x="30" y="10" width="2" height="3" fill="#FFDCDC" />
<rect x="40" y="10" width="1" height="4" fill="#FF1E1E" />
<rect x="62" y="10" width="1" height="3" fill="#FF0505" />
<rect x="98" y="10" width="1" height="13" fill="#FF0505" />
<rect x="29" y="11" width="1" height="3" fill="#FFDCDC" />
<rect x="41" y="11" width="1" height="5" fill="#FF1E1E" />
<rect x="8" y="12" width="1" height="5" fill="#FF1E1E" />
<rect x="28" y="12" width="1" height="2" fill="#FFDCDC" />
<rect x="48" y="12" width="1" height="4" fill="#FF1E1E" />
<rect x="68" y="12" width="1" height="5" fill="#FF1E1E" />
<rect x="82" y="12" width="1" height="8" fill="#FF1E1E" />
<rect x="88" y="12" width="1" height="5" fill="#FF1E1E" />
<rect x="99" y="12" width="1" height="8" fill="#FF0505" />
<rect x="22" y="13" width="1" height="3" fill="#FF0505" />
<rect x="30" y="13" width="2" height="10" fill="#FF1E1E" />
<rect x="64" y="13" width="1" height="1" fill="#FF0505" />
<rect x="81" y="13" width="1" height="4" fill="#FF1E1E" />
<rect x="21" y="14" width="1" height="2" fill="#FF0505" />
<rect x="28" y="14" width="2" height="3" fill="#FF1E1E" />
<rect x="36" y="14" width="1" height="1" fill="#FF0505" />
<rect x="51" y="14" width="1" height="5" fill="#FFDCDC" />
<rect x="42" y="15" width="1" height="1" fill="#FF1E1E" />
<rect x="49" y="15" width="2" height="4" fill="#FFDCDC" />
<rect x="23" y="16" width="1" height="1" fill="#FF0505" />
<rect x="41" y="16" width="3" height="1" fill="#FF0505" />
<rect x="48" y="16" width="1" height="1" fill="#FFDCDC" />
<rect x="58" y="16" width="1" height="2" fill="#FF0505" />
<rect x="75" y="16" width="1" height="4" fill="#FF1E1E" />
<rect x="83" y="16" width="1" height="6" fill="#FF1E1E" />
<rect x="16" y="17" width="1" height="4" fill="#FF0505" />
<rect x="29" y="17" width="1" height="7" fill="#FF1E1E" />
<rect x="42" y="17" width="2" height="1" fill="#FF0505" />
<rect x="57" y="17" width="1" height="3" fill="#FF0505" />
<rect x="2" y="18" width="1" height="1" fill="#FF1E1E" />
<rect x="44" y="18" width="1" height="2" fill="#FF0505" />
<rect x="56" y="18" width="1" height="5" fill="#FF0505" />
<rect x="78" y="18" width="1" height="3" fill="#FF1E1E" />
<rect x="3" y="19" width="1" height="3" fill="#FF1E1E" />
<rect x="15" y="19" width="1" height="3" fill="#FF0505" />
<rect x="49" y="19" width="1" height="1" fill="#FFDCDC" />
<rect x="50" y="19" width="2" height="4" fill="#FF1E1E" />
<rect x="55" y="19" width="1" height="5" fill="#FF0505" />
<rect x="71" y="19" width="1" height="4" fill="#FFDCDC" />
<rect x="84" y="19" width="1" height="3" fill="#FF1E1E" />
<rect x="97" y="19" width="1" height="3" fill="#FF0505" />
<rect x="4" y="20" width="1" height="2" fill="#FF1E1E" />
<rect x="45" y="20" width="1" height="1" fill="#FF0505" />
<rect x="49" y="20" width="1" height="4" fill="#FF1E1E" />
<rect x="62" y="20" width="2" height="3" fill="#FF1E1E" />
<rect x="69" y="20" width="2" height="4" fill="#FFDCDC" />
<rect x="24" y="21" width="2" height="2" fill="#FF0505" />
<rect x="54" y="21" width="1" height="2" fill="#FF0505" />
<rect x="77" y="21" width="1" height="3" fill="#FF1E1E" />
<rect x="5" y="22" width="1" height="1" fill="#FF1E1E" />
<rect x="64" y="22" width="1" height="4" fill="#FF1E1E" />
<rect x="85" y="22" width="1" height="1" fill="#FF1E1E" />
<rect x="26" y="23" width="1" height="1" fill="#FF0505" />
<rect x="30" y="23" width="1" height="3" fill="#FF1E1E" />
<rect x="34" y="23" width="1" height="2" fill="#FF0505" />
<rect x="50" y="23" width="1" height="3" fill="#FF1E1E" />
<rect x="63" y="23" width="1" height="2" fill="#FF1E1E" />
<rect x="75" y="23" width="2" height="2" fill="#FF1E1E" />
<rect x="27" y="24" width="1" height="1" fill="#FF0505" />
<rect x="65" y="24" width="1" height="2" fill="#FF1E1E" />
<rect x="70" y="24" width="1" height="2" fill="#FF1E1E" />
<rect x="74" y="24" width="1" height="3" fill="#FF1E1E" />
<rect x="90" y="24" width="1" height="2" fill="#FFDCDC" />
<rect x="33" y="25" width="1" height="1" fill="#FF0505" />
<rect x="45" y="25" width="1" height="1" fill="#FF0505" />
<rect x="66" y="25" width="1" height="1" fill="#FF1E1E" />
<rect x="73" y="25" width="1" height="2" fill="#FF1E1E" />
<rect x="75" y="25" width="1" height="2" fill="#FF1E1E" />
<rect x="46" y="26" width="1" height="1" fill="#FF0505" />
<rect x="53" y="26" width="1" height="1" fill="#FF1E1E" />
<rect x="48" y="27" width="1" height="1" fill="#FF0505" />
<rect x="52" y="27" width="1" height="1" fill="#FF1E1E" />
</svg>