<?xml version="1.0" encoding="UTF-8" ?>
<svg version="1.1" width="216" height="128" xmlns="http://www.w3.org/2000/svg" shape-rendering="crispEdges">
<rect x="0" y="0" width="216" height="79" fill="#2E222F" />
<rect x="0" y="79" width="93" height="1" fill="#2E222F" />
<rect x="93" y="79" width="1" height="2" fill="#323353" />
<rect x="94" y="79" width="122" height="2" fill="#2E222F" />
<rect x="0" y="80" width="92" height="2" fill="#2E222F" />
<rect x="92" y="80" width="1" height="28" fill="#323353" />
<rect x="93" y="81" width="20" height="1" fill="#2E222F" />
<rect x="113" y="81" width="2" height="2" fill="#323353" />
<rect x="115" y="81" width="101" height="7" fill="#2E222F" />
<rect x="0" y="82" width="91" height="7" fill="#2E222F" />
<rect x="91" y="82" width="1" height="27" fill="#323353" />
<rect x="93" y="82" width="19" height="4" fill="#2E222F" />
<rect x="112" y="82" width="1" height="27" fill="#323353" />
<rect x="113" y="83" width="1" height="4" fill="#323353" />
<rect x="114" y="83" width="1" height="10" fill="#2E222F" />
<rect x="93" y="86" width="18" height="4" fill="#2E222F" />
<rect x="111" y="86" width="1" height="22" fill="#323353" />
<rect x="113" y="87" width="1" height="4" fill="#2E222F" />
<rect x="115" y="88" width="22" height="1" fill="#2E222F" />
<rect x="137" y="88" width="2" height="2" fill="#323353" />
<rect x="139" y="88" width="22" height="1" fill="#2E222F" />
<rect x="161" y="88" width="1" height="1" fill="#323353" />
<rect x="162" y="88" width="54" height="3" fill="#2E222F" />
<rect x="0" y="89" width="90" height="1" fill="#2E222F" />
<rect x="90" y="89" width="1" height="20" fill="#323353" />
<rect x="115" y="89" width="21" height="1" fill="#2E222F" />
<rect x="136" y="89" width="1" height="4" fill="#323353" />
<rect x="139" y="89" width="21" height="2" fill="#2E222F" />
<rect x="160" y="89" width="1" height="2" fill="#323353" />
<rect x="161" y="89" width="1" height="5" fill="#2E222F" />
<rect x="0" y="90" width="89" height="2" fill="#2E222F" />
<rect x="89" y="90" width="1" height="18" fill="#323353" />
<rect x="93" y="90" width="17" height="1" fill="#2E222F" />
<rect x="110" y="90" width="1" height="18" fill="#323353" />
<rect x="115" y="90" width="20" height="1" fill="#2E222F" />
<rect x="135" y="90" width="1" height="22" fill="#323353" />
<rect x="137" y="90" width="1" height="1" fill="#323353" />
<rect x="138" y="90" width="1" height="7" fill="#2E222F" />
<rect x="93" y="91" width="1" height="16" fill="#323353" />
<rect x="94" y="91" width="16" height="1" fill="#2E222F" />
<rect x="113" y="91" width="1" height="17" fill="#323353" />
<rect x="115" y="91" width="19" height="1" fill="#2E222F" />
<rect x="134" y="91" width="1" height="20" fill="#323353" />
<rect x="137" y="91" width="1" height="6" fill="#2E222F" />
<rect x="139" y="91" width="20" height="7" fill="#2E222F" />
<rect x="159" y="91" width="1" height="4" fill="#323353" />
<rect x="160" y="91" width="1" height="1" fill="#2E222F" />
<rect x="162" y="91" width="24" height="4" fill="#2E222F" />
<rect x="186" y="91" width="3" height="1" fill="#323353" />
<rect x="189" y="91" width="27" height="7" fill="#2E222F" />
<rect x="0" y="92" width="55" height="2" fill="#2E222F" />
<rect x="55" y="92" width="2" height="3" fill="#323353" />
<rect x="57" y="92" width="31" height="1" fill="#2E222F" />
<rect x="88" y="92" width="1" height="17" fill="#323353" />
<rect x="94" y="92" width="15" height="3" fill="#2E222F" />
<rect x="109" y="92" width="1" height="17" fill="#323353" />
<rect x="115" y="92" width="18" height="2" fill="#2E222F" />
<rect x="133" y="92" width="1" height="20" fill="#323353" />
<rect x="160" y="92" width="1" height="28" fill="#323353" />
<rect x="186" y="92" width="2" height="4" fill="#323353" />
<rect x="188" y="92" width="1" height="6" fill="#2E222F" />
<rect x="57" y="93" width="17" height="1" fill="#2E222F" />
<rect x="74" y="93" width="1" height="1" fill="#323353" />
<rect x="75" y="93" width="13" height="1" fill="#2E222F" />
<rect x="114" y="93" width="1" height="16" fill="#323353" />
<rect x="136" y="93" width="1" height="4" fill="#2E222F" />
<rect x="0" y="94" width="29" height="2" fill="#2E222F" />
<rect x="29" y="94" width="1" height="2" fill="#323353" />
<rect x="30" y="94" width="24" height="1" fill="#2E222F" />
<rect x="54" y="94" width="1" height="24" fill="#323353" />
<rect x="57" y="94" width="16" height="1" fill="#2E222F" />
<rect x="73" y="94" width="1" height="1" fill="#323353" />
<rect x="74" y="94" width="13" height="2" fill="#2E222F" />
<rect x="87" y="94" width="1" height="14" fill="#323353" />
<rect x="115" y="94" width="1" height="16" fill="#323353" />
<rect x="116" y="94" width="16" height="1" fill="#2E222F" />
<rect x="132" y="94" width="1" height="17" fill="#323353" />
<rect x="161" y="94" width="1" height="26" fill="#323353" />
<rect x="30" y="95" width="23" height="2" fill="#2E222F" />
<rect x="53" y="95" width="1" height="22" fill="#323353" />
<rect x="55" y="95" width="1" height="22" fill="#323353" />
<rect x="56" y="95" width="16" height="3" fill="#2E222F" />
<rect x="72" y="95" width="1" height="17" fill="#323353" />
<rect x="73" y="95" width="1" height="4" fill="#2E222F" />
<rect x="94" y="95" width="6" height="12" fill="#323353" />
<rect x="100" y="95" width="8" height="1" fill="#2E222F" />
<rect x="108" y="95" width="1" height="13" fill="#323353" />
<rect x="116" y="95" width="11" height="14" fill="#323353" />
<rect x="127" y="95" width="5" height="1" fill="#2E222F" />
<rect x="159" y="95" width="1" height="7" fill="#2E222F" />
<rect x="162" y="95" width="1" height="26" fill="#323353" />
<rect x="163" y="95" width="23" height="2" fill="#2E222F" />
<rect x="0" y="96" width="28" height="2" fill="#2E222F" />
<rect x="28" y="96" width="1" height="3" fill="#323353" />
<rect x="29" y="96" width="1" height="11" fill="#2E222F" />
<rect x="74" y="96" width="9" height="1" fill="#2E222F" />
<rect x="83" y="96" width="4" height="12" fill="#323353" />
<rect x="100" y="96" width="8" height="12" fill="#323353" />
<rect x="127" y="96" width="5" height="16" fill="#323353" />
<rect x="186" y="96" width="1" height="11" fill="#2E222F" />
<rect x="187" y="96" width="1" height="32" fill="#323353" />
<rect x="30" y="97" width="22" height="2" fill="#2E222F" />
<rect x="52" y="97" width="1" height="21" fill="#323353" />
<rect x="74" y="97" width="3" height="1" fill="#2E222F" />
<rect x="77" y="97" width="6" height="11" fill="#323353" />
<rect x="136" y="97" width="3" height="14" fill="#323353" />
<rect x="163" y="97" width="1" height="24" fill="#323353" />
<rect x="164" y="97" width="22" height="2" fill="#2E222F" />
<rect x="0" y="98" width="27" height="2" fill="#2E222F" />
<rect x="27" y="98" width="1" height="6" fill="#323353" />
<rect x="56" y="98" width="15" height="1" fill="#2E222F" />
<rect x="71" y="98" width="1" height="15" fill="#323353" />
<rect x="74" y="98" width="3" height="12" fill="#323353" />
<rect x="139" y="98" width="3" height="13" fill="#323353" />
<rect x="142" y="98" width="17" height="1" fill="#2E222F" />
<rect x="188" y="98" width="1" height="30" fill="#323353" />
<rect x="189" y="98" width="19" height="2" fill="#2E222F" />
<rect x="208" y="98" width="1" height="7" fill="#323353" />
<rect x="209" y="98" width="7" height="3" fill="#2E222F" />
<rect x="28" y="99" width="1" height="9" fill="#2E222F" />
<rect x="30" y="99" width="21" height="3" fill="#2E222F" />
<rect x="51" y="99" width="1" height="18" fill="#323353" />
<rect x="56" y="99" width="12" height="1" fill="#2E222F" />
<rect x="68" y="99" width="3" height="13" fill="#323353" />
<rect x="73" y="99" width="1" height="12" fill="#323353" />
<rect x="142" y="99" width="6" height="12" fill="#323353" />
<rect x="148" y="99" width="11" height="1" fill="#2E222F" />
<rect x="164" y="99" width="1" height="21" fill="#323353" />
<rect x="165" y="99" width="21" height="3" fill="#2E222F" />
<rect x="0" y="100" width="7" height="2" fill="#2E222F" />
<rect x="7" y="100" width="1" height="3" fill="#323353" />
<rect x="8" y="100" width="18" height="2" fill="#2E222F" />
<rect x="26" y="100" width="1" height="27" fill="#323353" />
<rect x="56" y="100" width="8" height="1" fill="#2E222F" />
<rect x="64" y="100" width="4" height="14" fill="#323353" />
<rect x="148" y="100" width="4" height="11" fill="#323353" />
<rect x="152" y="100" width="7" height="1" fill="#2E222F" />
<rect x="189" y="100" width="1" height="28" fill="#323353" />
<rect x="190" y="100" width="18" height="2" fill="#2E222F" />
<rect x="56" y="101" width="2" height="1" fill="#2E222F" />
<rect x="58" y="101" width="6" height="15" fill="#323353" />
<rect x="152" y="101" width="6" height="10" fill="#323353" />
<rect x="158" y="101" width="1" height="1" fill="#2E222F" />
<rect x="209" y="101" width="1" height="6" fill="#323353" />
<rect x="210" y="101" width="6" height="1" fill="#2E222F" />
<rect x="0" y="102" width="6" height="2" fill="#2E222F" />
<rect x="6" y="102" width="1" height="3" fill="#323353" />
<rect x="8" y="102" width="17" height="3" fill="#2E222F" />
<rect x="25" y="102" width="1" height="26" fill="#323353" />
<rect x="30" y="102" width="20" height="2" fill="#2E222F" />
<rect x="50" y="102" width="1" height="15" fill="#323353" />
<rect x="56" y="102" width="2" height="15" fill="#323353" />
<rect x="158" y="102" width="2" height="15" fill="#323353" />
<rect x="165" y="102" width="1" height="19" fill="#323353" />
<rect x="166" y="102" width="20" height="2" fill="#2E222F" />
<rect x="190" y="102" width="1" height="26" fill="#323353" />
<rect x="191" y="102" width="17" height="3" fill="#2E222F" />
<rect x="210" y="102" width="1" height="26" fill="#323353" />
<rect x="211" y="102" width="5" height="3" fill="#2E222F" />
<rect x="7" y="103" width="1" height="5" fill="#2E222F" />
<rect x="0" y="104" width="5" height="1" fill="#2E222F" />
<rect x="5" y="104" width="1" height="24" fill="#323353" />
<rect x="27" y="104" width="1" height="4" fill="#2E222F" />
<rect x="30" y="104" width="15" height="1" fill="#2E222F" />
<rect x="45" y="104" width="5" height="13" fill="#323353" />
<rect x="166" y="104" width="5" height="16" fill="#323353" />
<rect x="171" y="104" width="15" height="1" fill="#2E222F" />
<rect x="0" y="105" width="4" height="2" fill="#2E222F" />
<rect x="4" y="105" width="1" height="23" fill="#323353" />
<rect x="6" y="105" width="1" height="1" fill="#2E222F" />
<rect x="8" y="105" width="16" height="3" fill="#2E222F" />
<rect x="24" y="105" width="1" height="23" fill="#323353" />
<rect x="30" y="105" width="9" height="1" fill="#2E222F" />
<rect x="39" y="105" width="6" height="12" fill="#323353" />
<rect x="171" y="105" width="6" height="15" fill="#323353" />
<rect x="177" y="105" width="9" height="1" fill="#2E222F" />
<rect x="191" y="105" width="1" height="23" fill="#323353" />
<rect x="192" y="105" width="17" height="3" fill="#2E222F" />
<rect x="211" y="105" width="1" height="23" fill="#323353" />
<rect x="212" y="105" width="4" height="1" fill="#2E222F" />
<rect x="6" y="106" width="1" height="5" fill="#323353" />
<rect x="30" y="106" width="3" height="1" fill="#2E222F" />
<rect x="33" y="106" width="6" height="11" fill="#323353" />
<rect x="177" y="106" width="6" height="16" fill="#323353" />
<rect x="183" y="106" width="3" height="1" fill="#2E222F" />
<rect x="212" y="106" width="1" height="22" fill="#323353" />
<rect x="213" y="106" width="3" height="1" fill="#2E222F" />
<rect x="0" y="107" width="3" height="3" fill="#2E222F" />
<rect x="3" y="107" width="1" height="21" fill="#323353" />
<rect x="29" y="107" width="4" height="15" fill="#323353" />
<rect x="93" y="107" width="1" height="1" fill="#4D65B4" />
<rect x="94" y="107" width="1" height="1" fill="#323353" />
<rect x="95" y="107" width="1" height="1" fill="#4D65B4" />
<rect x="96" y="107" width="1" height="1" fill="#323353" />
<rect x="97" y="107" width="1" height="1" fill="#4D65B4" />
<rect x="98" y="107" width="1" height="1" fill="#323353" />
<rect x="99" y="107" width="1" height="1" fill="#4D65B4" />
<rect x="183" y="107" width="4" height="18" fill="#323353" />
<rect x="209" y="107" width="1" height="5" fill="#2E222F" />
<rect x="213" y="107" width="1" height="21" fill="#323353" />
<rect x="214" y="107" width="2" height="2" fill="#2E222F" />
<rect x="7" y="108" width="2" height="1" fill="#323353" />
<rect x="9" y="108" width="14" height="1" fill="#2E222F" />
<rect x="23" y="108" width="1" height="20" fill="#323353" />
<rect x="27" y="108" width="2" height="17" fill="#323353" />
<rect x="77" y="108" width="1" height="1" fill="#323353" />
<rect x="78" y="108" width="1" height="1" fill="#4D65B4" />
<rect x="79" y="108" width="1" height="1" fill="#323353" />
<rect x="80" y="108" width="2" height="1" fill="#4D65B4" />
<rect x="82" y="108" width="1" height="1" fill="#323353" />
<rect x="83" y="108" width="1" height="1" fill="#4D65B4" />
<rect x="84" y="108" width="1" height="1" fill="#323353" />
<rect x="85" y="108" width="1" height="1" fill="#4D65B4" />
<rect x="86" y="108" width="1" height="1" fill="#323353" />
<rect x="87" y="108" width="1" height="1" fill="#4D65B4" />
<rect x="89" y="108" width="1" height="1" fill="#4D65B4" />
<rect x="92" y="108" width="1" height="1" fill="#4D65B4" />
<rect x="93" y="108" width="1" height="1" fill="#323353" />
<rect x="94" y="108" width="1" height="20" fill="#4D65B4" />
<rect x="95" y="108" width="1" height="1" fill="#323353" />
<rect x="96" y="108" width="1" height="20" fill="#4D65B4" />
<rect x="97" y="108" width="1" height="1" fill="#323353" />
<rect x="98" y="108" width="1" height="20" fill="#4D65B4" />
<rect x="99" y="108" width="1" height="1" fill="#323353" />
<rect x="100" y="108" width="2" height="20" fill="#4D65B4" />
<rect x="102" y="108" width="2" height="1" fill="#323353" />
<rect x="104" y="108" width="1" height="1" fill="#4D65B4" />
<rect x="105" y="108" width="1" height="1" fill="#323353" />
<rect x="106" y="108" width="1" height="1" fill="#4D65B4" />
<rect x="107" y="108" width="1" height="1" fill="#323353" />
<rect x="108" y="108" width="1" height="1" fill="#4D65B4" />
<rect x="110" y="108" width="2" height="1" fill="#4D65B4" />
<rect x="113" y="108" width="1" height="1" fill="#4D65B4" />
<rect x="192" y="108" width="1" height="20" fill="#323353" />
<rect x="193" y="108" width="16" height="1" fill="#2E222F" />
<rect x="7" y="109" width="15" height="1" fill="#2E222F" />
<rect x="22" y="109" width="1" height="19" fill="#323353" />
<rect x="77" y="109" width="1" height="1" fill="#4D65B4" />
<rect x="78" y="109" width="1" height="1" fill="#323353" />
<rect x="79" y="109" width="1" height="1" fill="#4D65B4" />
<rect x="80" y="109" width="2" height="1" fill="#323353" />
<rect x="82" y="109" width="1" height="1" fill="#4D65B4" />
<rect x="83" y="109" width="1" height="1" fill="#323353" />
<rect x="84" y="109" width="1" height="19" fill="#4D65B4" />
<rect x="85" y="109" width="1" height="1" fill="#323353" />
<rect x="86" y="109" width="1" height="19" fill="#4D65B4" />
<rect x="87" y="109" width="1" height="1" fill="#323353" />
<rect x="88" y="109" width="1" height="19" fill="#4D65B4" />
<rect x="89" y="109" width="1" height="1" fill="#323353" />
<rect x="90" y="109" width="2" height="19" fill="#4D65B4" />
<rect x="92" y="109" width="1" height="1" fill="#323353" />
<rect x="93" y="109" width="1" height="19" fill="#4D65B4" />
<rect x="95" y="109" width="1" height="19" fill="#4D65B4" />
<rect x="97" y="109" width="1" height="19" fill="#4D65B4" />
<rect x="99" y="109" width="1" height="19" fill="#4D65B4" />
<rect x="102" y="109" width="2" height="19" fill="#4D65B4" />
<rect x="104" y="109" width="1" height="1" fill="#323353" />
<rect x="105" y="109" width="1" height="19" fill="#4D65B4" />
<rect x="106" y="109" width="1" height="1" fill="#323353" />
<rect x="107" y="109" width="1" height="19" fill="#4D65B4" />
<rect x="108" y="109" width="1" height="1" fill="#323353" />
<rect x="109" y="109" width="1" height="19" fill="#4D65B4" />
<rect x="110" y="109" width="2" height="1" fill="#323353" />
<rect x="112" y="109" width="1" height="19" fill="#4D65B4" />
<rect x="113" y="109" width="1" height="1" fill="#323353" />
<rect x="114" y="109" width="1" height="1" fill="#4D65B4" />
<rect x="116" y="109" width="1" height="1" fill="#4D65B4" />
<rect x="117" y="109" width="10" height="1" fill="#323353" />
<rect x="193" y="109" width="1" height="19" fill="#323353" />
<rect x="194" y="109" width="15" height="1" fill="#2E222F" />
<rect x="214" y="109" width="1" height="19" fill="#323353" />
<rect x="215" y="109" width="1" height="2" fill="#2E222F" />
<rect x="0" y="110" width="2" height="1" fill="#2E222F" />
<rect x="2" y="110" width="1" height="18" fill="#323353" />
<rect x="7" y="110" width="10" height="1" fill="#2E222F" />
<rect x="17" y="110" width="5" height="18" fill="#323353" />
<rect x="74" y="110" width="2" height="1" fill="#323353" />
<rect x="76" y="110" width="1" height="1" fill="#4D65B4" />
<rect x="77" y="110" width="1" height="1" fill="#323353" />
<rect x="78" y="110" width="1" height="18" fill="#4D65B4" />
<rect x="79" y="110" width="1" height="1" fill="#323353" />
<rect x="80" y="110" width="2" height="18" fill="#4D65B4" />
<rect x="82" y="110" width="1" height="1" fill="#323353" />
<rect x="83" y="110" width="1" height="18" fill="#4D65B4" />
<rect x="85" y="110" width="1" height="18" fill="#4D65B4" />
<rect x="87" y="110" width="1" height="18" fill="#4D65B4" />
<rect x="89" y="110" width="1" height="18" fill="#4D65B4" />
<rect x="92" y="110" width="1" height="18" fill="#4D65B4" />
<rect x="104" y="110" width="1" height="18" fill="#4D65B4" />
<rect x="106" y="110" width="1" height="18" fill="#4D65B4" />
<rect x="108" y="110" width="1" height="18" fill="#4D65B4" />
<rect x="110" y="110" width="2" height="18" fill="#4D65B4" />
<rect x="113" y="110" width="1" height="18" fill="#4D65B4" />
<rect x="114" y="110" width="1" height="1" fill="#323353" />
<rect x="115" y="110" width="1" height="18" fill="#4D65B4" />
<rect x="116" y="110" width="1" height="1" fill="#323353" />
<rect x="117" y="110" width="1" height="1" fill="#4D65B4" />
<rect x="118" y="110" width="1" height="1" fill="#323353" />
<rect x="119" y="110" width="1" height="1" fill="#4D65B4" />
<rect x="120" y="110" width="2" height="1" fill="#323353" />
<rect x="122" y="110" width="1" height="1" fill="#4D65B4" />
<rect x="123" y="110" width="4" height="1" fill="#323353" />
<rect x="194" y="110" width="5" height="18" fill="#323353" />
<rect x="199" y="110" width="10" height="1" fill="#2E222F" />
<rect x="0" y="111" width="2" height="17" fill="#323353" />
<rect x="6" y="111" width="7" height="1" fill="#2E222F" />
<rect x="13" y="111" width="4" height="17" fill="#323353" />
<rect x="73" y="111" width="1" height="1" fill="#4D65B4" />
<rect x="74" y="111" width="1" height="1" fill="#323353" />
<rect x="75" y="111" width="1" height="1" fill="#4D65B4" />
<rect x="76" y="111" width="1" height="1" fill="#323353" />
<rect x="77" y="111" width="1" height="17" fill="#4D65B4" />
<rect x="79" y="111" width="1" height="17" fill="#4D65B4" />
<rect x="82" y="111" width="1" height="17" fill="#4D65B4" />
<rect x="114" y="111" width="1" height="17" fill="#4D65B4" />
<rect x="116" y="111" width="1" height="17" fill="#4D65B4" />
<rect x="117" y="111" width="1" height="1" fill="#323353" />
<rect x="118" y="111" width="1" height="17" fill="#4D65B4" />
<rect x="119" y="111" width="1" height="1" fill="#323353" />
<rect x="120" y="111" width="2" height="17" fill="#4D65B4" />
<rect x="122" y="111" width="1" height="1" fill="#323353" />
<rect x="123" y="111" width="1" height="1" fill="#4D65B4" />
<rect x="124" y="111" width="1" height="1" fill="#323353" />
<rect x="125" y="111" width="1" height="1" fill="#4D65B4" />
<rect x="126" y="111" width="1" height="1" fill="#323353" />
<rect x="132" y="111" width="1" height="1" fill="#4D65B4" />
<rect x="134" y="111" width="1" height="17" fill="#4D65B4" />
<rect x="136" y="111" width="1" height="17" fill="#4D65B4" />
<rect x="137" y="111" width="1" height="1" fill="#323353" />
<rect x="138" y="111" width="1" height="17" fill="#4D65B4" />
<rect x="139" y="111" width="1" height="1" fill="#323353" />
<rect x="140" y="111" width="2" height="17" fill="#4D65B4" />
<rect x="142" y="111" width="1" height="1" fill="#323353" />
<rect x="143" y="111" width="1" height="1" fill="#4D65B4" />
<rect x="144" y="111" width="1" height="1" fill="#323353" />
<rect x="145" y="111" width="1" height="1" fill="#4D65B4" />
<rect x="146" y="111" width="1" height="1" fill="#323353" />
<rect x="147" y="111" width="1" height="1" fill="#4D65B4" />
<rect x="148" y="111" width="1" height="1" fill="#323353" />
<rect x="149" y="111" width="1" height="1" fill="#4D65B4" />
<rect x="150" y="111" width="2" height="1" fill="#323353" />
<rect x="152" y="111" width="1" height="1" fill="#4D65B4" />
<rect x="153" y="111" width="5" height="1" fill="#323353" />
<rect x="199" y="111" width="4" height="17" fill="#323353" />
<rect x="203" y="111" width="6" height="1" fill="#2E222F" />
<rect x="215" y="111" width="1" height="17" fill="#323353" />
<rect x="6" y="112" width="7" height="16" fill="#323353" />
<rect x="68" y="112" width="1" height="1" fill="#323353" />
<rect x="69" y="112" width="1" height="1" fill="#4D65B4" />
<rect x="70" y="112" width="1" height="1" fill="#323353" />
<rect x="72" y="112" width="1" height="1" fill="#4D65B4" />
<rect x="73" y="112" width="1" height="1" fill="#323353" />
<rect x="74" y="112" width="1" height="1" fill="#4D65B4" />
<rect x="75" y="112" width="1" height="1" fill="#323353" />
<rect x="76" y="112" width="1" height="16" fill="#4D65B4" />
<rect x="117" y="112" width="1" height="16" fill="#4D65B4" />
<rect x="119" y="112" width="1" height="16" fill="#4D65B4" />
<rect x="122" y="112" width="1" height="16" fill="#4D65B4" />
<rect x="123" y="112" width="1" height="1" fill="#323353" />
<rect x="124" y="112" width="1" height="16" fill="#4D65B4" />
<rect x="125" y="112" width="1" height="1" fill="#323353" />
<rect x="126" y="112" width="1" height="1" fill="#4D65B4" />
<rect x="127" y="112" width="3" height="1" fill="#323353" />
<rect x="130" y="112" width="2" height="16" fill="#4D65B4" />
<rect x="132" y="112" width="1" height="1" fill="#323353" />
<rect x="133" y="112" width="1" height="16" fill="#4D65B4" />
<rect x="135" y="112" width="1" height="16" fill="#4D65B4" />
<rect x="137" y="112" width="1" height="16" fill="#4D65B4" />
<rect x="139" y="112" width="1" height="16" fill="#4D65B4" />
<rect x="142" y="112" width="1" height="16" fill="#4D65B4" />
<rect x="143" y="112" width="1" height="1" fill="#323353" />
<rect x="144" y="112" width="1" height="16" fill="#4D65B4" />
<rect x="145" y="112" width="1" height="1" fill="#323353" />
<rect x="146" y="112" width="1" height="16" fill="#4D65B4" />
<rect x="147" y="112" width="1" height="1" fill="#323353" />
<rect x="148" y="112" width="1" height="1" fill="#4D65B4" />
<rect x="149" y="112" width="1" height="1" fill="#323353" />
<rect x="150" y="112" width="2" height="1" fill="#4D65B4" />
<rect x="152" y="112" width="1" height="1" fill="#323353" />
<rect x="153" y="112" width="1" height="1" fill="#4D65B4" />
<rect x="154" y="112" width="4" height="1" fill="#323353" />
<rect x="203" y="112" width="7" height="16" fill="#323353" />
<rect x="68" y="113" width="1" height="1" fill="#4D65B4" />
<rect x="69" y="113" width="1" height="1" fill="#323353" />
<rect x="70" y="113" width="2" height="1" fill="#4D65B4" />
<rect x="72" y="113" width="1" height="1" fill="#323353" />
<rect x="73" y="113" width="1" height="15" fill="#4D65B4" />
<rect x="74" y="113" width="1" height="1" fill="#323353" />
<rect x="75" y="113" width="1" height="15" fill="#4D65B4" />
<rect x="123" y="113" width="1" height="15" fill="#4D65B4" />
<rect x="125" y="113" width="1" height="15" fill="#4D65B4" />
<rect x="126" y="113" width="1" height="1" fill="#323353" />
<rect x="127" y="113" width="3" height="15" fill="#4D65B4" />
<rect x="132" y="113" width="1" height="15" fill="#4D65B4" />
<rect x="143" y="113" width="1" height="15" fill="#4D65B4" />
<rect x="145" y="113" width="1" height="15" fill="#4D65B4" />
<rect x="147" y="113" width="1" height="15" fill="#4D65B4" />
<rect x="148" y="113" width="1" height="1" fill="#323353" />
<rect x="149" y="113" width="1" height="15" fill="#4D65B4" />
<rect x="150" y="113" width="2" height="1" fill="#323353" />
<rect x="152" y="113" width="1" height="1" fill="#4D65B4" />
<rect x="153" y="113" width="1" height="1" fill="#323353" />
<rect x="154" y="113" width="1" height="1" fill="#4D65B4" />
<rect x="155" y="113" width="3" height="1" fill="#323353" />
<rect x="64" y="114" width="3" height="1" fill="#323353" />
<rect x="67" y="114" width="1" height="1" fill="#4D65B4" />
<rect x="68" y="114" width="1" height="1" fill="#323353" />
<rect x="69" y="114" width="1" height="1" fill="#4D65B4" />
<rect x="70" y="114" width="2" height="1" fill="#323353" />
<rect x="72" y="114" width="1" height="14" fill="#4D65B4" />
<rect x="74" y="114" width="1" height="14" fill="#4D65B4" />
<rect x="126" y="114" width="1" height="14" fill="#4D65B4" />
<rect x="148" y="114" width="1" height="14" fill="#4D65B4" />
<rect x="150" y="114" width="2" height="14" fill="#4D65B4" />
<rect x="152" y="114" width="1" height="1" fill="#323353" />
<rect x="153" y="114" width="1" height="14" fill="#4D65B4" />
<rect x="154" y="114" width="1" height="1" fill="#323353" />
<rect x="155" y="114" width="1" height="1" fill="#4D65B4" />
<rect x="156" y="114" width="2" height="1" fill="#323353" />
<rect x="64" y="115" width="1" height="1" fill="#4D65B4" />
<rect x="65" y="115" width="1" height="1" fill="#323353" />
<rect x="66" y="115" width="1" height="1" fill="#4D65B4" />
<rect x="67" y="115" width="1" height="1" fill="#323353" />
<rect x="68" y="115" width="1" height="1" fill="#4D65B4" />
<rect x="69" y="115" width="1" height="1" fill="#323353" />
<rect x="70" y="115" width="2" height="13" fill="#4D65B4" />
<rect x="152" y="115" width="1" height="13" fill="#4D65B4" />
<rect x="154" y="115" width="1" height="13" fill="#4D65B4" />
<rect x="155" y="115" width="1" height="1" fill="#323353" />
<rect x="156" y="115" width="1" height="1" fill="#4D65B4" />
<rect x="157" y="115" width="1" height="1" fill="#323353" />
<rect x="58" y="116" width="5" height="1" fill="#323353" />
<rect x="63" y="116" width="1" height="1" fill="#4D65B4" />
<rect x="64" y="116" width="1" height="1" fill="#323353" />
<rect x="65" y="116" width="1" height="1" fill="#4D65B4" />
<rect x="66" y="116" width="1" height="1" fill="#323353" />
<rect x="67" y="116" width="1" height="12" fill="#4D65B4" />
<rect x="68" y="116" width="1" height="1" fill="#323353" />
<rect x="69" y="116" width="1" height="12" fill="#4D65B4" />
<rect x="155" y="116" width="1" height="12" fill="#4D65B4" />
<rect x="156" y="116" width="1" height="1" fill="#323353" />
<rect x="157" y="116" width="1" height="1" fill="#4D65B4" />
<rect x="33" y="117" width="4" height="1" fill="#323353" />
<rect x="37" y="117" width="1" height="1" fill="#4D65B4" />
<rect x="38" y="117" width="1" height="1" fill="#323353" />
<rect x="39" y="117" width="1" height="1" fill="#4D65B4" />
<rect x="40" y="117" width="2" height="1" fill="#323353" />
<rect x="42" y="117" width="1" height="1" fill="#4D65B4" />
<rect x="43" y="117" width="1" height="1" fill="#323353" />
<rect x="44" y="117" width="1" height="1" fill="#4D65B4" />
<rect x="45" y="117" width="1" height="1" fill="#323353" />
<rect x="46" y="117" width="1" height="1" fill="#4D65B4" />
<rect x="47" y="117" width="1" height="1" fill="#323353" />
<rect x="48" y="117" width="1" height="1" fill="#4D65B4" />
<rect x="49" y="117" width="1" height="1" fill="#323353" />
<rect x="50" y="117" width="2" height="1" fill="#4D65B4" />
<rect x="53" y="117" width="1" height="1" fill="#4D65B4" />
<rect x="55" y="117" width="1" height="1" fill="#4D65B4" />
<rect x="56" y="117" width="1" height="1" fill="#323353" />
<rect x="57" y="117" width="1" height="1" fill="#4D65B4" />
<rect x="58" y="117" width="1" height="1" fill="#323353" />
<rect x="59" y="117" width="1" height="1" fill="#4D65B4" />
<rect x="60" y="117" width="2" height="1" fill="#323353" />
<rect x="62" y="117" width="1" height="1" fill="#4D65B4" />
<rect x="63" y="117" width="1" height="1" fill="#323353" />
<rect x="64" y="117" width="1" height="11" fill="#4D65B4" />
<rect x="65" y="117" width="1" height="1" fill="#323353" />
<rect x="66" y="117" width="1" height="11" fill="#4D65B4" />
<rect x="68" y="117" width="1" height="11" fill="#4D65B4" />
<rect x="156" y="117" width="1" height="11" fill="#4D65B4" />
<rect x="157" y="117" width="1" height="1" fill="#323353" />
<rect x="158" y="117" width="1" height="11" fill="#4D65B4" />
<rect x="159" y="117" width="1" height="2" fill="#323353" />
<rect x="33" y="118" width="3" height="1" fill="#323353" />
<rect x="36" y="118" width="1" height="1" fill="#4D65B4" />
<rect x="37" y="118" width="1" height="1" fill="#323353" />
<rect x="38" y="118" width="1" height="1" fill="#4D65B4" />
<rect x="39" y="118" width="1" height="1" fill="#323353" />
<rect x="40" y="118" width="2" height="1" fill="#4D65B4" />
<rect x="42" y="118" width="1" height="1" fill="#323353" />
<rect x="43" y="118" width="1" height="1" fill="#4D65B4" />
<rect x="44" y="118" width="1" height="1" fill="#323353" />
<rect x="45" y="118" width="1" height="1" fill="#4D65B4" />
<rect x="46" y="118" width="1" height="1" fill="#323353" />
<rect x="47" y="118" width="1" height="10" fill="#4D65B4" />
<rect x="48" y="118" width="1" height="1" fill="#323353" />
<rect x="49" y="118" width="1" height="10" fill="#4D65B4" />
<rect x="50" y="118" width="2" height="1" fill="#323353" />
<rect x="52" y="118" width="1" height="10" fill="#4D65B4" />
<rect x="53" y="118" width="1" height="1" fill="#323353" />
<rect x="54" y="118" width="1" height="10" fill="#4D65B4" />
<rect x="55" y="118" width="1" height="1" fill="#323353" />
<rect x="56" y="118" width="1" height="10" fill="#4D65B4" />
<rect x="57" y="118" width="1" height="1" fill="#323353" />
<rect x="58" y="118" width="1" height="10" fill="#4D65B4" />
<rect x="59" y="118" width="1" height="1" fill="#323353" />
<rect x="60" y="118" width="2" height="10" fill="#4D65B4" />
<rect x="62" y="118" width="1" height="1" fill="#323353" />
<rect x="63" y="118" width="1" height="10" fill="#4D65B4" />
<rect x="65" y="118" width="1" height="10" fill="#4D65B4" />
<rect x="157" y="118" width="1" height="10" fill="#4D65B4" />
<rect x="33" y="119" width="2" height="1" fill="#323353" />
<rect x="35" y="119" width="1" height="1" fill="#4D65B4" />
<rect x="36" y="119" width="1" height="1" fill="#323353" />
<rect x="37" y="119" width="1" height="1" fill="#4D65B4" />
<rect x="38" y="119" width="1" height="1" fill="#323353" />
<rect x="39" y="119" width="1" height="9" fill="#4D65B4" />
<rect x="40" y="119" width="2" height="1" fill="#323353" />
<rect x="42" y="119" width="1" height="9" fill="#4D65B4" />
<rect x="43" y="119" width="1" height="1" fill="#323353" />
<rect x="44" y="119" width="1" height="9" fill="#4D65B4" />
<rect x="45" y="119" width="1" height="1" fill="#323353" />
<rect x="46" y="119" width="1" height="9" fill="#4D65B4" />
<rect x="48" y="119" width="1" height="9" fill="#4D65B4" />
<rect x="50" y="119" width="2" height="9" fill="#4D65B4" />
<rect x="53" y="119" width="1" height="9" fill="#4D65B4" />
<rect x="55" y="119" width="1" height="9" fill="#4D65B4" />
<rect x="57" y="119" width="1" height="9" fill="#4D65B4" />
<rect x="59" y="119" width="1" height="9" fill="#4D65B4" />
<rect x="62" y="119" width="1" height="9" fill="#4D65B4" />
<rect x="159" y="119" width="1" height="1" fill="#4D65B4" />
<rect x="33" y="120" width="1" height="1" fill="#323353" />
<rect x="34" y="120" width="1" height="1" fill="#4D65B4" />
<rect x="35" y="120" width="1" height="1" fill="#323353" />
<rect x="36" y="120" width="1" height="1" fill="#4D65B4" />
<rect x="37" y="120" width="1" height="1" fill="#323353" />
<rect x="38" y="120" width="1" height="8" fill="#4D65B4" />
<rect x="40" y="120" width="2" height="8" fill="#4D65B4" />
<rect x="43" y="120" width="1" height="8" fill="#4D65B4" />
<rect x="45" y="120" width="1" height="8" fill="#4D65B4" />
<rect x="159" y="120" width="1" height="1" fill="#323353" />
<rect x="160" y="120" width="2" height="8" fill="#4D65B4" />
<rect x="164" y="120" width="1" height="1" fill="#4D65B4" />
<rect x="166" y="120" width="1" height="1" fill="#4D65B4" />
<rect x="167" y="120" width="1" height="1" fill="#323353" />
<rect x="168" y="120" width="1" height="1" fill="#4D65B4" />
<rect x="169" y="120" width="1" height="1" fill="#323353" />
<rect x="170" y="120" width="2" height="1" fill="#4D65B4" />
<rect x="172" y="120" width="1" height="1" fill="#323353" />
<rect x="173" y="120" width="1" height="1" fill="#4D65B4" />
<rect x="174" y="120" width="1" height="1" fill="#323353" />
<rect x="175" y="120" width="1" height="1" fill="#4D65B4" />
<rect x="176" y="120" width="1" height="1" fill="#323353" />
<rect x="33" y="121" width="1" height="1" fill="#4D65B4" />
<rect x="34" y="121" width="1" height="1" fill="#323353" />
<rect x="35" y="121" width="1" height="7" fill="#4D65B4" />
<rect x="36" y="121" width="1" height="1" fill="#323353" />
<rect x="37" y="121" width="1" height="7" fill="#4D65B4" />
<rect x="159" y="121" width="1" height="7" fill="#4D65B4" />
<rect x="162" y="121" width="2" height="7" fill="#4D65B4" />
<rect x="164" y="121" width="1" height="1" fill="#323353" />
<rect x="165" y="121" width="1" height="1" fill="#4D65B4" />
<rect x="166" y="121" width="1" height="1" fill="#323353" />
<rect x="167" y="121" width="1" height="1" fill="#4D65B4" />
<rect x="168" y="121" width="1" height="1" fill="#323353" />
<rect x="169" y="121" width="1" height="1" fill="#4D65B4" />
<rect x="170" y="121" width="2" height="1" fill="#323353" />
<rect x="172" y="121" width="1" height="1" fill="#4D65B4" />
<rect x="173" y="121" width="1" height="1" fill="#323353" />
<rect x="174" y="121" width="1" height="1" fill="#4D65B4" />
<rect x="175" y="121" width="1" height="1" fill="#323353" />
<rect x="176" y="121" width="1" height="1" fill="#4D65B4" />
<rect x="29" y="122" width="3" height="1" fill="#323353" />
<rect x="32" y="122" width="1" height="1" fill="#4D65B4" />
<rect x="33" y="122" width="1" height="1" fill="#323353" />
<rect x="34" y="122" width="1" height="6" fill="#4D65B4" />
<rect x="36" y="122" width="1" height="6" fill="#4D65B4" />
<rect x="164" y="122" width="1" height="6" fill="#4D65B4" />
<rect x="165" y="122" width="1" height="1" fill="#323353" />
<rect x="166" y="122" width="1" height="6" fill="#4D65B4" />
<rect x="167" y="122" width="1" height="1" fill="#323353" />
<rect x="168" y="122" width="1" height="1" fill="#4D65B4" />
<rect x="169" y="122" width="1" height="1" fill="#323353" />
<rect x="170" y="122" width="2" height="1" fill="#4D65B4" />
<rect x="172" y="122" width="1" height="1" fill="#323353" />
<rect x="173" y="122" width="1" height="6" fill="#4D65B4" />
<rect x="174" y="122" width="1" height="1" fill="#323353" />
<rect x="175" y="122" width="1" height="1" fill="#4D65B4" />
<rect x="176" y="122" width="1" height="1" fill="#323353" />
<rect x="177" y="122" width="1" height="1" fill="#4D65B4" />
<rect x="178" y="122" width="5" height="1" fill="#323353" />
<rect x="29" y="123" width="1" height="1" fill="#323353" />
<rect x="30" y="123" width="2" height="1" fill="#4D65B4" />
<rect x="32" y="123" width="1" height="1" fill="#323353" />
<rect x="33" y="123" width="1" height="5" fill="#4D65B4" />
<rect x="165" y="123" width="1" height="5" fill="#4D65B4" />
<rect x="167" y="123" width="1" height="5" fill="#4D65B4" />
<rect x="168" y="123" width="1" height="1" fill="#323353" />
<rect x="169" y="123" width="1" height="5" fill="#4D65B4" />
<rect x="170" y="123" width="2" height="1" fill="#323353" />
<rect x="172" y="123" width="1" height="5" fill="#4D65B4" />
<rect x="174" y="123" width="1" height="5" fill="#4D65B4" />
<rect x="175" y="123" width="1" height="1" fill="#323353" />
<rect x="176" y="123" width="1" height="1" fill="#4D65B4" />
<rect x="177" y="123" width="1" height="1" fill="#323353" />
<rect x="178" y="123" width="1" height="1" fill="#4D65B4" />
<rect x="179" y="123" width="4" height="1" fill="#323353" />
<rect x="29" y="124" width="1" height="1" fill="#4D65B4" />
<rect x="30" y="124" width="2" height="1" fill="#323353" />
<rect x="32" y="124" width="1" height="4" fill="#4D65B4" />
<rect x="168" y="124" width="1" height="4" fill="#4D65B4" />
<rect x="170" y="124" width="2" height="4" fill="#4D65B4" />
<rect x="175" y="124" width="1" height="4" fill="#4D65B4" />
<rect x="176" y="124" width="1" height="1" fill="#323353" />
<rect x="177" y="124" width="1" height="1" fill="#4D65B4" />
<rect x="178" y="124" width="1" height="1" fill="#323353" />
<rect x="179" y="124" width="1" height="1" fill="#4D65B4" />
<rect x="180" y="124" width="2" height="1" fill="#323353" />
<rect x="182" y="124" width="1" height="1" fill="#4D65B4" />
<rect x="27" y="125" width="1" height="1" fill="#323353" />
<rect x="28" y="125" width="1" height="1" fill="#4D65B4" />
<rect x="29" y="125" width="1" height="1" fill="#323353" />
<rect x="30" y="125" width="2" height="3" fill="#4D65B4" />
<rect x="176" y="125" width="1" height="3" fill="#4D65B4" />
<rect x="177" y="125" width="1" height="1" fill="#323353" />
<rect x="178" y="125" width="1" height="1" fill="#4D65B4" />
<rect x="179" y="125" width="1" height="1" fill="#323353" />
<rect x="180" y="125" width="2" height="1" fill="#4D65B4" />
<rect x="182" y="125" width="1" height="1" fill="#323353" />
<rect x="183" y="125" width="1" height="1" fill="#4D65B4" />
<rect x="184" y="125" width="3" height="1" fill="#323353" />
<rect x="27" y="126" width="1" height="1" fill="#4D65B4" />
<rect x="28" y="126" width="1" height="1" fill="#323353" />
<rect x="29" y="126" width="1" height="2" fill="#4D65B4" />
<rect x="177" y="126" width="1" height="2" fill="#4D65B4" />
<rect x="178" y="126" width="1" height="1" fill="#323353" />
<rect x="179" y="126" width="1" height="1" fill="#4D65B4" />
<rect x="180" y="126" width="2" height="1" fill="#323353" />
<rect x="182" y="126" width="1" height="1" fill="#4D65B4" />
<rect x="183" y="126" width="1" height="1" fill="#323353" />
<rect x="184" y="126" width="1" height="1" fill="#4D65B4" />
<rect x="185" y="126" width="2" height="1" fill="#323353" />
<rect x="26" y="127" width="1" height="1" fill="#4D65B4" />
<rect x="27" y="127" width="1" height="1" fill="#323353" />
<rect x="28" y="127" width="1" height="1" fill="#4D65B4" />
<rect x="178" y="127" width="1" height="1" fill="#4D65B4" />
<rect x="179" y="127" width="1" height="1" fill="#323353" />
<rect x="180" y="127" width="2" height="1" fill="#4D65B4" />
<rect x="182" y="127" width="1" height="1" fill="#323353" />
<rect x="183" y="127" width="1" height="1" fill="#4D65B4" />
<rect x="184" y="127" width="1" height="1" fill="#323353" />
<rect x="185" y="127" width="1" height="1" fill="#4D65B4" />
<rect x="186" y="127" width="1" height="1" fill="#323353" />
</svg>