<?xml version="1.0" encoding="UTF-8" ?>
<svg version="1.1" width="216" height="128" xmlns="http://www.w3.org/2000/svg" shape-rendering="crispEdges">
<rect x="37" y="90" width="1" height="1" fill="#8FF8E2" />
<rect x="38" y="90" width="5" height="1" fill="#0EAF9B" />
<rect x="35" y="91" width="1" height="1" fill="#8FF8E2" />
<rect x="36" y="91" width="2" height="1" fill="#FFF6F8" />
<rect x="38" y="91" width="2" height="1" fill="#8FF8E2" />
<rect x="40" y="91" width="4" height="1" fill="#0EAF9B" />
<rect x="35" y="92" width="2" height="1" fill="#FFF6F8" />
<rect x="37" y="92" width="1" height="3" fill="#F9C22B" />
<rect x="38" y="92" width="1" height="1" fill="#FFF6F8" />
<rect x="39" y="92" width="3" height="1" fill="#8FF8E2" />
<rect x="42" y="92" width="3" height="1" fill="#0EAF9B" />
<rect x="34" y="93" width="1" height="8" fill="#8FF8E2" />
<rect x="35" y="93" width="1" height="1" fill="#FFF6F8" />
<rect x="36" y="93" width="1" height="1" fill="#F9C22B" />
<rect x="38" y="93" width="1" height="1" fill="#F9C22B" />
<rect x="39" y="93" width="2" height="10" fill="#8FF8E2" />
<rect x="41" y="93" width="2" height="1" fill="#FFF6F8" />
<rect x="43" y="93" width="1" height="3" fill="#F9C22B" />
<rect x="44" y="93" width="1" height="1" fill="#FFF6F8" />
<rect x="45" y="93" width="1" height="1" fill="#0EAF9B" />
<rect x="33" y="94" width="1" height="7" fill="#0EAF9B" />
<rect x="35" y="94" width="1" height="2" fill="#8FF8E2" />
<rect x="36" y="94" width="1" height="1" fill="#FFF6F8" />
<rect x="38" y="94" width="1" height="9" fill="#8FF8E2" />
<rect x="41" y="94" width="1" height="2" fill="#FFF6F8" />
<rect x="42" y="94" width="1" height="1" fill="#F9C22B" />
<rect x="44" y="94" width="1" height="1" fill="#F9C22B" />
<rect x="45" y="94" width="1" height="8" fill="#8FF8E2" />
<rect x="36" y="95" width="2" height="2" fill="#8FF8E2" />
<rect x="42" y="95" width="1" height="1" fill="#FFF6F8" />
<rect x="44" y="95" width="1" height="3" fill="#8FF8E2" />
<rect x="35" y="96" width="1" height="1" fill="#0EAF9B" />
<rect x="41" y="96" width="3" height="2" fill="#8FF8E2" />
<rect x="46" y="96" width="1" height="1" fill="#0EAF9B" />
<rect x="35" y="97" width="1" height="4" fill="#8FF8E2" />
<rect x="36" y="97" width="1" height="1" fill="#0EAF9B" />
<rect x="37" y="97" width="1" height="5" fill="#8FF8E2" />
<rect x="46" y="97" width="1" height="4" fill="#FFFFFF" />
<rect x="36" y="98" width="1" height="3" fill="#8FF8E2" />
<rect x="41" y="98" width="1" height="4" fill="#8FF8E2" />
<rect x="42" y="98" width="3" height="1" fill="#0EAF9B" />
<rect x="42" y="99" width="3" height="3" fill="#8FF8E2" />
<rect x="34" y="101" width="3" height="1" fill="#0EAF9B" />
<rect x="37" y="102" width="1" height="1" fill="#0EAF9B" />
</svg>