<?xml version="1.0" encoding="UTF-8" ?>
<svg version="1.1" width="216" height="128" xmlns="http://www.w3.org/2000/svg" shape-rendering="crispEdges">
<rect x="82" y="57" width="6" height="3" fill="#831C5D" />
<rect x="79" y="58" width="1" height="1" fill="#831C5D" />
<rect x="80" y="58" width="1" height="1" fill="#C32454" />
<rect x="81" y="58" width="1" height="1" fill="#831C5D" />
<rect x="88" y="58" width="2" height="4" fill="#831C5D" />
<rect x="78" y="59" width="1" height="2" fill="#F04F78" />
<rect x="79" y="59" width="1" height="4" fill="#C32454" />
<rect x="80" y="59" width="1" height="1" fill="#831C5D" />
<rect x="81" y="59" width="1" height="1" fill="#C32454" />
<rect x="90" y="59" width="1" height="5" fill="#831C5D" />
<rect x="77" y="60" width="1" height="1" fill="#F04F78" />
<rect x="80" y="60" width="1" height="4" fill="#C32454" />
<rect x="81" y="60" width="1" height="1" fill="#831C5D" />
<rect x="82" y="60" width="1" height="1" fill="#C32454" />
<rect x="83" y="60" width="1" height="1" fill="#831C5D" />
<rect x="84" y="60" width="1" height="1" fill="#C32454" />
<rect x="85" y="60" width="3" height="1" fill="#831C5D" />
<rect x="91" y="60" width="1" height="3" fill="#831C5D" />
<rect x="76" y="61" width="3" height="2" fill="#C32454" />
<rect x="81" y="61" width="1" height="8" fill="#C32454" />
<rect x="82" y="61" width="1" height="1" fill="#831C5D" />
<rect x="83" y="61" width="1" height="1" fill="#C32454" />
<rect x="84" y="61" width="1" height="1" fill="#831C5D" />
<rect x="85" y="61" width="1" height="1" fill="#C32454" />
<rect x="86" y="61" width="2" height="1" fill="#831C5D" />
<rect x="92" y="61" width="1" height="3" fill="#831C5D" />
<rect x="75" y="62" width="1" height="3" fill="#C32454" />
<rect x="82" y="62" width="1" height="5" fill="#C32454" />
<rect x="83" y="62" width="1" height="1" fill="#831C5D" />
<rect x="84" y="62" width="1" height="1" fill="#C32454" />
<rect x="85" y="62" width="1" height="1" fill="#831C5D" />
<rect x="86" y="62" width="1" height="1" fill="#C32454" />
<rect x="87" y="62" width="1" height="1" fill="#831C5D" />
<rect x="88" y="62" width="1" height="1" fill="#C32454" />
<rect x="89" y="62" width="1" height="1" fill="#831C5D" />
<rect x="93" y="62" width="1" height="3" fill="#831C5D" />
<rect x="170" y="62" width="6" height="1" fill="#831C5D" />
<rect x="74" y="63" width="1" height="3" fill="#C32454" />
<rect x="76" y="63" width="4" height="3" fill="#FFF6F8" />
<rect x="83" y="63" width="1" height="4" fill="#C32454" />
<rect x="84" y="63" width="1" height="1" fill="#831C5D" />
<rect x="85" y="63" width="1" height="3" fill="#C32454" />
<rect x="86" y="63" width="1" height="1" fill="#831C5D" />
<rect x="87" y="63" width="1" height="1" fill="#C32454" />
<rect x="88" y="63" width="1" height="1" fill="#831C5D" />
<rect x="89" y="63" width="1" height="1" fill="#C32454" />
<rect x="91" y="63" width="1" height="1" fill="#C32454" />
<rect x="167" y="63" width="2" height="1" fill="#831C5D" />
<rect x="169" y="63" width="3" height="5" fill="#C32454" />
<rect x="172" y="63" width="1" height="1" fill="#F04F78" />
<rect x="173" y="63" width="2" height="1" fill="#C32454" />
<rect x="175" y="63" width="1" height="3" fill="#F04F78" />
<rect x="176" y="63" width="1" height="5" fill="#C32454" />
<rect x="177" y="63" width="1" height="2" fill="#F04F78" />
<rect x="80" y="64" width="1" height="6" fill="#FFF6F8" />
<rect x="84" y="64" width="1" height="4" fill="#C32454" />
<rect x="86" y="64" width="4" height="3" fill="#FFF6F8" />
<rect x="90" y="64" width="1" height="1" fill="#C32454" />
<rect x="91" y="64" width="1" height="1" fill="#831C5D" />
<rect x="92" y="64" width="1" height="1" fill="#C32454" />
<rect x="94" y="64" width="1" height="8" fill="#831C5D" />
<rect x="165" y="64" width="1" height="1" fill="#831C5D" />
<rect x="166" y="64" width="3" height="2" fill="#C32454" />
<rect x="172" y="64" width="2" height="7" fill="#C32454" />
<rect x="174" y="64" width="1" height="1" fill="#F04F78" />
<rect x="178" y="64" width="1" height="2" fill="#F04F78" />
<rect x="73" y="65" width="1" height="3" fill="#C32454" />
<rect x="75" y="65" width="1" height="2" fill="#FFF6F8" />
<rect x="90" y="65" width="1" height="4" fill="#FFF6F8" />
<rect x="91" y="65" width="1" height="1" fill="#C32454" />
<rect x="92" y="65" width="1" height="1" fill="#831C5D" />
<rect x="93" y="65" width="1" height="1" fill="#C32454" />
<rect x="164" y="65" width="2" height="2" fill="#C32454" />
<rect x="174" y="65" width="1" height="4" fill="#C32454" />
<rect x="177" y="65" width="1" height="3" fill="#C32454" />
<rect x="179" y="65" width="1" height="2" fill="#F04F78" />
<rect x="74" y="66" width="1" height="7" fill="#FFF6F8" />
<rect x="76" y="66" width="3" height="5" fill="#8FF8E2" />
<rect x="79" y="66" width="1" height="2" fill="#FFF6F8" />
<rect x="85" y="66" width="1" height="3" fill="#FFF6F8" />
<rect x="91" y="66" width="1" height="8" fill="#FFF6F8" />
<rect x="92" y="66" width="1" height="1" fill="#C32454" />
<rect x="93" y="66" width="1" height="1" fill="#831C5D" />
<rect x="163" y="66" width="1" height="2" fill="#C32454" />
<rect x="166" y="66" width="2" height="2" fill="#FFF6F8" />
<rect x="168" y="66" width="1" height="1" fill="#C32454" />
<rect x="175" y="66" width="1" height="2" fill="#C32454" />
<rect x="178" y="66" width="1" height="3" fill="#C32454" />
<rect x="180" y="66" width="1" height="2" fill="#F04F78" />
<rect x="72" y="67" width="1" height="10" fill="#C32454" />
<rect x="75" y="67" width="1" height="5" fill="#8FF8E2" />
<rect x="82" y="67" width="2" height="3" fill="#831C5D" />
<rect x="86" y="67" width="1" height="1" fill="#FFF6F8" />
<rect x="87" y="67" width="2" height="6" fill="#8FF8E2" />
<rect x="89" y="67" width="1" height="1" fill="#FFF6F8" />
<rect x="92" y="67" width="1" height="6" fill="#FFF6F8" />
<rect x="93" y="67" width="1" height="1" fill="#C32454" />
<rect x="162" y="67" width="1" height="3" fill="#C32454" />
<rect x="164" y="67" width="2" height="1" fill="#FFF6F8" />
<rect x="168" y="67" width="1" height="6" fill="#FFF6F8" />
<rect x="179" y="67" width="1" height="3" fill="#C32454" />
<rect x="181" y="67" width="1" height="2" fill="#F04F78" />
<rect x="73" y="68" width="1" height="4" fill="#FFF6F8" />
<rect x="79" y="68" width="1" height="2" fill="#8FF8E2" />
<rect x="84" y="68" width="1" height="1" fill="#831C5D" />
<rect x="86" y="68" width="1" height="3" fill="#8FF8E2" />
<rect x="89" y="68" width="1" height="6" fill="#8FF8E2" />
<rect x="93" y="68" width="1" height="1" fill="#831C5D" />
<rect x="161" y="68" width="1" height="3" fill="#C32454" />
<rect x="163" y="68" width="1" height="1" fill="#FFF6F8" />
<rect x="164" y="68" width="3" height="5" fill="#8FF8E2" />
<rect x="167" y="68" width="1" height="1" fill="#FFF6F8" />
<rect x="169" y="68" width="1" height="4" fill="#FFF6F8" />
<rect x="170" y="68" width="2" height="4" fill="#C32454" />
<rect x="175" y="68" width="3" height="2" fill="#FFF6F8" />
<rect x="180" y="68" width="1" height="3" fill="#C32454" />
<rect x="182" y="68" width="1" height="1" fill="#F04F78" />
<rect x="71" y="69" width="1" height="7" fill="#C32454" />
<rect x="81" y="69" width="1" height="1" fill="#831C5D" />
<rect x="84" y="69" width="2" height="10" fill="#C32454" />
<rect x="90" y="69" width="1" height="4" fill="#8FF8E2" />
<rect x="93" y="69" width="1" height="1" fill="#C32454" />
<rect x="95" y="69" width="1" height="4" fill="#831C5D" />
<rect x="160" y="69" width="1" height="3" fill="#C32454" />
<rect x="163" y="69" width="1" height="3" fill="#8FF8E2" />
<rect x="167" y="69" width="1" height="3" fill="#8FF8E2" />
<rect x="174" y="69" width="1" height="1" fill="#FFF6F8" />
<rect x="178" y="69" width="1" height="11" fill="#FFF6F8" />
<rect x="181" y="69" width="2" height="4" fill="#C32454" />
<rect x="79" y="70" width="1" height="1" fill="#FFF6F8" />
<rect x="80" y="70" width="4" height="10" fill="#C32454" />
<rect x="93" y="70" width="1" height="1" fill="#831C5D" />
<rect x="162" y="70" width="1" height="5" fill="#FFF6F8" />
<rect x="174" y="70" width="3" height="5" fill="#8FF8E2" />
<rect x="177" y="70" width="1" height="1" fill="#FFF6F8" />
<rect x="179" y="70" width="1" height="10" fill="#FFF6F8" />
<rect x="183" y="70" width="1" height="16" fill="#C32454" />
<rect x="76" y="71" width="2" height="2" fill="#8FF8E2" />
<rect x="78" y="71" width="1" height="2" fill="#FFF6F8" />
<rect x="79" y="71" width="1" height="13" fill="#C32454" />
<rect x="86" y="71" width="1" height="1" fill="#FFF6F8" />
<rect x="93" y="71" width="1" height="1" fill="#C32454" />
<rect x="96" y="71" width="1" height="5" fill="#831C5D" />
<rect x="159" y="71" width="1" height="3" fill="#C32454" />
<rect x="161" y="71" width="1" height="3" fill="#FFF6F8" />
<rect x="172" y="71" width="1" height="2" fill="#C32454" />
<rect x="173" y="71" width="1" height="3" fill="#8FF8E2" />
<rect x="177" y="71" width="1" height="3" fill="#8FF8E2" />
<rect x="180" y="71" width="1" height="8" fill="#FFF6F8" />
<rect x="184" y="71" width="1" height="1" fill="#F04F78" />
<rect x="73" y="72" width="1" height="6" fill="#C32454" />
<rect x="75" y="72" width="1" height="2" fill="#FFF6F8" />
<rect x="86" y="72" width="1" height="7" fill="#C32454" />
<rect x="93" y="72" width="1" height="1" fill="#831C5D" />
<rect x="94" y="72" width="1" height="1" fill="#C32454" />
<rect x="158" y="72" width="1" height="2" fill="#C32454" />
<rect x="160" y="72" width="1" height="2" fill="#FFF6F8" />
<rect x="163" y="72" width="1" height="3" fill="#FFF6F8" />
<rect x="167" y="72" width="1" height="2" fill="#FFF6F8" />
<rect x="169" y="72" width="1" height="16" fill="#C32454" />
<rect x="170" y="72" width="2" height="2" fill="#831C5D" />
<rect x="184" y="72" width="1" height="7" fill="#C32454" />
<rect x="70" y="73" width="1" height="8" fill="#C32454" />
<rect x="74" y="73" width="1" height="10" fill="#C32454" />
<rect x="76" y="73" width="2" height="1" fill="#FFF6F8" />
<rect x="78" y="73" width="1" height="11" fill="#C32454" />
<rect x="87" y="73" width="1" height="7" fill="#C32454" />
<rect x="88" y="73" width="1" height="1" fill="#8FF8E2" />
<rect x="90" y="73" width="1" height="1" fill="#FFF6F8" />
<rect x="92" y="73" width="2" height="1" fill="#C32454" />
<rect x="94" y="73" width="1" height="1" fill="#831C5D" />
<rect x="95" y="73" width="1" height="1" fill="#C32454" />
<rect x="164" y="73" width="3" height="2" fill="#FFF6F8" />
<rect x="168" y="73" width="1" height="15" fill="#C32454" />
<rect x="172" y="73" width="1" height="2" fill="#831C5D" />
<rect x="181" y="73" width="1" height="5" fill="#FFF6F8" />
<rect x="182" y="73" width="1" height="17" fill="#C32454" />
<rect x="75" y="74" width="3" height="9" fill="#C32454" />
<rect x="88" y="74" width="5" height="2" fill="#C32454" />
<rect x="93" y="74" width="1" height="1" fill="#831C5D" />
<rect x="94" y="74" width="1" height="1" fill="#C32454" />
<rect x="95" y="74" width="1" height="1" fill="#831C5D" />
<rect x="97" y="74" width="1" height="3" fill="#831C5D" />
<rect x="157" y="74" width="1" height="1" fill="#C32454" />
<rect x="158" y="74" width="4" height="1" fill="#831C5D" />
<rect x="167" y="74" width="1" height="13" fill="#C32454" />
<rect x="170" y="74" width="1" height="14" fill="#C32454" />
<rect x="171" y="74" width="1" height="1" fill="#831C5D" />
<rect x="173" y="74" width="1" height="2" fill="#C32454" />
<rect x="177" y="74" width="1" height="5" fill="#FFF6F8" />
<rect x="93" y="75" width="1" height="5" fill="#C32454" />
<rect x="94" y="75" width="1" height="1" fill="#831C5D" />
<rect x="95" y="75" width="1" height="1" fill="#C32454" />
<rect x="156" y="75" width="1" height="1" fill="#C32454" />
<rect x="157" y="75" width="1" height="1" fill="#831C5D" />
<rect x="158" y="75" width="4" height="2" fill="#C32454" />
<rect x="162" y="75" width="1" height="2" fill="#831C5D" />
<rect x="163" y="75" width="4" height="9" fill="#C32454" />
<rect x="171" y="75" width="2" height="2" fill="#C32454" />
<rect x="174" y="75" width="1" height="4" fill="#C32454" />
<rect x="175" y="75" width="2" height="2" fill="#FFF6F8" />
<rect x="71" y="76" width="1" height="1" fill="#831C5D" />
<rect x="88" y="76" width="3" height="1" fill="#831C5D" />
<rect x="91" y="76" width="2" height="1" fill="#C32454" />
<rect x="94" y="76" width="1" height="3" fill="#C32454" />
<rect x="95" y="76" width="1" height="1" fill="#831C5D" />
<rect x="96" y="76" width="1" height="1" fill="#C32454" />
<rect x="98" y="76" width="1" height="6" fill="#831C5D" />
<rect x="155" y="76" width="1" height="7" fill="#C32454" />
<rect x="156" y="76" width="1" height="2" fill="#831C5D" />
<rect x="157" y="76" width="1" height="2" fill="#C32454" />
<rect x="173" y="76" width="1" height="1" fill="#831C5D" />
<rect x="71" y="77" width="1" height="5" fill="#C32454" />
<rect x="72" y="77" width="1" height="1" fill="#831C5D" />
<rect x="88" y="77" width="2" height="2" fill="#C32454" />
<rect x="90" y="77" width="2" height="1" fill="#831C5D" />
<rect x="92" y="77" width="1" height="2" fill="#C32454" />
<rect x="95" y="77" width="1" height="1" fill="#C32454" />
<rect x="96" y="77" width="1" height="1" fill="#831C5D" />
<rect x="97" y="77" width="1" height="1" fill="#C32454" />
<rect x="154" y="77" width="1" height="6" fill="#C32454" />
<rect x="158" y="77" width="4" height="1" fill="#831C5D" />
<rect x="162" y="77" width="1" height="7" fill="#C32454" />
<rect x="171" y="77" width="1" height="1" fill="#C32454" />
<rect x="172" y="77" width="1" height="1" fill="#831C5D" />
<rect x="173" y="77" width="1" height="4" fill="#C32454" />
<rect x="175" y="77" width="1" height="1" fill="#C32454" />
<rect x="176" y="77" width="1" height="1" fill="#FFF6F8" />
<rect x="72" y="78" width="1" height="4" fill="#C32454" />
<rect x="73" y="78" width="1" height="1" fill="#831C5D" />
<rect x="90" y="78" width="2" height="1" fill="#C32454" />
<rect x="95" y="78" width="1" height="1" fill="#831C5D" />
<rect x="96" y="78" width="1" height="1" fill="#C32454" />
<rect x="97" y="78" width="1" height="1" fill="#831C5D" />
<rect x="99" y="78" width="1" height="3" fill="#831C5D" />
<rect x="156" y="78" width="1" height="5" fill="#C32454" />
<rect x="157" y="78" width="1" height="1" fill="#831C5D" />
<rect x="158" y="78" width="4" height="1" fill="#C32454" />
<rect x="171" y="78" width="1" height="2" fill="#831C5D" />
<rect x="172" y="78" width="1" height="2" fill="#C32454" />
<rect x="175" y="78" width="2" height="1" fill="#831C5D" />
<rect x="181" y="78" width="1" height="13" fill="#C32454" />
<rect x="73" y="79" width="1" height="3" fill="#C32454" />
<rect x="84" y="79" width="1" height="1" fill="#831C5D" />
<rect x="85" y="79" width="1" height="1" fill="#C32454" />
<rect x="86" y="79" width="1" height="1" fill="#831C5D" />
<rect x="88" y="79" width="1" height="1" fill="#831C5D" />
<rect x="89" y="79" width="1" height="1" fill="#C32454" />
<rect x="90" y="79" width="1" height="1" fill="#831C5D" />
<rect x="91" y="79" width="1" height="1" fill="#C32454" />
<rect x="92" y="79" width="1" height="1" fill="#831C5D" />
<rect x="94" y="79" width="1" height="1" fill="#831C5D" />
<rect x="95" y="79" width="1" height="1" fill="#C32454" />
<rect x="96" y="79" width="1" height="1" fill="#831C5D" />
<rect x="97" y="79" width="1" height="1" fill="#C32454" />
<rect x="122" y="79" width="1" height="1" fill="#C32454" />
<rect x="123" y="79" width="1" height="1" fill="#831C5D" />
<rect x="124" y="79" width="1" height="1" fill="#C32454" />
<rect x="125" y="79" width="2" height="1" fill="#831C5D" />
<rect x="127" y="79" width="1" height="1" fill="#C32454" />
<rect x="157" y="79" width="1" height="4" fill="#C32454" />
<rect x="158" y="79" width="1" height="1" fill="#831C5D" />
<rect x="159" y="79" width="3" height="4" fill="#C32454" />
<rect x="174" y="79" width="1" height="1" fill="#831C5D" />
<rect x="175" y="79" width="2" height="1" fill="#C32454" />
<rect x="177" y="79" width="1" height="3" fill="#831C5D" />
<rect x="180" y="79" width="1" height="12" fill="#C32454" />
<rect x="80" y="80" width="3" height="1" fill="#C32454" />
<rect x="83" y="80" width="1" height="1" fill="#831C5D" />
<rect x="84" y="80" width="1" height="1" fill="#C32454" />
<rect x="85" y="80" width="1" height="2" fill="#831C5D" />
<rect x="86" y="80" width="1" height="1" fill="#C32454" />
<rect x="87" y="80" width="1" height="2" fill="#831C5D" />
<rect x="88" y="80" width="1" height="1" fill="#C32454" />
<rect x="89" y="80" width="1" height="3" fill="#831C5D" />
<rect x="90" y="80" width="1" height="1" fill="#C32454" />
<rect x="91" y="80" width="1" height="3" fill="#831C5D" />
<rect x="92" y="80" width="1" height="1" fill="#C32454" />
<rect x="93" y="80" width="1" height="3" fill="#831C5D" />
<rect x="94" y="80" width="1" height="1" fill="#C32454" />
<rect x="95" y="80" width="1" height="3" fill="#831C5D" />
<rect x="96" y="80" width="1" height="1" fill="#C32454" />
<rect x="97" y="80" width="1" height="3" fill="#831C5D" />
<rect x="121" y="80" width="1" height="1" fill="#C32454" />
<rect x="122" y="80" width="1" height="2" fill="#831C5D" />
<rect x="123" y="80" width="1" height="1" fill="#C32454" />
<rect x="124" y="80" width="2" height="1" fill="#831C5D" />
<rect x="126" y="80" width="1" height="1" fill="#C32454" />
<rect x="127" y="80" width="2" height="1" fill="#831C5D" />
<rect x="153" y="80" width="1" height="3" fill="#C32454" />
<rect x="158" y="80" width="1" height="3" fill="#C32454" />
<rect x="171" y="80" width="1" height="8" fill="#C32454" />
<rect x="172" y="80" width="1" height="1" fill="#831C5D" />
<rect x="174" y="80" width="1" height="2" fill="#C32454" />
<rect x="175" y="80" width="1" height="1" fill="#831C5D" />
<rect x="176" y="80" width="1" height="2" fill="#C32454" />
<rect x="178" y="80" width="2" height="10" fill="#C32454" />
<rect x="80" y="81" width="2" height="1" fill="#C32454" />
<rect x="82" y="81" width="1" height="1" fill="#831C5D" />
<rect x="83" y="81" width="1" height="1" fill="#C32454" />
<rect x="84" y="81" width="1" height="2" fill="#831C5D" />
<rect x="86" y="81" width="1" height="1" fill="#831C5D" />
<rect x="88" y="81" width="1" height="1" fill="#831C5D" />
<rect x="90" y="81" width="1" height="2" fill="#831C5D" />
<rect x="92" y="81" width="1" height="2" fill="#831C5D" />
<rect x="94" y="81" width="1" height="2" fill="#831C5D" />
<rect x="96" y="81" width="1" height="2" fill="#831C5D" />
<rect x="120" y="81" width="2" height="1" fill="#831C5D" />
<rect x="123" y="81" width="2" height="1" fill="#831C5D" />
<rect x="125" y="81" width="1" height="1" fill="#C32454" />
<rect x="126" y="81" width="1" height="1" fill="#831C5D" />
<rect x="127" y="81" width="1" height="1" fill="#C32454" />
<rect x="128" y="81" width="2" height="2" fill="#831C5D" />
<rect x="172" y="81" width="1" height="7" fill="#C32454" />
<rect x="173" y="81" width="1" height="1" fill="#831C5D" />
<rect x="175" y="81" width="1" height="1" fill="#C32454" />
<rect x="80" y="82" width="1" height="1" fill="#C32454" />
<rect x="81" y="82" width="1" height="1" fill="#831C5D" />
<rect x="82" y="82" width="1" height="1" fill="#C32454" />
<rect x="83" y="82" width="1" height="2" fill="#831C5D" />
<rect x="120" y="82" width="2" height="1" fill="#FFF6F8" />
<rect x="122" y="82" width="1" height="1" fill="#C32454" />
<rect x="123" y="82" width="1" height="3" fill="#831C5D" />
<rect x="124" y="82" width="1" height="1" fill="#C32454" />
<rect x="125" y="82" width="3" height="2" fill="#FFF6F8" />
<rect x="130" y="82" width="1" height="3" fill="#831C5D" />
<rect x="173" y="82" width="1" height="6" fill="#C32454" />
<rect x="174" y="82" width="3" height="1" fill="#831C5D" />
<rect x="177" y="82" width="1" height="8" fill="#C32454" />
<rect x="76" y="83" width="2" height="1" fill="#C32454" />
<rect x="80" y="83" width="1" height="2" fill="#831C5D" />
<rect x="81" y="83" width="1" height="1" fill="#C32454" />
<rect x="82" y="83" width="1" height="2" fill="#831C5D" />
<rect x="120" y="83" width="2" height="1" fill="#8FF8E2" />
<rect x="122" y="83" width="1" height="2" fill="#FFF6F8" />
<rect x="124" y="83" width="1" height="2" fill="#8FF8E2" />
<rect x="128" y="83" width="1" height="1" fill="#C32454" />
<rect x="129" y="83" width="1" height="1" fill="#831C5D" />
<rect x="153" y="83" width="9" height="1" fill="#831C5D" />
<rect x="174" y="83" width="3" height="5" fill="#C32454" />
<rect x="77" y="84" width="3" height="1" fill="#831C5D" />
<rect x="81" y="84" width="1" height="1" fill="#831C5D" />
<rect x="120" y="84" width="1" height="2" fill="#C32454" />
<rect x="121" y="84" width="1" height="1" fill="#8FF8E2" />
<rect x="125" y="84" width="1" height="1" fill="#8FF8E2" />
<rect x="126" y="84" width="1" height="1" fill="#FFF6F8" />
<rect x="127" y="84" width="1" height="3" fill="#C32454" />
<rect x="128" y="84" width="2" height="1" fill="#F04F78" />
<rect x="131" y="84" width="1" height="4" fill="#831C5D" />
<rect x="154" y="84" width="10" height="1" fill="#831C5D" />
<rect x="164" y="84" width="3" height="1" fill="#C32454" />
<rect x="121" y="85" width="6" height="1" fill="#C32454" />
<rect x="128" y="85" width="1" height="5" fill="#C32454" />
<rect x="129" y="85" width="1" height="1" fill="#F04F78" />
<rect x="130" y="85" width="1" height="2" fill="#C32454" />
<rect x="155" y="85" width="10" height="1" fill="#831C5D" />
<rect x="165" y="85" width="2" height="1" fill="#C32454" />
<rect x="120" y="86" width="1" height="1" fill="#831C5D" />
<rect x="121" y="86" width="5" height="2" fill="#C32454" />
<rect x="126" y="86" width="1" height="1" fill="#831C5D" />
<rect x="129" y="86" width="1" height="3" fill="#C32454" />
<rect x="157" y="86" width="9" height="1" fill="#831C5D" />
<rect x="166" y="86" width="1" height="1" fill="#C32454" />
<rect x="120" y="87" width="1" height="1" fill="#C32454" />
<rect x="126" y="87" width="1" height="2" fill="#C32454" />
<rect x="127" y="87" width="1" height="1" fill="#831C5D" />
<rect x="130" y="87" width="1" height="2" fill="#831C5D" />
<rect x="158" y="87" width="10" height="1" fill="#831C5D" />
<rect x="183" y="87" width="1" height="1" fill="#C32454" />
<rect x="121" y="88" width="2" height="1" fill="#C32454" />
<rect x="127" y="88" width="1" height="3" fill="#C32454" />
<rect x="159" y="88" width="16" height="1" fill="#831C5D" />
<rect x="175" y="88" width="2" height="1" fill="#C32454" />
<rect x="122" y="89" width="1" height="1" fill="#C32454" />
<rect x="129" y="89" width="1" height="1" fill="#831C5D" />
<rect x="161" y="89" width="16" height="1" fill="#831C5D" />
<rect x="128" y="90" width="1" height="1" fill="#831C5D" />
<rect x="165" y="90" width="4" height="1" fill="#831C5D" />
<rect x="171" y="90" width="8" height="1" fill="#831C5D" />
<rect x="179" y="90" width="1" height="1" fill="#C32454" />
<rect x="173" y="91" width="8" height="1" fill="#831C5D" />
</svg>