<?xml version="1.0" encoding="UTF-8" ?>
<svg version="1.1" width="216" height="128" xmlns="http://www.w3.org/2000/svg" shape-rendering="crispEdges">
<rect x="102" y="47" width="4" height="3" fill="#F04F78" />
<rect x="51" y="48" width="2" height="5" fill="#0EAF9B" />
<rect x="101" y="48" width="1" height="3" fill="#F04F78" />
<rect x="106" y="48" width="1" height="1" fill="#F04F78" />
<rect x="50" y="49" width="1" height="6" fill="#0EAF9B" />
<rect x="53" y="49" width="1" height="8" fill="#0EAF9B" />
<rect x="100" y="49" width="1" height="2" fill="#F04F78" />
<rect x="106" y="49" width="1" height="2" fill="#FF8BA8" />
<rect x="54" y="50" width="1" height="1" fill="#0EAF9B" />
<rect x="102" y="50" width="4" height="1" fill="#FF8BA8" />
<rect x="54" y="51" width="1" height="1" fill="#F9C22B" />
<rect x="55" y="51" width="1" height="6" fill="#0EAF9B" />
<rect x="100" y="51" width="7" height="1" fill="#7F708A" />
<rect x="54" y="52" width="1" height="5" fill="#0EAF9B" />
<rect x="56" y="52" width="1" height="4" fill="#0EAF9B" />
<rect x="100" y="52" width="1" height="1" fill="#C32454" />
<rect x="101" y="52" width="1" height="1" fill="#FFB7C0" />
<rect x="102" y="52" width="3" height="1" fill="#7F708A" />
<rect x="105" y="52" width="1" height="1" fill="#FFB7C0" />
<rect x="106" y="52" width="1" height="1" fill="#C32454" />
<rect x="51" y="53" width="1" height="3" fill="#0EAF9B" />
<rect x="52" y="53" width="1" height="1" fill="#F9C22B" />
<rect x="100" y="53" width="1" height="3" fill="#F04F78" />
<rect x="101" y="53" width="1" height="1" fill="#7F708A" />
<rect x="102" y="53" width="1" height="1" fill="#C32454" />
<rect x="103" y="53" width="1" height="1" fill="#FFB7C0" />
<rect x="104" y="53" width="1" height="1" fill="#C32454" />
<rect x="105" y="53" width="1" height="1" fill="#7F708A" />
<rect x="106" y="53" width="1" height="2" fill="#FF8BA8" />
<rect x="52" y="54" width="1" height="3" fill="#0EAF9B" />
<rect x="101" y="54" width="5" height="2" fill="#FF8BA8" />
<rect x="101" y="56" width="1" height="1" fill="#F04F78" />
<rect x="102" y="56" width="4" height="1" fill="#FF8BA8" />
<rect x="103" y="57" width="2" height="1" fill="#FF8BA8" />
<rect x="60" y="83" width="2" height="8" fill="#F04F78" />
<rect x="59" y="85" width="1" height="6" fill="#F04F78" />
<rect x="62" y="87" width="1" height="4" fill="#F04F78" />
<rect x="103" y="87" width="3" height="1" fill="#0EAF9B" />
<rect x="103" y="88" width="2" height="3" fill="#0EAF9B" />
<rect x="105" y="89" width="1" height="1" fill="#0EAF9B" />
<rect x="61" y="91" width="1" height="1" fill="#F04F78" />
</svg>