<?xml version="1.0" encoding="UTF-8" ?>
<svg version="1.1" width="216" height="128" xmlns="http://www.w3.org/2000/svg" shape-rendering="crispEdges">
<rect x="0" y="0" width="216" height="3" fill="#484A77" />
<rect x="0" y="3" width="146" height="1" fill="#484A77" />
<rect x="146" y="3" width="4" height="2" fill="#4D9BE6" />
<rect x="150" y="3" width="5" height="1" fill="#484A77" />
<rect x="155" y="3" width="1" height="1" fill="#4D65B4" />
<rect x="156" y="3" width="1" height="1" fill="#484A77" />
<rect x="157" y="3" width="1" height="1" fill="#4D65B4" />
<rect x="158" y="3" width="1" height="1" fill="#484A77" />
<rect x="159" y="3" width="1" height="1" fill="#4D65B4" />
<rect x="160" y="3" width="1" height="1" fill="#484A77" />
<rect x="161" y="3" width="1" height="1" fill="#4D65B4" />
<rect x="162" y="3" width="1" height="1" fill="#484A77" />
<rect x="163" y="3" width="1" height="1" fill="#4D65B4" />
<rect x="164" y="3" width="1" height="1" fill="#484A77" />
<rect x="165" y="3" width="2" height="5" fill="#4D65B4" />
<rect x="167" y="3" width="1" height="1" fill="#484A77" />
<rect x="168" y="3" width="1" height="1" fill="#4D65B4" />
<rect x="169" y="3" width="47" height="1" fill="#484A77" />
<rect x="0" y="4" width="144" height="1" fill="#484A77" />
<rect x="144" y="4" width="2" height="2" fill="#4D9BE6" />
<rect x="150" y="4" width="4" height="1" fill="#484A77" />
<rect x="154" y="4" width="1" height="1" fill="#4D65B4" />
<rect x="155" y="4" width="1" height="1" fill="#484A77" />
<rect x="156" y="4" width="1" height="1" fill="#4D65B4" />
<rect x="157" y="4" width="1" height="1" fill="#484A77" />
<rect x="158" y="4" width="1" height="1" fill="#4D65B4" />
<rect x="159" y="4" width="1" height="1" fill="#484A77" />
<rect x="160" y="4" width="1" height="7" fill="#4D65B4" />
<rect x="161" y="4" width="1" height="1" fill="#484A77" />
<rect x="162" y="4" width="1" height="5" fill="#4D65B4" />
<rect x="163" y="4" width="1" height="1" fill="#484A77" />
<rect x="164" y="4" width="1" height="5" fill="#4D65B4" />
<rect x="167" y="4" width="1" height="4" fill="#4D65B4" />
<rect x="168" y="4" width="1" height="1" fill="#484A77" />
<rect x="169" y="4" width="1" height="1" fill="#4D65B4" />
<rect x="170" y="4" width="46" height="1" fill="#484A77" />
<rect x="0" y="5" width="91" height="1" fill="#484A77" />
<rect x="91" y="5" width="4" height="1" fill="#4D65B4" />
<rect x="95" y="5" width="49" height="1" fill="#484A77" />
<rect x="146" y="5" width="3" height="1" fill="#4D9BE6" />
<rect x="149" y="5" width="4" height="1" fill="#484A77" />
<rect x="153" y="5" width="1" height="1" fill="#4D65B4" />
<rect x="154" y="5" width="1" height="1" fill="#484A77" />
<rect x="155" y="5" width="1" height="1" fill="#4D65B4" />
<rect x="156" y="5" width="1" height="1" fill="#484A77" />
<rect x="157" y="5" width="1" height="1" fill="#4D65B4" />
<rect x="158" y="5" width="1" height="1" fill="#484A77" />
<rect x="159" y="5" width="1" height="9" fill="#4D65B4" />
<rect x="161" y="5" width="1" height="4" fill="#4D65B4" />
<rect x="163" y="5" width="1" height="4" fill="#4D65B4" />
<rect x="168" y="5" width="1" height="3" fill="#4D65B4" />
<rect x="169" y="5" width="1" height="1" fill="#484A77" />
<rect x="170" y="5" width="1" height="1" fill="#4D65B4" />
<rect x="171" y="5" width="45" height="1" fill="#484A77" />
<rect x="0" y="6" width="65" height="1" fill="#484A77" />
<rect x="65" y="6" width="1" height="1" fill="#4D65B4" />
<rect x="66" y="6" width="17" height="1" fill="#484A77" />
<rect x="83" y="6" width="1" height="1" fill="#4D65B4" />
<rect x="84" y="6" width="1" height="1" fill="#484A77" />
<rect x="85" y="6" width="9" height="6" fill="#4D65B4" />
<rect x="94" y="6" width="1" height="1" fill="#484A77" />
<rect x="95" y="6" width="1" height="1" fill="#4D65B4" />
<rect x="96" y="6" width="49" height="1" fill="#484A77" />
<rect x="145" y="6" width="3" height="1" fill="#4D9BE6" />
<rect x="148" y="6" width="4" height="1" fill="#484A77" />
<rect x="152" y="6" width="1" height="1" fill="#4D65B4" />
<rect x="153" y="6" width="1" height="1" fill="#484A77" />
<rect x="154" y="6" width="1" height="4" fill="#4D65B4" />
<rect x="155" y="6" width="1" height="1" fill="#484A77" />
<rect x="156" y="6" width="1" height="18" fill="#4D65B4" />
<rect x="157" y="6" width="1" height="1" fill="#484A77" />
<rect x="158" y="6" width="1" height="10" fill="#4D65B4" />
<rect x="169" y="6" width="1" height="2" fill="#4D65B4" />
<rect x="170" y="6" width="1" height="1" fill="#484A77" />
<rect x="171" y="6" width="1" height="2" fill="#4D65B4" />
<rect x="172" y="6" width="1" height="1" fill="#484A77" />
<rect x="173" y="6" width="1" height="3" fill="#4D65B4" />
<rect x="174" y="6" width="1" height="1" fill="#484A77" />
<rect x="175" y="6" width="1" height="1" fill="#4D65B4" />
<rect x="176" y="6" width="5" height="1" fill="#484A77" />
<rect x="181" y="6" width="1" height="1" fill="#4D65B4" />
<rect x="182" y="6" width="1" height="1" fill="#484A77" />
<rect x="183" y="6" width="2" height="1" fill="#4D65B4" />
<rect x="185" y="6" width="23" height="1" fill="#484A77" />
<rect x="208" y="6" width="8" height="11" fill="#4D65B4" />
<rect x="0" y="7" width="58" height="1" fill="#484A77" />
<rect x="58" y="7" width="3" height="1" fill="#4D65B4" />
<rect x="61" y="7" width="1" height="1" fill="#484A77" />
<rect x="62" y="7" width="1" height="1" fill="#4D65B4" />
<rect x="63" y="7" width="1" height="1" fill="#484A77" />
<rect x="64" y="7" width="1" height="1" fill="#4D65B4" />
<rect x="65" y="7" width="1" height="1" fill="#484A77" />
<rect x="66" y="7" width="1" height="1" fill="#4D65B4" />
<rect x="67" y="7" width="9" height="1" fill="#484A77" />
<rect x="76" y="7" width="1" height="1" fill="#4D65B4" />
<rect x="77" y="7" width="1" height="1" fill="#484A77" />
<rect x="78" y="7" width="1" height="1" fill="#4D65B4" />
<rect x="79" y="7" width="1" height="1" fill="#484A77" />
<rect x="80" y="7" width="1" height="1" fill="#4D65B4" />
<rect x="81" y="7" width="1" height="1" fill="#484A77" />
<rect x="82" y="7" width="1" height="1" fill="#4D65B4" />
<rect x="83" y="7" width="1" height="1" fill="#484A77" />
<rect x="84" y="7" width="1" height="4" fill="#4D65B4" />
<rect x="94" y="7" width="1" height="5" fill="#4D65B4" />
<rect x="95" y="7" width="1" height="1" fill="#484A77" />
<rect x="96" y="7" width="1" height="1" fill="#4D9BE6" />
<rect x="97" y="7" width="43" height="1" fill="#484A77" />
<rect x="140" y="7" width="1" height="6" fill="#4D65B4" />
<rect x="141" y="7" width="8" height="1" fill="#484A77" />
<rect x="149" y="7" width="1" height="1" fill="#4D65B4" />
<rect x="150" y="7" width="1" height="1" fill="#484A77" />
<rect x="151" y="7" width="1" height="1" fill="#4D65B4" />
<rect x="152" y="7" width="1" height="1" fill="#484A77" />
<rect x="153" y="7" width="1" height="4" fill="#4D65B4" />
<rect x="155" y="7" width="1" height="18" fill="#4D65B4" />
<rect x="157" y="7" width="1" height="24" fill="#4D65B4" />
<rect x="170" y="7" width="1" height="1" fill="#4D65B4" />
<rect x="172" y="7" width="1" height="1" fill="#4D65B4" />
<rect x="174" y="7" width="1" height="2" fill="#4D65B4" />
<rect x="175" y="7" width="1" height="1" fill="#484A77" />
<rect x="176" y="7" width="1" height="2" fill="#4D65B4" />
<rect x="177" y="7" width="1" height="1" fill="#484A77" />
<rect x="178" y="7" width="1" height="2" fill="#4D65B4" />
<rect x="179" y="7" width="1" height="1" fill="#484A77" />
<rect x="180" y="7" width="1" height="2" fill="#4D65B4" />
<rect x="181" y="7" width="1" height="1" fill="#484A77" />
<rect x="182" y="7" width="1" height="3" fill="#4D65B4" />
<rect x="183" y="7" width="1" height="1" fill="#484A77" />
<rect x="184" y="7" width="24" height="8" fill="#4D65B4" />
<rect x="0" y="8" width="40" height="1" fill="#484A77" />
<rect x="40" y="8" width="3" height="9" fill="#4D65B4" />
<rect x="43" y="8" width="10" height="1" fill="#484A77" />
<rect x="53" y="8" width="1" height="1" fill="#4D65B4" />
<rect x="54" y="8" width="1" height="1" fill="#484A77" />
<rect x="55" y="8" width="5" height="1" fill="#4D65B4" />
<rect x="60" y="8" width="1" height="1" fill="#484A77" />
<rect x="61" y="8" width="1" height="4" fill="#4D65B4" />
<rect x="62" y="8" width="1" height="1" fill="#484A77" />
<rect x="63" y="8" width="1" height="3" fill="#4D65B4" />
<rect x="64" y="8" width="1" height="1" fill="#484A77" />
<rect x="65" y="8" width="1" height="3" fill="#4D65B4" />
<rect x="66" y="8" width="1" height="1" fill="#484A77" />
<rect x="67" y="8" width="1" height="1" fill="#4D65B4" />
<rect x="68" y="8" width="7" height="3" fill="#484A77" />
<rect x="75" y="8" width="1" height="1" fill="#4D65B4" />
<rect x="76" y="8" width="1" height="1" fill="#484A77" />
<rect x="77" y="8" width="1" height="1" fill="#4D65B4" />
<rect x="78" y="8" width="1" height="1" fill="#484A77" />
<rect x="79" y="8" width="1" height="2" fill="#4D65B4" />
<rect x="80" y="8" width="1" height="1" fill="#484A77" />
<rect x="81" y="8" width="1" height="2" fill="#4D65B4" />
<rect x="82" y="8" width="1" height="1" fill="#484A77" />
<rect x="83" y="8" width="1" height="3" fill="#4D65B4" />
<rect x="95" y="8" width="1" height="2" fill="#4D9BE6" />
<rect x="96" y="8" width="1" height="1" fill="#484A77" />
<rect x="97" y="8" width="1" height="1" fill="#4D9BE6" />
<rect x="98" y="8" width="40" height="1" fill="#484A77" />
<rect x="138" y="8" width="2" height="5" fill="#4D65B4" />
<rect x="141" y="8" width="1" height="5" fill="#4D65B4" />
<rect x="142" y="8" width="1" height="1" fill="#484A77" />
<rect x="143" y="8" width="2" height="5" fill="#4D65B4" />
<rect x="145" y="8" width="1" height="1" fill="#484A77" />
<rect x="146" y="8" width="1" height="1" fill="#4D65B4" />
<rect x="147" y="8" width="1" height="1" fill="#484A77" />
<rect x="148" y="8" width="1" height="1" fill="#4D65B4" />
<rect x="149" y="8" width="1" height="1" fill="#484A77" />
<rect x="150" y="8" width="1" height="4" fill="#4D65B4" />
<rect x="151" y="8" width="1" height="1" fill="#484A77" />
<rect x="152" y="8" width="1" height="3" fill="#4D65B4" />
<rect x="175" y="8" width="1" height="1" fill="#4D65B4" />
<rect x="177" y="8" width="1" height="1" fill="#4D65B4" />
<rect x="179" y="8" width="1" height="1" fill="#4D65B4" />
<rect x="181" y="8" width="1" height="2" fill="#4D65B4" />
<rect x="183" y="8" width="1" height="2" fill="#4D65B4" />
<rect x="0" y="9" width="32" height="1" fill="#484A77" />
<rect x="32" y="9" width="8" height="7" fill="#4D65B4" />
<rect x="43" y="9" width="4" height="1" fill="#4D65B4" />
<rect x="47" y="9" width="1" height="1" fill="#484A77" />
<rect x="48" y="9" width="1" height="1" fill="#4D65B4" />
<rect x="49" y="9" width="1" height="1" fill="#484A77" />
<rect x="50" y="9" width="1" height="1" fill="#4D65B4" />
<rect x="51" y="9" width="1" height="1" fill="#484A77" />
<rect x="52" y="9" width="1" height="1" fill="#4D65B4" />
<rect x="53" y="9" width="1" height="1" fill="#484A77" />
<rect x="54" y="9" width="1" height="3" fill="#4D65B4" />
<rect x="55" y="9" width="1" height="1" fill="#484A77" />
<rect x="56" y="9" width="5" height="3" fill="#4D65B4" />
<rect x="62" y="9" width="1" height="2" fill="#4D65B4" />
<rect x="64" y="9" width="1" height="2" fill="#4D65B4" />
<rect x="66" y="9" width="1" height="2" fill="#4D65B4" />
<rect x="67" y="9" width="1" height="1" fill="#484A77" />
<rect x="75" y="9" width="1" height="1" fill="#484A77" />
<rect x="76" y="9" width="1" height="1" fill="#4D65B4" />
<rect x="77" y="9" width="1" height="1" fill="#484A77" />
<rect x="78" y="9" width="1" height="2" fill="#4D65B4" />
<rect x="80" y="9" width="1" height="1" fill="#4D65B4" />
<rect x="82" y="9" width="1" height="1" fill="#4D65B4" />
<rect x="96" y="9" width="1" height="1" fill="#4D9BE6" />
<rect x="97" y="9" width="1" height="1" fill="#484A77" />
<rect x="98" y="9" width="1" height="1" fill="#4D65B4" />
<rect x="99" y="9" width="1" height="1" fill="#484A77" />
<rect x="100" y="9" width="1" height="1" fill="#4D65B4" />
<rect x="101" y="9" width="5" height="1" fill="#484A77" />
<rect x="106" y="9" width="1" height="1" fill="#4D65B4" />
<rect x="107" y="9" width="1" height="1" fill="#484A77" />
<rect x="108" y="9" width="1" height="1" fill="#4D65B4" />
<rect x="109" y="9" width="1" height="1" fill="#484A77" />
<rect x="110" y="9" width="1" height="1" fill="#4D65B4" />
<rect x="111" y="9" width="1" height="1" fill="#484A77" />
<rect x="112" y="9" width="3" height="4" fill="#4D65B4" />
<rect x="115" y="9" width="1" height="1" fill="#484A77" />
<rect x="116" y="9" width="1" height="1" fill="#4D65B4" />
<rect x="117" y="9" width="13" height="1" fill="#484A77" />
<rect x="130" y="9" width="8" height="4" fill="#4D65B4" />
<rect x="142" y="9" width="1" height="4" fill="#4D65B4" />
<rect x="145" y="9" width="1" height="4" fill="#4D65B4" />
<rect x="146" y="9" width="1" height="1" fill="#484A77" />
<rect x="147" y="9" width="1" height="4" fill="#4D65B4" />
<rect x="148" y="9" width="1" height="1" fill="#484A77" />
<rect x="149" y="9" width="1" height="3" fill="#4D65B4" />
<rect x="151" y="9" width="1" height="2" fill="#4D65B4" />
<rect x="0" y="10" width="28" height="1" fill="#484A77" />
<rect x="28" y="10" width="4" height="6" fill="#4D65B4" />
<rect x="43" y="10" width="3" height="3" fill="#4D65B4" />
<rect x="46" y="10" width="1" height="1" fill="#484A77" />
<rect x="47" y="10" width="1" height="3" fill="#4D65B4" />
<rect x="48" y="10" width="1" height="1" fill="#484A77" />
<rect x="49" y="10" width="1" height="3" fill="#4D65B4" />
<rect x="50" y="10" width="1" height="1" fill="#484A77" />
<rect x="51" y="10" width="1" height="2" fill="#4D65B4" />
<rect x="52" y="10" width="1" height="1" fill="#484A77" />
<rect x="53" y="10" width="1" height="2" fill="#4D65B4" />
<rect x="55" y="10" width="1" height="2" fill="#4D65B4" />
<rect x="67" y="10" width="1" height="5" fill="#4D65B4" />
<rect x="75" y="10" width="1" height="1" fill="#4D65B4" />
<rect x="76" y="10" width="1" height="1" fill="#484A77" />
<rect x="77" y="10" width="1" height="5" fill="#4D65B4" />
<rect x="95" y="10" width="3" height="2" fill="#4D65B4" />
<rect x="98" y="10" width="1" height="1" fill="#484A77" />
<rect x="99" y="10" width="1" height="2" fill="#4D65B4" />
<rect x="100" y="10" width="1" height="1" fill="#484A77" />
<rect x="101" y="10" width="1" height="2" fill="#4D65B4" />
<rect x="102" y="10" width="1" height="1" fill="#484A77" />
<rect x="103" y="10" width="1" height="2" fill="#4D65B4" />
<rect x="104" y="10" width="1" height="1" fill="#484A77" />
<rect x="105" y="10" width="1" height="2" fill="#4D65B4" />
<rect x="106" y="10" width="1" height="1" fill="#484A77" />
<rect x="107" y="10" width="1" height="3" fill="#4D65B4" />
<rect x="108" y="10" width="1" height="1" fill="#484A77" />
<rect x="109" y="10" width="1" height="3" fill="#4D65B4" />
<rect x="110" y="10" width="1" height="1" fill="#484A77" />
<rect x="111" y="10" width="1" height="3" fill="#4D65B4" />
<rect x="115" y="10" width="1" height="21" fill="#4D65B4" />
<rect x="116" y="10" width="1" height="1" fill="#484A77" />
<rect x="117" y="10" width="1" height="1" fill="#4D65B4" />
<rect x="118" y="10" width="10" height="1" fill="#484A77" />
<rect x="128" y="10" width="2" height="4" fill="#4D65B4" />
<rect x="146" y="10" width="1" height="3" fill="#4D65B4" />
<rect x="148" y="10" width="1" height="2" fill="#4D65B4" />
<rect x="0" y="11" width="25" height="1" fill="#484A77" />
<rect x="25" y="11" width="3" height="5" fill="#4D65B4" />
<rect x="46" y="11" width="1" height="2" fill="#4D65B4" />
<rect x="48" y="11" width="1" height="2" fill="#4D65B4" />
<rect x="50" y="11" width="1" height="2" fill="#4D65B4" />
<rect x="52" y="11" width="1" height="1" fill="#4D65B4" />
<rect x="68" y="11" width="6" height="1" fill="#484A77" />
<rect x="74" y="11" width="1" height="1" fill="#4D65B4" />
<rect x="75" y="11" width="1" height="1" fill="#484A77" />
<rect x="76" y="11" width="1" height="1" fill="#4D65B4" />
<rect x="98" y="11" width="1" height="1" fill="#4D65B4" />
<rect x="100" y="11" width="1" height="1" fill="#4D65B4" />
<rect x="102" y="11" width="1" height="1" fill="#4D65B4" />
<rect x="104" y="11" width="1" height="1" fill="#4D65B4" />
<rect x="106" y="11" width="1" height="2" fill="#4D65B4" />
<rect x="108" y="11" width="1" height="2" fill="#4D65B4" />
<rect x="110" y="11" width="1" height="2" fill="#4D65B4" />
<rect x="116" y="11" width="1" height="14" fill="#4D65B4" />
<rect x="117" y="11" width="1" height="1" fill="#484A77" />
<rect x="118" y="11" width="1" height="1" fill="#4D65B4" />
<rect x="119" y="11" width="7" height="1" fill="#484A77" />
<rect x="126" y="11" width="2" height="3" fill="#4D65B4" />
<rect x="0" y="12" width="23" height="1" fill="#484A77" />
<rect x="23" y="12" width="2" height="5" fill="#4D65B4" />
<rect x="68" y="12" width="1" height="1" fill="#4D65B4" />
<rect x="69" y="12" width="6" height="1" fill="#484A77" />
<rect x="75" y="12" width="1" height="1" fill="#4D65B4" />
<rect x="76" y="12" width="1" height="1" fill="#484A77" />
<rect x="117" y="12" width="1" height="9" fill="#4D65B4" />
<rect x="118" y="12" width="1" height="1" fill="#484A77" />
<rect x="119" y="12" width="1" height="1" fill="#4D65B4" />
<rect x="120" y="12" width="1" height="1" fill="#484A77" />
<rect x="121" y="12" width="1" height="2" fill="#4D65B4" />
<rect x="122" y="12" width="1" height="1" fill="#484A77" />
<rect x="123" y="12" width="3" height="2" fill="#4D65B4" />
<rect x="154" y="12" width="1" height="8" fill="#4D65B4" />
<rect x="0" y="13" width="7" height="1" fill="#484A77" />
<rect x="7" y="13" width="1" height="1" fill="#4D65B4" />
<rect x="8" y="13" width="1" height="1" fill="#484A77" />
<rect x="9" y="13" width="1" height="1" fill="#4D65B4" />
<rect x="10" y="13" width="1" height="1" fill="#484A77" />
<rect x="11" y="13" width="3" height="1" fill="#4D65B4" />
<rect x="14" y="13" width="6" height="1" fill="#484A77" />
<rect x="20" y="13" width="3" height="5" fill="#4D65B4" />
<rect x="43" y="13" width="1" height="1" fill="#4D65B4" />
<rect x="68" y="13" width="1" height="1" fill="#484A77" />
<rect x="69" y="13" width="1" height="1" fill="#4D65B4" />
<rect x="70" y="13" width="4" height="1" fill="#484A77" />
<rect x="74" y="13" width="1" height="1" fill="#4D65B4" />
<rect x="75" y="13" width="1" height="1" fill="#484A77" />
<rect x="76" y="13" width="1" height="6" fill="#4D65B4" />
<rect x="118" y="13" width="1" height="3" fill="#4D65B4" />
<rect x="120" y="13" width="1" height="1" fill="#4D65B4" />
<rect x="122" y="13" width="1" height="1" fill="#4D65B4" />
<rect x="130" y="13" width="4" height="1" fill="#4D65B4" />
<rect x="0" y="14" width="4" height="1" fill="#484A77" />
<rect x="4" y="14" width="1" height="1" fill="#4D65B4" />
<rect x="5" y="14" width="1" height="1" fill="#484A77" />
<rect x="6" y="14" width="1" height="1" fill="#4D65B4" />
<rect x="7" y="14" width="1" height="1" fill="#484A77" />
<rect x="8" y="14" width="1" height="1" fill="#4D65B4" />
<rect x="9" y="14" width="1" height="1" fill="#484A77" />
<rect x="10" y="14" width="1" height="1" fill="#4D65B4" />
<rect x="11" y="14" width="1" height="1" fill="#484A77" />
<rect x="12" y="14" width="8" height="1" fill="#4D65B4" />
<rect x="68" y="14" width="1" height="6" fill="#4D65B4" />
<rect x="69" y="14" width="1" height="1" fill="#484A77" />
<rect x="70" y="14" width="1" height="1" fill="#4D65B4" />
<rect x="71" y="14" width="2" height="1" fill="#484A77" />
<rect x="73" y="14" width="1" height="1" fill="#4D65B4" />
<rect x="74" y="14" width="1" height="1" fill="#484A77" />
<rect x="75" y="14" width="1" height="9" fill="#4D65B4" />
<rect x="183" y="14" width="1" height="12" fill="#4D65B4" />
<rect x="0" y="15" width="3" height="1" fill="#484A77" />
<rect x="3" y="15" width="1" height="1" fill="#4D65B4" />
<rect x="4" y="15" width="1" height="1" fill="#484A77" />
<rect x="5" y="15" width="1" height="1" fill="#4D65B4" />
<rect x="6" y="15" width="1" height="1" fill="#484A77" />
<rect x="7" y="15" width="1" height="10" fill="#4D65B4" />
<rect x="8" y="15" width="1" height="1" fill="#484A77" />
<rect x="9" y="15" width="1" height="6" fill="#4D65B4" />
<rect x="10" y="15" width="1" height="1" fill="#484A77" />
<rect x="11" y="15" width="1" height="3" fill="#4D65B4" />
<rect x="12" y="15" width="1" height="1" fill="#484A77" />
<rect x="13" y="15" width="7" height="3" fill="#4D65B4" />
<rect x="69" y="15" width="1" height="2" fill="#4D65B4" />
<rect x="70" y="15" width="2" height="3" fill="#4D9BE6" />
<rect x="72" y="15" width="1" height="1" fill="#4D65B4" />
<rect x="73" y="15" width="1" height="1" fill="#484A77" />
<rect x="74" y="15" width="1" height="5" fill="#4D65B4" />
<rect x="184" y="15" width="3" height="1" fill="#4D65B4" />
<rect x="198" y="15" width="10" height="1" fill="#4D65B4" />
<rect x="0" y="16" width="2" height="1" fill="#484A77" />
<rect x="2" y="16" width="1" height="1" fill="#4D65B4" />
<rect x="3" y="16" width="1" height="1" fill="#484A77" />
<rect x="4" y="16" width="1" height="1" fill="#4D65B4" />
<rect x="5" y="16" width="1" height="1" fill="#484A77" />
<rect x="6" y="16" width="1" height="12" fill="#4D65B4" />
<rect x="8" y="16" width="1" height="7" fill="#4D65B4" />
<rect x="10" y="16" width="1" height="4" fill="#4D65B4" />
<rect x="12" y="16" width="1" height="2" fill="#4D65B4" />
<rect x="25" y="16" width="1" height="1" fill="#4D65B4" />
<rect x="34" y="16" width="6" height="1" fill="#4D65B4" />
<rect x="72" y="16" width="1" height="4" fill="#4D9BE6" />
<rect x="73" y="16" width="1" height="2" fill="#4D65B4" />
<rect x="184" y="16" width="2" height="2" fill="#4D65B4" />
<rect x="199" y="16" width="9" height="4" fill="#4D65B4" />
<rect x="0" y="17" width="1" height="1" fill="#484A77" />
<rect x="1" y="17" width="1" height="1" fill="#4D65B4" />
<rect x="2" y="17" width="1" height="1" fill="#484A77" />
<rect x="3" y="17" width="1" height="1" fill="#4D65B4" />
<rect x="4" y="17" width="1" height="1" fill="#484A77" />
<rect x="5" y="17" width="1" height="13" fill="#4D65B4" />
<rect x="37" y="17" width="5" height="3" fill="#4D65B4" />
<rect x="69" y="17" width="1" height="1" fill="#484A77" />
<rect x="208" y="17" width="2" height="1" fill="#4D65B4" />
<rect x="0" y="18" width="1" height="1" fill="#4D65B4" />
<rect x="1" y="18" width="1" height="1" fill="#484A77" />
<rect x="2" y="18" width="1" height="1" fill="#4D65B4" />
<rect x="3" y="18" width="1" height="1" fill="#484A77" />
<rect x="4" y="18" width="1" height="17" fill="#4D65B4" />
<rect x="69" y="18" width="1" height="1" fill="#4D9BE6" />
<rect x="70" y="18" width="1" height="1" fill="#484A77" />
<rect x="71" y="18" width="1" height="1" fill="#4D9BE6" />
<rect x="73" y="18" width="1" height="1" fill="#4D9BE6" />
<rect x="184" y="18" width="1" height="3" fill="#4D65B4" />
<rect x="208" y="18" width="1" height="4" fill="#4D65B4" />
<rect x="0" y="19" width="1" height="1" fill="#484A77" />
<rect x="1" y="19" width="1" height="1" fill="#4D65B4" />
<rect x="2" y="19" width="1" height="1" fill="#484A77" />
<rect x="3" y="19" width="1" height="2" fill="#4D65B4" />
<rect x="69" y="19" width="1" height="1" fill="#484A77" />
<rect x="70" y="19" width="1" height="1" fill="#4D9BE6" />
<rect x="71" y="19" width="1" height="1" fill="#484A77" />
<rect x="73" y="19" width="1" height="1" fill="#484A77" />
<rect x="182" y="19" width="1" height="12" fill="#4D65B4" />
<rect x="0" y="20" width="1" height="4" fill="#4D65B4" />
<rect x="1" y="20" width="1" height="1" fill="#484A77" />
<rect x="2" y="20" width="1" height="2" fill="#4D65B4" />
<rect x="37" y="20" width="4" height="3" fill="#4D65B4" />
<rect x="69" y="20" width="1" height="10" fill="#4D65B4" />
<rect x="70" y="20" width="1" height="1" fill="#484A77" />
<rect x="71" y="20" width="1" height="1" fill="#4D9BE6" />
<rect x="72" y="20" width="1" height="1" fill="#484A77" />
<rect x="73" y="20" width="1" height="1" fill="#4D65B4" />
<rect x="74" y="20" width="1" height="1" fill="#484A77" />
<rect x="200" y="20" width="8" height="6" fill="#4D65B4" />
<rect x="1" y="21" width="1" height="2" fill="#4D65B4" />
<rect x="70" y="21" width="1" height="18" fill="#4D65B4" />
<rect x="71" y="21" width="1" height="1" fill="#484A77" />
<rect x="72" y="21" width="1" height="23" fill="#4D65B4" />
<rect x="73" y="21" width="1" height="1" fill="#484A77" />
<rect x="74" y="21" width="1" height="7" fill="#4D65B4" />
<rect x="71" y="22" width="1" height="19" fill="#4D65B4" />
<rect x="73" y="22" width="1" height="11" fill="#4D65B4" />
<rect x="37" y="23" width="3" height="2" fill="#4D65B4" />
<rect x="38" y="25" width="2" height="2" fill="#4D65B4" />
<rect x="156" y="25" width="1" height="4" fill="#4D65B4" />
<rect x="200" y="26" width="7" height="2" fill="#4D65B4" />
<rect x="39" y="27" width="1" height="4" fill="#4D65B4" />
<rect x="200" y="28" width="6" height="2" fill="#4D65B4" />
<rect x="3" y="29" width="1" height="17" fill="#4D65B4" />
<rect x="114" y="30" width="1" height="5" fill="#4D65B4" />
<rect x="158" y="30" width="1" height="2" fill="#4D65B4" />
<rect x="200" y="30" width="5" height="2" fill="#4D65B4" />
<rect x="183" y="31" width="1" height="4" fill="#4D65B4" />
<rect x="201" y="32" width="4" height="1" fill="#4D65B4" />
<rect x="201" y="33" width="3" height="3" fill="#4D65B4" />
<rect x="201" y="36" width="2" height="3" fill="#4D65B4" />
<rect x="202" y="39" width="1" height="1" fill="#4D65B4" />
</svg>