<?xml version="1.0" encoding="UTF-8" ?>
<svg version="1.1" width="216" height="128" xmlns="http://www.w3.org/2000/svg" shape-rendering="crispEdges">
<rect x="0" y="0" width="216" height="17" fill="#484A77" />
<rect x="0" y="17" width="41" height="1" fill="#484A77" />
<rect x="42" y="17" width="11" height="1" fill="#484A77" />
<rect x="56" y="17" width="160" height="2" fill="#484A77" />
<rect x="0" y="18" width="37" height="2" fill="#484A77" />
<rect x="45" y="18" width="7" height="3" fill="#484A77" />
<rect x="56" y="19" width="11" height="2" fill="#484A77" />
<rect x="76" y="19" width="4" height="2" fill="#484A77" />
<rect x="83" y="19" width="133" height="1" fill="#484A77" />
<rect x="0" y="20" width="31" height="2" fill="#484A77" />
<rect x="32" y="20" width="5" height="2" fill="#484A77" />
<rect x="87" y="20" width="129" height="1" fill="#484A77" />
<rect x="31" y="21" width="1" height="8" fill="#484A77" />
<rect x="45" y="21" width="6" height="1" fill="#484A77" />
<rect x="56" y="21" width="10" height="1" fill="#484A77" />
<rect x="76" y="21" width="3" height="3" fill="#484A77" />
<rect x="93" y="21" width="45" height="1" fill="#484A77" />
<rect x="145" y="21" width="5" height="1" fill="#484A77" />
<rect x="156" y="21" width="60" height="1" fill="#484A77" />
<rect x="0" y="22" width="18" height="2" fill="#484A77" />
<rect x="22" y="22" width="9" height="1" fill="#484A77" />
<rect x="32" y="22" width="4" height="6" fill="#484A77" />
<rect x="45" y="22" width="5" height="3" fill="#484A77" />
<rect x="56" y="22" width="9" height="2" fill="#484A77" />
<rect x="93" y="22" width="14" height="2" fill="#484A77" />
<rect x="108" y="22" width="23" height="1" fill="#484A77" />
<rect x="132" y="22" width="5" height="1" fill="#484A77" />
<rect x="146" y="22" width="4" height="2" fill="#484A77" />
<rect x="156" y="22" width="5" height="1" fill="#484A77" />
<rect x="167" y="22" width="49" height="2" fill="#484A77" />
<rect x="22" y="23" width="7" height="2" fill="#484A77" />
<rect x="44" y="23" width="1" height="15" fill="#484A77" />
<rect x="109" y="23" width="20" height="1" fill="#484A77" />
<rect x="132" y="23" width="4" height="3" fill="#484A77" />
<rect x="156" y="23" width="4" height="2" fill="#484A77" />
<rect x="0" y="24" width="17" height="1" fill="#484A77" />
<rect x="56" y="24" width="8" height="1" fill="#484A77" />
<rect x="76" y="24" width="2" height="2" fill="#484A77" />
<rect x="93" y="24" width="7" height="2" fill="#484A77" />
<rect x="101" y="24" width="6" height="1" fill="#484A77" />
<rect x="111" y="24" width="8" height="1" fill="#484A77" />
<rect x="124" y="24" width="5" height="1" fill="#484A77" />
<rect x="146" y="24" width="3" height="6" fill="#484A77" />
<rect x="167" y="24" width="9" height="2" fill="#484A77" />
<rect x="177" y="24" width="20" height="1" fill="#484A77" />
<rect x="202" y="24" width="14" height="1" fill="#484A77" />
<rect x="0" y="25" width="16" height="1" fill="#484A77" />
<rect x="23" y="25" width="5" height="1" fill="#484A77" />
<rect x="45" y="25" width="4" height="2" fill="#484A77" />
<rect x="56" y="25" width="7" height="1" fill="#484A77" />
<rect x="101" y="25" width="5" height="5" fill="#484A77" />
<rect x="112" y="25" width="4" height="3" fill="#484A77" />
<rect x="124" y="25" width="4" height="2" fill="#484A77" />
<rect x="156" y="25" width="2" height="2" fill="#484A77" />
<rect x="178" y="25" width="16" height="1" fill="#484A77" />
<rect x="205" y="25" width="11" height="1" fill="#484A77" />
<rect x="0" y="26" width="8" height="1" fill="#484A77" />
<rect x="10" y="26" width="5" height="2" fill="#484A77" />
<rect x="23" y="26" width="3" height="1" fill="#484A77" />
<rect x="56" y="26" width="6" height="2" fill="#484A77" />
<rect x="76" y="26" width="1" height="2" fill="#484A77" />
<rect x="94" y="26" width="5" height="2" fill="#484A77" />
<rect x="133" y="26" width="3" height="1" fill="#484A77" />
<rect x="167" y="26" width="8" height="1" fill="#484A77" />
<rect x="178" y="26" width="3" height="3" fill="#484A77" />
<rect x="208" y="26" width="8" height="1" fill="#484A77" />
<rect x="0" y="27" width="6" height="1" fill="#484A77" />
<rect x="24" y="27" width="1" height="1" fill="#484A77" />
<rect x="45" y="27" width="3" height="3" fill="#484A77" />
<rect x="75" y="27" width="1" height="2" fill="#484A77" />
<rect x="124" y="27" width="3" height="2" fill="#484A77" />
<rect x="133" y="27" width="2" height="2" fill="#484A77" />
<rect x="156" y="27" width="1" height="3" fill="#484A77" />
<rect x="167" y="27" width="7" height="3" fill="#484A77" />
<rect x="209" y="27" width="7" height="1" fill="#484A77" />
<rect x="0" y="28" width="2" height="6" fill="#484A77" />
<rect x="10" y="28" width="4" height="1" fill="#484A77" />
<rect x="32" y="28" width="3" height="2" fill="#484A77" />
<rect x="56" y="28" width="5" height="2" fill="#484A77" />
<rect x="94" y="28" width="4" height="2" fill="#484A77" />
<rect x="112" y="28" width="3" height="3" fill="#484A77" />
<rect x="210" y="28" width="6" height="2" fill="#484A77" />
<rect x="10" y="29" width="3" height="4" fill="#484A77" />
<rect x="124" y="29" width="2" height="4" fill="#484A77" />
<rect x="134" y="29" width="1" height="1" fill="#484A77" />
<rect x="178" y="29" width="2" height="3" fill="#484A77" />
<rect x="32" y="30" width="2" height="2" fill="#484A77" />
<rect x="45" y="30" width="2" height="2" fill="#484A77" />
<rect x="56" y="30" width="4" height="4" fill="#484A77" />
<rect x="94" y="30" width="3" height="3" fill="#484A77" />
<rect x="101" y="30" width="4" height="3" fill="#484A77" />
<rect x="146" y="30" width="2" height="3" fill="#484A77" />
<rect x="167" y="30" width="6" height="1" fill="#484A77" />
<rect x="211" y="30" width="4" height="3" fill="#484A77" />
<rect x="113" y="31" width="2" height="1" fill="#484A77" />
<rect x="167" y="31" width="5" height="2" fill="#484A77" />
<rect x="32" y="32" width="1" height="5" fill="#484A77" />
<rect x="45" y="32" width="1" height="7" fill="#484A77" />
<rect x="179" y="32" width="1" height="1" fill="#484A77" />
<rect x="10" y="33" width="2" height="3" fill="#484A77" />
<rect x="95" y="33" width="2" height="1" fill="#484A77" />
<rect x="101" y="33" width="3" height="3" fill="#484A77" />
<rect x="124" y="33" width="1" height="1" fill="#484A77" />
<rect x="147" y="33" width="1" height="2" fill="#484A77" />
<rect x="167" y="33" width="4" height="1" fill="#484A77" />
<rect x="211" y="33" width="3" height="2" fill="#484A77" />
<rect x="0" y="34" width="1" height="6" fill="#484A77" />
<rect x="57" y="34" width="3" height="2" fill="#484A77" />
<rect x="96" y="34" width="1" height="5" fill="#484A77" />
<rect x="168" y="34" width="2" height="1" fill="#484A77" />
<rect x="212" y="35" width="2" height="2" fill="#484A77" />
<rect x="11" y="36" width="1" height="1" fill="#484A77" />
<rect x="58" y="36" width="2" height="2" fill="#484A77" />
<rect x="102" y="36" width="2" height="1" fill="#484A77" />
<rect x="213" y="37" width="1" height="4" fill="#484A77" />
<rect x="59" y="38" width="1" height="3" fill="#484A77" />
</svg>