<?xml version="1.0" encoding="UTF-8" ?>
<svg version="1.1" width="216" height="128" xmlns="http://www.w3.org/2000/svg" shape-rendering="crispEdges">
<rect x="0" y="0" width="44" height="1" fill="#8FD3FF" />
<rect x="44" y="0" width="48" height="4" fill="#4D9BE6" />
<rect x="92" y="0" width="1" height="1" fill="#8FD3FF" />
<rect x="93" y="0" width="1" height="1" fill="#4D9BE6" />
<rect x="94" y="0" width="31" height="1" fill="#8FD3FF" />
<rect x="125" y="0" width="1" height="1" fill="#4D9BE6" />
<rect x="126" y="0" width="1" height="1" fill="#8FD3FF" />
<rect x="127" y="0" width="61" height="1" fill="#4D9BE6" />
<rect x="188" y="0" width="1" height="1" fill="#8FD3FF" />
<rect x="189" y="0" width="1" height="1" fill="#4D9BE6" />
<rect x="190" y="0" width="26" height="5" fill="#8FD3FF" />
<rect x="0" y="1" width="40" height="1" fill="#8FD3FF" />
<rect x="40" y="1" width="4" height="11" fill="#4D9BE6" />
<rect x="92" y="1" width="1" height="11" fill="#4D9BE6" />
<rect x="93" y="1" width="1" height="1" fill="#8FD3FF" />
<rect x="94" y="1" width="1" height="1" fill="#4D9BE6" />
<rect x="95" y="1" width="27" height="1" fill="#8FD3FF" />
<rect x="122" y="1" width="1" height="1" fill="#4D9BE6" />
<rect x="123" y="1" width="1" height="1" fill="#8FD3FF" />
<rect x="124" y="1" width="1" height="1" fill="#4D9BE6" />
<rect x="125" y="1" width="1" height="1" fill="#8FD3FF" />
<rect x="126" y="1" width="21" height="1" fill="#4D9BE6" />
<rect x="162" y="1" width="25" height="1" fill="#4D9BE6" />
<rect x="187" y="1" width="1" height="1" fill="#8FD3FF" />
<rect x="188" y="1" width="1" height="1" fill="#4D9BE6" />
<rect x="189" y="1" width="1" height="1" fill="#8FD3FF" />
<rect x="0" y="2" width="35" height="1" fill="#8FD3FF" />
<rect x="35" y="2" width="5" height="4" fill="#4D9BE6" />
<rect x="93" y="2" width="1" height="6" fill="#4D9BE6" />
<rect x="94" y="2" width="1" height="1" fill="#8FD3FF" />
<rect x="95" y="2" width="1" height="1" fill="#4D9BE6" />
<rect x="96" y="2" width="1" height="1" fill="#8FD3FF" />
<rect x="97" y="2" width="1" height="1" fill="#4D9BE6" />
<rect x="98" y="2" width="23" height="1" fill="#8FD3FF" />
<rect x="121" y="2" width="1" height="1" fill="#4D9BE6" />
<rect x="122" y="2" width="1" height="1" fill="#8FD3FF" />
<rect x="123" y="2" width="1" height="1" fill="#4D9BE6" />
<rect x="124" y="2" width="1" height="1" fill="#8FD3FF" />
<rect x="125" y="2" width="18" height="1" fill="#4D9BE6" />
<rect x="168" y="2" width="20" height="1" fill="#4D9BE6" />
<rect x="188" y="2" width="1" height="1" fill="#8FD3FF" />
<rect x="189" y="2" width="1" height="1" fill="#4D9BE6" />
<rect x="0" y="3" width="20" height="1" fill="#8FD3FF" />
<rect x="20" y="3" width="1" height="1" fill="#4D9BE6" />
<rect x="21" y="3" width="1" height="1" fill="#8FD3FF" />
<rect x="22" y="3" width="1" height="1" fill="#4D9BE6" />
<rect x="23" y="3" width="1" height="1" fill="#8FD3FF" />
<rect x="24" y="3" width="1" height="1" fill="#4D9BE6" />
<rect x="25" y="3" width="3" height="1" fill="#8FD3FF" />
<rect x="28" y="3" width="1" height="1" fill="#4D9BE6" />
<rect x="29" y="3" width="1" height="1" fill="#8FD3FF" />
<rect x="30" y="3" width="1" height="1" fill="#4D9BE6" />
<rect x="31" y="3" width="1" height="1" fill="#8FD3FF" />
<rect x="32" y="3" width="3" height="4" fill="#4D9BE6" />
<rect x="94" y="3" width="1" height="3" fill="#4D9BE6" />
<rect x="95" y="3" width="1" height="1" fill="#8FD3FF" />
<rect x="96" y="3" width="1" height="1" fill="#4D9BE6" />
<rect x="97" y="3" width="1" height="1" fill="#8FD3FF" />
<rect x="98" y="3" width="1" height="1" fill="#4D9BE6" />
<rect x="99" y="3" width="1" height="1" fill="#8FD3FF" />
<rect x="100" y="3" width="1" height="1" fill="#4D9BE6" />
<rect x="101" y="3" width="19" height="1" fill="#8FD3FF" />
<rect x="120" y="3" width="1" height="1" fill="#4D9BE6" />
<rect x="121" y="3" width="1" height="1" fill="#8FD3FF" />
<rect x="122" y="3" width="1" height="1" fill="#4D9BE6" />
<rect x="123" y="3" width="1" height="1" fill="#8FD3FF" />
<rect x="124" y="3" width="17" height="1" fill="#4D9BE6" />
<rect x="183" y="3" width="6" height="1" fill="#4D9BE6" />
<rect x="189" y="3" width="1" height="1" fill="#8FD3FF" />
<rect x="0" y="4" width="19" height="1" fill="#8FD3FF" />
<rect x="19" y="4" width="1" height="1" fill="#4D9BE6" />
<rect x="20" y="4" width="1" height="1" fill="#8FD3FF" />
<rect x="21" y="4" width="1" height="1" fill="#4D9BE6" />
<rect x="22" y="4" width="1" height="1" fill="#8FD3FF" />
<rect x="23" y="4" width="1" height="1" fill="#4D9BE6" />
<rect x="24" y="4" width="1" height="1" fill="#8FD3FF" />
<rect x="25" y="4" width="1" height="1" fill="#4D9BE6" />
<rect x="26" y="4" width="1" height="1" fill="#8FD3FF" />
<rect x="27" y="4" width="1" height="1" fill="#4D9BE6" />
<rect x="28" y="4" width="1" height="1" fill="#8FD3FF" />
<rect x="29" y="4" width="1" height="4" fill="#4D9BE6" />
<rect x="30" y="4" width="1" height="1" fill="#8FD3FF" />
<rect x="31" y="4" width="1" height="2" fill="#4D9BE6" />
<rect x="44" y="4" width="44" height="1" fill="#4D9BE6" />
<rect x="88" y="4" width="2" height="12" fill="#8FD3FF" />
<rect x="90" y="4" width="2" height="11" fill="#4D9BE6" />
<rect x="95" y="4" width="1" height="2" fill="#4D9BE6" />
<rect x="96" y="4" width="1" height="1" fill="#8FD3FF" />
<rect x="97" y="4" width="1" height="2" fill="#4D9BE6" />
<rect x="98" y="4" width="1" height="1" fill="#8FD3FF" />
<rect x="99" y="4" width="1" height="2" fill="#4D9BE6" />
<rect x="100" y="4" width="1" height="1" fill="#8FD3FF" />
<rect x="101" y="4" width="1" height="3" fill="#4D9BE6" />
<rect x="102" y="4" width="1" height="1" fill="#8FD3FF" />
<rect x="103" y="4" width="1" height="3" fill="#4D9BE6" />
<rect x="104" y="4" width="1" height="1" fill="#8FD3FF" />
<rect x="105" y="4" width="1" height="3" fill="#4D9BE6" />
<rect x="106" y="4" width="1" height="1" fill="#8FD3FF" />
<rect x="107" y="4" width="1" height="1" fill="#4D9BE6" />
<rect x="108" y="4" width="1" height="1" fill="#8FD3FF" />
<rect x="109" y="4" width="1" height="1" fill="#4D9BE6" />
<rect x="110" y="4" width="9" height="1" fill="#8FD3FF" />
<rect x="119" y="4" width="1" height="1" fill="#4D9BE6" />
<rect x="120" y="4" width="1" height="1" fill="#8FD3FF" />
<rect x="121" y="4" width="1" height="1" fill="#4D9BE6" />
<rect x="122" y="4" width="1" height="1" fill="#8FD3FF" />
<rect x="123" y="4" width="15" height="1" fill="#4D9BE6" />
<rect x="184" y="4" width="4" height="6" fill="#4D9BE6" />
<rect x="188" y="4" width="1" height="1" fill="#8FD3FF" />
<rect x="189" y="4" width="1" height="1" fill="#4D9BE6" />
<rect x="0" y="5" width="16" height="1" fill="#8FD3FF" />
<rect x="16" y="5" width="1" height="1" fill="#4D9BE6" />
<rect x="17" y="5" width="1" height="1" fill="#8FD3FF" />
<rect x="18" y="5" width="1" height="1" fill="#4D9BE6" />
<rect x="19" y="5" width="1" height="1" fill="#8FD3FF" />
<rect x="20" y="5" width="1" height="1" fill="#4D9BE6" />
<rect x="21" y="5" width="1" height="1" fill="#8FD3FF" />
<rect x="22" y="5" width="1" height="8" fill="#4D9BE6" />
<rect x="23" y="5" width="1" height="1" fill="#8FD3FF" />
<rect x="24" y="5" width="1" height="7" fill="#4D9BE6" />
<rect x="25" y="5" width="1" height="1" fill="#8FD3FF" />
<rect x="26" y="5" width="1" height="5" fill="#4D9BE6" />
<rect x="27" y="5" width="1" height="1" fill="#8FD3FF" />
<rect x="28" y="5" width="1" height="3" fill="#4D9BE6" />
<rect x="30" y="5" width="1" height="2" fill="#4D9BE6" />
<rect x="44" y="5" width="21" height="1" fill="#4D9BE6" />
<rect x="83" y="5" width="5" height="1" fill="#4D9BE6" />
<rect x="96" y="5" width="1" height="1" fill="#4D9BE6" />
<rect x="98" y="5" width="1" height="1" fill="#4D9BE6" />
<rect x="100" y="5" width="1" height="2" fill="#4D9BE6" />
<rect x="102" y="5" width="1" height="2" fill="#4D9BE6" />
<rect x="104" y="5" width="1" height="2" fill="#4D9BE6" />
<rect x="106" y="5" width="1" height="2" fill="#4D9BE6" />
<rect x="107" y="5" width="1" height="1" fill="#8FD3FF" />
<rect x="108" y="5" width="1" height="2" fill="#4D9BE6" />
<rect x="109" y="5" width="1" height="1" fill="#8FD3FF" />
<rect x="110" y="5" width="5" height="2" fill="#4D9BE6" />
<rect x="115" y="5" width="1" height="1" fill="#8FD3FF" />
<rect x="116" y="5" width="1" height="1" fill="#4D9BE6" />
<rect x="117" y="5" width="1" height="1" fill="#8FD3FF" />
<rect x="118" y="5" width="1" height="1" fill="#4D9BE6" />
<rect x="119" y="5" width="1" height="1" fill="#8FD3FF" />
<rect x="120" y="5" width="1" height="1" fill="#4D9BE6" />
<rect x="121" y="5" width="1" height="1" fill="#8FD3FF" />
<rect x="122" y="5" width="14" height="1" fill="#4D9BE6" />
<rect x="188" y="5" width="1" height="31" fill="#4D9BE6" />
<rect x="189" y="5" width="1" height="1" fill="#8FD3FF" />
<rect x="190" y="5" width="1" height="1" fill="#4D9BE6" />
<rect x="191" y="5" width="25" height="3" fill="#8FD3FF" />
<rect x="0" y="6" width="15" height="1" fill="#8FD3FF" />
<rect x="15" y="6" width="1" height="1" fill="#4D9BE6" />
<rect x="16" y="6" width="1" height="1" fill="#8FD3FF" />
<rect x="17" y="6" width="1" height="8" fill="#4D9BE6" />
<rect x="18" y="6" width="1" height="1" fill="#8FD3FF" />
<rect x="19" y="6" width="1" height="6" fill="#4D9BE6" />
<rect x="20" y="6" width="1" height="1" fill="#8FD3FF" />
<rect x="21" y="6" width="1" height="8" fill="#4D9BE6" />
<rect x="23" y="6" width="1" height="7" fill="#4D9BE6" />
<rect x="25" y="6" width="1" height="5" fill="#4D9BE6" />
<rect x="27" y="6" width="1" height="3" fill="#4D9BE6" />
<rect x="31" y="6" width="1" height="4" fill="#4D65B4" />
<rect x="35" y="6" width="4" height="1" fill="#4D65B4" />
<rect x="39" y="6" width="1" height="8" fill="#4D9BE6" />
<rect x="44" y="6" width="5" height="2" fill="#4D9BE6" />
<rect x="56" y="6" width="5" height="1" fill="#4D9BE6" />
<rect x="87" y="6" width="1" height="1" fill="#4D9BE6" />
<rect x="107" y="6" width="1" height="1" fill="#4D9BE6" />
<rect x="109" y="6" width="1" height="1" fill="#4D9BE6" />
<rect x="115" y="6" width="1" height="1" fill="#4D9BE6" />
<rect x="116" y="6" width="1" height="1" fill="#8FD3FF" />
<rect x="117" y="6" width="1" height="2" fill="#4D9BE6" />
<rect x="118" y="6" width="1" height="1" fill="#8FD3FF" />
<rect x="119" y="6" width="1" height="2" fill="#4D9BE6" />
<rect x="120" y="6" width="1" height="1" fill="#8FD3FF" />
<rect x="121" y="6" width="12" height="1" fill="#4D9BE6" />
<rect x="189" y="6" width="1" height="1" fill="#4D9BE6" />
<rect x="190" y="6" width="1" height="1" fill="#8FD3FF" />
<rect x="0" y="7" width="12" height="1" fill="#8FD3FF" />
<rect x="12" y="7" width="1" height="1" fill="#4D9BE6" />
<rect x="13" y="7" width="1" height="1" fill="#8FD3FF" />
<rect x="14" y="7" width="1" height="1" fill="#4D9BE6" />
<rect x="15" y="7" width="1" height="1" fill="#8FD3FF" />
<rect x="16" y="7" width="1" height="8" fill="#4D9BE6" />
<rect x="18" y="7" width="1" height="6" fill="#4D9BE6" />
<rect x="20" y="7" width="1" height="6" fill="#4D9BE6" />
<rect x="30" y="7" width="1" height="4" fill="#4D65B4" />
<rect x="32" y="7" width="4" height="1" fill="#4D65B4" />
<rect x="36" y="7" width="3" height="7" fill="#4D9BE6" />
<rect x="56" y="7" width="4" height="1" fill="#4D9BE6" />
<rect x="87" y="7" width="1" height="8" fill="#8FD3FF" />
<rect x="116" y="7" width="1" height="1" fill="#4D9BE6" />
<rect x="118" y="7" width="1" height="1" fill="#4D9BE6" />
<rect x="120" y="7" width="7" height="1" fill="#4D9BE6" />
<rect x="189" y="7" width="1" height="1" fill="#8FD3FF" />
<rect x="190" y="7" width="1" height="1" fill="#4D9BE6" />
<rect x="0" y="8" width="7" height="1" fill="#8FD3FF" />
<rect x="7" y="8" width="1" height="1" fill="#4D9BE6" />
<rect x="8" y="8" width="1" height="1" fill="#8FD3FF" />
<rect x="9" y="8" width="1" height="1" fill="#4D9BE6" />
<rect x="10" y="8" width="1" height="1" fill="#8FD3FF" />
<rect x="11" y="8" width="1" height="1" fill="#4D9BE6" />
<rect x="12" y="8" width="1" height="1" fill="#8FD3FF" />
<rect x="13" y="8" width="1" height="1" fill="#4D9BE6" />
<rect x="14" y="8" width="1" height="1" fill="#8FD3FF" />
<rect x="15" y="8" width="1" height="16" fill="#4D9BE6" />
<rect x="28" y="8" width="2" height="4" fill="#4D65B4" />
<rect x="32" y="8" width="2" height="1" fill="#4D65B4" />
<rect x="34" y="8" width="2" height="9" fill="#4D9BE6" />
<rect x="44" y="8" width="4" height="1" fill="#4D9BE6" />
<rect x="56" y="8" width="3" height="1" fill="#4D9BE6" />
<rect x="189" y="8" width="1" height="15" fill="#4D9BE6" />
<rect x="190" y="8" width="1" height="1" fill="#8FD3FF" />
<rect x="191" y="8" width="1" height="1" fill="#4D9BE6" />
<rect x="192" y="8" width="24" height="3" fill="#8FD3FF" />
<rect x="0" y="9" width="1" height="1" fill="#4D9BE6" />
<rect x="1" y="9" width="1" height="1" fill="#8FD3FF" />
<rect x="2" y="9" width="1" height="1" fill="#4D9BE6" />
<rect x="3" y="9" width="1" height="1" fill="#8FD3FF" />
<rect x="4" y="9" width="1" height="1" fill="#4D9BE6" />
<rect x="5" y="9" width="1" height="1" fill="#8FD3FF" />
<rect x="6" y="9" width="1" height="2" fill="#4D9BE6" />
<rect x="7" y="9" width="1" height="1" fill="#8FD3FF" />
<rect x="8" y="9" width="1" height="2" fill="#4D9BE6" />
<rect x="9" y="9" width="1" height="1" fill="#8FD3FF" />
<rect x="10" y="9" width="1" height="1" fill="#4D9BE6" />
<rect x="11" y="9" width="1" height="1" fill="#8FD3FF" />
<rect x="12" y="9" width="1" height="1" fill="#4D9BE6" />
<rect x="13" y="9" width="1" height="1" fill="#8FD3FF" />
<rect x="14" y="9" width="1" height="8" fill="#4D9BE6" />
<rect x="27" y="9" width="1" height="6" fill="#4D65B4" />
<rect x="32" y="9" width="2" height="9" fill="#4D9BE6" />
<rect x="44" y="9" width="3" height="1" fill="#4D9BE6" />
<rect x="56" y="9" width="2" height="3" fill="#4D9BE6" />
<rect x="86" y="9" width="1" height="3" fill="#4D9BE6" />
<rect x="190" y="9" width="1" height="1" fill="#4D9BE6" />
<rect x="191" y="9" width="1" height="1" fill="#8FD3FF" />
<rect x="0" y="10" width="1" height="1" fill="#8FD3FF" />
<rect x="1" y="10" width="1" height="2" fill="#4D9BE6" />
<rect x="2" y="10" width="1" height="1" fill="#8FD3FF" />
<rect x="3" y="10" width="1" height="2" fill="#4D9BE6" />
<rect x="4" y="10" width="1" height="1" fill="#8FD3FF" />
<rect x="5" y="10" width="1" height="2" fill="#4D9BE6" />
<rect x="7" y="10" width="1" height="1" fill="#4D9BE6" />
<rect x="9" y="10" width="1" height="1" fill="#4D9BE6" />
<rect x="10" y="10" width="1" height="1" fill="#8FD3FF" />
<rect x="11" y="10" width="1" height="3" fill="#4D9BE6" />
<rect x="12" y="10" width="1" height="1" fill="#8FD3FF" />
<rect x="13" y="10" width="1" height="5" fill="#4D9BE6" />
<rect x="26" y="10" width="1" height="7" fill="#4D65B4" />
<rect x="31" y="10" width="1" height="10" fill="#4D9BE6" />
<rect x="44" y="10" width="2" height="1" fill="#4D9BE6" />
<rect x="185" y="10" width="3" height="2" fill="#4D9BE6" />
<rect x="190" y="10" width="1" height="1" fill="#8FD3FF" />
<rect x="191" y="10" width="1" height="1" fill="#4D9BE6" />
<rect x="0" y="11" width="1" height="1" fill="#4D9BE6" />
<rect x="2" y="11" width="1" height="1" fill="#4D9BE6" />
<rect x="4" y="11" width="1" height="1" fill="#4D9BE6" />
<rect x="10" y="11" width="1" height="1" fill="#4D9BE6" />
<rect x="12" y="11" width="1" height="3" fill="#4D9BE6" />
<rect x="25" y="11" width="1" height="7" fill="#4D65B4" />
<rect x="30" y="11" width="1" height="8" fill="#4D9BE6" />
<rect x="44" y="11" width="1" height="1" fill="#4D9BE6" />
<rect x="190" y="11" width="1" height="1" fill="#4D9BE6" />
<rect x="191" y="11" width="1" height="1" fill="#8FD3FF" />
<rect x="192" y="11" width="1" height="1" fill="#4D9BE6" />
<rect x="193" y="11" width="23" height="1" fill="#8FD3FF" />
<rect x="19" y="12" width="1" height="1" fill="#8FD3FF" />
<rect x="24" y="12" width="1" height="10" fill="#4D65B4" />
<rect x="28" y="12" width="1" height="1" fill="#4D65B4" />
<rect x="29" y="12" width="1" height="6" fill="#4D9BE6" />
<rect x="40" y="12" width="2" height="1" fill="#4D9BE6" />
<rect x="56" y="12" width="1" height="3" fill="#4D9BE6" />
<rect x="186" y="12" width="2" height="3" fill="#4D9BE6" />
<rect x="190" y="12" width="1" height="1" fill="#8FD3FF" />
<rect x="191" y="12" width="1" height="1" fill="#4D9BE6" />
<rect x="192" y="12" width="1" height="1" fill="#8FD3FF" />
<rect x="193" y="12" width="1" height="1" fill="#70B9F4" />
<rect x="194" y="12" width="22" height="1" fill="#8FD3FF" />
<rect x="18" y="13" width="1" height="1" fill="#8FD3FF" />
<rect x="19" y="13" width="1" height="1" fill="#4D9BE6" />
<rect x="20" y="13" width="1" height="9" fill="#8FD3FF" />
<rect x="22" y="13" width="2" height="11" fill="#4D65B4" />
<rect x="28" y="13" width="1" height="4" fill="#4D9BE6" />
<rect x="190" y="13" width="1" height="1" fill="#4D9BE6" />
<rect x="191" y="13" width="1" height="1" fill="#8FD3FF" />
<rect x="192" y="13" width="1" height="1" fill="#70B9F4" />
<rect x="193" y="13" width="1" height="1" fill="#8FD3FF" />
<rect x="194" y="13" width="1" height="1" fill="#70B9F4" />
<rect x="195" y="13" width="21" height="1" fill="#8FD3FF" />
<rect x="17" y="14" width="1" height="1" fill="#8FD3FF" />
<rect x="18" y="14" width="1" height="1" fill="#4D9BE6" />
<rect x="19" y="14" width="1" height="17" fill="#8FD3FF" />
<rect x="21" y="14" width="1" height="18" fill="#4D65B4" />
<rect x="36" y="14" width="1" height="2" fill="#4D9BE6" />
<rect x="190" y="14" width="1" height="1" fill="#8FD3FF" />
<rect x="191" y="14" width="1" height="1" fill="#4D9BE6" />
<rect x="192" y="14" width="1" height="1" fill="#8FD3FF" />
<rect x="193" y="14" width="1" height="1" fill="#70B9F4" />
<rect x="194" y="14" width="1" height="1" fill="#8FD3FF" />
<rect x="195" y="14" width="1" height="1" fill="#80C7FA" />
<rect x="196" y="14" width="20" height="1" fill="#8FD3FF" />
<rect x="16" y="15" width="1" height="1" fill="#8FD3FF" />
<rect x="17" y="15" width="1" height="1" fill="#4D9BE6" />
<rect x="18" y="15" width="1" height="1" fill="#8FD3FF" />
<rect x="27" y="15" width="1" height="1" fill="#4D9BE6" />
<rect x="87" y="15" width="1" height="8" fill="#4D9BE6" />
<rect x="90" y="15" width="1" height="14" fill="#4D9BE6" />
<rect x="187" y="15" width="1" height="21" fill="#4D9BE6" />
<rect x="190" y="15" width="1" height="1" fill="#4D9BE6" />
<rect x="191" y="15" width="1" height="1" fill="#8FD3FF" />
<rect x="192" y="15" width="1" height="1" fill="#4D9BE6" />
<rect x="193" y="15" width="1" height="1" fill="#8FD3FF" />
<rect x="194" y="15" width="1" height="1" fill="#70B9F4" />
<rect x="195" y="15" width="1" height="1" fill="#8FD3FF" />
<rect x="196" y="15" width="1" height="1" fill="#80C7FA" />
<rect x="197" y="15" width="19" height="1" fill="#8FD3FF" />
<rect x="16" y="16" width="1" height="1" fill="#4D9BE6" />
<rect x="17" y="16" width="1" height="1" fill="#8FD3FF" />
<rect x="18" y="16" width="1" height="1" fill="#4D9BE6" />
<rect x="27" y="16" width="1" height="1" fill="#4D65B4" />
<rect x="88" y="16" width="2" height="10" fill="#4D9BE6" />
<rect x="190" y="16" width="1" height="1" fill="#8FD3FF" />
<rect x="191" y="16" width="1" height="1" fill="#4D9BE6" />
<rect x="192" y="16" width="1" height="1" fill="#8FD3FF" />
<rect x="193" y="16" width="1" height="1" fill="#5BA7EC" />
<rect x="194" y="16" width="1" height="1" fill="#8FD3FF" />
<rect x="195" y="16" width="1" height="1" fill="#70B9F4" />
<rect x="196" y="16" width="1" height="1" fill="#8FD3FF" />
<rect x="197" y="16" width="1" height="1" fill="#80C7FA" />
<rect x="198" y="16" width="1" height="1" fill="#8FD3FF" />
<rect x="199" y="16" width="1" height="1" fill="#80C7FA" />
<rect x="200" y="16" width="1" height="1" fill="#8FD3FF" />
<rect x="201" y="16" width="1" height="1" fill="#80C7FA" />
<rect x="202" y="16" width="1" height="1" fill="#8FD3FF" />
<rect x="203" y="16" width="1" height="1" fill="#80C7FA" />
<rect x="204" y="16" width="12" height="1" fill="#8FD3FF" />
<rect x="16" y="17" width="1" height="1" fill="#8FD3FF" />
<rect x="17" y="17" width="1" height="1" fill="#4D9BE6" />
<rect x="18" y="17" width="1" height="17" fill="#8FD3FF" />
<rect x="26" y="17" width="2" height="14" fill="#4D9BE6" />
<rect x="28" y="17" width="1" height="1" fill="#4D65B4" />
<rect x="34" y="17" width="1" height="1" fill="#4D9BE6" />
<rect x="190" y="17" width="1" height="7" fill="#4D9BE6" />
<rect x="191" y="17" width="1" height="1" fill="#8FD3FF" />
<rect x="192" y="17" width="1" height="1" fill="#4D9BE6" />
<rect x="193" y="17" width="1" height="1" fill="#8FD3FF" />
<rect x="194" y="17" width="1" height="1" fill="#5BA7EC" />
<rect x="195" y="17" width="1" height="1" fill="#8FD3FF" />
<rect x="196" y="17" width="1" height="1" fill="#70B9F4" />
<rect x="197" y="17" width="1" height="1" fill="#8FD3FF" />
<rect x="198" y="17" width="1" height="1" fill="#80C7FA" />
<rect x="199" y="17" width="1" height="1" fill="#8FD3FF" />
<rect x="200" y="17" width="1" height="1" fill="#80C7FA" />
<rect x="201" y="17" width="1" height="1" fill="#8FD3FF" />
<rect x="202" y="17" width="1" height="1" fill="#70B9F4" />
<rect x="203" y="17" width="1" height="1" fill="#8FD3FF" />
<rect x="204" y="17" width="1" height="1" fill="#70B9F4" />
<rect x="205" y="17" width="1" height="1" fill="#8FD3FF" />
<rect x="206" y="17" width="1" height="1" fill="#70B9F4" />
<rect x="207" y="17" width="1" height="1" fill="#8FD3FF" />
<rect x="208" y="17" width="1" height="1" fill="#70B9F4" />
<rect x="209" y="17" width="1" height="1" fill="#8FD3FF" />
<rect x="210" y="17" width="1" height="1" fill="#70B9F4" />
<rect x="211" y="17" width="1" height="1" fill="#8FD3FF" />
<rect x="212" y="17" width="1" height="1" fill="#70B9F4" />
<rect x="213" y="17" width="1" height="1" fill="#8FD3FF" />
<rect x="214" y="17" width="1" height="1" fill="#70B9F4" />
<rect x="215" y="17" width="1" height="1" fill="#8FD3FF" />
<rect x="16" y="18" width="1" height="1" fill="#4D9BE6" />
<rect x="17" y="18" width="1" height="20" fill="#8FD3FF" />
<rect x="25" y="18" width="1" height="43" fill="#4D9BE6" />
<rect x="28" y="18" width="1" height="7" fill="#4D9BE6" />
<rect x="29" y="18" width="1" height="1" fill="#4D65B4" />
<rect x="32" y="18" width="1" height="2" fill="#4D9BE6" />
<rect x="191" y="18" width="1" height="13" fill="#4D9BE6" />
<rect x="192" y="18" width="1" height="1" fill="#8FD3FF" />
<rect x="193" y="18" width="1" height="1" fill="#4D9BE6" />
<rect x="194" y="18" width="1" height="1" fill="#8FD3FF" />
<rect x="195" y="18" width="1" height="1" fill="#5BA7EC" />
<rect x="196" y="18" width="1" height="1" fill="#8FD3FF" />
<rect x="197" y="18" width="1" height="1" fill="#70B9F4" />
<rect x="198" y="18" width="1" height="1" fill="#8FD3FF" />
<rect x="199" y="18" width="1" height="1" fill="#80C7FA" />
<rect x="200" y="18" width="1" height="1" fill="#8FD3FF" />
<rect x="201" y="18" width="1" height="1" fill="#70B9F4" />
<rect x="202" y="18" width="1" height="1" fill="#8FD3FF" />
<rect x="203" y="18" width="1" height="1" fill="#5BA7EC" />
<rect x="204" y="18" width="1" height="1" fill="#8FD3FF" />
<rect x="205" y="18" width="1" height="1" fill="#5BA7EC" />
<rect x="206" y="18" width="1" height="1" fill="#8FD3FF" />
<rect x="207" y="18" width="1" height="1" fill="#5BA7EC" />
<rect x="208" y="18" width="1" height="1" fill="#8FD3FF" />
<rect x="209" y="18" width="1" height="1" fill="#5BA7EC" />
<rect x="210" y="18" width="1" height="1" fill="#8FD3FF" />
<rect x="211" y="18" width="1" height="1" fill="#70B9F4" />
<rect x="212" y="18" width="1" height="1" fill="#8FD3FF" />
<rect x="213" y="18" width="1" height="1" fill="#70B9F4" />
<rect x="214" y="18" width="1" height="1" fill="#8FD3FF" />
<rect x="215" y="18" width="1" height="1" fill="#70B9F4" />
<rect x="14" y="19" width="1" height="10" fill="#4D9BE6" />
<rect x="16" y="19" width="1" height="18" fill="#8FD3FF" />
<rect x="29" y="19" width="1" height="5" fill="#4D9BE6" />
<rect x="30" y="19" width="1" height="1" fill="#4D65B4" />
<rect x="192" y="19" width="1" height="12" fill="#4D9BE6" />
<rect x="193" y="19" width="1" height="1" fill="#8FD3FF" />
<rect x="194" y="19" width="1" height="1" fill="#4D9BE6" />
<rect x="195" y="19" width="1" height="1" fill="#8FD3FF" />
<rect x="196" y="19" width="1" height="1" fill="#5BA7EC" />
<rect x="197" y="19" width="1" height="1" fill="#8FD3FF" />
<rect x="198" y="19" width="1" height="1" fill="#70B9F4" />
<rect x="199" y="19" width="1" height="1" fill="#8FD3FF" />
<rect x="200" y="19" width="1" height="1" fill="#70B9F4" />
<rect x="201" y="19" width="1" height="1" fill="#8FD3FF" />
<rect x="202" y="19" width="1" height="1" fill="#5BA7EC" />
<rect x="203" y="19" width="1" height="1" fill="#8FD3FF" />
<rect x="204" y="19" width="1" height="1" fill="#4D9BE6" />
<rect x="205" y="19" width="1" height="1" fill="#8FD3FF" />
<rect x="206" y="19" width="1" height="1" fill="#4D9BE6" />
<rect x="207" y="19" width="1" height="1" fill="#8FD3FF" />
<rect x="208" y="19" width="1" height="1" fill="#4D9BE6" />
<rect x="209" y="19" width="1" height="1" fill="#8FD3FF" />
<rect x="210" y="19" width="1" height="1" fill="#4D9BE6" />
<rect x="211" y="19" width="1" height="1" fill="#8FD3FF" />
<rect x="212" y="19" width="1" height="1" fill="#4D9BE6" />
<rect x="213" y="19" width="1" height="1" fill="#8FD3FF" />
<rect x="214" y="19" width="1" height="1" fill="#4D9BE6" />
<rect x="215" y="19" width="1" height="1" fill="#8FD3FF" />
<rect x="30" y="20" width="1" height="3" fill="#4D9BE6" />
<rect x="31" y="20" width="1" height="1" fill="#4D65B4" />
<rect x="193" y="20" width="1" height="1" fill="#4D9BE6" />
<rect x="194" y="20" width="1" height="1" fill="#8FD3FF" />
<rect x="195" y="20" width="1" height="1" fill="#4D9BE6" />
<rect x="196" y="20" width="1" height="1" fill="#8FD3FF" />
<rect x="197" y="20" width="1" height="1" fill="#5BA7EC" />
<rect x="198" y="20" width="1" height="1" fill="#8FD3FF" />
<rect x="199" y="20" width="1" height="1" fill="#5BA7EC" />
<rect x="200" y="20" width="1" height="1" fill="#8FD3FF" />
<rect x="201" y="20" width="1" height="1" fill="#5BA7EC" />
<rect x="202" y="20" width="1" height="1" fill="#8FD3FF" />
<rect x="203" y="20" width="1" height="1" fill="#4D9BE6" />
<rect x="204" y="20" width="1" height="1" fill="#8FD3FF" />
<rect x="205" y="20" width="1" height="1" fill="#4D9BE6" />
<rect x="206" y="20" width="1" height="1" fill="#8FD3FF" />
<rect x="207" y="20" width="1" height="1" fill="#4D9BE6" />
<rect x="208" y="20" width="1" height="1" fill="#8FD3FF" />
<rect x="209" y="20" width="1" height="1" fill="#4D9BE6" />
<rect x="210" y="20" width="1" height="1" fill="#8FD3FF" />
<rect x="211" y="20" width="1" height="1" fill="#4D9BE6" />
<rect x="212" y="20" width="1" height="1" fill="#8FD3FF" />
<rect x="213" y="20" width="1" height="1" fill="#4D9BE6" />
<rect x="214" y="20" width="1" height="1" fill="#8FD3FF" />
<rect x="215" y="20" width="1" height="1" fill="#4D9BE6" />
<rect x="193" y="21" width="1" height="1" fill="#74BCF5" />
<rect x="194" y="21" width="1" height="1" fill="#4D9BE6" />
<rect x="195" y="21" width="1" height="1" fill="#8FD3FF" />
<rect x="196" y="21" width="1" height="1" fill="#4D9BE6" />
<rect x="197" y="21" width="1" height="1" fill="#8FD3FF" />
<rect x="198" y="21" width="1" height="1" fill="#5BA7EC" />
<rect x="199" y="21" width="1" height="1" fill="#8FD3FF" />
<rect x="200" y="21" width="1" height="1" fill="#5BA7EC" />
<rect x="201" y="21" width="1" height="1" fill="#8FD3FF" />
<rect x="202" y="21" width="1" height="1" fill="#4D9BE6" />
<rect x="203" y="21" width="1" height="1" fill="#8FD3FF" />
<rect x="204" y="21" width="1" height="1" fill="#4D9BE6" />
<rect x="205" y="21" width="1" height="1" fill="#8FD3FF" />
<rect x="206" y="21" width="1" height="1" fill="#4D9BE6" />
<rect x="207" y="21" width="1" height="1" fill="#8FD3FF" />
<rect x="208" y="21" width="1" height="3" fill="#4D9BE6" />
<rect x="209" y="21" width="1" height="1" fill="#8FD3FF" />
<rect x="210" y="21" width="1" height="1" fill="#4D9BE6" />
<rect x="211" y="21" width="1" height="1" fill="#8FD3FF" />
<rect x="212" y="21" width="1" height="1" fill="#4D9BE6" />
<rect x="213" y="21" width="1" height="1" fill="#8FD3FF" />
<rect x="214" y="21" width="1" height="1" fill="#4D9BE6" />
<rect x="215" y="21" width="1" height="1" fill="#8FD3FF" />
<rect x="20" y="22" width="1" height="4" fill="#4D65B4" />
<rect x="24" y="22" width="1" height="38" fill="#4D9BE6" />
<rect x="193" y="22" width="1" height="9" fill="#4D9BE6" />
<rect x="194" y="22" width="1" height="1" fill="#74BCF5" />
<rect x="195" y="22" width="1" height="1" fill="#4D9BE6" />
<rect x="196" y="22" width="1" height="1" fill="#8FD3FF" />
<rect x="197" y="22" width="1" height="1" fill="#4D9BE6" />
<rect x="198" y="22" width="1" height="1" fill="#8FD3FF" />
<rect x="199" y="22" width="1" height="1" fill="#5BA7EC" />
<rect x="200" y="22" width="1" height="1" fill="#8FD3FF" />
<rect x="201" y="22" width="1" height="1" fill="#4D9BE6" />
<rect x="202" y="22" width="1" height="1" fill="#8FD3FF" />
<rect x="203" y="22" width="1" height="1" fill="#4D9BE6" />
<rect x="204" y="22" width="1" height="1" fill="#8FD3FF" />
<rect x="205" y="22" width="1" height="1" fill="#4D9BE6" />
<rect x="206" y="22" width="1" height="1" fill="#8FD3FF" />
<rect x="207" y="22" width="1" height="5" fill="#4D9BE6" />
<rect x="209" y="22" width="1" height="2" fill="#4D9BE6" />
<rect x="210" y="22" width="1" height="1" fill="#8FD3FF" />
<rect x="211" y="22" width="1" height="1" fill="#4D9BE6" />
<rect x="212" y="22" width="1" height="1" fill="#8FD3FF" />
<rect x="213" y="22" width="1" height="1" fill="#4D9BE6" />
<rect x="214" y="22" width="1" height="1" fill="#8FD3FF" />
<rect x="215" y="22" width="1" height="1" fill="#4D9BE6" />
<rect x="189" y="23" width="1" height="1" fill="#8FD3FF" />
<rect x="194" y="23" width="1" height="7" fill="#4D9BE6" />
<rect x="195" y="23" width="1" height="1" fill="#74BCF5" />
<rect x="196" y="23" width="1" height="1" fill="#4D9BE6" />
<rect x="197" y="23" width="1" height="1" fill="#74BCF5" />
<rect x="198" y="23" width="1" height="1" fill="#4D9BE6" />
<rect x="199" y="23" width="1" height="1" fill="#74BCF5" />
<rect x="200" y="23" width="1" height="1" fill="#4D9BE6" />
<rect x="201" y="23" width="1" height="1" fill="#74BCF5" />
<rect x="202" y="23" width="1" height="1" fill="#4D9BE6" />
<rect x="203" y="23" width="1" height="1" fill="#74BCF5" />
<rect x="204" y="23" width="1" height="1" fill="#4D9BE6" />
<rect x="205" y="23" width="1" height="1" fill="#74BCF5" />
<rect x="206" y="23" width="1" height="1" fill="#4D9BE6" />
<rect x="210" y="23" width="1" height="2" fill="#4D9BE6" />
<rect x="211" y="23" width="1" height="1" fill="#8FD3FF" />
<rect x="212" y="23" width="1" height="1" fill="#4D9BE6" />
<rect x="213" y="23" width="1" height="1" fill="#8FD3FF" />
<rect x="214" y="23" width="1" height="1" fill="#4D9BE6" />
<rect x="215" y="23" width="1" height="1" fill="#8FD3FF" />
<rect x="13" y="24" width="1" height="11" fill="#4D9BE6" />
<rect x="15" y="24" width="1" height="12" fill="#8FD3FF" />
<rect x="22" y="24" width="1" height="4" fill="#4D65B4" />
<rect x="23" y="24" width="1" height="35" fill="#4D9BE6" />
<rect x="189" y="24" width="1" height="2" fill="#4D9BE6" />
<rect x="190" y="24" width="1" height="2" fill="#8FD3FF" />
<rect x="195" y="24" width="1" height="5" fill="#4D9BE6" />
<rect x="196" y="24" width="1" height="1" fill="#74BCF5" />
<rect x="197" y="24" width="1" height="1" fill="#4D9BE6" />
<rect x="198" y="24" width="1" height="1" fill="#74BCF5" />
<rect x="199" y="24" width="1" height="1" fill="#4D9BE6" />
<rect x="200" y="24" width="1" height="1" fill="#66B0EF" />
<rect x="201" y="24" width="1" height="1" fill="#4D9BE6" />
<rect x="202" y="24" width="1" height="1" fill="#66B0EF" />
<rect x="203" y="24" width="1" height="1" fill="#4D9BE6" />
<rect x="204" y="24" width="1" height="1" fill="#66B0EF" />
<rect x="205" y="24" width="1" height="1" fill="#4D9BE6" />
<rect x="206" y="24" width="1" height="1" fill="#66B0EF" />
<rect x="211" y="24" width="1" height="2" fill="#4D9BE6" />
<rect x="212" y="24" width="1" height="1" fill="#8FD3FF" />
<rect x="213" y="24" width="1" height="1" fill="#4D9BE6" />
<rect x="214" y="24" width="1" height="1" fill="#8FD3FF" />
<rect x="215" y="24" width="1" height="1" fill="#4D9BE6" />
<rect x="196" y="25" width="1" height="18" fill="#4D9BE6" />
<rect x="197" y="25" width="1" height="1" fill="#66B0EF" />
<rect x="198" y="25" width="1" height="1" fill="#4D9BE6" />
<rect x="199" y="25" width="1" height="1" fill="#5AA6EB" />
<rect x="200" y="25" width="1" height="1" fill="#4D9BE6" />
<rect x="201" y="25" width="1" height="1" fill="#5AA6EB" />
<rect x="202" y="25" width="1" height="1" fill="#4D9BE6" />
<rect x="203" y="25" width="1" height="1" fill="#5AA6EB" />
<rect x="204" y="25" width="1" height="1" fill="#4D9BE6" />
<rect x="205" y="25" width="1" height="1" fill="#5AA6EB" />
<rect x="206" y="25" width="1" height="3" fill="#4D9BE6" />
<rect x="212" y="25" width="1" height="1" fill="#4D9BE6" />
<rect x="213" y="25" width="1" height="1" fill="#8FD3FF" />
<rect x="214" y="25" width="1" height="1" fill="#4D9BE6" />
<rect x="215" y="25" width="1" height="1" fill="#8FD3FF" />
<rect x="20" y="26" width="1" height="1" fill="#8FD3FF" />
<rect x="89" y="26" width="1" height="3" fill="#4D9BE6" />
<rect x="189" y="26" width="1" height="8" fill="#8FD3FF" />
<rect x="190" y="26" width="1" height="7" fill="#4D9BE6" />
<rect x="197" y="26" width="1" height="16" fill="#4D9BE6" />
<rect x="198" y="26" width="1" height="1" fill="#519FE7" />
<rect x="199" y="26" width="1" height="13" fill="#4D9BE6" />
<rect x="200" y="26" width="1" height="1" fill="#519FE7" />
<rect x="201" y="26" width="1" height="10" fill="#4D9BE6" />
<rect x="202" y="26" width="1" height="1" fill="#519FE7" />
<rect x="203" y="26" width="1" height="6" fill="#4D9BE6" />
<rect x="204" y="26" width="1" height="1" fill="#519FE7" />
<rect x="205" y="26" width="1" height="3" fill="#4D9BE6" />
<rect x="213" y="26" width="1" height="1" fill="#4D9BE6" />
<rect x="214" y="26" width="1" height="1" fill="#8FD3FF" />
<rect x="215" y="26" width="1" height="1" fill="#4D9BE6" />
<rect x="20" y="27" width="1" height="8" fill="#4D65B4" />
<rect x="198" y="27" width="1" height="14" fill="#4D9BE6" />
<rect x="200" y="27" width="1" height="11" fill="#4D9BE6" />
<rect x="202" y="27" width="1" height="7" fill="#4D9BE6" />
<rect x="204" y="27" width="1" height="4" fill="#4D9BE6" />
<rect x="214" y="27" width="1" height="2" fill="#4D9BE6" />
<rect x="215" y="27" width="1" height="1" fill="#8FD3FF" />
<rect x="22" y="28" width="1" height="29" fill="#4D9BE6" />
<rect x="186" y="28" width="1" height="9" fill="#4D9BE6" />
<rect x="215" y="28" width="1" height="2" fill="#4D9BE6" />
<rect x="14" y="29" width="1" height="3" fill="#8FD3FF" />
<rect x="195" y="29" width="1" height="1" fill="#8FD3FF" />
<rect x="194" y="30" width="1" height="1" fill="#8FD3FF" />
<rect x="195" y="30" width="1" height="14" fill="#4D9BE6" />
<rect x="19" y="31" width="1" height="8" fill="#4D65B4" />
<rect x="26" y="31" width="1" height="4" fill="#4D9BE6" />
<rect x="191" y="31" width="3" height="1" fill="#8FD3FF" />
<rect x="194" y="31" width="1" height="13" fill="#4D9BE6" />
<rect x="14" y="32" width="1" height="8" fill="#4D9BE6" />
<rect x="21" y="32" width="1" height="23" fill="#4D9BE6" />
<rect x="185" y="32" width="1" height="5" fill="#4D9BE6" />
<rect x="191" y="32" width="2" height="2" fill="#8FD3FF" />
<rect x="193" y="32" width="1" height="1" fill="#4D9BE6" />
<rect x="190" y="33" width="1" height="3" fill="#8FD3FF" />
<rect x="193" y="33" width="1" height="1" fill="#8FD3FF" />
<rect x="18" y="34" width="1" height="5" fill="#4D65B4" />
<rect x="184" y="34" width="1" height="3" fill="#4D9BE6" />
<rect x="189" y="34" width="1" height="1" fill="#4D9BE6" />
<rect x="191" y="34" width="1" height="1" fill="#8FD3FF" />
<rect x="192" y="34" width="2" height="11" fill="#4D9BE6" />
<rect x="20" y="35" width="1" height="18" fill="#4D9BE6" />
<rect x="183" y="35" width="1" height="2" fill="#4D9BE6" />
<rect x="189" y="35" width="1" height="2" fill="#8FD3FF" />
<rect x="191" y="35" width="1" height="12" fill="#4D9BE6" />
<rect x="15" y="36" width="1" height="7" fill="#4D9BE6" />
<rect x="182" y="36" width="1" height="1" fill="#4D9BE6" />
<rect x="187" y="36" width="2" height="1" fill="#8FD3FF" />
<rect x="190" y="36" width="1" height="11" fill="#4D9BE6" />
<rect x="16" y="37" width="1" height="9" fill="#4D9BE6" />
<rect x="181" y="37" width="6" height="1" fill="#8FD3FF" />
<rect x="187" y="37" width="3" height="10" fill="#4D9BE6" />
<rect x="17" y="38" width="1" height="10" fill="#4D9BE6" />
<rect x="180" y="38" width="5" height="2" fill="#8FD3FF" />
<rect x="185" y="38" width="2" height="12" fill="#4D9BE6" />
<rect x="18" y="39" width="1" height="10" fill="#4D9BE6" />
<rect x="19" y="39" width="1" height="1" fill="#8FD3FF" />
<rect x="19" y="40" width="1" height="11" fill="#4D9BE6" />
<rect x="179" y="40" width="4" height="1" fill="#8FD3FF" />
<rect x="183" y="40" width="2" height="11" fill="#4D9BE6" />
<rect x="178" y="41" width="3" height="1" fill="#8FD3FF" />
<rect x="181" y="41" width="2" height="11" fill="#4D9BE6" />
<rect x="177" y="42" width="1" height="1" fill="#4D9BE6" />
<rect x="178" y="42" width="1" height="1" fill="#8FD3FF" />
<rect x="179" y="42" width="2" height="10" fill="#4D9BE6" />
<rect x="175" y="43" width="3" height="1" fill="#8FD3FF" />
<rect x="178" y="43" width="1" height="9" fill="#4D9BE6" />
<rect x="172" y="44" width="1" height="8" fill="#4D9BE6" />
<rect x="174" y="44" width="4" height="8" fill="#4D9BE6" />
<rect x="169" y="45" width="3" height="7" fill="#4D9BE6" />
<rect x="173" y="45" width="1" height="7" fill="#4D9BE6" />
<rect x="192" y="45" width="1" height="1" fill="#4D9BE6" />
<rect x="168" y="46" width="1" height="7" fill="#4D9BE6" />
<rect x="164" y="47" width="4" height="6" fill="#4D9BE6" />
<rect x="187" y="47" width="2" height="1" fill="#4D9BE6" />
<rect x="26" y="48" width="1" height="14" fill="#4D9BE6" />
<rect x="156" y="48" width="8" height="5" fill="#4D9BE6" />
<rect x="187" y="48" width="1" height="1" fill="#4D9BE6" />
<rect x="144" y="49" width="12" height="2" fill="#4D9BE6" />
<rect x="143" y="50" width="1" height="2" fill="#4D9BE6" />
<rect x="140" y="51" width="1" height="1" fill="#8FD3FF" />
<rect x="141" y="51" width="2" height="1" fill="#4D9BE6" />
<rect x="151" y="51" width="5" height="1" fill="#4D9BE6" />
<rect x="27" y="52" width="1" height="10" fill="#4D9BE6" />
<rect x="139" y="52" width="1" height="1" fill="#8FD3FF" />
<rect x="140" y="52" width="1" height="1" fill="#4D9BE6" />
<rect x="154" y="52" width="2" height="1" fill="#4D9BE6" />
<rect x="169" y="52" width="1" height="1" fill="#4D9BE6" />
<rect x="28" y="55" width="1" height="8" fill="#4D9BE6" />
<rect x="29" y="56" width="1" height="7" fill="#4D9BE6" />
<rect x="30" y="57" width="1" height="6" fill="#4D9BE6" />
<rect x="31" y="58" width="2" height="6" fill="#4D9BE6" />
<rect x="33" y="59" width="1" height="6" fill="#4D9BE6" />
<rect x="34" y="60" width="1" height="6" fill="#4D9BE6" />
<rect x="35" y="61" width="1" height="6" fill="#4D9BE6" />
<rect x="36" y="62" width="1" height="6" fill="#4D9BE6" />
<rect x="37" y="63" width="1" height="5" fill="#4D9BE6" />
<rect x="32" y="64" width="1" height="1" fill="#4D9BE6" />
<rect x="38" y="64" width="2" height="5" fill="#4D9BE6" />
<rect x="40" y="65" width="2" height="4" fill="#4D9BE6" />
<rect x="42" y="66" width="1" height="3" fill="#4D9BE6" />
<rect x="43" y="67" width="3" height="2" fill="#4D9BE6" />
<rect x="46" y="68" width="2" height="2" fill="#4D9BE6" />
<rect x="44" y="69" width="2" height="1" fill="#4D9BE6" />
<rect x="48" y="69" width="1" height="2" fill="#4D9BE6" />
<rect x="49" y="70" width="1" height="1" fill="#4D9BE6" />
</svg>