<?xml version="1.0" encoding="UTF-8" ?>
<svg version="1.1" width="216" height="128" xmlns="http://www.w3.org/2000/svg" shape-rendering="crispEdges">
<rect x="127" y="58" width="2" height="1" fill="#FBFF86" />
<rect x="129" y="58" width="2" height="1" fill="#FB6B1D" />
<rect x="18" y="59" width="1" height="1" fill="#F9C22B" />
<rect x="19" y="59" width="1" height="1" fill="#FB6B1D" />
<rect x="20" y="59" width="1" height="1" fill="#F9C22B" />
<rect x="21" y="59" width="1" height="1" fill="#FB6B1D" />
<rect x="22" y="59" width="1" height="1" fill="#F9C22B" />
<rect x="23" y="59" width="3" height="5" fill="#FB6B1D" />
<rect x="125" y="59" width="2" height="1" fill="#FFF6F8" />
<rect x="127" y="59" width="1" height="1" fill="#FBFF86" />
<rect x="128" y="59" width="2" height="2" fill="#F9C22B" />
<rect x="130" y="59" width="2" height="1" fill="#FB6B1D" />
<rect x="17" y="60" width="1" height="1" fill="#F9C22B" />
<rect x="18" y="60" width="1" height="1" fill="#FB6B1D" />
<rect x="19" y="60" width="1" height="1" fill="#F9C22B" />
<rect x="20" y="60" width="1" height="4" fill="#FB6B1D" />
<rect x="21" y="60" width="1" height="1" fill="#F9C22B" />
<rect x="22" y="60" width="1" height="3" fill="#FB6B1D" />
<rect x="26" y="60" width="1" height="4" fill="#FB6B1D" />
<rect x="124" y="60" width="1" height="2" fill="#FBFF86" />
<rect x="125" y="60" width="1" height="1" fill="#FF8BA8" />
<rect x="126" y="60" width="2" height="2" fill="#FFF6F8" />
<rect x="130" y="60" width="2" height="1" fill="#F9C22B" />
<rect x="132" y="60" width="1" height="1" fill="#FB6B1D" />
<rect x="16" y="61" width="1" height="1" fill="#F9C22B" />
<rect x="17" y="61" width="1" height="1" fill="#FB6B1D" />
<rect x="18" y="61" width="1" height="1" fill="#F9C22B" />
<rect x="19" y="61" width="1" height="3" fill="#FB6B1D" />
<rect x="21" y="61" width="1" height="3" fill="#FB6B1D" />
<rect x="27" y="61" width="2" height="3" fill="#FB6B1D" />
<rect x="123" y="61" width="1" height="1" fill="#FBFF86" />
<rect x="125" y="61" width="1" height="4" fill="#F9C22B" />
<rect x="128" y="61" width="1" height="6" fill="#F9C22B" />
<rect x="129" y="61" width="3" height="1" fill="#FFF6F8" />
<rect x="132" y="61" width="1" height="6" fill="#F9C22B" />
<rect x="133" y="61" width="1" height="1" fill="#FB6B1D" />
<rect x="15" y="62" width="1" height="1" fill="#F9C22B" />
<rect x="16" y="62" width="1" height="3" fill="#FB6B1D" />
<rect x="17" y="62" width="1" height="1" fill="#F9C22B" />
<rect x="18" y="62" width="1" height="3" fill="#FB6B1D" />
<rect x="29" y="62" width="3" height="3" fill="#FB6B1D" />
<rect x="122" y="62" width="1" height="4" fill="#FB6B1D" />
<rect x="123" y="62" width="1" height="3" fill="#F9C22B" />
<rect x="124" y="62" width="1" height="1" fill="#FB6B1D" />
<rect x="126" y="62" width="2" height="5" fill="#F9C22B" />
<rect x="129" y="62" width="1" height="1" fill="#FF8BA8" />
<rect x="130" y="62" width="2" height="2" fill="#FFF6F8" />
<rect x="133" y="62" width="1" height="5" fill="#F9C22B" />
<rect x="14" y="63" width="2" height="2" fill="#FB6B1D" />
<rect x="17" y="63" width="1" height="2" fill="#FB6B1D" />
<rect x="22" y="63" width="1" height="4" fill="#F9C22B" />
<rect x="124" y="63" width="1" height="2" fill="#F9C22B" />
<rect x="129" y="63" width="1" height="4" fill="#F9C22B" />
<rect x="13" y="64" width="1" height="4" fill="#FB6B1D" />
<rect x="19" y="64" width="3" height="1" fill="#F9C22B" />
<rect x="23" y="64" width="5" height="1" fill="#F9C22B" />
<rect x="28" y="64" width="1" height="1" fill="#FB6B1D" />
<rect x="32" y="64" width="1" height="3" fill="#FB6B1D" />
<rect x="130" y="64" width="1" height="1" fill="#FB6B1D" />
<rect x="131" y="64" width="1" height="4" fill="#F9C22B" />
<rect x="12" y="65" width="1" height="19" fill="#FB6B1D" />
<rect x="14" y="65" width="1" height="1" fill="#FB6B1D" />
<rect x="15" y="65" width="3" height="1" fill="#F9C22B" />
<rect x="18" y="65" width="3" height="3" fill="#FFF6F8" />
<rect x="21" y="65" width="1" height="1" fill="#F9C22B" />
<rect x="23" y="65" width="4" height="1" fill="#F9C22B" />
<rect x="27" y="65" width="3" height="2" fill="#FFF6F8" />
<rect x="30" y="65" width="1" height="1" fill="#F9C22B" />
<rect x="31" y="65" width="1" height="1" fill="#FB6B1D" />
<rect x="123" y="65" width="3" height="2" fill="#FB6B1D" />
<rect x="130" y="65" width="1" height="2" fill="#F9C22B" />
<rect x="11" y="66" width="1" height="15" fill="#FB6B1D" />
<rect x="14" y="66" width="2" height="1" fill="#F9C22B" />
<rect x="16" y="66" width="2" height="2" fill="#FFF6F8" />
<rect x="21" y="66" width="1" height="4" fill="#FFF6F8" />
<rect x="23" y="66" width="3" height="4" fill="#F9C22B" />
<rect x="26" y="66" width="1" height="5" fill="#FFF6F8" />
<rect x="30" y="66" width="1" height="2" fill="#FFF6F8" />
<rect x="31" y="66" width="1" height="1" fill="#F9C22B" />
<rect x="33" y="66" width="1" height="1" fill="#FB6B1D" />
<rect x="14" y="67" width="1" height="2" fill="#F9C22B" />
<rect x="15" y="67" width="1" height="3" fill="#FFF6F8" />
<rect x="22" y="67" width="1" height="7" fill="#FFF6F8" />
<rect x="27" y="67" width="1" height="1" fill="#FFF6F8" />
<rect x="28" y="67" width="2" height="5" fill="#FF8BA8" />
<rect x="31" y="67" width="1" height="2" fill="#FFF6F8" />
<rect x="32" y="67" width="2" height="1" fill="#F9C22B" />
<rect x="124" y="67" width="7" height="1" fill="#FB6B1D" />
<rect x="132" y="67" width="1" height="1" fill="#FB6B1D" />
<rect x="13" y="68" width="1" height="12" fill="#F9C22B" />
<rect x="16" y="68" width="1" height="1" fill="#FFF6F8" />
<rect x="17" y="68" width="3" height="7" fill="#FF8BA8" />
<rect x="20" y="68" width="1" height="1" fill="#FFF6F8" />
<rect x="27" y="68" width="1" height="3" fill="#FF8BA8" />
<rect x="30" y="68" width="1" height="5" fill="#FF8BA8" />
<rect x="32" y="68" width="1" height="5" fill="#FFF6F8" />
<rect x="33" y="68" width="1" height="9" fill="#F9C22B" />
<rect x="34" y="68" width="1" height="2" fill="#FBFF86" />
<rect x="14" y="69" width="1" height="6" fill="#FFF6F8" />
<rect x="16" y="69" width="1" height="5" fill="#FF8BA8" />
<rect x="20" y="69" width="1" height="5" fill="#FF8BA8" />
<rect x="31" y="69" width="1" height="3" fill="#FF8BA8" />
<rect x="15" y="70" width="1" height="3" fill="#FF8BA8" />
<rect x="21" y="70" width="1" height="3" fill="#FF8BA8" />
<rect x="23" y="70" width="1" height="1" fill="#F9C22B" />
<rect x="24" y="70" width="2" height="2" fill="#FB6B1D" />
<rect x="34" y="70" width="1" height="13" fill="#F9C22B" />
<rect x="23" y="71" width="1" height="1" fill="#FB6B1D" />
<rect x="26" y="71" width="1" height="1" fill="#FB6B1D" />
<rect x="27" y="71" width="1" height="2" fill="#FFF6F8" />
<rect x="35" y="71" width="1" height="6" fill="#FBFF86" />
<rect x="23" y="72" width="1" height="13" fill="#F9C22B" />
<rect x="24" y="72" width="1" height="1" fill="#FB6B1D" />
<rect x="25" y="72" width="2" height="11" fill="#F9C22B" />
<rect x="28" y="72" width="1" height="2" fill="#FFF6F8" />
<rect x="29" y="72" width="1" height="1" fill="#FF8BA8" />
<rect x="31" y="72" width="1" height="2" fill="#FFF6F8" />
<rect x="15" y="73" width="1" height="3" fill="#FFF6F8" />
<rect x="21" y="73" width="1" height="2" fill="#FFF6F8" />
<rect x="24" y="73" width="1" height="11" fill="#F9C22B" />
<rect x="27" y="73" width="1" height="10" fill="#F9C22B" />
<rect x="29" y="73" width="2" height="2" fill="#FFF6F8" />
<rect x="32" y="73" width="1" height="3" fill="#F9C22B" />
<rect x="16" y="74" width="1" height="3" fill="#FFF6F8" />
<rect x="20" y="74" width="1" height="2" fill="#FFF6F8" />
<rect x="22" y="74" width="1" height="11" fill="#F9C22B" />
<rect x="28" y="74" width="1" height="10" fill="#F9C22B" />
<rect x="31" y="74" width="1" height="2" fill="#F9C22B" />
<rect x="14" y="75" width="1" height="6" fill="#F9C22B" />
<rect x="17" y="75" width="3" height="2" fill="#FFF6F8" />
<rect x="21" y="75" width="1" height="11" fill="#F9C22B" />
<rect x="29" y="75" width="2" height="2" fill="#F9C22B" />
<rect x="15" y="76" width="1" height="7" fill="#F9C22B" />
<rect x="20" y="76" width="1" height="3" fill="#F9C22B" />
<rect x="31" y="76" width="2" height="1" fill="#FB6B1D" />
<rect x="16" y="77" width="4" height="1" fill="#F9C22B" />
<rect x="29" y="77" width="1" height="1" fill="#F9C22B" />
<rect x="30" y="77" width="1" height="1" fill="#FB6B1D" />
<rect x="31" y="77" width="2" height="2" fill="#F9C22B" />
<rect x="33" y="77" width="1" height="2" fill="#FB6B1D" />
<rect x="35" y="77" width="1" height="5" fill="#F9C22B" />
<rect x="36" y="77" width="1" height="3" fill="#FBFF86" />
<rect x="199" y="77" width="6" height="2" fill="#FB6B1D" />
<rect x="16" y="78" width="1" height="1" fill="#F9C22B" />
<rect x="17" y="78" width="3" height="1" fill="#FB6B1D" />
<rect x="29" y="78" width="1" height="2" fill="#FB6B1D" />
<rect x="30" y="78" width="1" height="2" fill="#F9C22B" />
<rect x="198" y="78" width="1" height="2" fill="#FB6B1D" />
<rect x="205" y="78" width="1" height="2" fill="#FB6B1D" />
<rect x="16" y="79" width="1" height="3" fill="#FB6B1D" />
<rect x="17" y="79" width="3" height="3" fill="#F9C22B" />
<rect x="20" y="79" width="1" height="2" fill="#FB6B1D" />
<rect x="31" y="79" width="1" height="2" fill="#F9C22B" />
<rect x="32" y="79" width="1" height="1" fill="#FB6B1D" />
<rect x="33" y="79" width="1" height="5" fill="#F9C22B" />
<rect x="197" y="79" width="1" height="1" fill="#FB6B1D" />
<rect x="199" y="79" width="5" height="1" fill="#FB6B1D" />
<rect x="204" y="79" width="1" height="2" fill="#F9C22B" />
<rect x="206" y="79" width="1" height="2" fill="#FB6B1D" />
<rect x="13" y="80" width="1" height="5" fill="#FB6B1D" />
<rect x="29" y="80" width="1" height="4" fill="#F9C22B" />
<rect x="30" y="80" width="1" height="1" fill="#FB6B1D" />
<rect x="32" y="80" width="1" height="1" fill="#F9C22B" />
<rect x="36" y="80" width="1" height="1" fill="#F9C22B" />
<rect x="197" y="80" width="7" height="1" fill="#F9C22B" />
<rect x="205" y="80" width="1" height="2" fill="#F9C22B" />
<rect x="207" y="80" width="1" height="3" fill="#FB6B1D" />
<rect x="14" y="81" width="1" height="5" fill="#FB6B1D" />
<rect x="20" y="81" width="1" height="4" fill="#F9C22B" />
<rect x="30" y="81" width="1" height="4" fill="#F9C22B" />
<rect x="31" y="81" width="2" height="1" fill="#FB6B1D" />
<rect x="196" y="81" width="1" height="7" fill="#FBFF86" />
<rect x="197" y="81" width="1" height="1" fill="#F9C22B" />
<rect x="198" y="81" width="2" height="2" fill="#FFF6F8" />
<rect x="200" y="81" width="3" height="1" fill="#F9C22B" />
<rect x="203" y="81" width="2" height="2" fill="#FFF6F8" />
<rect x="206" y="81" width="1" height="2" fill="#F9C22B" />
<rect x="208" y="81" width="1" height="3" fill="#FB6B1D" />
<rect x="16" y="82" width="1" height="2" fill="#F9C22B" />
<rect x="17" y="82" width="1" height="1" fill="#FB6B1D" />
<rect x="18" y="82" width="2" height="1" fill="#F9C22B" />
<rect x="31" y="82" width="2" height="3" fill="#F9C22B" />
<rect x="197" y="82" width="1" height="3" fill="#FFF6F8" />
<rect x="200" y="82" width="1" height="4" fill="#FFF6F8" />
<rect x="201" y="82" width="2" height="2" fill="#F9C22B" />
<rect x="205" y="82" width="1" height="4" fill="#FFF6F8" />
<rect x="15" y="83" width="1" height="4" fill="#FB6B1D" />
<rect x="17" y="83" width="1" height="1" fill="#F9C22B" />
<rect x="18" y="83" width="2" height="1" fill="#FB6B1D" />
<rect x="25" y="83" width="3" height="3" fill="#FB6B1D" />
<rect x="198" y="83" width="2" height="3" fill="#FF8BA8" />
<rect x="203" y="83" width="2" height="2" fill="#FF8BA8" />
<rect x="206" y="83" width="1" height="3" fill="#FFF6F8" />
<rect x="207" y="83" width="1" height="5" fill="#F9C22B" />
<rect x="209" y="83" width="1" height="8" fill="#FB6B1D" />
<rect x="16" y="84" width="3" height="3" fill="#FB6B1D" />
<rect x="19" y="84" width="1" height="1" fill="#F9C22B" />
<rect x="24" y="84" width="1" height="2" fill="#FB6B1D" />
<rect x="28" y="84" width="2" height="2" fill="#FB6B1D" />
<rect x="201" y="84" width="2" height="1" fill="#FB6B1D" />
<rect x="208" y="84" width="1" height="8" fill="#F9C22B" />
<rect x="19" y="85" width="2" height="3" fill="#FB6B1D" />
<rect x="22" y="85" width="2" height="1" fill="#FB6B1D" />
<rect x="30" y="85" width="2" height="1" fill="#FB6B1D" />
<rect x="197" y="85" width="1" height="2" fill="#F9C22B" />
<rect x="201" y="85" width="1" height="1" fill="#FB6B1D" />
<rect x="202" y="85" width="2" height="7" fill="#F9C22B" />
<rect x="204" y="85" width="1" height="1" fill="#FF8BA8" />
<rect x="21" y="86" width="2" height="1" fill="#FB6B1D" />
<rect x="198" y="86" width="4" height="1" fill="#F9C22B" />
<rect x="204" y="86" width="3" height="1" fill="#F9C22B" />
<rect x="17" y="87" width="2" height="1" fill="#FB6B1D" />
<rect x="197" y="87" width="2" height="1" fill="#FB6B1D" />
<rect x="199" y="87" width="3" height="1" fill="#F9C22B" />
<rect x="204" y="87" width="1" height="5" fill="#F9C22B" />
<rect x="205" y="87" width="2" height="1" fill="#FB6B1D" />
<rect x="197" y="88" width="1" height="3" fill="#FBFF86" />
<rect x="198" y="88" width="2" height="1" fill="#FB6B1D" />
<rect x="200" y="88" width="2" height="5" fill="#F9C22B" />
<rect x="205" y="88" width="1" height="4" fill="#F9C22B" />
<rect x="206" y="88" width="2" height="1" fill="#FB6B1D" />
<rect x="198" y="89" width="2" height="1" fill="#F9C22B" />
<rect x="206" y="89" width="2" height="3" fill="#F9C22B" />
<rect x="198" y="90" width="1" height="2" fill="#FBFF86" />
<rect x="199" y="90" width="1" height="2" fill="#F9C22B" />
<rect x="199" y="92" width="1" height="1" fill="#FBFF86" />
<rect x="202" y="92" width="1" height="1" fill="#F9C22B" />
</svg>