<?xml version="1.0" encoding="UTF-8" ?>
<svg version="1.1" width="32" height="32" xmlns="http://www.w3.org/2000/svg" shape-rendering="crispEdges">
<rect x="14" y="9" width="4" height="4" fill="#FFFBE5" />
<rect x="12" y="10" width="1" height="3" fill="#FFF7CF" />
<rect x="13" y="10" width="1" height="2" fill="#FFFBE5" />
<rect x="18" y="10" width="2" height="3" fill="#FFFBE5" />
<rect x="11" y="11" width="1" height="1" fill="#FFF7CF" />
<rect x="20" y="11" width="1" height="1" fill="#FFFBE5" />
<rect x="10" y="12" width="1" height="1" fill="#FFEE83" />
<rect x="11" y="12" width="1" height="3" fill="#FFFBE5" />
<rect x="13" y="12" width="1" height="4" fill="#FFF7CF" />
<rect x="20" y="12" width="2" height="2" fill="#FFF7CF" />
<rect x="10" y="13" width="1" height="1" fill="#FFFBE5" />
<rect x="12" y="13" width="1" height="1" fill="#FFFBE5" />
<rect x="14" y="13" width="1" height="4" fill="#FFF7CF" />
<rect x="15" y="13" width="4" height="1" fill="#FFFBE5" />
<rect x="19" y="13" width="1" height="2" fill="#FFF7CF" />
<rect x="9" y="14" width="1" height="4" fill="#F0B541" />
<rect x="10" y="14" width="1" height="2" fill="#FFEE83" />
<rect x="12" y="14" width="1" height="1" fill="#FFF7CF" />
<rect x="15" y="14" width="4" height="4" fill="#FFF7CF" />
<rect x="20" y="14" width="1" height="3" fill="#FFFBE5" />
<rect x="21" y="14" width="2" height="1" fill="#FFF7CF" />
<rect x="11" y="15" width="2" height="2" fill="#FFEE83" />
<rect x="19" y="15" width="1" height="1" fill="#FFFBE5" />
<rect x="21" y="15" width="1" height="1" fill="#FFFBE5" />
<rect x="22" y="15" width="1" height="1" fill="#FFF7CF" />
<rect x="10" y="16" width="1" height="4" fill="#F0B541" />
<rect x="13" y="16" width="1" height="2" fill="#FFEE83" />
<rect x="19" y="16" width="1" height="2" fill="#FFF7CF" />
<rect x="21" y="16" width="1" height="1" fill="#FFF7CF" />
<rect x="22" y="16" width="1" height="2" fill="#FFEE83" />
<rect x="11" y="17" width="1" height="4" fill="#F0B541" />
<rect x="12" y="17" width="1" height="1" fill="#FFEE83" />
<rect x="14" y="17" width="1" height="2" fill="#FFEE83" />
<rect x="20" y="17" width="1" height="1" fill="#FFF7CF" />
<rect x="21" y="17" width="1" height="3" fill="#FFEE83" />
<rect x="12" y="18" width="2" height="4" fill="#F0B541" />
<rect x="15" y="18" width="6" height="2" fill="#FFEE83" />
<rect x="14" y="19" width="1" height="4" fill="#F0B541" />
<rect x="15" y="20" width="2" height="3" fill="#F0B541" />
<rect x="17" y="20" width="3" height="1" fill="#FFEE83" />
<rect x="20" y="20" width="1" height="1" fill="#F0B541" />
<rect x="17" y="21" width="3" height="1" fill="#F0B541" />
<rect x="17" y="22" width="1" height="1" fill="#F0B541" />
</svg>