<?xml version="1.0" encoding="UTF-8" ?>
<svg version="1.1" width="320" height="80" xmlns="http://www.w3.org/2000/svg" shape-rendering="crispEdges">
<rect x="6" y="14" width="2" height="1" fill="#636363" />
<rect x="7" y="15" width="2" height="1" fill="#565656" />
<rect x="13" y="15" width="5" height="3" fill="#272727" />
<rect x="22" y="15" width="1" height="1" fill="#636363" />
<rect x="23" y="15" width="1" height="1" fill="#565656" />
<rect x="7" y="16" width="6" height="2" fill="#272727" />
<rect x="18" y="16" width="7" height="2" fill="#272727" />
<rect x="6" y="17" width="1" height="1" fill="#272727" />
<rect x="25" y="17" width="1" height="3" fill="#272727" />
<rect x="6" y="18" width="1" height="1" fill="#454545" />
<rect x="7" y="18" width="5" height="1" fill="#272727" />
<rect x="12" y="18" width="12" height="1" fill="#454545" />
<rect x="24" y="18" width="1" height="2" fill="#272727" />
<rect x="6" y="19" width="1" height="2" fill="#272727" />
<rect x="7" y="19" width="5" height="1" fill="#454545" />
<rect x="12" y="19" width="12" height="1" fill="#272727" />
<rect x="7" y="20" width="5" height="1" fill="#272727" />
<rect x="12" y="20" width="12" height="1" fill="#565656" />
<rect x="7" y="21" width="7" height="1" fill="#565656" />
<rect x="14" y="21" width="10" height="1" fill="#636363" />
<rect x="7" y="22" width="1" height="1" fill="#565656" />
<rect x="8" y="22" width="14" height="1" fill="#636363" />
<rect x="8" y="23" width="1" height="5" fill="#565656" />
<rect x="9" y="23" width="5" height="2" fill="#636363" />
<rect x="15" y="23" width="1" height="2" fill="#565656" />
<rect x="17" y="23" width="1" height="2" fill="#636363" />
<rect x="9" y="25" width="1" height="3" fill="#565656" />
<rect x="10" y="25" width="6" height="1" fill="#636363" />
<rect x="10" y="26" width="4" height="1" fill="#636363" />
<rect x="10" y="27" width="2" height="2" fill="#565656" />
<rect x="12" y="27" width="2" height="1" fill="#636363" />
<rect x="9" y="28" width="1" height="3" fill="#454545" />
<rect x="12" y="28" width="1" height="1" fill="#636363" />
<rect x="13" y="28" width="1" height="3" fill="#454545" />
<rect x="10" y="29" width="3" height="2" fill="#454545" />
<rect x="11" y="53" width="2" height="1" fill="#636363" />
<rect x="12" y="54" width="2" height="1" fill="#565656" />
<rect x="18" y="54" width="3" height="3" fill="#272727" />
<rect x="13" y="55" width="5" height="2" fill="#272727" />
<rect x="50" y="55" width="2" height="1" fill="#636363" />
<rect x="60" y="55" width="2" height="3" fill="#272727" />
<rect x="66" y="55" width="1" height="1" fill="#636363" />
<rect x="67" y="55" width="1" height="1" fill="#565656" />
<rect x="90" y="55" width="2" height="1" fill="#636363" />
<rect x="97" y="55" width="5" height="3" fill="#272727" />
<rect x="104" y="55" width="2" height="1" fill="#636363" />
<rect x="106" y="55" width="3" height="2" fill="#272727" />
<rect x="131" y="55" width="2" height="1" fill="#636363" />
<rect x="171" y="55" width="2" height="1" fill="#636363" />
<rect x="211" y="55" width="2" height="1" fill="#636363" />
<rect x="251" y="55" width="2" height="1" fill="#636363" />
<rect x="291" y="55" width="2" height="1" fill="#636363" />
<rect x="12" y="56" width="1" height="2" fill="#272727" />
<rect x="21" y="56" width="2" height="3" fill="#272727" />
<rect x="27" y="56" width="1" height="1" fill="#636363" />
<rect x="28" y="56" width="1" height="1" fill="#565656" />
<rect x="51" y="56" width="2" height="1" fill="#565656" />
<rect x="57" y="56" width="3" height="3" fill="#272727" />
<rect x="62" y="56" width="6" height="2" fill="#272727" />
<rect x="91" y="56" width="2" height="1" fill="#565656" />
<rect x="93" y="56" width="4" height="2" fill="#272727" />
<rect x="102" y="56" width="4" height="2" fill="#272727" />
<rect x="109" y="56" width="1" height="3" fill="#272727" />
<rect x="132" y="56" width="2" height="1" fill="#565656" />
<rect x="138" y="56" width="5" height="3" fill="#272727" />
<rect x="147" y="56" width="1" height="1" fill="#636363" />
<rect x="148" y="56" width="1" height="1" fill="#565656" />
<rect x="172" y="56" width="2" height="1" fill="#565656" />
<rect x="178" y="56" width="5" height="3" fill="#272727" />
<rect x="187" y="56" width="1" height="1" fill="#636363" />
<rect x="188" y="56" width="1" height="1" fill="#565656" />
<rect x="212" y="56" width="2" height="1" fill="#565656" />
<rect x="218" y="56" width="5" height="3" fill="#272727" />
<rect x="227" y="56" width="1" height="1" fill="#636363" />
<rect x="228" y="56" width="1" height="1" fill="#565656" />
<rect x="252" y="56" width="2" height="1" fill="#565656" />
<rect x="258" y="56" width="5" height="3" fill="#272727" />
<rect x="267" y="56" width="1" height="1" fill="#636363" />
<rect x="268" y="56" width="1" height="1" fill="#565656" />
<rect x="292" y="56" width="2" height="1" fill="#565656" />
<rect x="298" y="56" width="5" height="3" fill="#272727" />
<rect x="307" y="56" width="1" height="1" fill="#636363" />
<rect x="308" y="56" width="1" height="1" fill="#565656" />
<rect x="13" y="57" width="4" height="1" fill="#272727" />
<rect x="17" y="57" width="4" height="1" fill="#454545" />
<rect x="23" y="57" width="8" height="2" fill="#272727" />
<rect x="49" y="57" width="8" height="2" fill="#272727" />
<rect x="91" y="57" width="2" height="3" fill="#272727" />
<rect x="106" y="57" width="2" height="1" fill="#454545" />
<rect x="108" y="57" width="1" height="2" fill="#272727" />
<rect x="132" y="57" width="6" height="2" fill="#272727" />
<rect x="143" y="57" width="7" height="2" fill="#272727" />
<rect x="172" y="57" width="6" height="2" fill="#272727" />
<rect x="183" y="57" width="7" height="2" fill="#272727" />
<rect x="212" y="57" width="6" height="2" fill="#272727" />
<rect x="223" y="57" width="7" height="2" fill="#272727" />
<rect x="252" y="57" width="6" height="2" fill="#272727" />
<rect x="263" y="57" width="7" height="2" fill="#272727" />
<rect x="292" y="57" width="6" height="2" fill="#272727" />
<rect x="303" y="57" width="7" height="2" fill="#272727" />
<rect x="12" y="58" width="5" height="1" fill="#454545" />
<rect x="17" y="58" width="4" height="1" fill="#272727" />
<rect x="31" y="58" width="1" height="3" fill="#272727" />
<rect x="48" y="58" width="1" height="1" fill="#272727" />
<rect x="60" y="58" width="8" height="1" fill="#454545" />
<rect x="90" y="58" width="1" height="1" fill="#272727" />
<rect x="93" y="58" width="3" height="1" fill="#272727" />
<rect x="96" y="58" width="10" height="1" fill="#454545" />
<rect x="106" y="58" width="2" height="1" fill="#272727" />
<rect x="131" y="58" width="1" height="1" fill="#272727" />
<rect x="150" y="58" width="1" height="3" fill="#272727" />
<rect x="171" y="58" width="1" height="1" fill="#272727" />
<rect x="190" y="58" width="1" height="3" fill="#272727" />
<rect x="211" y="58" width="1" height="1" fill="#272727" />
<rect x="230" y="58" width="1" height="3" fill="#272727" />
<rect x="251" y="58" width="1" height="1" fill="#272727" />
<rect x="270" y="58" width="1" height="3" fill="#272727" />
<rect x="291" y="58" width="1" height="1" fill="#272727" />
<rect x="310" y="58" width="1" height="3" fill="#272727" />
<rect x="12" y="59" width="5" height="1" fill="#272727" />
<rect x="17" y="59" width="4" height="1" fill="#565656" />
<rect x="21" y="59" width="8" height="1" fill="#454545" />
<rect x="29" y="59" width="2" height="2" fill="#272727" />
<rect x="48" y="59" width="3" height="1" fill="#454545" />
<rect x="51" y="59" width="5" height="1" fill="#272727" />
<rect x="56" y="59" width="4" height="1" fill="#454545" />
<rect x="60" y="59" width="8" height="1" fill="#272727" />
<rect x="93" y="59" width="1" height="1" fill="#272727" />
<rect x="94" y="59" width="2" height="1" fill="#454545" />
<rect x="96" y="59" width="11" height="1" fill="#272727" />
<rect x="107" y="59" width="1" height="1" fill="#565656" />
<rect x="131" y="59" width="1" height="1" fill="#454545" />
<rect x="132" y="59" width="5" height="1" fill="#272727" />
<rect x="137" y="59" width="12" height="1" fill="#454545" />
<rect x="149" y="59" width="1" height="2" fill="#272727" />
<rect x="171" y="59" width="1" height="1" fill="#454545" />
<rect x="172" y="59" width="5" height="1" fill="#272727" />
<rect x="177" y="59" width="12" height="1" fill="#454545" />
<rect x="189" y="59" width="1" height="2" fill="#272727" />
<rect x="211" y="59" width="1" height="1" fill="#454545" />
<rect x="212" y="59" width="5" height="1" fill="#272727" />
<rect x="217" y="59" width="12" height="1" fill="#454545" />
<rect x="229" y="59" width="1" height="2" fill="#272727" />
<rect x="251" y="59" width="1" height="1" fill="#454545" />
<rect x="252" y="59" width="5" height="1" fill="#272727" />
<rect x="257" y="59" width="12" height="1" fill="#454545" />
<rect x="269" y="59" width="1" height="2" fill="#272727" />
<rect x="291" y="59" width="1" height="1" fill="#454545" />
<rect x="292" y="59" width="5" height="1" fill="#272727" />
<rect x="297" y="59" width="12" height="1" fill="#454545" />
<rect x="309" y="59" width="1" height="2" fill="#272727" />
<rect x="12" y="60" width="7" height="1" fill="#565656" />
<rect x="19" y="60" width="2" height="3" fill="#636363" />
<rect x="21" y="60" width="8" height="1" fill="#272727" />
<rect x="48" y="60" width="3" height="2" fill="#272727" />
<rect x="51" y="60" width="5" height="1" fill="#454545" />
<rect x="56" y="60" width="4" height="1" fill="#272727" />
<rect x="60" y="60" width="8" height="1" fill="#565656" />
<rect x="91" y="60" width="1" height="2" fill="#272727" />
<rect x="92" y="60" width="2" height="1" fill="#454545" />
<rect x="94" y="60" width="3" height="1" fill="#272727" />
<rect x="97" y="60" width="10" height="1" fill="#565656" />
<rect x="107" y="60" width="1" height="1" fill="#636363" />
<rect x="131" y="60" width="1" height="2" fill="#272727" />
<rect x="132" y="60" width="5" height="1" fill="#454545" />
<rect x="137" y="60" width="12" height="1" fill="#272727" />
<rect x="171" y="60" width="1" height="2" fill="#272727" />
<rect x="172" y="60" width="5" height="1" fill="#454545" />
<rect x="177" y="60" width="12" height="1" fill="#272727" />
<rect x="211" y="60" width="1" height="2" fill="#272727" />
<rect x="212" y="60" width="5" height="1" fill="#454545" />
<rect x="217" y="60" width="12" height="1" fill="#272727" />
<rect x="251" y="60" width="1" height="2" fill="#272727" />
<rect x="252" y="60" width="5" height="1" fill="#454545" />
<rect x="257" y="60" width="12" height="1" fill="#272727" />
<rect x="291" y="60" width="1" height="2" fill="#272727" />
<rect x="292" y="60" width="5" height="1" fill="#454545" />
<rect x="297" y="60" width="12" height="1" fill="#272727" />
<rect x="12" y="61" width="1" height="1" fill="#565656" />
<rect x="13" y="61" width="6" height="1" fill="#636363" />
<rect x="21" y="61" width="8" height="1" fill="#565656" />
<rect x="51" y="61" width="5" height="1" fill="#272727" />
<rect x="56" y="61" width="4" height="1" fill="#565656" />
<rect x="60" y="61" width="8" height="1" fill="#636363" />
<rect x="92" y="61" width="2" height="1" fill="#272727" />
<rect x="94" y="61" width="5" height="1" fill="#565656" />
<rect x="99" y="61" width="8" height="1" fill="#636363" />
<rect x="132" y="61" width="5" height="1" fill="#272727" />
<rect x="137" y="61" width="12" height="1" fill="#565656" />
<rect x="172" y="61" width="5" height="1" fill="#272727" />
<rect x="177" y="61" width="12" height="1" fill="#565656" />
<rect x="212" y="61" width="5" height="1" fill="#272727" />
<rect x="217" y="61" width="12" height="1" fill="#565656" />
<rect x="252" y="61" width="5" height="1" fill="#272727" />
<rect x="257" y="61" width="12" height="1" fill="#565656" />
<rect x="292" y="61" width="5" height="1" fill="#272727" />
<rect x="297" y="61" width="12" height="1" fill="#565656" />
<rect x="11" y="62" width="1" height="5" fill="#565656" />
<rect x="12" y="62" width="5" height="2" fill="#636363" />
<rect x="18" y="62" width="1" height="2" fill="#565656" />
<rect x="21" y="62" width="7" height="1" fill="#636363" />
<rect x="51" y="62" width="7" height="1" fill="#565656" />
<rect x="58" y="62" width="8" height="1" fill="#636363" />
<rect x="92" y="62" width="1" height="1" fill="#565656" />
<rect x="93" y="62" width="13" height="1" fill="#636363" />
<rect x="132" y="62" width="7" height="1" fill="#565656" />
<rect x="139" y="62" width="10" height="1" fill="#636363" />
<rect x="172" y="62" width="7" height="1" fill="#565656" />
<rect x="179" y="62" width="10" height="1" fill="#636363" />
<rect x="212" y="62" width="7" height="1" fill="#565656" />
<rect x="219" y="62" width="10" height="1" fill="#636363" />
<rect x="252" y="62" width="7" height="1" fill="#565656" />
<rect x="259" y="62" width="10" height="1" fill="#636363" />
<rect x="292" y="62" width="7" height="1" fill="#565656" />
<rect x="299" y="62" width="10" height="1" fill="#636363" />
<rect x="20" y="63" width="5" height="1" fill="#636363" />
<rect x="52" y="63" width="1" height="1" fill="#565656" />
<rect x="53" y="63" width="8" height="1" fill="#636363" />
<rect x="62" y="63" width="1" height="2" fill="#636363" />
<rect x="92" y="63" width="7" height="1" fill="#636363" />
<rect x="101" y="63" width="1" height="1" fill="#565656" />
<rect x="132" y="63" width="1" height="1" fill="#565656" />
<rect x="133" y="63" width="14" height="1" fill="#636363" />
<rect x="172" y="63" width="1" height="1" fill="#565656" />
<rect x="173" y="63" width="14" height="1" fill="#636363" />
<rect x="212" y="63" width="1" height="1" fill="#565656" />
<rect x="213" y="63" width="14" height="1" fill="#636363" />
<rect x="252" y="63" width="1" height="1" fill="#565656" />
<rect x="253" y="63" width="14" height="1" fill="#636363" />
<rect x="292" y="63" width="1" height="1" fill="#565656" />
<rect x="293" y="63" width="14" height="1" fill="#636363" />
<rect x="12" y="64" width="1" height="3" fill="#565656" />
<rect x="13" y="64" width="6" height="1" fill="#636363" />
<rect x="20" y="64" width="1" height="2" fill="#636363" />
<rect x="53" y="64" width="1" height="5" fill="#565656" />
<rect x="54" y="64" width="5" height="2" fill="#636363" />
<rect x="60" y="64" width="1" height="2" fill="#565656" />
<rect x="92" y="64" width="1" height="2" fill="#565656" />
<rect x="93" y="64" width="5" height="1" fill="#636363" />
<rect x="99" y="64" width="1" height="1" fill="#636363" />
<rect x="100" y="64" width="1" height="1" fill="#565656" />
<rect x="133" y="64" width="1" height="5" fill="#565656" />
<rect x="134" y="64" width="5" height="2" fill="#636363" />
<rect x="140" y="64" width="1" height="2" fill="#565656" />
<rect x="142" y="64" width="1" height="2" fill="#636363" />
<rect x="173" y="64" width="1" height="5" fill="#565656" />
<rect x="174" y="64" width="5" height="2" fill="#636363" />
<rect x="180" y="64" width="1" height="2" fill="#565656" />
<rect x="182" y="64" width="1" height="2" fill="#636363" />
<rect x="213" y="64" width="1" height="5" fill="#565656" />
<rect x="214" y="64" width="5" height="2" fill="#636363" />
<rect x="220" y="64" width="1" height="2" fill="#565656" />
<rect x="222" y="64" width="1" height="2" fill="#636363" />
<rect x="253" y="64" width="1" height="5" fill="#565656" />
<rect x="254" y="64" width="5" height="2" fill="#636363" />
<rect x="260" y="64" width="1" height="2" fill="#565656" />
<rect x="262" y="64" width="1" height="2" fill="#636363" />
<rect x="293" y="64" width="1" height="5" fill="#565656" />
<rect x="294" y="64" width="5" height="2" fill="#636363" />
<rect x="300" y="64" width="1" height="2" fill="#565656" />
<rect x="302" y="64" width="1" height="2" fill="#636363" />
<rect x="13" y="65" width="4" height="1" fill="#636363" />
<rect x="93" y="65" width="1" height="4" fill="#565656" />
<rect x="94" y="65" width="5" height="1" fill="#636363" />
<rect x="99" y="65" width="1" height="1" fill="#565656" />
<rect x="13" y="66" width="2" height="2" fill="#565656" />
<rect x="15" y="66" width="2" height="1" fill="#636363" />
<rect x="54" y="66" width="1" height="3" fill="#565656" />
<rect x="55" y="66" width="6" height="1" fill="#636363" />
<rect x="94" y="66" width="4" height="1" fill="#636363" />
<rect x="134" y="66" width="1" height="3" fill="#565656" />
<rect x="135" y="66" width="6" height="1" fill="#636363" />
<rect x="174" y="66" width="1" height="3" fill="#565656" />
<rect x="175" y="66" width="6" height="1" fill="#636363" />
<rect x="214" y="66" width="1" height="3" fill="#565656" />
<rect x="215" y="66" width="6" height="1" fill="#636363" />
<rect x="254" y="66" width="1" height="3" fill="#565656" />
<rect x="255" y="66" width="6" height="1" fill="#636363" />
<rect x="294" y="66" width="1" height="3" fill="#565656" />
<rect x="295" y="66" width="6" height="1" fill="#636363" />
<rect x="12" y="67" width="1" height="3" fill="#454545" />
<rect x="15" y="67" width="1" height="1" fill="#636363" />
<rect x="16" y="67" width="1" height="3" fill="#454545" />
<rect x="55" y="67" width="4" height="1" fill="#636363" />
<rect x="94" y="67" width="2" height="2" fill="#565656" />
<rect x="96" y="67" width="2" height="1" fill="#636363" />
<rect x="135" y="67" width="4" height="1" fill="#636363" />
<rect x="175" y="67" width="4" height="1" fill="#636363" />
<rect x="215" y="67" width="4" height="1" fill="#636363" />
<rect x="255" y="67" width="4" height="1" fill="#636363" />
<rect x="295" y="67" width="4" height="1" fill="#636363" />
<rect x="13" y="68" width="3" height="2" fill="#454545" />
<rect x="55" y="68" width="2" height="2" fill="#565656" />
<rect x="57" y="68" width="2" height="1" fill="#636363" />
<rect x="96" y="68" width="1" height="1" fill="#636363" />
<rect x="97" y="68" width="1" height="3" fill="#454545" />
<rect x="135" y="68" width="2" height="2" fill="#565656" />
<rect x="137" y="68" width="2" height="1" fill="#636363" />
<rect x="175" y="68" width="2" height="2" fill="#565656" />
<rect x="177" y="68" width="2" height="1" fill="#636363" />
<rect x="215" y="68" width="2" height="2" fill="#565656" />
<rect x="217" y="68" width="2" height="1" fill="#636363" />
<rect x="255" y="68" width="2" height="2" fill="#565656" />
<rect x="257" y="68" width="2" height="1" fill="#636363" />
<rect x="295" y="68" width="2" height="2" fill="#565656" />
<rect x="297" y="68" width="2" height="1" fill="#636363" />
<rect x="54" y="69" width="1" height="3" fill="#454545" />
<rect x="57" y="69" width="1" height="1" fill="#636363" />
<rect x="58" y="69" width="1" height="3" fill="#454545" />
<rect x="94" y="69" width="3" height="1" fill="#454545" />
<rect x="134" y="69" width="1" height="3" fill="#454545" />
<rect x="137" y="69" width="1" height="1" fill="#636363" />
<rect x="138" y="69" width="1" height="3" fill="#454545" />
<rect x="174" y="69" width="1" height="3" fill="#454545" />
<rect x="177" y="69" width="1" height="1" fill="#636363" />
<rect x="178" y="69" width="1" height="3" fill="#454545" />
<rect x="214" y="69" width="1" height="3" fill="#454545" />
<rect x="217" y="69" width="1" height="1" fill="#636363" />
<rect x="218" y="69" width="1" height="3" fill="#454545" />
<rect x="254" y="69" width="1" height="3" fill="#454545" />
<rect x="257" y="69" width="1" height="1" fill="#636363" />
<rect x="258" y="69" width="1" height="3" fill="#454545" />
<rect x="294" y="69" width="1" height="3" fill="#454545" />
<rect x="297" y="69" width="1" height="1" fill="#636363" />
<rect x="298" y="69" width="1" height="3" fill="#454545" />
<rect x="55" y="70" width="3" height="2" fill="#454545" />
<rect x="95" y="70" width="2" height="1" fill="#454545" />
<rect x="135" y="70" width="3" height="2" fill="#454545" />
<rect x="175" y="70" width="3" height="2" fill="#454545" />
<rect x="215" y="70" width="3" height="2" fill="#454545" />
<rect x="255" y="70" width="3" height="2" fill="#454545" />
<rect x="295" y="70" width="3" height="2" fill="#454545" />
</svg>