<?xml version="1.0" encoding="UTF-8" ?>
<svg version="1.1" width="333" height="80" xmlns="http://www.w3.org/2000/svg" shape-rendering="crispEdges">
<rect x="9" y="28" width="4" height="3" fill="#64CCFB" />
<rect x="43" y="28" width="5" height="4" fill="#64CCFB" />
<rect x="83" y="28" width="4" height="3" fill="#64CCFB" />
<rect x="117" y="28" width="5" height="4" fill="#64CCFB" />
<rect x="157" y="28" width="4" height="3" fill="#64CCFB" />
<rect x="191" y="28" width="5" height="4" fill="#64CCFB" />
<rect x="231" y="28" width="4" height="3" fill="#64CCFB" />
<rect x="265" y="28" width="5" height="4" fill="#64CCFB" />
<rect x="305" y="28" width="4" height="3" fill="#64CCFB" />
<rect x="7" y="29" width="2" height="8" fill="#64CCFB" />
<rect x="13" y="29" width="1" height="6" fill="#4A95E5" />
<rect x="40" y="29" width="3" height="7" fill="#64CCFB" />
<rect x="48" y="29" width="2" height="2" fill="#64CCFB" />
<rect x="81" y="29" width="2" height="8" fill="#64CCFB" />
<rect x="87" y="29" width="1" height="6" fill="#4A95E5" />
<rect x="114" y="29" width="3" height="7" fill="#64CCFB" />
<rect x="122" y="29" width="2" height="2" fill="#64CCFB" />
<rect x="155" y="29" width="2" height="8" fill="#64CCFB" />
<rect x="161" y="29" width="1" height="6" fill="#4A95E5" />
<rect x="188" y="29" width="3" height="7" fill="#64CCFB" />
<rect x="196" y="29" width="2" height="2" fill="#64CCFB" />
<rect x="229" y="29" width="2" height="8" fill="#64CCFB" />
<rect x="235" y="29" width="1" height="6" fill="#4A95E5" />
<rect x="262" y="29" width="3" height="7" fill="#64CCFB" />
<rect x="270" y="29" width="2" height="2" fill="#64CCFB" />
<rect x="303" y="29" width="2" height="8" fill="#64CCFB" />
<rect x="309" y="29" width="1" height="6" fill="#4A95E5" />
<rect x="6" y="30" width="1" height="9" fill="#64CCFB" />
<rect x="39" y="30" width="1" height="6" fill="#64CCFB" />
<rect x="50" y="30" width="1" height="2" fill="#4A95E5" />
<rect x="51" y="30" width="1" height="6" fill="#1A4CA9" />
<rect x="80" y="30" width="1" height="9" fill="#64CCFB" />
<rect x="113" y="30" width="1" height="6" fill="#64CCFB" />
<rect x="124" y="30" width="1" height="2" fill="#4A95E5" />
<rect x="125" y="30" width="1" height="6" fill="#1A4CA9" />
<rect x="154" y="30" width="1" height="9" fill="#64CCFB" />
<rect x="187" y="30" width="1" height="6" fill="#64CCFB" />
<rect x="198" y="30" width="1" height="2" fill="#4A95E5" />
<rect x="199" y="30" width="1" height="6" fill="#1A4CA9" />
<rect x="228" y="30" width="1" height="9" fill="#64CCFB" />
<rect x="261" y="30" width="1" height="6" fill="#64CCFB" />
<rect x="272" y="30" width="1" height="2" fill="#4A95E5" />
<rect x="273" y="30" width="1" height="6" fill="#1A4CA9" />
<rect x="302" y="30" width="1" height="9" fill="#64CCFB" />
<rect x="5" y="31" width="1" height="9" fill="#64CCFB" />
<rect x="9" y="31" width="2" height="4" fill="#64CCFB" />
<rect x="11" y="31" width="1" height="6" fill="#4A95E5" />
<rect x="12" y="31" width="1" height="2" fill="#64CCFB" />
<rect x="14" y="31" width="1" height="6" fill="#1A4CA9" />
<rect x="38" y="31" width="1" height="4" fill="#64CCFB" />
<rect x="48" y="31" width="1" height="1" fill="#4A95E5" />
<rect x="49" y="31" width="1" height="1" fill="#64CCFB" />
<rect x="79" y="31" width="1" height="9" fill="#64CCFB" />
<rect x="83" y="31" width="2" height="4" fill="#64CCFB" />
<rect x="85" y="31" width="1" height="6" fill="#4A95E5" />
<rect x="86" y="31" width="1" height="2" fill="#64CCFB" />
<rect x="88" y="31" width="1" height="6" fill="#1A4CA9" />
<rect x="112" y="31" width="1" height="4" fill="#64CCFB" />
<rect x="122" y="31" width="1" height="1" fill="#4A95E5" />
<rect x="123" y="31" width="1" height="1" fill="#64CCFB" />
<rect x="153" y="31" width="1" height="9" fill="#64CCFB" />
<rect x="157" y="31" width="2" height="4" fill="#64CCFB" />
<rect x="159" y="31" width="1" height="6" fill="#4A95E5" />
<rect x="160" y="31" width="1" height="2" fill="#64CCFB" />
<rect x="162" y="31" width="1" height="6" fill="#1A4CA9" />
<rect x="186" y="31" width="1" height="4" fill="#64CCFB" />
<rect x="196" y="31" width="1" height="1" fill="#4A95E5" />
<rect x="197" y="31" width="1" height="1" fill="#64CCFB" />
<rect x="227" y="31" width="1" height="9" fill="#64CCFB" />
<rect x="231" y="31" width="2" height="4" fill="#64CCFB" />
<rect x="233" y="31" width="1" height="6" fill="#4A95E5" />
<rect x="234" y="31" width="1" height="2" fill="#64CCFB" />
<rect x="236" y="31" width="1" height="6" fill="#1A4CA9" />
<rect x="260" y="31" width="1" height="4" fill="#64CCFB" />
<rect x="270" y="31" width="1" height="1" fill="#4A95E5" />
<rect x="271" y="31" width="1" height="1" fill="#64CCFB" />
<rect x="301" y="31" width="1" height="9" fill="#64CCFB" />
<rect x="305" y="31" width="2" height="4" fill="#64CCFB" />
<rect x="307" y="31" width="1" height="6" fill="#4A95E5" />
<rect x="308" y="31" width="1" height="2" fill="#64CCFB" />
<rect x="310" y="31" width="1" height="6" fill="#1A4CA9" />
<rect x="4" y="32" width="1" height="8" fill="#64CCFB" />
<rect x="15" y="32" width="1" height="4" fill="#1A4CA9" />
<rect x="37" y="32" width="1" height="2" fill="#64CCFB" />
<rect x="43" y="32" width="4" height="2" fill="#64CCFB" />
<rect x="47" y="32" width="1" height="5" fill="#4A95E5" />
<rect x="48" y="32" width="1" height="1" fill="#64CCFB" />
<rect x="49" y="32" width="1" height="3" fill="#4A95E5" />
<rect x="50" y="32" width="1" height="3" fill="#1A4CA9" />
<rect x="52" y="32" width="1" height="4" fill="#1A4CA9" />
<rect x="78" y="32" width="1" height="8" fill="#64CCFB" />
<rect x="89" y="32" width="1" height="4" fill="#1A4CA9" />
<rect x="111" y="32" width="1" height="2" fill="#64CCFB" />
<rect x="117" y="32" width="4" height="2" fill="#64CCFB" />
<rect x="121" y="32" width="1" height="5" fill="#4A95E5" />
<rect x="122" y="32" width="1" height="1" fill="#64CCFB" />
<rect x="123" y="32" width="1" height="3" fill="#4A95E5" />
<rect x="124" y="32" width="1" height="3" fill="#1A4CA9" />
<rect x="126" y="32" width="1" height="4" fill="#1A4CA9" />
<rect x="152" y="32" width="1" height="8" fill="#64CCFB" />
<rect x="163" y="32" width="1" height="4" fill="#1A4CA9" />
<rect x="185" y="32" width="1" height="2" fill="#64CCFB" />
<rect x="191" y="32" width="4" height="2" fill="#64CCFB" />
<rect x="195" y="32" width="1" height="5" fill="#4A95E5" />
<rect x="196" y="32" width="1" height="1" fill="#64CCFB" />
<rect x="197" y="32" width="1" height="3" fill="#4A95E5" />
<rect x="198" y="32" width="1" height="3" fill="#1A4CA9" />
<rect x="200" y="32" width="1" height="4" fill="#1A4CA9" />
<rect x="226" y="32" width="1" height="8" fill="#64CCFB" />
<rect x="237" y="32" width="1" height="4" fill="#1A4CA9" />
<rect x="259" y="32" width="1" height="2" fill="#64CCFB" />
<rect x="265" y="32" width="4" height="2" fill="#64CCFB" />
<rect x="269" y="32" width="1" height="5" fill="#4A95E5" />
<rect x="270" y="32" width="1" height="1" fill="#64CCFB" />
<rect x="271" y="32" width="1" height="3" fill="#4A95E5" />
<rect x="272" y="32" width="1" height="3" fill="#1A4CA9" />
<rect x="274" y="32" width="1" height="4" fill="#1A4CA9" />
<rect x="300" y="32" width="1" height="8" fill="#64CCFB" />
<rect x="311" y="32" width="1" height="4" fill="#1A4CA9" />
<rect x="12" y="33" width="1" height="4" fill="#4A95E5" />
<rect x="48" y="33" width="1" height="3" fill="#4A95E5" />
<rect x="53" y="33" width="1" height="3" fill="#1A4CA9" />
<rect x="86" y="33" width="1" height="4" fill="#4A95E5" />
<rect x="122" y="33" width="1" height="3" fill="#4A95E5" />
<rect x="127" y="33" width="1" height="3" fill="#1A4CA9" />
<rect x="160" y="33" width="1" height="4" fill="#4A95E5" />
<rect x="196" y="33" width="1" height="3" fill="#4A95E5" />
<rect x="201" y="33" width="1" height="3" fill="#1A4CA9" />
<rect x="234" y="33" width="1" height="4" fill="#4A95E5" />
<rect x="270" y="33" width="1" height="3" fill="#4A95E5" />
<rect x="275" y="33" width="1" height="3" fill="#1A4CA9" />
<rect x="308" y="33" width="1" height="4" fill="#4A95E5" />
<rect x="3" y="34" width="1" height="5" fill="#64CCFB" />
<rect x="37" y="34" width="1" height="1" fill="#4A95E5" />
<rect x="43" y="34" width="3" height="1" fill="#64CCFB" />
<rect x="46" y="34" width="1" height="3" fill="#4A95E5" />
<rect x="77" y="34" width="1" height="5" fill="#64CCFB" />
<rect x="111" y="34" width="1" height="1" fill="#4A95E5" />
<rect x="117" y="34" width="3" height="1" fill="#64CCFB" />
<rect x="120" y="34" width="1" height="3" fill="#4A95E5" />
<rect x="151" y="34" width="1" height="5" fill="#64CCFB" />
<rect x="185" y="34" width="1" height="1" fill="#4A95E5" />
<rect x="191" y="34" width="3" height="1" fill="#64CCFB" />
<rect x="194" y="34" width="1" height="3" fill="#4A95E5" />
<rect x="225" y="34" width="1" height="5" fill="#64CCFB" />
<rect x="259" y="34" width="1" height="1" fill="#4A95E5" />
<rect x="265" y="34" width="3" height="1" fill="#64CCFB" />
<rect x="268" y="34" width="1" height="3" fill="#4A95E5" />
<rect x="299" y="34" width="1" height="5" fill="#64CCFB" />
<rect x="9" y="35" width="1" height="1" fill="#64CCFB" />
<rect x="10" y="35" width="1" height="4" fill="#4A95E5" />
<rect x="13" y="35" width="1" height="2" fill="#1A4CA9" />
<rect x="38" y="35" width="1" height="1" fill="#4A95E5" />
<rect x="43" y="35" width="2" height="1" fill="#64CCFB" />
<rect x="45" y="35" width="1" height="3" fill="#4A95E5" />
<rect x="83" y="35" width="1" height="1" fill="#64CCFB" />
<rect x="84" y="35" width="1" height="4" fill="#4A95E5" />
<rect x="87" y="35" width="1" height="2" fill="#1A4CA9" />
<rect x="112" y="35" width="1" height="1" fill="#4A95E5" />
<rect x="117" y="35" width="2" height="1" fill="#64CCFB" />
<rect x="119" y="35" width="1" height="3" fill="#4A95E5" />
<rect x="157" y="35" width="1" height="1" fill="#64CCFB" />
<rect x="158" y="35" width="1" height="4" fill="#4A95E5" />
<rect x="161" y="35" width="1" height="2" fill="#1A4CA9" />
<rect x="186" y="35" width="1" height="1" fill="#4A95E5" />
<rect x="191" y="35" width="2" height="1" fill="#64CCFB" />
<rect x="193" y="35" width="1" height="3" fill="#4A95E5" />
<rect x="231" y="35" width="1" height="1" fill="#64CCFB" />
<rect x="232" y="35" width="1" height="4" fill="#4A95E5" />
<rect x="235" y="35" width="1" height="2" fill="#1A4CA9" />
<rect x="260" y="35" width="1" height="1" fill="#4A95E5" />
<rect x="265" y="35" width="2" height="1" fill="#64CCFB" />
<rect x="267" y="35" width="1" height="3" fill="#4A95E5" />
<rect x="305" y="35" width="1" height="1" fill="#64CCFB" />
<rect x="306" y="35" width="1" height="4" fill="#4A95E5" />
<rect x="309" y="35" width="1" height="2" fill="#1A4CA9" />
<rect x="9" y="36" width="1" height="3" fill="#4A95E5" />
<rect x="39" y="36" width="6" height="1" fill="#4A95E5" />
<rect x="83" y="36" width="1" height="3" fill="#4A95E5" />
<rect x="113" y="36" width="6" height="1" fill="#4A95E5" />
<rect x="157" y="36" width="1" height="3" fill="#4A95E5" />
<rect x="187" y="36" width="6" height="1" fill="#4A95E5" />
<rect x="231" y="36" width="1" height="3" fill="#4A95E5" />
<rect x="261" y="36" width="6" height="1" fill="#4A95E5" />
<rect x="305" y="36" width="1" height="3" fill="#4A95E5" />
<rect x="7" y="37" width="1" height="1" fill="#64CCFB" />
<rect x="8" y="37" width="1" height="3" fill="#4A95E5" />
<rect x="40" y="37" width="5" height="1" fill="#4A95E5" />
<rect x="81" y="37" width="1" height="1" fill="#64CCFB" />
<rect x="82" y="37" width="1" height="3" fill="#4A95E5" />
<rect x="114" y="37" width="5" height="1" fill="#4A95E5" />
<rect x="155" y="37" width="1" height="1" fill="#64CCFB" />
<rect x="156" y="37" width="1" height="3" fill="#4A95E5" />
<rect x="188" y="37" width="5" height="1" fill="#4A95E5" />
<rect x="229" y="37" width="1" height="1" fill="#64CCFB" />
<rect x="230" y="37" width="1" height="3" fill="#4A95E5" />
<rect x="262" y="37" width="5" height="1" fill="#4A95E5" />
<rect x="303" y="37" width="1" height="1" fill="#64CCFB" />
<rect x="304" y="37" width="1" height="3" fill="#4A95E5" />
<rect x="7" y="38" width="1" height="2" fill="#4A95E5" />
<rect x="81" y="38" width="1" height="2" fill="#4A95E5" />
<rect x="155" y="38" width="1" height="2" fill="#4A95E5" />
<rect x="229" y="38" width="1" height="2" fill="#4A95E5" />
<rect x="303" y="38" width="1" height="2" fill="#4A95E5" />
<rect x="6" y="39" width="1" height="1" fill="#4A95E5" />
<rect x="80" y="39" width="1" height="1" fill="#4A95E5" />
<rect x="154" y="39" width="1" height="1" fill="#4A95E5" />
<rect x="228" y="39" width="1" height="1" fill="#4A95E5" />
<rect x="302" y="39" width="1" height="1" fill="#4A95E5" />
<rect x="201" y="40" width="2" height="1" fill="#B2E7FF" />
<rect x="274" y="40" width="4" height="1" fill="#B2E7FF" />
<rect x="96" y="41" width="1" height="6" fill="#B2E7FF" />
<rect x="131" y="41" width="6" height="1" fill="#B2E7FF" />
<rect x="162" y="41" width="6" height="1" fill="#B2E7FF" />
<rect x="200" y="41" width="1" height="1" fill="#B2E7FF" />
<rect x="203" y="41" width="2" height="1" fill="#B2E7FF" />
<rect x="211" y="41" width="1" height="3" fill="#B2E7FF" />
<rect x="272" y="41" width="3" height="2" fill="#B2E7FF" />
<rect x="285" y="41" width="1" height="5" fill="#B2E7FF" />
<rect x="95" y="42" width="1" height="4" fill="#B2E7FF" />
<rect x="97" y="42" width="3" height="4" fill="#B2E7FF" />
<rect x="130" y="42" width="1" height="2" fill="#B2E7FF" />
<rect x="135" y="42" width="3" height="1" fill="#B2E7FF" />
<rect x="161" y="42" width="4" height="1" fill="#B2E7FF" />
<rect x="168" y="42" width="3" height="1" fill="#B2E7FF" />
<rect x="207" y="42" width="4" height="2" fill="#B2E7FF" />
<rect x="212" y="42" width="2" height="3" fill="#B2E7FF" />
<rect x="246" y="42" width="2" height="1" fill="#B2E7FF" />
<rect x="275" y="42" width="1" height="3" fill="#B2E7FF" />
<rect x="283" y="42" width="2" height="2" fill="#B2E7FF" />
<rect x="288" y="42" width="1" height="1" fill="#B2E7FF" />
<rect x="24" y="43" width="1" height="9" fill="#B2E7FF" />
<rect x="28" y="43" width="2" height="2" fill="#B2E7FF" />
<rect x="63" y="43" width="2" height="2" fill="#B2E7FF" />
<rect x="94" y="43" width="1" height="2" fill="#B2E7FF" />
<rect x="100" y="43" width="1" height="3" fill="#B2E7FF" />
<rect x="136" y="43" width="3" height="1" fill="#B2E7FF" />
<rect x="162" y="43" width="4" height="1" fill="#B2E7FF" />
<rect x="171" y="43" width="1" height="1" fill="#B2E7FF" />
<rect x="175" y="43" width="1" height="3" fill="#B2E7FF" />
<rect x="199" y="43" width="1" height="3" fill="#B2E7FF" />
<rect x="206" y="43" width="1" height="5" fill="#B2E7FF" />
<rect x="214" y="43" width="2" height="3" fill="#B2E7FF" />
<rect x="245" y="43" width="1" height="2" fill="#B2E7FF" />
<rect x="248" y="43" width="1" height="1" fill="#B2E7FF" />
<rect x="253" y="43" width="1" height="2" fill="#B2E7FF" />
<rect x="256" y="43" width="1" height="1" fill="#B2E7FF" />
<rect x="274" y="43" width="1" height="1" fill="#B2E7FF" />
<rect x="276" y="43" width="1" height="3" fill="#B2E7FF" />
<rect x="286" y="43" width="1" height="4" fill="#B2E7FF" />
<rect x="30" y="44" width="1" height="7" fill="#B2E7FF" />
<rect x="58" y="44" width="1" height="5" fill="#B2E7FF" />
<rect x="65" y="44" width="1" height="6" fill="#B2E7FF" />
<rect x="101" y="44" width="2" height="3" fill="#B2E7FF" />
<rect x="131" y="44" width="1" height="3" fill="#B2E7FF" />
<rect x="137" y="44" width="3" height="1" fill="#B2E7FF" />
<rect x="163" y="44" width="4" height="1" fill="#B2E7FF" />
<rect x="174" y="44" width="1" height="5" fill="#B2E7FF" />
<rect x="176" y="44" width="1" height="3" fill="#B2E7FF" />
<rect x="200" y="44" width="1" height="3" fill="#B2E7FF" />
<rect x="207" y="44" width="1" height="6" fill="#B2E7FF" />
<rect x="216" y="44" width="1" height="3" fill="#B2E7FF" />
<rect x="249" y="44" width="2" height="1" fill="#B2E7FF" />
<rect x="257" y="44" width="1" height="24" fill="#B2E7FF" />
<rect x="277" y="44" width="2" height="3" fill="#B2E7FF" />
<rect x="284" y="44" width="1" height="1" fill="#B2E7FF" />
<rect x="29" y="45" width="1" height="4" fill="#B2E7FF" />
<rect x="31" y="45" width="1" height="7" fill="#B2E7FF" />
<rect x="64" y="45" width="1" height="1" fill="#B2E7FF" />
<rect x="66" y="45" width="1" height="4" fill="#B2E7FF" />
<rect x="132" y="45" width="1" height="3" fill="#B2E7FF" />
<rect x="134" y="45" width="1" height="3" fill="#B2E7FF" />
<rect x="140" y="45" width="1" height="1" fill="#B2E7FF" />
<rect x="164" y="45" width="4" height="1" fill="#B2E7FF" />
<rect x="173" y="45" width="1" height="3" fill="#B2E7FF" />
<rect x="177" y="45" width="1" height="5" fill="#B2E7FF" />
<rect x="201" y="45" width="2" height="2" fill="#B2E7FF" />
<rect x="217" y="45" width="1" height="3" fill="#B2E7FF" />
<rect x="246" y="45" width="1" height="1" fill="#B2E7FF" />
<rect x="251" y="45" width="2" height="2" fill="#B2E7FF" />
<rect x="279" y="45" width="1" height="1" fill="#B2E7FF" />
<rect x="287" y="45" width="1" height="3" fill="#B2E7FF" />
<rect x="23" y="46" width="1" height="3" fill="#B2E7FF" />
<rect x="32" y="46" width="1" height="8" fill="#B2E7FF" />
<rect x="59" y="46" width="1" height="3" fill="#B2E7FF" />
<rect x="97" y="46" width="2" height="3" fill="#B2E7FF" />
<rect x="103" y="46" width="1" height="1" fill="#B2E7FF" />
<rect x="133" y="46" width="1" height="2" fill="#B2E7FF" />
<rect x="135" y="46" width="1" height="3" fill="#B2E7FF" />
<rect x="166" y="46" width="3" height="1" fill="#B2E7FF" />
<rect x="178" y="46" width="1" height="6" fill="#B2E7FF" />
<rect x="203" y="46" width="2" height="3" fill="#B2E7FF" />
<rect x="218" y="46" width="2" height="3" fill="#B2E7FF" />
<rect x="247" y="46" width="1" height="1" fill="#B2E7FF" />
<rect x="256" y="46" width="1" height="2" fill="#B2E7FF" />
<rect x="288" y="46" width="2" height="3" fill="#B2E7FF" />
<rect x="25" y="47" width="1" height="6" fill="#B2E7FF" />
<rect x="60" y="47" width="1" height="5" fill="#B2E7FF" />
<rect x="99" y="47" width="1" height="4" fill="#B2E7FF" />
<rect x="136" y="47" width="2" height="5" fill="#B2E7FF" />
<rect x="167" y="47" width="3" height="1" fill="#B2E7FF" />
<rect x="179" y="47" width="1" height="12" fill="#B2E7FF" />
<rect x="202" y="47" width="1" height="1" fill="#B2E7FF" />
<rect x="205" y="47" width="1" height="2" fill="#B2E7FF" />
<rect x="208" y="47" width="1" height="5" fill="#B2E7FF" />
<rect x="220" y="47" width="1" height="4" fill="#B2E7FF" />
<rect x="252" y="47" width="1" height="2" fill="#B2E7FF" />
<rect x="258" y="47" width="1" height="18" fill="#B2E7FF" />
<rect x="290" y="47" width="1" height="3" fill="#B2E7FF" />
<rect x="26" y="48" width="1" height="7" fill="#B2E7FF" />
<rect x="33" y="48" width="1" height="6" fill="#B2E7FF" />
<rect x="61" y="48" width="1" height="5" fill="#B2E7FF" />
<rect x="100" y="48" width="1" height="3" fill="#B2E7FF" />
<rect x="138" y="48" width="1" height="6" fill="#B2E7FF" />
<rect x="168" y="48" width="3" height="1" fill="#B2E7FF" />
<rect x="209" y="48" width="1" height="5" fill="#B2E7FF" />
<rect x="253" y="48" width="1" height="3" fill="#B2E7FF" />
<rect x="291" y="48" width="1" height="3" fill="#B2E7FF" />
<rect x="62" y="49" width="1" height="5" fill="#B2E7FF" />
<rect x="101" y="49" width="1" height="1" fill="#B2E7FF" />
<rect x="139" y="49" width="1" height="5" fill="#B2E7FF" />
<rect x="169" y="49" width="1" height="1" fill="#B2E7FF" />
<rect x="204" y="49" width="1" height="1" fill="#B2E7FF" />
<rect x="219" y="49" width="1" height="1" fill="#B2E7FF" />
<rect x="292" y="49" width="1" height="4" fill="#B2E7FF" />
<rect x="27" y="50" width="1" height="6" fill="#B2E7FF" />
<rect x="63" y="50" width="1" height="5" fill="#B2E7FF" />
<rect x="140" y="50" width="1" height="5" fill="#B2E7FF" />
<rect x="180" y="50" width="1" height="8" fill="#B2E7FF" />
<rect x="210" y="50" width="1" height="5" fill="#B2E7FF" />
<rect x="217" y="50" width="1" height="3" fill="#B2E7FF" />
<rect x="293" y="50" width="1" height="3" fill="#B2E7FF" />
<rect x="28" y="51" width="1" height="6" fill="#B2E7FF" />
<rect x="64" y="51" width="2" height="4" fill="#B2E7FF" />
<rect x="141" y="51" width="1" height="6" fill="#B2E7FF" />
<rect x="216" y="51" width="1" height="3" fill="#B2E7FF" />
<rect x="218" y="51" width="1" height="1" fill="#B2E7FF" />
<rect x="254" y="51" width="1" height="1" fill="#B2E7FF" />
<rect x="29" y="52" width="1" height="6" fill="#B2E7FF" />
<rect x="66" y="52" width="1" height="4" fill="#B2E7FF" />
<rect x="137" y="52" width="1" height="1" fill="#B2E7FF" />
<rect x="142" y="52" width="1" height="10" fill="#B2E7FF" />
<rect x="181" y="52" width="1" height="2" fill="#B2E7FF" />
<rect x="211" y="52" width="1" height="4" fill="#B2E7FF" />
<rect x="215" y="52" width="1" height="1" fill="#B2E7FF" />
<rect x="294" y="52" width="1" height="1" fill="#B2E7FF" />
<rect x="67" y="53" width="1" height="4" fill="#B2E7FF" />
<rect x="101" y="53" width="1" height="9" fill="#B2E7FF" />
<rect x="212" y="53" width="1" height="5" fill="#B2E7FF" />
<rect x="30" y="54" width="1" height="5" fill="#B2E7FF" />
<rect x="68" y="54" width="1" height="4" fill="#B2E7FF" />
<rect x="102" y="54" width="1" height="10" fill="#B2E7FF" />
<rect x="143" y="54" width="1" height="8" fill="#B2E7FF" />
<rect x="31" y="55" width="1" height="4" fill="#B2E7FF" />
<rect x="65" y="55" width="1" height="1" fill="#B2E7FF" />
<rect x="69" y="55" width="1" height="7" fill="#B2E7FF" />
<rect x="213" y="55" width="1" height="5" fill="#B2E7FF" />
<rect x="32" y="56" width="2" height="3" fill="#B2E7FF" />
<rect x="103" y="56" width="1" height="9" fill="#B2E7FF" />
<rect x="214" y="56" width="1" height="4" fill="#B2E7FF" />
<rect x="70" y="57" width="1" height="6" fill="#B2E7FF" />
<rect x="104" y="57" width="1" height="11" fill="#B2E7FF" />
<rect x="144" y="57" width="1" height="3" fill="#B2E7FF" />
<rect x="178" y="57" width="1" height="3" fill="#B2E7FF" />
<rect x="34" y="58" width="1" height="19" fill="#B2E7FF" />
<rect x="71" y="58" width="1" height="18" fill="#B2E7FF" />
<rect x="176" y="58" width="2" height="2" fill="#B2E7FF" />
<rect x="215" y="58" width="1" height="4" fill="#B2E7FF" />
<rect x="256" y="58" width="1" height="13" fill="#B2E7FF" />
<rect x="33" y="59" width="1" height="6" fill="#B2E7FF" />
<rect x="35" y="59" width="1" height="17" fill="#B2E7FF" />
<rect x="175" y="59" width="1" height="4" fill="#B2E7FF" />
<rect x="216" y="59" width="1" height="5" fill="#B2E7FF" />
<rect x="72" y="60" width="1" height="14" fill="#B2E7FF" />
<rect x="141" y="60" width="1" height="4" fill="#B2E7FF" />
<rect x="174" y="60" width="1" height="6" fill="#B2E7FF" />
<rect x="176" y="60" width="1" height="2" fill="#B2E7FF" />
<rect x="36" y="61" width="1" height="1" fill="#B2E7FF" />
<rect x="105" y="61" width="1" height="8" fill="#B2E7FF" />
<rect x="140" y="61" width="1" height="4" fill="#B2E7FF" />
<rect x="217" y="61" width="1" height="5" fill="#B2E7FF" />
<rect x="139" y="62" width="1" height="4" fill="#B2E7FF" />
<rect x="173" y="62" width="1" height="3" fill="#B2E7FF" />
<rect x="36" y="63" width="1" height="1" fill="#B2E7FF" />
<rect x="106" y="63" width="1" height="7" fill="#B2E7FF" />
<rect x="218" y="63" width="1" height="7" fill="#B2E7FF" />
<rect x="73" y="64" width="1" height="8" fill="#B2E7FF" />
<rect x="107" y="64" width="1" height="13" fill="#B2E7FF" />
<rect x="138" y="64" width="1" height="4" fill="#B2E7FF" />
<rect x="181" y="64" width="1" height="6" fill="#B2E7FF" />
<rect x="36" y="65" width="1" height="8" fill="#B2E7FF" />
<rect x="137" y="65" width="1" height="5" fill="#B2E7FF" />
<rect x="180" y="65" width="1" height="2" fill="#B2E7FF" />
<rect x="219" y="65" width="1" height="4" fill="#B2E7FF" />
<rect x="255" y="65" width="1" height="8" fill="#B2E7FF" />
<rect x="295" y="65" width="1" height="3" fill="#B2E7FF" />
<rect x="182" y="66" width="1" height="4" fill="#B2E7FF" />
<rect x="108" y="67" width="1" height="9" fill="#B2E7FF" />
<rect x="220" y="67" width="1" height="1" fill="#B2E7FF" />
<rect x="6" y="68" width="5" height="4" fill="#64CCFB" />
<rect x="46" y="68" width="4" height="3" fill="#64CCFB" />
<rect x="80" y="68" width="5" height="4" fill="#64CCFB" />
<rect x="109" y="68" width="1" height="7" fill="#B2E7FF" />
<rect x="120" y="68" width="4" height="3" fill="#64CCFB" />
<rect x="154" y="68" width="5" height="4" fill="#64CCFB" />
<rect x="194" y="68" width="4" height="3" fill="#64CCFB" />
<rect x="217" y="68" width="1" height="3" fill="#B2E7FF" />
<rect x="228" y="68" width="5" height="4" fill="#64CCFB" />
<rect x="254" y="68" width="1" height="7" fill="#B2E7FF" />
<rect x="268" y="68" width="4" height="3" fill="#64CCFB" />
<rect x="293" y="68" width="2" height="2" fill="#B2E7FF" />
<rect x="3" y="69" width="3" height="7" fill="#64CCFB" />
<rect x="11" y="69" width="2" height="2" fill="#64CCFB" />
<rect x="44" y="69" width="2" height="8" fill="#64CCFB" />
<rect x="50" y="69" width="1" height="6" fill="#4A95E5" />
<rect x="70" y="69" width="1" height="8" fill="#B2E7FF" />
<rect x="77" y="69" width="3" height="7" fill="#64CCFB" />
<rect x="85" y="69" width="2" height="2" fill="#64CCFB" />
<rect x="118" y="69" width="2" height="8" fill="#64CCFB" />
<rect x="124" y="69" width="1" height="6" fill="#4A95E5" />
<rect x="151" y="69" width="3" height="7" fill="#64CCFB" />
<rect x="159" y="69" width="2" height="2" fill="#64CCFB" />
<rect x="192" y="69" width="2" height="8" fill="#64CCFB" />
<rect x="198" y="69" width="1" height="6" fill="#4A95E5" />
<rect x="216" y="69" width="1" height="4" fill="#B2E7FF" />
<rect x="225" y="69" width="3" height="7" fill="#64CCFB" />
<rect x="233" y="69" width="2" height="2" fill="#64CCFB" />
<rect x="266" y="69" width="2" height="8" fill="#64CCFB" />
<rect x="272" y="69" width="1" height="6" fill="#4A95E5" />
<rect x="292" y="69" width="1" height="5" fill="#B2E7FF" />
<rect x="2" y="70" width="1" height="6" fill="#64CCFB" />
<rect x="13" y="70" width="1" height="2" fill="#4A95E5" />
<rect x="14" y="70" width="1" height="6" fill="#1A4CA9" />
<rect x="43" y="70" width="1" height="9" fill="#64CCFB" />
<rect x="76" y="70" width="1" height="6" fill="#64CCFB" />
<rect x="87" y="70" width="1" height="2" fill="#4A95E5" />
<rect x="88" y="70" width="1" height="6" fill="#1A4CA9" />
<rect x="117" y="70" width="1" height="9" fill="#64CCFB" />
<rect x="136" y="70" width="1" height="1" fill="#B2E7FF" />
<rect x="150" y="70" width="1" height="6" fill="#64CCFB" />
<rect x="161" y="70" width="1" height="2" fill="#4A95E5" />
<rect x="162" y="70" width="1" height="6" fill="#1A4CA9" />
<rect x="191" y="70" width="1" height="9" fill="#64CCFB" />
<rect x="215" y="70" width="1" height="4" fill="#B2E7FF" />
<rect x="224" y="70" width="1" height="6" fill="#64CCFB" />
<rect x="235" y="70" width="1" height="2" fill="#4A95E5" />
<rect x="236" y="70" width="1" height="4" fill="#1A4CA9" />
<rect x="241" y="70" width="1" height="1" fill="#B2E7FF" />
<rect x="265" y="70" width="1" height="9" fill="#64CCFB" />
<rect x="293" y="70" width="1" height="3" fill="#B2E7FF" />
<rect x="1" y="71" width="1" height="4" fill="#64CCFB" />
<rect x="11" y="71" width="1" height="1" fill="#4A95E5" />
<rect x="12" y="71" width="1" height="1" fill="#64CCFB" />
<rect x="27" y="71" width="1" height="1" fill="#B2E7FF" />
<rect x="42" y="71" width="1" height="9" fill="#64CCFB" />
<rect x="46" y="71" width="2" height="4" fill="#64CCFB" />
<rect x="48" y="71" width="1" height="6" fill="#4A95E5" />
<rect x="49" y="71" width="1" height="2" fill="#64CCFB" />
<rect x="51" y="71" width="1" height="6" fill="#1A4CA9" />
<rect x="69" y="71" width="1" height="7" fill="#B2E7FF" />
<rect x="75" y="71" width="1" height="4" fill="#64CCFB" />
<rect x="85" y="71" width="1" height="1" fill="#4A95E5" />
<rect x="86" y="71" width="1" height="1" fill="#64CCFB" />
<rect x="106" y="71" width="1" height="7" fill="#B2E7FF" />
<rect x="116" y="71" width="1" height="9" fill="#64CCFB" />
<rect x="120" y="71" width="2" height="4" fill="#64CCFB" />
<rect x="122" y="71" width="1" height="6" fill="#4A95E5" />
<rect x="123" y="71" width="1" height="2" fill="#64CCFB" />
<rect x="125" y="71" width="1" height="6" fill="#1A4CA9" />
<rect x="149" y="71" width="1" height="4" fill="#64CCFB" />
<rect x="159" y="71" width="1" height="1" fill="#4A95E5" />
<rect x="160" y="71" width="1" height="1" fill="#64CCFB" />
<rect x="190" y="71" width="1" height="9" fill="#64CCFB" />
<rect x="194" y="71" width="2" height="4" fill="#64CCFB" />
<rect x="196" y="71" width="1" height="6" fill="#4A95E5" />
<rect x="197" y="71" width="1" height="2" fill="#64CCFB" />
<rect x="199" y="71" width="1" height="6" fill="#1A4CA9" />
<rect x="214" y="71" width="1" height="4" fill="#B2E7FF" />
<rect x="223" y="71" width="1" height="4" fill="#64CCFB" />
<rect x="233" y="71" width="1" height="1" fill="#4A95E5" />
<rect x="234" y="71" width="1" height="1" fill="#64CCFB" />
<rect x="239" y="71" width="2" height="2" fill="#B2E7FF" />
<rect x="253" y="71" width="1" height="5" fill="#B2E7FF" />
<rect x="264" y="71" width="1" height="9" fill="#64CCFB" />
<rect x="268" y="71" width="2" height="4" fill="#64CCFB" />
<rect x="270" y="71" width="1" height="6" fill="#4A95E5" />
<rect x="271" y="71" width="1" height="2" fill="#64CCFB" />
<rect x="273" y="71" width="1" height="6" fill="#1A4CA9" />
<rect x="294" y="71" width="1" height="1" fill="#B2E7FF" />
<rect x="0" y="72" width="1" height="2" fill="#64CCFB" />
<rect x="6" y="72" width="4" height="2" fill="#64CCFB" />
<rect x="10" y="72" width="1" height="5" fill="#4A95E5" />
<rect x="11" y="72" width="1" height="1" fill="#64CCFB" />
<rect x="12" y="72" width="1" height="3" fill="#4A95E5" />
<rect x="13" y="72" width="1" height="3" fill="#1A4CA9" />
<rect x="15" y="72" width="1" height="4" fill="#1A4CA9" />
<rect x="25" y="72" width="2" height="5" fill="#B2E7FF" />
<rect x="41" y="72" width="1" height="8" fill="#64CCFB" />
<rect x="52" y="72" width="1" height="4" fill="#1A4CA9" />
<rect x="74" y="72" width="1" height="2" fill="#64CCFB" />
<rect x="80" y="72" width="4" height="2" fill="#64CCFB" />
<rect x="84" y="72" width="1" height="5" fill="#4A95E5" />
<rect x="85" y="72" width="1" height="1" fill="#64CCFB" />
<rect x="86" y="72" width="1" height="3" fill="#4A95E5" />
<rect x="87" y="72" width="1" height="3" fill="#1A4CA9" />
<rect x="89" y="72" width="1" height="4" fill="#1A4CA9" />
<rect x="99" y="72" width="1" height="6" fill="#B2E7FF" />
<rect x="115" y="72" width="1" height="8" fill="#64CCFB" />
<rect x="126" y="72" width="1" height="4" fill="#1A4CA9" />
<rect x="141" y="72" width="1" height="3" fill="#B2E7FF" />
<rect x="148" y="72" width="1" height="2" fill="#64CCFB" />
<rect x="154" y="72" width="4" height="2" fill="#64CCFB" />
<rect x="158" y="72" width="1" height="5" fill="#4A95E5" />
<rect x="159" y="72" width="1" height="1" fill="#64CCFB" />
<rect x="160" y="72" width="1" height="3" fill="#4A95E5" />
<rect x="161" y="72" width="1" height="3" fill="#1A4CA9" />
<rect x="163" y="72" width="1" height="4" fill="#1A4CA9" />
<rect x="189" y="72" width="1" height="8" fill="#64CCFB" />
<rect x="200" y="72" width="1" height="4" fill="#1A4CA9" />
<rect x="208" y="72" width="1" height="6" fill="#B2E7FF" />
<rect x="222" y="72" width="1" height="2" fill="#64CCFB" />
<rect x="228" y="72" width="4" height="2" fill="#64CCFB" />
<rect x="232" y="72" width="1" height="5" fill="#4A95E5" />
<rect x="233" y="72" width="1" height="1" fill="#64CCFB" />
<rect x="234" y="72" width="1" height="3" fill="#4A95E5" />
<rect x="235" y="72" width="1" height="3" fill="#1A4CA9" />
<rect x="237" y="72" width="1" height="1" fill="#1A4CA9" />
<rect x="238" y="72" width="1" height="3" fill="#B2E7FF" />
<rect x="251" y="72" width="1" height="4" fill="#B2E7FF" />
<rect x="263" y="72" width="1" height="8" fill="#64CCFB" />
<rect x="274" y="72" width="1" height="4" fill="#1A4CA9" />
<rect x="291" y="72" width="1" height="3" fill="#B2E7FF" />
<rect x="11" y="73" width="1" height="3" fill="#4A95E5" />
<rect x="16" y="73" width="1" height="3" fill="#1A4CA9" />
<rect x="24" y="73" width="1" height="3" fill="#B2E7FF" />
<rect x="33" y="73" width="1" height="5" fill="#B2E7FF" />
<rect x="49" y="73" width="1" height="4" fill="#4A95E5" />
<rect x="68" y="73" width="1" height="5" fill="#B2E7FF" />
<rect x="85" y="73" width="1" height="3" fill="#4A95E5" />
<rect x="90" y="73" width="1" height="3" fill="#1A4CA9" />
<rect x="98" y="73" width="1" height="4" fill="#B2E7FF" />
<rect x="100" y="73" width="1" height="6" fill="#B2E7FF" />
<rect x="123" y="73" width="1" height="4" fill="#4A95E5" />
<rect x="159" y="73" width="1" height="3" fill="#4A95E5" />
<rect x="164" y="73" width="1" height="3" fill="#1A4CA9" />
<rect x="171" y="73" width="1" height="1" fill="#B2E7FF" />
<rect x="173" y="73" width="1" height="6" fill="#B2E7FF" />
<rect x="182" y="73" width="1" height="2" fill="#B2E7FF" />
<rect x="197" y="73" width="1" height="4" fill="#4A95E5" />
<rect x="207" y="73" width="1" height="4" fill="#B2E7FF" />
<rect x="209" y="73" width="1" height="6" fill="#B2E7FF" />
<rect x="213" y="73" width="1" height="3" fill="#B2E7FF" />
<rect x="233" y="73" width="1" height="3" fill="#4A95E5" />
<rect x="237" y="73" width="1" height="7" fill="#B2E7FF" />
<rect x="239" y="73" width="1" height="1" fill="#B2E7FF" />
<rect x="250" y="73" width="1" height="2" fill="#B2E7FF" />
<rect x="252" y="73" width="1" height="4" fill="#B2E7FF" />
<rect x="271" y="73" width="1" height="4" fill="#4A95E5" />
<rect x="284" y="73" width="1" height="6" fill="#B2E7FF" />
<rect x="290" y="73" width="1" height="4" fill="#B2E7FF" />
<rect x="0" y="74" width="1" height="1" fill="#4A95E5" />
<rect x="6" y="74" width="3" height="1" fill="#64CCFB" />
<rect x="9" y="74" width="1" height="3" fill="#4A95E5" />
<rect x="40" y="74" width="1" height="5" fill="#64CCFB" />
<rect x="62" y="74" width="6" height="4" fill="#B2E7FF" />
<rect x="74" y="74" width="1" height="1" fill="#4A95E5" />
<rect x="80" y="74" width="3" height="1" fill="#64CCFB" />
<rect x="83" y="74" width="1" height="3" fill="#4A95E5" />
<rect x="97" y="74" width="1" height="2" fill="#B2E7FF" />
<rect x="105" y="74" width="1" height="5" fill="#B2E7FF" />
<rect x="114" y="74" width="1" height="5" fill="#64CCFB" />
<rect x="134" y="74" width="1" height="5" fill="#B2E7FF" />
<rect x="148" y="74" width="1" height="1" fill="#4A95E5" />
<rect x="154" y="74" width="3" height="1" fill="#64CCFB" />
<rect x="157" y="74" width="1" height="3" fill="#4A95E5" />
<rect x="169" y="74" width="2" height="1" fill="#B2E7FF" />
<rect x="172" y="74" width="1" height="4" fill="#B2E7FF" />
<rect x="188" y="74" width="1" height="5" fill="#64CCFB" />
<rect x="206" y="74" width="1" height="2" fill="#B2E7FF" />
<rect x="212" y="74" width="1" height="4" fill="#B2E7FF" />
<rect x="222" y="74" width="1" height="1" fill="#4A95E5" />
<rect x="228" y="74" width="3" height="1" fill="#64CCFB" />
<rect x="231" y="74" width="1" height="3" fill="#4A95E5" />
<rect x="236" y="74" width="1" height="5" fill="#B2E7FF" />
<rect x="262" y="74" width="1" height="5" fill="#64CCFB" />
<rect x="283" y="74" width="1" height="4" fill="#B2E7FF" />
<rect x="285" y="74" width="1" height="5" fill="#B2E7FF" />
<rect x="288" y="74" width="2" height="4" fill="#B2E7FF" />
<rect x="1" y="75" width="1" height="1" fill="#4A95E5" />
<rect x="6" y="75" width="2" height="1" fill="#64CCFB" />
<rect x="8" y="75" width="1" height="3" fill="#4A95E5" />
<rect x="46" y="75" width="1" height="1" fill="#64CCFB" />
<rect x="47" y="75" width="1" height="4" fill="#4A95E5" />
<rect x="50" y="75" width="1" height="2" fill="#1A4CA9" />
<rect x="61" y="75" width="1" height="2" fill="#B2E7FF" />
<rect x="75" y="75" width="1" height="1" fill="#4A95E5" />
<rect x="80" y="75" width="2" height="1" fill="#64CCFB" />
<rect x="82" y="75" width="1" height="3" fill="#4A95E5" />
<rect x="101" y="75" width="4" height="4" fill="#B2E7FF" />
<rect x="120" y="75" width="1" height="1" fill="#64CCFB" />
<rect x="121" y="75" width="1" height="4" fill="#4A95E5" />
<rect x="124" y="75" width="1" height="2" fill="#1A4CA9" />
<rect x="133" y="75" width="1" height="3" fill="#B2E7FF" />
<rect x="139" y="75" width="2" height="2" fill="#B2E7FF" />
<rect x="149" y="75" width="1" height="1" fill="#4A95E5" />
<rect x="154" y="75" width="2" height="1" fill="#64CCFB" />
<rect x="156" y="75" width="1" height="3" fill="#4A95E5" />
<rect x="168" y="75" width="1" height="4" fill="#B2E7FF" />
<rect x="180" y="75" width="2" height="2" fill="#B2E7FF" />
<rect x="194" y="75" width="1" height="1" fill="#64CCFB" />
<rect x="195" y="75" width="1" height="4" fill="#4A95E5" />
<rect x="198" y="75" width="1" height="2" fill="#1A4CA9" />
<rect x="210" y="75" width="2" height="4" fill="#B2E7FF" />
<rect x="223" y="75" width="1" height="1" fill="#4A95E5" />
<rect x="228" y="75" width="2" height="1" fill="#64CCFB" />
<rect x="230" y="75" width="1" height="3" fill="#4A95E5" />
<rect x="238" y="75" width="1" height="1" fill="#1A4CA9" />
<rect x="247" y="75" width="1" height="1" fill="#B2E7FF" />
<rect x="268" y="75" width="1" height="1" fill="#64CCFB" />
<rect x="269" y="75" width="1" height="4" fill="#4A95E5" />
<rect x="272" y="75" width="1" height="2" fill="#1A4CA9" />
<rect x="282" y="75" width="1" height="2" fill="#B2E7FF" />
<rect x="286" y="75" width="2" height="4" fill="#B2E7FF" />
<rect x="2" y="76" width="6" height="1" fill="#4A95E5" />
<rect x="27" y="76" width="6" height="3" fill="#B2E7FF" />
<rect x="46" y="76" width="1" height="3" fill="#4A95E5" />
<rect x="76" y="76" width="6" height="1" fill="#4A95E5" />
<rect x="120" y="76" width="1" height="3" fill="#4A95E5" />
<rect x="138" y="76" width="1" height="3" fill="#B2E7FF" />
<rect x="150" y="76" width="6" height="1" fill="#4A95E5" />
<rect x="166" y="76" width="2" height="3" fill="#B2E7FF" />
<rect x="169" y="76" width="2" height="1" fill="#B2E7FF" />
<rect x="179" y="76" width="1" height="3" fill="#B2E7FF" />
<rect x="194" y="76" width="1" height="3" fill="#4A95E5" />
<rect x="224" y="76" width="6" height="1" fill="#4A95E5" />
<rect x="245" y="76" width="2" height="2" fill="#B2E7FF" />
<rect x="268" y="76" width="1" height="3" fill="#4A95E5" />
<rect x="3" y="77" width="5" height="1" fill="#4A95E5" />
<rect x="26" y="77" width="1" height="1" fill="#B2E7FF" />
<rect x="44" y="77" width="1" height="1" fill="#64CCFB" />
<rect x="45" y="77" width="1" height="3" fill="#4A95E5" />
<rect x="77" y="77" width="5" height="1" fill="#4A95E5" />
<rect x="118" y="77" width="1" height="1" fill="#64CCFB" />
<rect x="119" y="77" width="1" height="3" fill="#4A95E5" />
<rect x="135" y="77" width="3" height="2" fill="#B2E7FF" />
<rect x="139" y="77" width="1" height="1" fill="#B2E7FF" />
<rect x="151" y="77" width="5" height="1" fill="#4A95E5" />
<rect x="165" y="77" width="1" height="2" fill="#B2E7FF" />
<rect x="169" y="77" width="1" height="1" fill="#B2E7FF" />
<rect x="174" y="77" width="1" height="2" fill="#B2E7FF" />
<rect x="177" y="77" width="2" height="2" fill="#B2E7FF" />
<rect x="180" y="77" width="1" height="1" fill="#B2E7FF" />
<rect x="192" y="77" width="1" height="1" fill="#64CCFB" />
<rect x="193" y="77" width="1" height="3" fill="#4A95E5" />
<rect x="225" y="77" width="5" height="1" fill="#4A95E5" />
<rect x="243" y="77" width="2" height="2" fill="#B2E7FF" />
<rect x="247" y="77" width="1" height="1" fill="#B2E7FF" />
<rect x="266" y="77" width="1" height="1" fill="#64CCFB" />
<rect x="267" y="77" width="1" height="3" fill="#4A95E5" />
<rect x="44" y="78" width="1" height="2" fill="#4A95E5" />
<rect x="118" y="78" width="1" height="2" fill="#4A95E5" />
<rect x="175" y="78" width="2" height="1" fill="#B2E7FF" />
<rect x="192" y="78" width="1" height="2" fill="#4A95E5" />
<rect x="238" y="78" width="5" height="2" fill="#B2E7FF" />
<rect x="245" y="78" width="1" height="1" fill="#B2E7FF" />
<rect x="266" y="78" width="1" height="2" fill="#4A95E5" />
<rect x="288" y="78" width="1" height="1" fill="#B2E7FF" />
<rect x="43" y="79" width="1" height="1" fill="#4A95E5" />
<rect x="117" y="79" width="1" height="1" fill="#4A95E5" />
<rect x="191" y="79" width="1" height="1" fill="#4A95E5" />
<rect x="243" y="79" width="1" height="1" fill="#B2E7FF" />
<rect x="265" y="79" width="1" height="1" fill="#4A95E5" />
</svg>