<?xml version="1.0" encoding="UTF-8" ?>
<svg version="1.1" width="171" height="48" xmlns="http://www.w3.org/2000/svg" shape-rendering="crispEdges">
<rect x="3" y="4" width="3" height="2" fill="#272727" />
<rect x="22" y="4" width="3" height="2" fill="#272727" />
<rect x="41" y="4" width="3" height="2" fill="#272727" />
<rect x="60" y="4" width="3" height="2" fill="#272727" />
<rect x="79" y="4" width="3" height="2" fill="#272727" />
<rect x="98" y="4" width="3" height="2" fill="#272727" />
<rect x="117" y="4" width="3" height="2" fill="#272727" />
<rect x="136" y="4" width="3" height="2" fill="#272727" />
<rect x="155" y="4" width="3" height="2" fill="#272727" />
<rect x="2" y="5" width="1" height="18" fill="#272727" />
<rect x="21" y="5" width="1" height="18" fill="#272727" />
<rect x="40" y="5" width="1" height="18" fill="#272727" />
<rect x="59" y="5" width="1" height="18" fill="#272727" />
<rect x="78" y="5" width="1" height="18" fill="#272727" />
<rect x="97" y="5" width="1" height="18" fill="#272727" />
<rect x="116" y="5" width="1" height="18" fill="#272727" />
<rect x="135" y="5" width="1" height="18" fill="#272727" />
<rect x="154" y="5" width="1" height="18" fill="#272727" />
<rect x="1" y="6" width="1" height="1" fill="#565656" />
<rect x="3" y="6" width="1" height="18" fill="#272727" />
<rect x="4" y="6" width="1" height="12" fill="#454545" />
<rect x="5" y="6" width="1" height="12" fill="#272727" />
<rect x="6" y="6" width="1" height="12" fill="#565656" />
<rect x="7" y="6" width="1" height="10" fill="#636363" />
<rect x="20" y="6" width="1" height="1" fill="#565656" />
<rect x="22" y="6" width="1" height="18" fill="#272727" />
<rect x="23" y="6" width="1" height="12" fill="#454545" />
<rect x="24" y="6" width="1" height="12" fill="#272727" />
<rect x="25" y="6" width="1" height="12" fill="#565656" />
<rect x="26" y="6" width="1" height="10" fill="#636363" />
<rect x="39" y="6" width="1" height="1" fill="#565656" />
<rect x="41" y="6" width="1" height="18" fill="#272727" />
<rect x="42" y="6" width="1" height="12" fill="#454545" />
<rect x="43" y="6" width="1" height="12" fill="#272727" />
<rect x="44" y="6" width="1" height="12" fill="#565656" />
<rect x="45" y="6" width="1" height="10" fill="#636363" />
<rect x="58" y="6" width="1" height="1" fill="#565656" />
<rect x="60" y="6" width="1" height="18" fill="#272727" />
<rect x="61" y="6" width="1" height="12" fill="#454545" />
<rect x="62" y="6" width="1" height="12" fill="#272727" />
<rect x="63" y="6" width="1" height="12" fill="#565656" />
<rect x="64" y="6" width="1" height="10" fill="#636363" />
<rect x="77" y="6" width="1" height="1" fill="#565656" />
<rect x="79" y="6" width="1" height="18" fill="#272727" />
<rect x="80" y="6" width="1" height="12" fill="#454545" />
<rect x="81" y="6" width="1" height="12" fill="#272727" />
<rect x="82" y="6" width="1" height="12" fill="#565656" />
<rect x="83" y="6" width="1" height="10" fill="#636363" />
<rect x="96" y="6" width="1" height="1" fill="#565656" />
<rect x="98" y="6" width="1" height="18" fill="#272727" />
<rect x="99" y="6" width="1" height="12" fill="#454545" />
<rect x="100" y="6" width="1" height="12" fill="#272727" />
<rect x="101" y="6" width="1" height="12" fill="#565656" />
<rect x="102" y="6" width="1" height="10" fill="#636363" />
<rect x="115" y="6" width="1" height="1" fill="#565656" />
<rect x="117" y="6" width="1" height="18" fill="#272727" />
<rect x="118" y="6" width="1" height="12" fill="#454545" />
<rect x="119" y="6" width="1" height="12" fill="#272727" />
<rect x="120" y="6" width="1" height="12" fill="#565656" />
<rect x="121" y="6" width="1" height="10" fill="#636363" />
<rect x="134" y="6" width="1" height="1" fill="#565656" />
<rect x="136" y="6" width="1" height="18" fill="#272727" />
<rect x="137" y="6" width="1" height="12" fill="#454545" />
<rect x="138" y="6" width="1" height="12" fill="#272727" />
<rect x="139" y="6" width="1" height="12" fill="#565656" />
<rect x="140" y="6" width="1" height="10" fill="#636363" />
<rect x="153" y="6" width="1" height="1" fill="#565656" />
<rect x="155" y="6" width="1" height="18" fill="#272727" />
<rect x="156" y="6" width="1" height="12" fill="#454545" />
<rect x="157" y="6" width="1" height="12" fill="#272727" />
<rect x="158" y="6" width="1" height="12" fill="#565656" />
<rect x="159" y="6" width="1" height="10" fill="#636363" />
<rect x="1" y="7" width="1" height="1" fill="#636363" />
<rect x="20" y="7" width="1" height="1" fill="#636363" />
<rect x="39" y="7" width="1" height="1" fill="#636363" />
<rect x="58" y="7" width="1" height="1" fill="#636363" />
<rect x="77" y="7" width="1" height="1" fill="#636363" />
<rect x="96" y="7" width="1" height="1" fill="#636363" />
<rect x="115" y="7" width="1" height="1" fill="#636363" />
<rect x="134" y="7" width="1" height="1" fill="#636363" />
<rect x="153" y="7" width="1" height="1" fill="#636363" />
<rect x="8" y="8" width="1" height="14" fill="#636363" />
<rect x="27" y="8" width="1" height="14" fill="#636363" />
<rect x="46" y="8" width="1" height="14" fill="#636363" />
<rect x="65" y="8" width="1" height="14" fill="#636363" />
<rect x="84" y="8" width="1" height="14" fill="#636363" />
<rect x="103" y="8" width="1" height="14" fill="#636363" />
<rect x="122" y="8" width="1" height="14" fill="#636363" />
<rect x="141" y="8" width="1" height="14" fill="#636363" />
<rect x="160" y="8" width="1" height="14" fill="#636363" />
<rect x="1" y="12" width="1" height="5" fill="#272727" />
<rect x="9" y="12" width="2" height="1" fill="#636363" />
<rect x="20" y="12" width="1" height="5" fill="#272727" />
<rect x="28" y="12" width="2" height="1" fill="#636363" />
<rect x="39" y="12" width="1" height="5" fill="#272727" />
<rect x="47" y="12" width="2" height="1" fill="#636363" />
<rect x="58" y="12" width="1" height="5" fill="#272727" />
<rect x="66" y="12" width="2" height="1" fill="#636363" />
<rect x="77" y="12" width="1" height="5" fill="#272727" />
<rect x="85" y="12" width="2" height="1" fill="#636363" />
<rect x="96" y="12" width="1" height="5" fill="#272727" />
<rect x="104" y="12" width="2" height="1" fill="#636363" />
<rect x="115" y="12" width="1" height="5" fill="#272727" />
<rect x="123" y="12" width="2" height="1" fill="#636363" />
<rect x="134" y="12" width="1" height="5" fill="#272727" />
<rect x="142" y="12" width="2" height="1" fill="#636363" />
<rect x="153" y="12" width="1" height="5" fill="#272727" />
<rect x="161" y="12" width="2" height="1" fill="#636363" />
<rect x="9" y="14" width="2" height="1" fill="#565656" />
<rect x="11" y="14" width="1" height="6" fill="#636363" />
<rect x="28" y="14" width="2" height="1" fill="#565656" />
<rect x="30" y="14" width="1" height="6" fill="#636363" />
<rect x="47" y="14" width="2" height="1" fill="#565656" />
<rect x="49" y="14" width="1" height="6" fill="#636363" />
<rect x="66" y="14" width="2" height="1" fill="#565656" />
<rect x="68" y="14" width="1" height="6" fill="#636363" />
<rect x="85" y="14" width="2" height="1" fill="#565656" />
<rect x="87" y="14" width="1" height="6" fill="#636363" />
<rect x="104" y="14" width="2" height="1" fill="#565656" />
<rect x="106" y="14" width="1" height="6" fill="#636363" />
<rect x="123" y="14" width="2" height="1" fill="#565656" />
<rect x="125" y="14" width="1" height="6" fill="#636363" />
<rect x="142" y="14" width="2" height="1" fill="#565656" />
<rect x="144" y="14" width="1" height="6" fill="#636363" />
<rect x="161" y="14" width="2" height="1" fill="#565656" />
<rect x="163" y="14" width="1" height="6" fill="#636363" />
<rect x="7" y="16" width="1" height="7" fill="#565656" />
<rect x="9" y="16" width="2" height="5" fill="#636363" />
<rect x="12" y="16" width="2" height="2" fill="#636363" />
<rect x="14" y="16" width="3" height="1" fill="#454545" />
<rect x="26" y="16" width="1" height="7" fill="#565656" />
<rect x="28" y="16" width="2" height="5" fill="#636363" />
<rect x="31" y="16" width="2" height="2" fill="#636363" />
<rect x="33" y="16" width="3" height="1" fill="#454545" />
<rect x="45" y="16" width="1" height="7" fill="#565656" />
<rect x="47" y="16" width="2" height="5" fill="#636363" />
<rect x="50" y="16" width="2" height="2" fill="#636363" />
<rect x="52" y="16" width="3" height="1" fill="#454545" />
<rect x="64" y="16" width="1" height="7" fill="#565656" />
<rect x="66" y="16" width="2" height="5" fill="#636363" />
<rect x="69" y="16" width="2" height="2" fill="#636363" />
<rect x="71" y="16" width="3" height="1" fill="#454545" />
<rect x="83" y="16" width="1" height="7" fill="#565656" />
<rect x="85" y="16" width="2" height="5" fill="#636363" />
<rect x="88" y="16" width="2" height="2" fill="#636363" />
<rect x="90" y="16" width="3" height="1" fill="#454545" />
<rect x="102" y="16" width="1" height="7" fill="#565656" />
<rect x="104" y="16" width="2" height="5" fill="#636363" />
<rect x="107" y="16" width="2" height="2" fill="#636363" />
<rect x="109" y="16" width="3" height="1" fill="#454545" />
<rect x="121" y="16" width="1" height="7" fill="#565656" />
<rect x="123" y="16" width="2" height="5" fill="#636363" />
<rect x="126" y="16" width="2" height="2" fill="#636363" />
<rect x="128" y="16" width="3" height="1" fill="#454545" />
<rect x="140" y="16" width="1" height="7" fill="#565656" />
<rect x="142" y="16" width="2" height="5" fill="#636363" />
<rect x="145" y="16" width="2" height="2" fill="#636363" />
<rect x="147" y="16" width="3" height="1" fill="#454545" />
<rect x="159" y="16" width="1" height="7" fill="#565656" />
<rect x="161" y="16" width="2" height="5" fill="#636363" />
<rect x="164" y="16" width="2" height="2" fill="#636363" />
<rect x="166" y="16" width="3" height="1" fill="#454545" />
<rect x="14" y="17" width="1" height="1" fill="#636363" />
<rect x="15" y="17" width="2" height="4" fill="#454545" />
<rect x="33" y="17" width="1" height="1" fill="#636363" />
<rect x="34" y="17" width="2" height="4" fill="#454545" />
<rect x="52" y="17" width="1" height="1" fill="#636363" />
<rect x="53" y="17" width="2" height="4" fill="#454545" />
<rect x="71" y="17" width="1" height="1" fill="#636363" />
<rect x="72" y="17" width="2" height="4" fill="#454545" />
<rect x="90" y="17" width="1" height="1" fill="#636363" />
<rect x="91" y="17" width="2" height="4" fill="#454545" />
<rect x="109" y="17" width="1" height="1" fill="#636363" />
<rect x="110" y="17" width="2" height="4" fill="#454545" />
<rect x="128" y="17" width="1" height="1" fill="#636363" />
<rect x="129" y="17" width="2" height="4" fill="#454545" />
<rect x="147" y="17" width="1" height="1" fill="#636363" />
<rect x="148" y="17" width="2" height="4" fill="#454545" />
<rect x="166" y="17" width="1" height="1" fill="#636363" />
<rect x="167" y="17" width="2" height="4" fill="#454545" />
<rect x="4" y="18" width="1" height="5" fill="#272727" />
<rect x="5" y="18" width="1" height="5" fill="#454545" />
<rect x="6" y="18" width="1" height="9" fill="#272727" />
<rect x="12" y="18" width="1" height="2" fill="#636363" />
<rect x="13" y="18" width="2" height="2" fill="#565656" />
<rect x="23" y="18" width="1" height="5" fill="#272727" />
<rect x="24" y="18" width="1" height="5" fill="#454545" />
<rect x="25" y="18" width="1" height="6" fill="#272727" />
<rect x="31" y="18" width="1" height="2" fill="#636363" />
<rect x="32" y="18" width="2" height="2" fill="#565656" />
<rect x="42" y="18" width="1" height="5" fill="#272727" />
<rect x="43" y="18" width="1" height="5" fill="#454545" />
<rect x="44" y="18" width="1" height="6" fill="#272727" />
<rect x="50" y="18" width="1" height="2" fill="#636363" />
<rect x="51" y="18" width="2" height="2" fill="#565656" />
<rect x="61" y="18" width="1" height="5" fill="#272727" />
<rect x="62" y="18" width="1" height="5" fill="#454545" />
<rect x="63" y="18" width="1" height="6" fill="#272727" />
<rect x="69" y="18" width="1" height="2" fill="#636363" />
<rect x="70" y="18" width="2" height="2" fill="#565656" />
<rect x="80" y="18" width="1" height="5" fill="#272727" />
<rect x="81" y="18" width="1" height="5" fill="#454545" />
<rect x="82" y="18" width="1" height="6" fill="#272727" />
<rect x="88" y="18" width="1" height="2" fill="#636363" />
<rect x="89" y="18" width="2" height="2" fill="#565656" />
<rect x="99" y="18" width="1" height="5" fill="#272727" />
<rect x="100" y="18" width="1" height="5" fill="#454545" />
<rect x="101" y="18" width="1" height="6" fill="#272727" />
<rect x="107" y="18" width="1" height="2" fill="#636363" />
<rect x="108" y="18" width="2" height="2" fill="#565656" />
<rect x="118" y="18" width="1" height="5" fill="#272727" />
<rect x="119" y="18" width="1" height="5" fill="#454545" />
<rect x="120" y="18" width="1" height="6" fill="#272727" />
<rect x="126" y="18" width="1" height="2" fill="#636363" />
<rect x="127" y="18" width="2" height="2" fill="#565656" />
<rect x="137" y="18" width="1" height="5" fill="#272727" />
<rect x="138" y="18" width="1" height="5" fill="#454545" />
<rect x="139" y="18" width="1" height="6" fill="#272727" />
<rect x="145" y="18" width="1" height="2" fill="#636363" />
<rect x="146" y="18" width="2" height="2" fill="#565656" />
<rect x="156" y="18" width="1" height="5" fill="#272727" />
<rect x="157" y="18" width="1" height="5" fill="#454545" />
<rect x="158" y="18" width="1" height="6" fill="#272727" />
<rect x="164" y="18" width="1" height="2" fill="#636363" />
<rect x="165" y="18" width="2" height="2" fill="#565656" />
<rect x="11" y="20" width="3" height="2" fill="#565656" />
<rect x="14" y="20" width="1" height="1" fill="#454545" />
<rect x="30" y="20" width="3" height="2" fill="#565656" />
<rect x="33" y="20" width="1" height="1" fill="#454545" />
<rect x="49" y="20" width="3" height="2" fill="#565656" />
<rect x="52" y="20" width="1" height="1" fill="#454545" />
<rect x="68" y="20" width="3" height="2" fill="#565656" />
<rect x="71" y="20" width="1" height="1" fill="#454545" />
<rect x="87" y="20" width="3" height="2" fill="#565656" />
<rect x="90" y="20" width="1" height="1" fill="#454545" />
<rect x="106" y="20" width="3" height="2" fill="#565656" />
<rect x="109" y="20" width="1" height="1" fill="#454545" />
<rect x="125" y="20" width="3" height="2" fill="#565656" />
<rect x="128" y="20" width="1" height="1" fill="#454545" />
<rect x="144" y="20" width="3" height="2" fill="#565656" />
<rect x="147" y="20" width="1" height="1" fill="#454545" />
<rect x="163" y="20" width="3" height="2" fill="#565656" />
<rect x="166" y="20" width="1" height="1" fill="#454545" />
<rect x="1" y="21" width="1" height="2" fill="#565656" />
<rect x="9" y="21" width="2" height="1" fill="#565656" />
<rect x="20" y="21" width="1" height="2" fill="#565656" />
<rect x="28" y="21" width="2" height="1" fill="#565656" />
<rect x="39" y="21" width="1" height="2" fill="#565656" />
<rect x="47" y="21" width="2" height="1" fill="#565656" />
<rect x="58" y="21" width="1" height="2" fill="#565656" />
<rect x="66" y="21" width="2" height="1" fill="#565656" />
<rect x="77" y="21" width="1" height="2" fill="#565656" />
<rect x="85" y="21" width="2" height="1" fill="#565656" />
<rect x="96" y="21" width="1" height="2" fill="#565656" />
<rect x="104" y="21" width="2" height="1" fill="#565656" />
<rect x="115" y="21" width="1" height="2" fill="#565656" />
<rect x="123" y="21" width="2" height="1" fill="#565656" />
<rect x="134" y="21" width="1" height="2" fill="#565656" />
<rect x="142" y="21" width="2" height="1" fill="#565656" />
<rect x="153" y="21" width="1" height="2" fill="#565656" />
<rect x="161" y="21" width="2" height="1" fill="#565656" />
<rect x="0" y="22" width="1" height="2" fill="#636363" />
<rect x="8" y="22" width="1" height="1" fill="#565656" />
<rect x="19" y="22" width="1" height="2" fill="#636363" />
<rect x="27" y="22" width="1" height="1" fill="#565656" />
<rect x="38" y="22" width="1" height="2" fill="#636363" />
<rect x="46" y="22" width="1" height="1" fill="#565656" />
<rect x="57" y="22" width="1" height="2" fill="#636363" />
<rect x="65" y="22" width="1" height="1" fill="#565656" />
<rect x="76" y="22" width="1" height="2" fill="#636363" />
<rect x="84" y="22" width="1" height="1" fill="#565656" />
<rect x="95" y="22" width="1" height="2" fill="#636363" />
<rect x="103" y="22" width="1" height="1" fill="#565656" />
<rect x="114" y="22" width="1" height="2" fill="#636363" />
<rect x="122" y="22" width="1" height="1" fill="#565656" />
<rect x="133" y="22" width="1" height="2" fill="#636363" />
<rect x="141" y="22" width="1" height="1" fill="#565656" />
<rect x="152" y="22" width="1" height="2" fill="#636363" />
<rect x="160" y="22" width="1" height="1" fill="#565656" />
<rect x="4" y="23" width="1" height="1" fill="#454545" />
<rect x="5" y="23" width="1" height="16" fill="#272727" />
<rect x="23" y="23" width="1" height="1" fill="#454545" />
<rect x="24" y="23" width="1" height="1" fill="#272727" />
<rect x="42" y="23" width="1" height="1" fill="#454545" />
<rect x="43" y="23" width="1" height="1" fill="#272727" />
<rect x="61" y="23" width="1" height="1" fill="#454545" />
<rect x="62" y="23" width="1" height="1" fill="#272727" />
<rect x="80" y="23" width="1" height="1" fill="#454545" />
<rect x="81" y="23" width="1" height="1" fill="#272727" />
<rect x="99" y="23" width="1" height="1" fill="#454545" />
<rect x="100" y="23" width="1" height="1" fill="#272727" />
<rect x="118" y="23" width="1" height="1" fill="#454545" />
<rect x="119" y="23" width="1" height="1" fill="#272727" />
<rect x="137" y="23" width="1" height="1" fill="#454545" />
<rect x="138" y="23" width="1" height="1" fill="#272727" />
<rect x="156" y="23" width="1" height="1" fill="#454545" />
<rect x="157" y="23" width="1" height="1" fill="#272727" />
<rect x="7" y="24" width="1" height="11" fill="#272727" />
<rect x="4" y="25" width="1" height="10" fill="#272727" />
<rect x="62" y="25" width="3" height="2" fill="#272727" />
<rect x="81" y="25" width="3" height="2" fill="#272727" />
<rect x="100" y="25" width="3" height="2" fill="#272727" />
<rect x="119" y="25" width="3" height="2" fill="#272727" />
<rect x="138" y="25" width="3" height="2" fill="#272727" />
<rect x="41" y="26" width="3" height="2" fill="#272727" />
<rect x="61" y="26" width="1" height="18" fill="#272727" />
<rect x="80" y="26" width="1" height="18" fill="#272727" />
<rect x="99" y="26" width="1" height="18" fill="#272727" />
<rect x="118" y="26" width="1" height="18" fill="#272727" />
<rect x="137" y="26" width="1" height="18" fill="#272727" />
<rect x="3" y="27" width="1" height="1" fill="#565656" />
<rect x="6" y="27" width="1" height="8" fill="#454545" />
<rect x="8" y="27" width="1" height="8" fill="#565656" />
<rect x="40" y="27" width="1" height="3" fill="#272727" />
<rect x="60" y="27" width="1" height="1" fill="#565656" />
<rect x="62" y="27" width="1" height="18" fill="#272727" />
<rect x="63" y="27" width="1" height="12" fill="#454545" />
<rect x="64" y="27" width="1" height="12" fill="#272727" />
<rect x="65" y="27" width="1" height="12" fill="#565656" />
<rect x="66" y="27" width="1" height="10" fill="#636363" />
<rect x="79" y="27" width="1" height="1" fill="#565656" />
<rect x="81" y="27" width="1" height="18" fill="#272727" />
<rect x="82" y="27" width="1" height="12" fill="#454545" />
<rect x="83" y="27" width="1" height="12" fill="#272727" />
<rect x="84" y="27" width="1" height="12" fill="#565656" />
<rect x="85" y="27" width="1" height="10" fill="#636363" />
<rect x="98" y="27" width="1" height="1" fill="#565656" />
<rect x="100" y="27" width="1" height="18" fill="#272727" />
<rect x="101" y="27" width="1" height="12" fill="#454545" />
<rect x="102" y="27" width="1" height="12" fill="#272727" />
<rect x="103" y="27" width="1" height="12" fill="#565656" />
<rect x="104" y="27" width="1" height="10" fill="#636363" />
<rect x="117" y="27" width="1" height="1" fill="#565656" />
<rect x="119" y="27" width="1" height="18" fill="#272727" />
<rect x="120" y="27" width="1" height="12" fill="#454545" />
<rect x="121" y="27" width="1" height="12" fill="#272727" />
<rect x="122" y="27" width="1" height="12" fill="#565656" />
<rect x="123" y="27" width="1" height="10" fill="#636363" />
<rect x="136" y="27" width="1" height="1" fill="#565656" />
<rect x="138" y="27" width="1" height="18" fill="#272727" />
<rect x="139" y="27" width="1" height="12" fill="#454545" />
<rect x="140" y="27" width="1" height="12" fill="#272727" />
<rect x="141" y="27" width="1" height="12" fill="#565656" />
<rect x="142" y="27" width="1" height="10" fill="#636363" />
<rect x="3" y="28" width="1" height="1" fill="#636363" />
<rect x="9" y="28" width="1" height="9" fill="#636363" />
<rect x="21" y="28" width="1" height="1" fill="#565656" />
<rect x="22" y="28" width="2" height="11" fill="#272727" />
<rect x="24" y="28" width="1" height="8" fill="#454545" />
<rect x="25" y="28" width="1" height="8" fill="#272727" />
<rect x="26" y="28" width="1" height="8" fill="#565656" />
<rect x="27" y="28" width="1" height="8" fill="#636363" />
<rect x="41" y="28" width="1" height="15" fill="#272727" />
<rect x="42" y="28" width="1" height="2" fill="#454545" />
<rect x="43" y="28" width="1" height="2" fill="#272727" />
<rect x="44" y="28" width="1" height="1" fill="#565656" />
<rect x="45" y="28" width="1" height="1" fill="#636363" />
<rect x="60" y="28" width="1" height="1" fill="#636363" />
<rect x="79" y="28" width="1" height="1" fill="#636363" />
<rect x="98" y="28" width="1" height="1" fill="#636363" />
<rect x="117" y="28" width="1" height="1" fill="#636363" />
<rect x="136" y="28" width="1" height="1" fill="#636363" />
<rect x="21" y="29" width="1" height="1" fill="#636363" />
<rect x="44" y="29" width="1" height="11" fill="#272727" />
<rect x="45" y="29" width="1" height="10" fill="#565656" />
<rect x="46" y="29" width="1" height="8" fill="#636363" />
<rect x="67" y="29" width="1" height="14" fill="#636363" />
<rect x="86" y="29" width="1" height="14" fill="#636363" />
<rect x="105" y="29" width="1" height="14" fill="#636363" />
<rect x="124" y="29" width="1" height="14" fill="#636363" />
<rect x="143" y="29" width="1" height="14" fill="#636363" />
<rect x="28" y="30" width="1" height="8" fill="#636363" />
<rect x="40" y="30" width="1" height="2" fill="#636363" />
<rect x="42" y="30" width="1" height="15" fill="#272727" />
<rect x="43" y="30" width="1" height="10" fill="#454545" />
<rect x="47" y="30" width="1" height="13" fill="#636363" />
<rect x="10" y="31" width="1" height="5" fill="#636363" />
<rect x="3" y="33" width="1" height="11" fill="#272727" />
<rect x="29" y="33" width="2" height="1" fill="#636363" />
<rect x="60" y="33" width="1" height="5" fill="#272727" />
<rect x="68" y="33" width="2" height="1" fill="#636363" />
<rect x="79" y="33" width="1" height="5" fill="#272727" />
<rect x="87" y="33" width="2" height="1" fill="#636363" />
<rect x="98" y="33" width="1" height="5" fill="#272727" />
<rect x="106" y="33" width="2" height="1" fill="#636363" />
<rect x="117" y="33" width="1" height="5" fill="#272727" />
<rect x="125" y="33" width="2" height="1" fill="#636363" />
<rect x="136" y="33" width="1" height="5" fill="#272727" />
<rect x="144" y="33" width="2" height="1" fill="#636363" />
<rect x="21" y="34" width="1" height="2" fill="#272727" />
<rect x="40" y="34" width="1" height="5" fill="#272727" />
<rect x="48" y="34" width="1" height="1" fill="#565656" />
<rect x="1" y="35" width="2" height="3" fill="#272727" />
<rect x="4" y="35" width="1" height="4" fill="#454545" />
<rect x="6" y="35" width="1" height="4" fill="#565656" />
<rect x="7" y="35" width="2" height="2" fill="#636363" />
<rect x="11" y="35" width="2" height="1" fill="#636363" />
<rect x="29" y="35" width="1" height="8" fill="#636363" />
<rect x="30" y="35" width="2" height="1" fill="#565656" />
<rect x="32" y="35" width="1" height="6" fill="#636363" />
<rect x="49" y="35" width="1" height="1" fill="#565656" />
<rect x="68" y="35" width="2" height="1" fill="#565656" />
<rect x="70" y="35" width="1" height="6" fill="#636363" />
<rect x="87" y="35" width="2" height="1" fill="#565656" />
<rect x="89" y="35" width="1" height="6" fill="#636363" />
<rect x="106" y="35" width="2" height="1" fill="#565656" />
<rect x="108" y="35" width="1" height="6" fill="#636363" />
<rect x="125" y="35" width="2" height="1" fill="#565656" />
<rect x="127" y="35" width="1" height="6" fill="#636363" />
<rect x="144" y="35" width="2" height="1" fill="#565656" />
<rect x="146" y="35" width="1" height="6" fill="#636363" />
<rect x="24" y="36" width="1" height="12" fill="#272727" />
<rect x="25" y="36" width="1" height="4" fill="#454545" />
<rect x="26" y="36" width="1" height="4" fill="#272727" />
<rect x="27" y="36" width="1" height="4" fill="#565656" />
<rect x="49" y="36" width="1" height="1" fill="#636363" />
<rect x="50" y="36" width="1" height="1" fill="#565656" />
<rect x="7" y="37" width="1" height="7" fill="#565656" />
<rect x="8" y="37" width="1" height="6" fill="#636363" />
<rect x="9" y="37" width="2" height="1" fill="#565656" />
<rect x="11" y="37" width="1" height="6" fill="#636363" />
<rect x="30" y="37" width="2" height="5" fill="#636363" />
<rect x="33" y="37" width="2" height="2" fill="#636363" />
<rect x="35" y="37" width="3" height="1" fill="#454545" />
<rect x="46" y="37" width="1" height="5" fill="#565656" />
<rect x="48" y="37" width="1" height="7" fill="#636363" />
<rect x="50" y="37" width="1" height="5" fill="#636363" />
<rect x="66" y="37" width="1" height="7" fill="#565656" />
<rect x="68" y="37" width="2" height="5" fill="#636363" />
<rect x="71" y="37" width="2" height="2" fill="#636363" />
<rect x="73" y="37" width="3" height="1" fill="#454545" />
<rect x="85" y="37" width="1" height="7" fill="#565656" />
<rect x="87" y="37" width="2" height="5" fill="#636363" />
<rect x="90" y="37" width="2" height="2" fill="#636363" />
<rect x="92" y="37" width="3" height="1" fill="#454545" />
<rect x="104" y="37" width="1" height="7" fill="#565656" />
<rect x="106" y="37" width="2" height="5" fill="#636363" />
<rect x="109" y="37" width="2" height="2" fill="#636363" />
<rect x="111" y="37" width="3" height="1" fill="#454545" />
<rect x="123" y="37" width="1" height="7" fill="#565656" />
<rect x="125" y="37" width="2" height="5" fill="#636363" />
<rect x="128" y="37" width="2" height="2" fill="#636363" />
<rect x="130" y="37" width="3" height="1" fill="#454545" />
<rect x="142" y="37" width="1" height="7" fill="#565656" />
<rect x="144" y="37" width="2" height="5" fill="#636363" />
<rect x="147" y="37" width="2" height="2" fill="#636363" />
<rect x="149" y="37" width="3" height="1" fill="#454545" />
<rect x="2" y="38" width="1" height="5" fill="#272727" />
<rect x="28" y="38" width="1" height="7" fill="#565656" />
<rect x="35" y="38" width="1" height="1" fill="#636363" />
<rect x="36" y="38" width="2" height="4" fill="#454545" />
<rect x="49" y="38" width="1" height="5" fill="#636363" />
<rect x="51" y="38" width="2" height="2" fill="#636363" />
<rect x="53" y="38" width="3" height="1" fill="#454545" />
<rect x="73" y="38" width="1" height="1" fill="#636363" />
<rect x="74" y="38" width="2" height="4" fill="#454545" />
<rect x="92" y="38" width="1" height="1" fill="#636363" />
<rect x="93" y="38" width="2" height="4" fill="#454545" />
<rect x="111" y="38" width="1" height="1" fill="#636363" />
<rect x="112" y="38" width="2" height="4" fill="#454545" />
<rect x="130" y="38" width="1" height="1" fill="#636363" />
<rect x="131" y="38" width="2" height="4" fill="#454545" />
<rect x="149" y="38" width="1" height="1" fill="#636363" />
<rect x="150" y="38" width="2" height="4" fill="#454545" />
<rect x="4" y="39" width="1" height="5" fill="#272727" />
<rect x="5" y="39" width="1" height="5" fill="#454545" />
<rect x="6" y="39" width="1" height="5" fill="#272727" />
<rect x="9" y="39" width="2" height="5" fill="#636363" />
<rect x="12" y="39" width="2" height="2" fill="#636363" />
<rect x="14" y="39" width="3" height="1" fill="#454545" />
<rect x="23" y="39" width="1" height="8" fill="#272727" />
<rect x="33" y="39" width="1" height="2" fill="#636363" />
<rect x="34" y="39" width="2" height="2" fill="#565656" />
<rect x="45" y="39" width="1" height="3" fill="#272727" />
<rect x="53" y="39" width="1" height="1" fill="#636363" />
<rect x="54" y="39" width="2" height="2" fill="#454545" />
<rect x="63" y="39" width="1" height="5" fill="#272727" />
<rect x="64" y="39" width="1" height="5" fill="#454545" />
<rect x="65" y="39" width="1" height="6" fill="#272727" />
<rect x="71" y="39" width="1" height="2" fill="#636363" />
<rect x="72" y="39" width="2" height="2" fill="#565656" />
<rect x="82" y="39" width="1" height="5" fill="#272727" />
<rect x="83" y="39" width="1" height="5" fill="#454545" />
<rect x="84" y="39" width="1" height="6" fill="#272727" />
<rect x="90" y="39" width="1" height="2" fill="#636363" />
<rect x="91" y="39" width="2" height="2" fill="#565656" />
<rect x="101" y="39" width="1" height="5" fill="#272727" />
<rect x="102" y="39" width="1" height="5" fill="#454545" />
<rect x="103" y="39" width="1" height="6" fill="#272727" />
<rect x="109" y="39" width="1" height="2" fill="#636363" />
<rect x="110" y="39" width="2" height="2" fill="#565656" />
<rect x="120" y="39" width="1" height="5" fill="#272727" />
<rect x="121" y="39" width="1" height="5" fill="#454545" />
<rect x="122" y="39" width="1" height="6" fill="#272727" />
<rect x="128" y="39" width="1" height="2" fill="#636363" />
<rect x="129" y="39" width="2" height="2" fill="#565656" />
<rect x="139" y="39" width="1" height="5" fill="#272727" />
<rect x="140" y="39" width="1" height="5" fill="#454545" />
<rect x="141" y="39" width="1" height="6" fill="#272727" />
<rect x="147" y="39" width="1" height="2" fill="#636363" />
<rect x="148" y="39" width="2" height="2" fill="#565656" />
<rect x="14" y="40" width="1" height="1" fill="#636363" />
<rect x="15" y="40" width="2" height="4" fill="#454545" />
<rect x="25" y="40" width="1" height="5" fill="#272727" />
<rect x="26" y="40" width="1" height="5" fill="#454545" />
<rect x="27" y="40" width="1" height="8" fill="#272727" />
<rect x="43" y="40" width="1" height="6" fill="#272727" />
<rect x="44" y="40" width="1" height="2" fill="#454545" />
<rect x="51" y="40" width="1" height="2" fill="#636363" />
<rect x="52" y="40" width="2" height="3" fill="#565656" />
<rect x="12" y="41" width="1" height="2" fill="#636363" />
<rect x="13" y="41" width="2" height="2" fill="#565656" />
<rect x="32" y="41" width="3" height="2" fill="#565656" />
<rect x="35" y="41" width="1" height="1" fill="#454545" />
<rect x="54" y="41" width="1" height="1" fill="#454545" />
<rect x="70" y="41" width="3" height="2" fill="#565656" />
<rect x="73" y="41" width="1" height="1" fill="#454545" />
<rect x="89" y="41" width="3" height="2" fill="#565656" />
<rect x="92" y="41" width="1" height="1" fill="#454545" />
<rect x="108" y="41" width="3" height="2" fill="#565656" />
<rect x="111" y="41" width="1" height="1" fill="#454545" />
<rect x="127" y="41" width="3" height="2" fill="#565656" />
<rect x="130" y="41" width="1" height="1" fill="#454545" />
<rect x="146" y="41" width="3" height="2" fill="#565656" />
<rect x="149" y="41" width="1" height="1" fill="#454545" />
<rect x="1" y="42" width="1" height="2" fill="#565656" />
<rect x="30" y="42" width="2" height="1" fill="#565656" />
<rect x="44" y="42" width="1" height="3" fill="#272727" />
<rect x="45" y="42" width="1" height="2" fill="#454545" />
<rect x="46" y="42" width="1" height="3" fill="#272727" />
<rect x="50" y="42" width="2" height="1" fill="#565656" />
<rect x="60" y="42" width="1" height="2" fill="#565656" />
<rect x="68" y="42" width="2" height="1" fill="#565656" />
<rect x="79" y="42" width="1" height="2" fill="#565656" />
<rect x="87" y="42" width="2" height="1" fill="#565656" />
<rect x="98" y="42" width="1" height="2" fill="#565656" />
<rect x="106" y="42" width="2" height="1" fill="#565656" />
<rect x="117" y="42" width="1" height="2" fill="#565656" />
<rect x="125" y="42" width="2" height="1" fill="#565656" />
<rect x="136" y="42" width="1" height="2" fill="#565656" />
<rect x="144" y="42" width="2" height="1" fill="#565656" />
<rect x="0" y="43" width="1" height="2" fill="#636363" />
<rect x="8" y="43" width="1" height="1" fill="#565656" />
<rect x="11" y="43" width="3" height="2" fill="#565656" />
<rect x="14" y="43" width="1" height="1" fill="#454545" />
<rect x="22" y="43" width="1" height="2" fill="#565656" />
<rect x="29" y="43" width="1" height="1" fill="#565656" />
<rect x="41" y="43" width="1" height="2" fill="#565656" />
<rect x="47" y="43" width="1" height="1" fill="#565656" />
<rect x="49" y="43" width="2" height="1" fill="#565656" />
<rect x="59" y="43" width="1" height="2" fill="#636363" />
<rect x="67" y="43" width="1" height="1" fill="#565656" />
<rect x="78" y="43" width="1" height="2" fill="#636363" />
<rect x="86" y="43" width="1" height="1" fill="#565656" />
<rect x="97" y="43" width="1" height="2" fill="#636363" />
<rect x="105" y="43" width="1" height="1" fill="#565656" />
<rect x="116" y="43" width="1" height="2" fill="#636363" />
<rect x="124" y="43" width="1" height="1" fill="#565656" />
<rect x="135" y="43" width="1" height="2" fill="#636363" />
<rect x="143" y="43" width="1" height="1" fill="#565656" />
<rect x="9" y="44" width="2" height="1" fill="#565656" />
<rect x="21" y="44" width="1" height="2" fill="#636363" />
<rect x="40" y="44" width="1" height="2" fill="#636363" />
<rect x="45" y="44" width="1" height="1" fill="#272727" />
<rect x="63" y="44" width="1" height="1" fill="#454545" />
<rect x="64" y="44" width="1" height="1" fill="#272727" />
<rect x="82" y="44" width="1" height="1" fill="#454545" />
<rect x="83" y="44" width="1" height="1" fill="#272727" />
<rect x="101" y="44" width="1" height="1" fill="#454545" />
<rect x="102" y="44" width="1" height="1" fill="#272727" />
<rect x="120" y="44" width="1" height="1" fill="#454545" />
<rect x="121" y="44" width="1" height="1" fill="#272727" />
<rect x="139" y="44" width="1" height="1" fill="#454545" />
<rect x="140" y="44" width="1" height="1" fill="#272727" />
<rect x="25" y="45" width="1" height="3" fill="#454545" />
<rect x="26" y="45" width="1" height="3" fill="#272727" />
</svg>