<?xml version="1.0" encoding="UTF-8" ?>
<svg version="1.1" width="360" height="80" xmlns="http://www.w3.org/2000/svg" shape-rendering="crispEdges">
<rect x="45" y="0" width="1" height="1" fill="#4A95E5" />
<rect x="46" y="0" width="2" height="10" fill="#64CCFB" />
<rect x="125" y="0" width="1" height="1" fill="#4A95E5" />
<rect x="126" y="0" width="2" height="10" fill="#64CCFB" />
<rect x="205" y="0" width="1" height="1" fill="#4A95E5" />
<rect x="206" y="0" width="2" height="10" fill="#64CCFB" />
<rect x="285" y="0" width="1" height="1" fill="#4A95E5" />
<rect x="286" y="0" width="2" height="10" fill="#64CCFB" />
<rect x="44" y="1" width="1" height="1" fill="#4A95E5" />
<rect x="45" y="1" width="1" height="8" fill="#64CCFB" />
<rect x="48" y="1" width="1" height="10" fill="#64CCFB" />
<rect x="124" y="1" width="1" height="1" fill="#4A95E5" />
<rect x="125" y="1" width="1" height="8" fill="#64CCFB" />
<rect x="128" y="1" width="1" height="10" fill="#64CCFB" />
<rect x="204" y="1" width="1" height="1" fill="#4A95E5" />
<rect x="205" y="1" width="1" height="8" fill="#64CCFB" />
<rect x="208" y="1" width="1" height="10" fill="#64CCFB" />
<rect x="284" y="1" width="1" height="1" fill="#4A95E5" />
<rect x="285" y="1" width="1" height="8" fill="#64CCFB" />
<rect x="288" y="1" width="1" height="10" fill="#64CCFB" />
<rect x="43" y="2" width="1" height="9" fill="#4A95E5" />
<rect x="44" y="2" width="1" height="6" fill="#64CCFB" />
<rect x="49" y="2" width="1" height="11" fill="#64CCFB" />
<rect x="123" y="2" width="1" height="9" fill="#4A95E5" />
<rect x="124" y="2" width="1" height="6" fill="#64CCFB" />
<rect x="129" y="2" width="1" height="11" fill="#64CCFB" />
<rect x="203" y="2" width="1" height="9" fill="#4A95E5" />
<rect x="204" y="2" width="1" height="6" fill="#64CCFB" />
<rect x="209" y="2" width="1" height="11" fill="#64CCFB" />
<rect x="283" y="2" width="1" height="9" fill="#4A95E5" />
<rect x="284" y="2" width="1" height="6" fill="#64CCFB" />
<rect x="289" y="2" width="1" height="11" fill="#64CCFB" />
<rect x="1" y="3" width="5" height="4" fill="#64CCFB" />
<rect x="42" y="3" width="1" height="6" fill="#4A95E5" />
<rect x="50" y="3" width="1" height="10" fill="#64CCFB" />
<rect x="81" y="3" width="5" height="4" fill="#64CCFB" />
<rect x="122" y="3" width="1" height="6" fill="#4A95E5" />
<rect x="130" y="3" width="1" height="10" fill="#64CCFB" />
<rect x="161" y="3" width="5" height="4" fill="#64CCFB" />
<rect x="202" y="3" width="1" height="6" fill="#4A95E5" />
<rect x="210" y="3" width="1" height="10" fill="#64CCFB" />
<rect x="241" y="3" width="5" height="4" fill="#64CCFB" />
<rect x="282" y="3" width="1" height="6" fill="#4A95E5" />
<rect x="290" y="3" width="1" height="10" fill="#64CCFB" />
<rect x="321" y="3" width="5" height="4" fill="#64CCFB" />
<rect x="0" y="4" width="1" height="2" fill="#64CCFB" />
<rect x="6" y="4" width="2" height="7" fill="#64CCFB" />
<rect x="80" y="4" width="1" height="2" fill="#64CCFB" />
<rect x="86" y="4" width="2" height="7" fill="#64CCFB" />
<rect x="160" y="4" width="1" height="2" fill="#64CCFB" />
<rect x="166" y="4" width="2" height="7" fill="#64CCFB" />
<rect x="240" y="4" width="1" height="2" fill="#64CCFB" />
<rect x="246" y="4" width="2" height="7" fill="#64CCFB" />
<rect x="320" y="4" width="1" height="2" fill="#64CCFB" />
<rect x="326" y="4" width="2" height="7" fill="#64CCFB" />
<rect x="8" y="5" width="1" height="6" fill="#64CCFB" />
<rect x="88" y="5" width="1" height="6" fill="#64CCFB" />
<rect x="168" y="5" width="1" height="6" fill="#64CCFB" />
<rect x="248" y="5" width="1" height="6" fill="#64CCFB" />
<rect x="328" y="5" width="1" height="6" fill="#64CCFB" />
<rect x="0" y="6" width="1" height="3" fill="#4A95E5" />
<rect x="9" y="6" width="1" height="7" fill="#64CCFB" />
<rect x="51" y="6" width="1" height="5" fill="#64CCFB" />
<rect x="80" y="6" width="1" height="3" fill="#4A95E5" />
<rect x="89" y="6" width="1" height="7" fill="#64CCFB" />
<rect x="131" y="6" width="1" height="5" fill="#64CCFB" />
<rect x="160" y="6" width="1" height="3" fill="#4A95E5" />
<rect x="169" y="6" width="1" height="7" fill="#64CCFB" />
<rect x="211" y="6" width="1" height="5" fill="#64CCFB" />
<rect x="240" y="6" width="1" height="3" fill="#4A95E5" />
<rect x="249" y="6" width="1" height="7" fill="#64CCFB" />
<rect x="291" y="6" width="1" height="5" fill="#64CCFB" />
<rect x="320" y="6" width="1" height="3" fill="#4A95E5" />
<rect x="329" y="6" width="1" height="7" fill="#64CCFB" />
<rect x="1" y="7" width="1" height="4" fill="#4A95E5" />
<rect x="2" y="7" width="4" height="1" fill="#64CCFB" />
<rect x="10" y="7" width="1" height="6" fill="#64CCFB" />
<rect x="81" y="7" width="1" height="4" fill="#4A95E5" />
<rect x="82" y="7" width="4" height="1" fill="#64CCFB" />
<rect x="90" y="7" width="1" height="6" fill="#64CCFB" />
<rect x="161" y="7" width="1" height="4" fill="#4A95E5" />
<rect x="162" y="7" width="4" height="1" fill="#64CCFB" />
<rect x="170" y="7" width="1" height="6" fill="#64CCFB" />
<rect x="241" y="7" width="1" height="4" fill="#4A95E5" />
<rect x="242" y="7" width="4" height="1" fill="#64CCFB" />
<rect x="250" y="7" width="1" height="6" fill="#64CCFB" />
<rect x="321" y="7" width="1" height="4" fill="#4A95E5" />
<rect x="322" y="7" width="4" height="1" fill="#64CCFB" />
<rect x="330" y="7" width="1" height="6" fill="#64CCFB" />
<rect x="2" y="8" width="1" height="3" fill="#4A95E5" />
<rect x="3" y="8" width="3" height="1" fill="#64CCFB" />
<rect x="44" y="8" width="1" height="4" fill="#4A95E5" />
<rect x="82" y="8" width="1" height="3" fill="#4A95E5" />
<rect x="83" y="8" width="3" height="1" fill="#64CCFB" />
<rect x="124" y="8" width="1" height="4" fill="#4A95E5" />
<rect x="162" y="8" width="1" height="3" fill="#4A95E5" />
<rect x="163" y="8" width="3" height="1" fill="#64CCFB" />
<rect x="204" y="8" width="1" height="4" fill="#4A95E5" />
<rect x="242" y="8" width="1" height="3" fill="#4A95E5" />
<rect x="243" y="8" width="3" height="1" fill="#64CCFB" />
<rect x="284" y="8" width="1" height="4" fill="#4A95E5" />
<rect x="322" y="8" width="1" height="3" fill="#4A95E5" />
<rect x="323" y="8" width="3" height="1" fill="#64CCFB" />
<rect x="3" y="9" width="1" height="4" fill="#4A95E5" />
<rect x="4" y="9" width="2" height="1" fill="#64CCFB" />
<rect x="11" y="9" width="1" height="4" fill="#64CCFB" />
<rect x="45" y="9" width="1" height="4" fill="#4A95E5" />
<rect x="83" y="9" width="1" height="4" fill="#4A95E5" />
<rect x="84" y="9" width="2" height="1" fill="#64CCFB" />
<rect x="91" y="9" width="1" height="4" fill="#64CCFB" />
<rect x="125" y="9" width="1" height="4" fill="#4A95E5" />
<rect x="163" y="9" width="1" height="4" fill="#4A95E5" />
<rect x="164" y="9" width="2" height="1" fill="#64CCFB" />
<rect x="171" y="9" width="1" height="4" fill="#64CCFB" />
<rect x="205" y="9" width="1" height="4" fill="#4A95E5" />
<rect x="243" y="9" width="1" height="4" fill="#4A95E5" />
<rect x="244" y="9" width="2" height="1" fill="#64CCFB" />
<rect x="251" y="9" width="1" height="4" fill="#64CCFB" />
<rect x="285" y="9" width="1" height="4" fill="#4A95E5" />
<rect x="323" y="9" width="1" height="4" fill="#4A95E5" />
<rect x="324" y="9" width="2" height="1" fill="#64CCFB" />
<rect x="331" y="9" width="1" height="4" fill="#64CCFB" />
<rect x="4" y="10" width="1" height="3" fill="#4A95E5" />
<rect x="5" y="10" width="1" height="1" fill="#64CCFB" />
<rect x="46" y="10" width="2" height="1" fill="#4A95E5" />
<rect x="84" y="10" width="1" height="3" fill="#4A95E5" />
<rect x="85" y="10" width="1" height="1" fill="#64CCFB" />
<rect x="126" y="10" width="2" height="1" fill="#4A95E5" />
<rect x="164" y="10" width="1" height="3" fill="#4A95E5" />
<rect x="165" y="10" width="1" height="1" fill="#64CCFB" />
<rect x="206" y="10" width="2" height="1" fill="#4A95E5" />
<rect x="244" y="10" width="1" height="3" fill="#4A95E5" />
<rect x="245" y="10" width="1" height="1" fill="#64CCFB" />
<rect x="286" y="10" width="2" height="1" fill="#4A95E5" />
<rect x="324" y="10" width="1" height="3" fill="#4A95E5" />
<rect x="325" y="10" width="1" height="1" fill="#64CCFB" />
<rect x="5" y="11" width="4" height="1" fill="#4A95E5" />
<rect x="46" y="11" width="1" height="2" fill="#4A95E5" />
<rect x="47" y="11" width="1" height="1" fill="#64CCFB" />
<rect x="48" y="11" width="1" height="1" fill="#4A95E5" />
<rect x="85" y="11" width="4" height="1" fill="#4A95E5" />
<rect x="126" y="11" width="1" height="2" fill="#4A95E5" />
<rect x="127" y="11" width="1" height="1" fill="#64CCFB" />
<rect x="128" y="11" width="1" height="1" fill="#4A95E5" />
<rect x="165" y="11" width="4" height="1" fill="#4A95E5" />
<rect x="206" y="11" width="1" height="2" fill="#4A95E5" />
<rect x="207" y="11" width="1" height="1" fill="#64CCFB" />
<rect x="208" y="11" width="1" height="1" fill="#4A95E5" />
<rect x="245" y="11" width="4" height="1" fill="#4A95E5" />
<rect x="286" y="11" width="1" height="2" fill="#4A95E5" />
<rect x="287" y="11" width="1" height="1" fill="#64CCFB" />
<rect x="288" y="11" width="1" height="1" fill="#4A95E5" />
<rect x="325" y="11" width="4" height="1" fill="#4A95E5" />
<rect x="5" y="12" width="2" height="2" fill="#4A95E5" />
<rect x="7" y="12" width="2" height="1" fill="#64CCFB" />
<rect x="47" y="12" width="1" height="1" fill="#4A95E5" />
<rect x="48" y="12" width="1" height="1" fill="#64CCFB" />
<rect x="85" y="12" width="2" height="2" fill="#4A95E5" />
<rect x="87" y="12" width="2" height="1" fill="#64CCFB" />
<rect x="127" y="12" width="1" height="1" fill="#4A95E5" />
<rect x="128" y="12" width="1" height="1" fill="#64CCFB" />
<rect x="165" y="12" width="2" height="2" fill="#4A95E5" />
<rect x="167" y="12" width="2" height="1" fill="#64CCFB" />
<rect x="207" y="12" width="1" height="1" fill="#4A95E5" />
<rect x="208" y="12" width="1" height="1" fill="#64CCFB" />
<rect x="245" y="12" width="2" height="2" fill="#4A95E5" />
<rect x="247" y="12" width="2" height="1" fill="#64CCFB" />
<rect x="287" y="12" width="1" height="1" fill="#4A95E5" />
<rect x="288" y="12" width="1" height="1" fill="#64CCFB" />
<rect x="325" y="12" width="2" height="2" fill="#4A95E5" />
<rect x="327" y="12" width="2" height="1" fill="#64CCFB" />
<rect x="3" y="13" width="2" height="2" fill="#1A4CA9" />
<rect x="7" y="13" width="4" height="1" fill="#4A95E5" />
<rect x="45" y="13" width="3" height="3" fill="#1A4CA9" />
<rect x="48" y="13" width="2" height="1" fill="#4A95E5" />
<rect x="83" y="13" width="2" height="2" fill="#1A4CA9" />
<rect x="87" y="13" width="4" height="1" fill="#4A95E5" />
<rect x="125" y="13" width="3" height="3" fill="#1A4CA9" />
<rect x="128" y="13" width="2" height="1" fill="#4A95E5" />
<rect x="163" y="13" width="2" height="2" fill="#1A4CA9" />
<rect x="167" y="13" width="4" height="1" fill="#4A95E5" />
<rect x="205" y="13" width="3" height="3" fill="#1A4CA9" />
<rect x="208" y="13" width="2" height="1" fill="#4A95E5" />
<rect x="243" y="13" width="2" height="2" fill="#1A4CA9" />
<rect x="247" y="13" width="4" height="1" fill="#4A95E5" />
<rect x="285" y="13" width="3" height="3" fill="#1A4CA9" />
<rect x="288" y="13" width="2" height="1" fill="#4A95E5" />
<rect x="323" y="13" width="2" height="2" fill="#1A4CA9" />
<rect x="327" y="13" width="4" height="1" fill="#4A95E5" />
<rect x="5" y="14" width="4" height="1" fill="#1A4CA9" />
<rect x="44" y="14" width="1" height="3" fill="#1A4CA9" />
<rect x="48" y="14" width="2" height="1" fill="#1A4CA9" />
<rect x="85" y="14" width="4" height="1" fill="#1A4CA9" />
<rect x="124" y="14" width="1" height="3" fill="#1A4CA9" />
<rect x="128" y="14" width="2" height="1" fill="#1A4CA9" />
<rect x="165" y="14" width="4" height="1" fill="#1A4CA9" />
<rect x="204" y="14" width="1" height="3" fill="#1A4CA9" />
<rect x="208" y="14" width="2" height="1" fill="#1A4CA9" />
<rect x="245" y="14" width="4" height="1" fill="#1A4CA9" />
<rect x="284" y="14" width="1" height="3" fill="#1A4CA9" />
<rect x="288" y="14" width="2" height="1" fill="#1A4CA9" />
<rect x="325" y="14" width="4" height="1" fill="#1A4CA9" />
<rect x="4" y="15" width="4" height="1" fill="#1A4CA9" />
<rect x="84" y="15" width="4" height="1" fill="#1A4CA9" />
<rect x="164" y="15" width="4" height="1" fill="#1A4CA9" />
<rect x="244" y="15" width="4" height="1" fill="#1A4CA9" />
<rect x="324" y="15" width="4" height="1" fill="#1A4CA9" />
<rect x="45" y="16" width="2" height="1" fill="#1A4CA9" />
<rect x="125" y="16" width="2" height="1" fill="#1A4CA9" />
<rect x="205" y="16" width="2" height="1" fill="#1A4CA9" />
<rect x="285" y="16" width="2" height="1" fill="#1A4CA9" />
<rect x="45" y="40" width="1" height="1" fill="#4A95E5" />
<rect x="46" y="40" width="2" height="10" fill="#64CCFB" />
<rect x="125" y="40" width="1" height="1" fill="#4A95E5" />
<rect x="126" y="40" width="2" height="10" fill="#64CCFB" />
<rect x="205" y="40" width="1" height="1" fill="#4A95E5" />
<rect x="206" y="40" width="2" height="10" fill="#64CCFB" />
<rect x="285" y="40" width="1" height="1" fill="#4A95E5" />
<rect x="286" y="40" width="2" height="10" fill="#64CCFB" />
<rect x="44" y="41" width="1" height="1" fill="#4A95E5" />
<rect x="45" y="41" width="1" height="8" fill="#64CCFB" />
<rect x="48" y="41" width="1" height="10" fill="#64CCFB" />
<rect x="124" y="41" width="1" height="1" fill="#4A95E5" />
<rect x="125" y="41" width="1" height="8" fill="#64CCFB" />
<rect x="128" y="41" width="1" height="10" fill="#64CCFB" />
<rect x="204" y="41" width="1" height="1" fill="#4A95E5" />
<rect x="205" y="41" width="1" height="8" fill="#64CCFB" />
<rect x="208" y="41" width="1" height="10" fill="#64CCFB" />
<rect x="284" y="41" width="1" height="1" fill="#4A95E5" />
<rect x="285" y="41" width="1" height="8" fill="#64CCFB" />
<rect x="288" y="41" width="1" height="10" fill="#64CCFB" />
<rect x="43" y="42" width="1" height="9" fill="#4A95E5" />
<rect x="44" y="42" width="1" height="6" fill="#64CCFB" />
<rect x="49" y="42" width="1" height="11" fill="#64CCFB" />
<rect x="123" y="42" width="1" height="9" fill="#4A95E5" />
<rect x="124" y="42" width="1" height="6" fill="#64CCFB" />
<rect x="129" y="42" width="1" height="11" fill="#64CCFB" />
<rect x="203" y="42" width="1" height="9" fill="#4A95E5" />
<rect x="204" y="42" width="1" height="6" fill="#64CCFB" />
<rect x="209" y="42" width="1" height="11" fill="#64CCFB" />
<rect x="283" y="42" width="1" height="9" fill="#4A95E5" />
<rect x="284" y="42" width="1" height="6" fill="#64CCFB" />
<rect x="289" y="42" width="1" height="11" fill="#64CCFB" />
<rect x="1" y="43" width="5" height="4" fill="#64CCFB" />
<rect x="42" y="43" width="1" height="6" fill="#4A95E5" />
<rect x="50" y="43" width="1" height="10" fill="#64CCFB" />
<rect x="81" y="43" width="5" height="4" fill="#64CCFB" />
<rect x="122" y="43" width="1" height="6" fill="#4A95E5" />
<rect x="130" y="43" width="1" height="10" fill="#64CCFB" />
<rect x="161" y="43" width="5" height="4" fill="#64CCFB" />
<rect x="202" y="43" width="1" height="6" fill="#4A95E5" />
<rect x="210" y="43" width="1" height="10" fill="#64CCFB" />
<rect x="241" y="43" width="5" height="4" fill="#64CCFB" />
<rect x="282" y="43" width="1" height="6" fill="#4A95E5" />
<rect x="290" y="43" width="1" height="10" fill="#64CCFB" />
<rect x="321" y="43" width="5" height="4" fill="#64CCFB" />
<rect x="0" y="44" width="1" height="2" fill="#64CCFB" />
<rect x="6" y="44" width="2" height="7" fill="#64CCFB" />
<rect x="80" y="44" width="1" height="2" fill="#64CCFB" />
<rect x="86" y="44" width="2" height="7" fill="#64CCFB" />
<rect x="160" y="44" width="1" height="2" fill="#64CCFB" />
<rect x="166" y="44" width="2" height="7" fill="#64CCFB" />
<rect x="240" y="44" width="1" height="2" fill="#64CCFB" />
<rect x="246" y="44" width="2" height="7" fill="#64CCFB" />
<rect x="320" y="44" width="1" height="2" fill="#64CCFB" />
<rect x="326" y="44" width="2" height="7" fill="#64CCFB" />
<rect x="8" y="45" width="1" height="6" fill="#64CCFB" />
<rect x="88" y="45" width="1" height="6" fill="#64CCFB" />
<rect x="168" y="45" width="1" height="6" fill="#64CCFB" />
<rect x="248" y="45" width="1" height="6" fill="#64CCFB" />
<rect x="328" y="45" width="1" height="6" fill="#64CCFB" />
<rect x="0" y="46" width="1" height="3" fill="#4A95E5" />
<rect x="9" y="46" width="1" height="7" fill="#64CCFB" />
<rect x="51" y="46" width="1" height="5" fill="#64CCFB" />
<rect x="80" y="46" width="1" height="3" fill="#4A95E5" />
<rect x="89" y="46" width="1" height="7" fill="#64CCFB" />
<rect x="131" y="46" width="1" height="5" fill="#64CCFB" />
<rect x="160" y="46" width="1" height="3" fill="#4A95E5" />
<rect x="169" y="46" width="1" height="7" fill="#64CCFB" />
<rect x="211" y="46" width="1" height="5" fill="#64CCFB" />
<rect x="240" y="46" width="1" height="3" fill="#4A95E5" />
<rect x="249" y="46" width="1" height="7" fill="#64CCFB" />
<rect x="291" y="46" width="1" height="5" fill="#64CCFB" />
<rect x="320" y="46" width="1" height="3" fill="#4A95E5" />
<rect x="329" y="46" width="1" height="7" fill="#64CCFB" />
<rect x="1" y="47" width="1" height="4" fill="#4A95E5" />
<rect x="2" y="47" width="4" height="1" fill="#64CCFB" />
<rect x="10" y="47" width="1" height="6" fill="#64CCFB" />
<rect x="81" y="47" width="1" height="4" fill="#4A95E5" />
<rect x="82" y="47" width="4" height="1" fill="#64CCFB" />
<rect x="90" y="47" width="1" height="6" fill="#64CCFB" />
<rect x="161" y="47" width="1" height="4" fill="#4A95E5" />
<rect x="162" y="47" width="4" height="1" fill="#64CCFB" />
<rect x="170" y="47" width="1" height="6" fill="#64CCFB" />
<rect x="241" y="47" width="1" height="4" fill="#4A95E5" />
<rect x="242" y="47" width="4" height="1" fill="#64CCFB" />
<rect x="250" y="47" width="1" height="6" fill="#64CCFB" />
<rect x="321" y="47" width="1" height="4" fill="#4A95E5" />
<rect x="322" y="47" width="4" height="1" fill="#64CCFB" />
<rect x="330" y="47" width="1" height="6" fill="#64CCFB" />
<rect x="2" y="48" width="1" height="3" fill="#4A95E5" />
<rect x="3" y="48" width="3" height="1" fill="#64CCFB" />
<rect x="44" y="48" width="1" height="4" fill="#4A95E5" />
<rect x="82" y="48" width="1" height="3" fill="#4A95E5" />
<rect x="83" y="48" width="3" height="1" fill="#64CCFB" />
<rect x="124" y="48" width="1" height="4" fill="#4A95E5" />
<rect x="162" y="48" width="1" height="3" fill="#4A95E5" />
<rect x="163" y="48" width="3" height="1" fill="#64CCFB" />
<rect x="204" y="48" width="1" height="4" fill="#4A95E5" />
<rect x="242" y="48" width="1" height="3" fill="#4A95E5" />
<rect x="243" y="48" width="3" height="1" fill="#64CCFB" />
<rect x="284" y="48" width="1" height="4" fill="#4A95E5" />
<rect x="322" y="48" width="1" height="3" fill="#4A95E5" />
<rect x="323" y="48" width="3" height="1" fill="#64CCFB" />
<rect x="3" y="49" width="1" height="4" fill="#4A95E5" />
<rect x="4" y="49" width="2" height="1" fill="#64CCFB" />
<rect x="11" y="49" width="1" height="4" fill="#64CCFB" />
<rect x="45" y="49" width="1" height="4" fill="#4A95E5" />
<rect x="83" y="49" width="1" height="4" fill="#4A95E5" />
<rect x="84" y="49" width="2" height="1" fill="#64CCFB" />
<rect x="91" y="49" width="1" height="4" fill="#64CCFB" />
<rect x="125" y="49" width="1" height="4" fill="#4A95E5" />
<rect x="163" y="49" width="1" height="4" fill="#4A95E5" />
<rect x="164" y="49" width="2" height="1" fill="#64CCFB" />
<rect x="171" y="49" width="1" height="4" fill="#64CCFB" />
<rect x="205" y="49" width="1" height="4" fill="#4A95E5" />
<rect x="243" y="49" width="1" height="4" fill="#4A95E5" />
<rect x="244" y="49" width="2" height="1" fill="#64CCFB" />
<rect x="251" y="49" width="1" height="4" fill="#64CCFB" />
<rect x="285" y="49" width="1" height="4" fill="#4A95E5" />
<rect x="323" y="49" width="1" height="4" fill="#4A95E5" />
<rect x="324" y="49" width="2" height="1" fill="#64CCFB" />
<rect x="331" y="49" width="1" height="4" fill="#64CCFB" />
<rect x="4" y="50" width="1" height="3" fill="#4A95E5" />
<rect x="5" y="50" width="1" height="1" fill="#64CCFB" />
<rect x="46" y="50" width="2" height="1" fill="#4A95E5" />
<rect x="84" y="50" width="1" height="3" fill="#4A95E5" />
<rect x="85" y="50" width="1" height="1" fill="#64CCFB" />
<rect x="126" y="50" width="2" height="1" fill="#4A95E5" />
<rect x="164" y="50" width="1" height="3" fill="#4A95E5" />
<rect x="165" y="50" width="1" height="1" fill="#64CCFB" />
<rect x="206" y="50" width="2" height="1" fill="#4A95E5" />
<rect x="244" y="50" width="1" height="3" fill="#4A95E5" />
<rect x="245" y="50" width="1" height="1" fill="#64CCFB" />
<rect x="286" y="50" width="2" height="1" fill="#4A95E5" />
<rect x="324" y="50" width="1" height="3" fill="#4A95E5" />
<rect x="325" y="50" width="1" height="1" fill="#64CCFB" />
<rect x="5" y="51" width="4" height="1" fill="#4A95E5" />
<rect x="46" y="51" width="1" height="2" fill="#4A95E5" />
<rect x="47" y="51" width="1" height="1" fill="#64CCFB" />
<rect x="48" y="51" width="1" height="1" fill="#4A95E5" />
<rect x="85" y="51" width="4" height="1" fill="#4A95E5" />
<rect x="126" y="51" width="1" height="2" fill="#4A95E5" />
<rect x="127" y="51" width="1" height="1" fill="#64CCFB" />
<rect x="128" y="51" width="1" height="1" fill="#4A95E5" />
<rect x="165" y="51" width="4" height="1" fill="#4A95E5" />
<rect x="206" y="51" width="1" height="2" fill="#4A95E5" />
<rect x="207" y="51" width="1" height="1" fill="#64CCFB" />
<rect x="208" y="51" width="1" height="1" fill="#4A95E5" />
<rect x="245" y="51" width="4" height="1" fill="#4A95E5" />
<rect x="286" y="51" width="1" height="2" fill="#4A95E5" />
<rect x="287" y="51" width="1" height="1" fill="#64CCFB" />
<rect x="288" y="51" width="1" height="1" fill="#4A95E5" />
<rect x="325" y="51" width="4" height="1" fill="#4A95E5" />
<rect x="5" y="52" width="2" height="2" fill="#4A95E5" />
<rect x="7" y="52" width="2" height="1" fill="#64CCFB" />
<rect x="47" y="52" width="1" height="1" fill="#4A95E5" />
<rect x="48" y="52" width="1" height="1" fill="#64CCFB" />
<rect x="85" y="52" width="2" height="2" fill="#4A95E5" />
<rect x="87" y="52" width="2" height="1" fill="#64CCFB" />
<rect x="127" y="52" width="1" height="1" fill="#4A95E5" />
<rect x="128" y="52" width="1" height="1" fill="#64CCFB" />
<rect x="165" y="52" width="2" height="2" fill="#4A95E5" />
<rect x="167" y="52" width="2" height="1" fill="#64CCFB" />
<rect x="207" y="52" width="1" height="1" fill="#4A95E5" />
<rect x="208" y="52" width="1" height="1" fill="#64CCFB" />
<rect x="245" y="52" width="2" height="2" fill="#4A95E5" />
<rect x="247" y="52" width="2" height="1" fill="#64CCFB" />
<rect x="287" y="52" width="1" height="1" fill="#4A95E5" />
<rect x="288" y="52" width="1" height="1" fill="#64CCFB" />
<rect x="325" y="52" width="2" height="2" fill="#4A95E5" />
<rect x="327" y="52" width="2" height="1" fill="#64CCFB" />
<rect x="3" y="53" width="2" height="2" fill="#1A4CA9" />
<rect x="7" y="53" width="4" height="1" fill="#4A95E5" />
<rect x="45" y="53" width="3" height="3" fill="#1A4CA9" />
<rect x="48" y="53" width="2" height="1" fill="#4A95E5" />
<rect x="83" y="53" width="2" height="2" fill="#1A4CA9" />
<rect x="87" y="53" width="4" height="1" fill="#4A95E5" />
<rect x="125" y="53" width="3" height="3" fill="#1A4CA9" />
<rect x="128" y="53" width="2" height="1" fill="#4A95E5" />
<rect x="163" y="53" width="2" height="2" fill="#1A4CA9" />
<rect x="167" y="53" width="4" height="1" fill="#4A95E5" />
<rect x="205" y="53" width="3" height="3" fill="#1A4CA9" />
<rect x="208" y="53" width="2" height="1" fill="#4A95E5" />
<rect x="237" y="53" width="1" height="4" fill="#B2E7FF" />
<rect x="243" y="53" width="2" height="2" fill="#1A4CA9" />
<rect x="247" y="53" width="4" height="1" fill="#4A95E5" />
<rect x="285" y="53" width="3" height="1" fill="#1A4CA9" />
<rect x="288" y="53" width="2" height="1" fill="#4A95E5" />
<rect x="323" y="53" width="2" height="2" fill="#1A4CA9" />
<rect x="327" y="53" width="4" height="1" fill="#4A95E5" />
<rect x="357" y="53" width="2" height="3" fill="#B2E7FF" />
<rect x="5" y="54" width="4" height="1" fill="#1A4CA9" />
<rect x="44" y="54" width="1" height="3" fill="#1A4CA9" />
<rect x="48" y="54" width="2" height="1" fill="#1A4CA9" />
<rect x="85" y="54" width="4" height="1" fill="#1A4CA9" />
<rect x="124" y="54" width="1" height="3" fill="#1A4CA9" />
<rect x="128" y="54" width="2" height="1" fill="#1A4CA9" />
<rect x="165" y="54" width="4" height="1" fill="#1A4CA9" />
<rect x="204" y="54" width="1" height="3" fill="#1A4CA9" />
<rect x="208" y="54" width="2" height="1" fill="#1A4CA9" />
<rect x="236" y="54" width="1" height="4" fill="#B2E7FF" />
<rect x="238" y="54" width="1" height="6" fill="#B2E7FF" />
<rect x="245" y="54" width="4" height="1" fill="#1A4CA9" />
<rect x="274" y="54" width="3" height="1" fill="#B2E7FF" />
<rect x="281" y="54" width="5" height="2" fill="#B2E7FF" />
<rect x="286" y="54" width="4" height="1" fill="#1A4CA9" />
<rect x="325" y="54" width="4" height="1" fill="#1A4CA9" />
<rect x="4" y="55" width="4" height="1" fill="#1A4CA9" />
<rect x="84" y="55" width="4" height="1" fill="#1A4CA9" />
<rect x="164" y="55" width="4" height="1" fill="#1A4CA9" />
<rect x="235" y="55" width="1" height="4" fill="#B2E7FF" />
<rect x="244" y="55" width="4" height="1" fill="#1A4CA9" />
<rect x="273" y="55" width="3" height="1" fill="#B2E7FF" />
<rect x="278" y="55" width="1" height="1" fill="#B2E7FF" />
<rect x="280" y="55" width="1" height="7" fill="#B2E7FF" />
<rect x="286" y="55" width="1" height="3" fill="#B2E7FF" />
<rect x="287" y="55" width="1" height="1" fill="#1A4CA9" />
<rect x="324" y="55" width="4" height="1" fill="#1A4CA9" />
<rect x="356" y="55" width="1" height="3" fill="#B2E7FF" />
<rect x="359" y="55" width="1" height="4" fill="#B2E7FF" />
<rect x="45" y="56" width="2" height="1" fill="#1A4CA9" />
<rect x="125" y="56" width="2" height="1" fill="#1A4CA9" />
<rect x="205" y="56" width="2" height="1" fill="#1A4CA9" />
<rect x="234" y="56" width="1" height="4" fill="#B2E7FF" />
<rect x="273" y="56" width="2" height="2" fill="#B2E7FF" />
<rect x="279" y="56" width="1" height="2" fill="#B2E7FF" />
<rect x="281" y="56" width="1" height="8" fill="#B2E7FF" />
<rect x="284" y="56" width="1" height="1" fill="#1A4CA9" />
<rect x="285" y="56" width="1" height="1" fill="#B2E7FF" />
<rect x="287" y="56" width="1" height="3" fill="#B2E7FF" />
<rect x="355" y="56" width="1" height="4" fill="#B2E7FF" />
<rect x="357" y="56" width="1" height="1" fill="#B2E7FF" />
<rect x="201" y="57" width="2" height="4" fill="#B2E7FF" />
<rect x="272" y="57" width="1" height="7" fill="#B2E7FF" />
<rect x="288" y="57" width="1" height="2" fill="#B2E7FF" />
<rect x="354" y="57" width="1" height="4" fill="#B2E7FF" />
<rect x="203" y="58" width="1" height="5" fill="#B2E7FF" />
<rect x="233" y="58" width="1" height="3" fill="#B2E7FF" />
<rect x="271" y="58" width="1" height="3" fill="#B2E7FF" />
<rect x="273" y="58" width="1" height="2" fill="#B2E7FF" />
<rect x="278" y="58" width="1" height="2" fill="#B2E7FF" />
<rect x="353" y="58" width="1" height="2" fill="#B2E7FF" />
<rect x="36" y="59" width="2" height="2" fill="#B2E7FF" />
<rect x="196" y="59" width="2" height="1" fill="#B2E7FF" />
<rect x="232" y="59" width="1" height="3" fill="#B2E7FF" />
<rect x="270" y="59" width="1" height="1" fill="#B2E7FF" />
<rect x="289" y="59" width="1" height="1" fill="#B2E7FF" />
<rect x="155" y="60" width="2" height="7" fill="#B2E7FF" />
<rect x="193" y="60" width="3" height="1" fill="#B2E7FF" />
<rect x="198" y="60" width="1" height="6" fill="#B2E7FF" />
<rect x="204" y="60" width="1" height="1" fill="#B2E7FF" />
<rect x="231" y="60" width="1" height="3" fill="#B2E7FF" />
<rect x="237" y="60" width="1" height="3" fill="#B2E7FF" />
<rect x="38" y="61" width="1" height="1" fill="#B2E7FF" />
<rect x="111" y="61" width="5" height="1" fill="#B2E7FF" />
<rect x="154" y="61" width="1" height="8" fill="#B2E7FF" />
<rect x="157" y="61" width="1" height="5" fill="#B2E7FF" />
<rect x="192" y="61" width="3" height="1" fill="#B2E7FF" />
<rect x="202" y="61" width="1" height="1" fill="#B2E7FF" />
<rect x="205" y="61" width="1" height="2" fill="#B2E7FF" />
<rect x="230" y="61" width="1" height="1" fill="#B2E7FF" />
<rect x="244" y="61" width="2" height="4" fill="#B2E7FF" />
<rect x="273" y="61" width="4" height="2" fill="#B2E7FF" />
<rect x="282" y="61" width="1" height="5" fill="#B2E7FF" />
<rect x="33" y="62" width="2" height="1" fill="#B2E7FF" />
<rect x="111" y="62" width="3" height="1" fill="#B2E7FF" />
<rect x="153" y="62" width="1" height="3" fill="#B2E7FF" />
<rect x="158" y="62" width="1" height="1" fill="#B2E7FF" />
<rect x="162" y="62" width="3" height="2" fill="#B2E7FF" />
<rect x="192" y="62" width="2" height="3" fill="#B2E7FF" />
<rect x="243" y="62" width="1" height="6" fill="#B2E7FF" />
<rect x="246" y="62" width="1" height="3" fill="#B2E7FF" />
<rect x="270" y="62" width="2" height="3" fill="#B2E7FF" />
<rect x="277" y="62" width="1" height="7" fill="#B2E7FF" />
<rect x="32" y="63" width="1" height="1" fill="#B2E7FF" />
<rect x="38" y="63" width="1" height="1" fill="#B2E7FF" />
<rect x="71" y="63" width="3" height="2" fill="#B2E7FF" />
<rect x="108" y="63" width="5" height="1" fill="#B2E7FF" />
<rect x="124" y="63" width="2" height="4" fill="#B2E7FF" />
<rect x="151" y="63" width="2" height="3" fill="#B2E7FF" />
<rect x="161" y="63" width="1" height="5" fill="#B2E7FF" />
<rect x="165" y="63" width="1" height="1" fill="#B2E7FF" />
<rect x="194" y="63" width="1" height="1" fill="#B2E7FF" />
<rect x="206" y="63" width="1" height="1" fill="#B2E7FF" />
<rect x="236" y="63" width="1" height="1" fill="#B2E7FF" />
<rect x="242" y="63" width="1" height="5" fill="#B2E7FF" />
<rect x="247" y="63" width="1" height="1" fill="#B2E7FF" />
<rect x="268" y="63" width="2" height="3" fill="#B2E7FF" />
<rect x="276" y="63" width="1" height="8" fill="#B2E7FF" />
<rect x="283" y="63" width="1" height="2" fill="#B2E7FF" />
<rect x="315" y="63" width="2" height="1" fill="#B2E7FF" />
<rect x="323" y="63" width="2" height="9" fill="#B2E7FF" />
<rect x="30" y="64" width="2" height="1" fill="#B2E7FF" />
<rect x="37" y="64" width="1" height="1" fill="#B2E7FF" />
<rect x="44" y="64" width="3" height="3" fill="#B2E7FF" />
<rect x="68" y="64" width="3" height="3" fill="#B2E7FF" />
<rect x="74" y="64" width="3" height="1" fill="#B2E7FF" />
<rect x="83" y="64" width="2" height="10" fill="#B2E7FF" />
<rect x="107" y="64" width="5" height="1" fill="#B2E7FF" />
<rect x="123" y="64" width="1" height="10" fill="#B2E7FF" />
<rect x="126" y="64" width="1" height="3" fill="#B2E7FF" />
<rect x="162" y="64" width="1" height="5" fill="#B2E7FF" />
<rect x="191" y="64" width="1" height="4" fill="#B2E7FF" />
<rect x="197" y="64" width="1" height="3" fill="#B2E7FF" />
<rect x="202" y="64" width="4" height="2" fill="#B2E7FF" />
<rect x="241" y="64" width="1" height="3" fill="#B2E7FF" />
<rect x="267" y="64" width="1" height="3" fill="#B2E7FF" />
<rect x="314" y="64" width="1" height="1" fill="#B2E7FF" />
<rect x="317" y="64" width="1" height="2" fill="#B2E7FF" />
<rect x="322" y="64" width="1" height="7" fill="#B2E7FF" />
<rect x="325" y="64" width="1" height="3" fill="#B2E7FF" />
<rect x="356" y="64" width="2" height="3" fill="#B2E7FF" />
<rect x="29" y="65" width="1" height="1" fill="#B2E7FF" />
<rect x="36" y="65" width="1" height="1" fill="#B2E7FF" />
<rect x="43" y="65" width="1" height="10" fill="#B2E7FF" />
<rect x="47" y="65" width="1" height="2" fill="#B2E7FF" />
<rect x="67" y="65" width="1" height="5" fill="#B2E7FF" />
<rect x="71" y="65" width="2" height="1" fill="#B2E7FF" />
<rect x="82" y="65" width="1" height="8" fill="#B2E7FF" />
<rect x="85" y="65" width="1" height="10" fill="#B2E7FF" />
<rect x="106" y="65" width="5" height="1" fill="#B2E7FF" />
<rect x="122" y="65" width="1" height="8" fill="#B2E7FF" />
<rect x="127" y="65" width="1" height="1" fill="#B2E7FF" />
<rect x="149" y="65" width="2" height="2" fill="#B2E7FF" />
<rect x="169" y="65" width="1" height="1" fill="#B2E7FF" />
<rect x="188" y="65" width="3" height="4" fill="#B2E7FF" />
<rect x="192" y="65" width="1" height="2" fill="#B2E7FF" />
<rect x="196" y="65" width="1" height="3" fill="#B2E7FF" />
<rect x="201" y="65" width="1" height="7" fill="#B2E7FF" />
<rect x="206" y="65" width="1" height="1" fill="#B2E7FF" />
<rect x="215" y="65" width="3" height="2" fill="#B2E7FF" />
<rect x="232" y="65" width="3" height="2" fill="#B2E7FF" />
<rect x="244" y="65" width="1" height="4" fill="#B2E7FF" />
<rect x="265" y="65" width="2" height="3" fill="#B2E7FF" />
<rect x="284" y="65" width="1" height="1" fill="#B2E7FF" />
<rect x="313" y="65" width="1" height="1" fill="#B2E7FF" />
<rect x="321" y="65" width="1" height="5" fill="#B2E7FF" />
<rect x="326" y="65" width="1" height="1" fill="#B2E7FF" />
<rect x="355" y="65" width="1" height="3" fill="#B2E7FF" />
<rect x="28" y="66" width="1" height="2" fill="#B2E7FF" />
<rect x="35" y="66" width="1" height="1" fill="#B2E7FF" />
<rect x="42" y="66" width="1" height="8" fill="#B2E7FF" />
<rect x="65" y="66" width="2" height="4" fill="#B2E7FF" />
<rect x="71" y="66" width="1" height="1" fill="#B2E7FF" />
<rect x="105" y="66" width="5" height="1" fill="#B2E7FF" />
<rect x="115" y="66" width="2" height="2" fill="#B2E7FF" />
<rect x="121" y="66" width="1" height="6" fill="#B2E7FF" />
<rect x="151" y="66" width="1" height="1" fill="#B2E7FF" />
<rect x="170" y="66" width="5" height="1" fill="#B2E7FF" />
<rect x="187" y="66" width="1" height="6" fill="#B2E7FF" />
<rect x="195" y="66" width="1" height="3" fill="#B2E7FF" />
<rect x="202" y="66" width="1" height="1" fill="#B2E7FF" />
<rect x="214" y="66" width="1" height="1" fill="#B2E7FF" />
<rect x="218" y="66" width="2" height="3" fill="#B2E7FF" />
<rect x="231" y="66" width="1" height="1" fill="#B2E7FF" />
<rect x="235" y="66" width="1" height="3" fill="#B2E7FF" />
<rect x="264" y="66" width="1" height="3" fill="#B2E7FF" />
<rect x="278" y="66" width="1" height="1" fill="#B2E7FF" />
<rect x="316" y="66" width="1" height="1" fill="#B2E7FF" />
<rect x="354" y="66" width="1" height="3" fill="#B2E7FF" />
<rect x="358" y="66" width="1" height="1" fill="#B2E7FF" />
<rect x="4" y="67" width="2" height="2" fill="#B2E7FF" />
<rect x="26" y="67" width="2" height="2" fill="#B2E7FF" />
<rect x="32" y="67" width="3" height="1" fill="#B2E7FF" />
<rect x="41" y="67" width="1" height="6" fill="#B2E7FF" />
<rect x="48" y="67" width="1" height="1" fill="#B2E7FF" />
<rect x="64" y="67" width="1" height="5" fill="#B2E7FF" />
<rect x="68" y="67" width="2" height="1" fill="#B2E7FF" />
<rect x="105" y="67" width="4" height="2" fill="#B2E7FF" />
<rect x="114" y="67" width="1" height="3" fill="#B2E7FF" />
<rect x="124" y="67" width="1" height="8" fill="#B2E7FF" />
<rect x="138" y="67" width="9" height="1" fill="#B2E7FF" />
<rect x="150" y="67" width="1" height="1" fill="#B2E7FF" />
<rect x="153" y="67" width="1" height="3" fill="#B2E7FF" />
<rect x="155" y="67" width="1" height="2" fill="#B2E7FF" />
<rect x="163" y="67" width="1" height="3" fill="#B2E7FF" />
<rect x="172" y="67" width="4" height="1" fill="#B2E7FF" />
<rect x="186" y="67" width="1" height="5" fill="#B2E7FF" />
<rect x="217" y="67" width="1" height="1" fill="#B2E7FF" />
<rect x="220" y="67" width="1" height="4" fill="#B2E7FF" />
<rect x="234" y="67" width="1" height="3" fill="#B2E7FF" />
<rect x="236" y="67" width="1" height="1" fill="#B2E7FF" />
<rect x="245" y="67" width="1" height="3" fill="#B2E7FF" />
<rect x="262" y="67" width="2" height="3" fill="#B2E7FF" />
<rect x="275" y="67" width="1" height="5" fill="#B2E7FF" />
<rect x="315" y="67" width="1" height="2" fill="#B2E7FF" />
<rect x="353" y="67" width="1" height="4" fill="#B2E7FF" />
<rect x="356" y="67" width="1" height="1" fill="#B2E7FF" />
<rect x="3" y="68" width="1" height="2" fill="#B2E7FF" />
<rect x="6" y="68" width="1" height="1" fill="#B2E7FF" />
<rect x="24" y="68" width="2" height="2" fill="#B2E7FF" />
<rect x="31" y="68" width="3" height="1" fill="#B2E7FF" />
<rect x="63" y="68" width="1" height="6" fill="#B2E7FF" />
<rect x="68" y="68" width="1" height="1" fill="#B2E7FF" />
<rect x="75" y="68" width="2" height="2" fill="#B2E7FF" />
<rect x="104" y="68" width="1" height="5" fill="#B2E7FF" />
<rect x="110" y="68" width="4" height="1" fill="#B2E7FF" />
<rect x="115" y="68" width="1" height="1" fill="#B2E7FF" />
<rect x="136" y="68" width="10" height="1" fill="#B2E7FF" />
<rect x="164" y="68" width="1" height="2" fill="#B2E7FF" />
<rect x="174" y="68" width="4" height="1" fill="#B2E7FF" />
<rect x="221" y="68" width="1" height="4" fill="#B2E7FF" />
<rect x="233" y="68" width="1" height="3" fill="#B2E7FF" />
<rect x="246" y="68" width="1" height="3" fill="#B2E7FF" />
<rect x="260" y="68" width="2" height="3" fill="#B2E7FF" />
<rect x="285" y="68" width="2" height="5" fill="#B2E7FF" />
<rect x="352" y="68" width="1" height="4" fill="#B2E7FF" />
<rect x="4" y="69" width="1" height="2" fill="#B2E7FF" />
<rect x="7" y="69" width="1" height="1" fill="#B2E7FF" />
<rect x="23" y="69" width="1" height="3" fill="#B2E7FF" />
<rect x="26" y="69" width="1" height="1" fill="#B2E7FF" />
<rect x="32" y="69" width="1" height="1" fill="#B2E7FF" />
<rect x="62" y="69" width="1" height="5" fill="#B2E7FF" />
<rect x="71" y="69" width="4" height="3" fill="#B2E7FF" />
<rect x="105" y="69" width="3" height="1" fill="#B2E7FF" />
<rect x="111" y="69" width="3" height="1" fill="#B2E7FF" />
<rect x="135" y="69" width="9" height="1" fill="#B2E7FF" />
<rect x="175" y="69" width="4" height="1" fill="#B2E7FF" />
<rect x="185" y="69" width="1" height="4" fill="#B2E7FF" />
<rect x="188" y="69" width="2" height="1" fill="#B2E7FF" />
<rect x="194" y="69" width="1" height="1" fill="#B2E7FF" />
<rect x="202" y="69" width="1" height="4" fill="#B2E7FF" />
<rect x="230" y="69" width="3" height="3" fill="#B2E7FF" />
<rect x="247" y="69" width="2" height="3" fill="#B2E7FF" />
<rect x="274" y="69" width="1" height="4" fill="#B2E7FF" />
<rect x="284" y="69" width="1" height="3" fill="#B2E7FF" />
<rect x="287" y="69" width="1" height="1" fill="#B2E7FF" />
<rect x="313" y="69" width="2" height="2" fill="#B2E7FF" />
<rect x="325" y="69" width="1" height="4" fill="#B2E7FF" />
<rect x="351" y="69" width="1" height="4" fill="#B2E7FF" />
<rect x="357" y="69" width="1" height="1" fill="#B2E7FF" />
<rect x="22" y="70" width="1" height="3" fill="#B2E7FF" />
<rect x="24" y="70" width="1" height="1" fill="#B2E7FF" />
<rect x="61" y="70" width="1" height="5" fill="#B2E7FF" />
<rect x="65" y="70" width="1" height="1" fill="#B2E7FF" />
<rect x="69" y="70" width="2" height="4" fill="#B2E7FF" />
<rect x="75" y="70" width="1" height="1" fill="#B2E7FF" />
<rect x="103" y="70" width="1" height="3" fill="#B2E7FF" />
<rect x="105" y="70" width="2" height="1" fill="#B2E7FF" />
<rect x="132" y="70" width="11" height="1" fill="#B2E7FF" />
<rect x="165" y="70" width="3" height="1" fill="#B2E7FF" />
<rect x="176" y="70" width="4" height="1" fill="#B2E7FF" />
<rect x="183" y="70" width="2" height="3" fill="#B2E7FF" />
<rect x="188" y="70" width="1" height="1" fill="#B2E7FF" />
<rect x="222" y="70" width="1" height="3" fill="#B2E7FF" />
<rect x="228" y="70" width="2" height="3" fill="#B2E7FF" />
<rect x="249" y="70" width="1" height="3" fill="#B2E7FF" />
<rect x="258" y="70" width="2" height="2" fill="#B2E7FF" />
<rect x="267" y="70" width="1" height="3" fill="#B2E7FF" />
<rect x="283" y="70" width="1" height="1" fill="#B2E7FF" />
<rect x="311" y="70" width="2" height="1" fill="#B2E7FF" />
<rect x="20" y="71" width="2" height="2" fill="#B2E7FF" />
<rect x="68" y="71" width="1" height="3" fill="#B2E7FF" />
<rect x="86" y="71" width="1" height="5" fill="#B2E7FF" />
<rect x="102" y="71" width="1" height="3" fill="#B2E7FF" />
<rect x="105" y="71" width="1" height="1" fill="#B2E7FF" />
<rect x="125" y="71" width="1" height="5" fill="#B2E7FF" />
<rect x="131" y="71" width="8" height="1" fill="#B2E7FF" />
<rect x="178" y="71" width="5" height="2" fill="#B2E7FF" />
<rect x="203" y="71" width="1" height="3" fill="#B2E7FF" />
<rect x="223" y="71" width="5" height="2" fill="#B2E7FF" />
<rect x="250" y="71" width="1" height="3" fill="#B2E7FF" />
<rect x="256" y="71" width="2" height="2" fill="#B2E7FF" />
<rect x="260" y="71" width="1" height="1" fill="#B2E7FF" />
<rect x="266" y="71" width="1" height="1" fill="#B2E7FF" />
<rect x="268" y="71" width="1" height="3" fill="#B2E7FF" />
<rect x="273" y="71" width="1" height="4" fill="#B2E7FF" />
<rect x="287" y="71" width="2" height="3" fill="#B2E7FF" />
<rect x="309" y="71" width="3" height="1" fill="#B2E7FF" />
<rect x="315" y="71" width="2" height="1" fill="#B2E7FF" />
<rect x="326" y="71" width="1" height="3" fill="#B2E7FF" />
<rect x="350" y="71" width="1" height="3" fill="#B2E7FF" />
<rect x="18" y="72" width="2" height="2" fill="#B2E7FF" />
<rect x="66" y="72" width="2" height="2" fill="#B2E7FF" />
<rect x="71" y="72" width="3" height="1" fill="#B2E7FF" />
<rect x="87" y="72" width="2" height="4" fill="#B2E7FF" />
<rect x="98" y="72" width="4" height="3" fill="#B2E7FF" />
<rect x="126" y="72" width="3" height="4" fill="#B2E7FF" />
<rect x="130" y="72" width="7" height="1" fill="#B2E7FF" />
<rect x="204" y="72" width="1" height="2" fill="#B2E7FF" />
<rect x="213" y="72" width="2" height="2" fill="#B2E7FF" />
<rect x="251" y="72" width="1" height="3" fill="#B2E7FF" />
<rect x="254" y="72" width="2" height="2" fill="#B2E7FF" />
<rect x="258" y="72" width="1" height="1" fill="#B2E7FF" />
<rect x="269" y="72" width="1" height="1" fill="#B2E7FF" />
<rect x="272" y="72" width="1" height="4" fill="#B2E7FF" />
<rect x="289" y="72" width="3" height="3" fill="#B2E7FF" />
<rect x="308" y="72" width="1" height="1" fill="#B2E7FF" />
<rect x="327" y="72" width="1" height="3" fill="#B2E7FF" />
<rect x="349" y="72" width="1" height="3" fill="#B2E7FF" />
<rect x="9" y="73" width="1" height="1" fill="#B2E7FF" />
<rect x="14" y="73" width="4" height="2" fill="#B2E7FF" />
<rect x="20" y="73" width="1" height="1" fill="#B2E7FF" />
<rect x="44" y="73" width="3" height="3" fill="#B2E7FF" />
<rect x="55" y="73" width="6" height="3" fill="#B2E7FF" />
<rect x="71" y="73" width="1" height="1" fill="#B2E7FF" />
<rect x="89" y="73" width="2" height="4" fill="#B2E7FF" />
<rect x="97" y="73" width="1" height="3" fill="#B2E7FF" />
<rect x="129" y="73" width="7" height="1" fill="#B2E7FF" />
<rect x="180" y="73" width="3" height="1" fill="#B2E7FF" />
<rect x="210" y="73" width="3" height="2" fill="#B2E7FF" />
<rect x="215" y="73" width="1" height="1" fill="#B2E7FF" />
<rect x="226" y="73" width="2" height="1" fill="#B2E7FF" />
<rect x="252" y="73" width="2" height="2" fill="#B2E7FF" />
<rect x="256" y="73" width="1" height="1" fill="#B2E7FF" />
<rect x="271" y="73" width="1" height="3" fill="#B2E7FF" />
<rect x="292" y="73" width="3" height="3" fill="#B2E7FF" />
<rect x="328" y="73" width="3" height="2" fill="#B2E7FF" />
<rect x="347" y="73" width="2" height="2" fill="#B2E7FF" />
<rect x="10" y="74" width="1" height="1" fill="#B2E7FF" />
<rect x="13" y="74" width="1" height="2" fill="#B2E7FF" />
<rect x="18" y="74" width="1" height="1" fill="#B2E7FF" />
<rect x="47" y="74" width="8" height="3" fill="#B2E7FF" />
<rect x="84" y="74" width="1" height="1" fill="#B2E7FF" />
<rect x="91" y="74" width="6" height="2" fill="#B2E7FF" />
<rect x="129" y="74" width="4" height="1" fill="#B2E7FF" />
<rect x="205" y="74" width="2" height="1" fill="#B2E7FF" />
<rect x="213" y="74" width="1" height="1" fill="#B2E7FF" />
<rect x="254" y="74" width="1" height="1" fill="#B2E7FF" />
<rect x="270" y="74" width="1" height="2" fill="#B2E7FF" />
<rect x="295" y="74" width="7" height="3" fill="#B2E7FF" />
<rect x="312" y="74" width="2" height="2" fill="#B2E7FF" />
<rect x="316" y="74" width="1" height="1" fill="#B2E7FF" />
<rect x="331" y="74" width="1" height="2" fill="#B2E7FF" />
<rect x="11" y="75" width="2" height="1" fill="#B2E7FF" />
<rect x="14" y="75" width="1" height="1" fill="#B2E7FF" />
<rect x="98" y="75" width="2" height="1" fill="#B2E7FF" />
<rect x="129" y="75" width="3" height="1" fill="#B2E7FF" />
<rect x="252" y="75" width="1" height="1" fill="#B2E7FF" />
<rect x="269" y="75" width="1" height="1" fill="#B2E7FF" />
<rect x="302" y="75" width="10" height="2" fill="#B2E7FF" />
<rect x="314" y="75" width="2" height="1" fill="#B2E7FF" />
<rect x="328" y="75" width="1" height="1" fill="#B2E7FF" />
<rect x="330" y="75" width="1" height="1" fill="#B2E7FF" />
<rect x="347" y="75" width="1" height="1" fill="#B2E7FF" />
<rect x="56" y="76" width="1" height="1" fill="#B2E7FF" />
<rect x="58" y="76" width="1" height="1" fill="#B2E7FF" />
<rect x="88" y="76" width="1" height="1" fill="#B2E7FF" />
<rect x="91" y="76" width="5" height="1" fill="#B2E7FF" />
<rect x="312" y="76" width="1" height="1" fill="#B2E7FF" />
<rect x="332" y="76" width="3" height="1" fill="#B2E7FF" />
</svg>