<?xml version="1.0" encoding="UTF-8" ?>
<svg version="1.1" width="288" height="32" xmlns="http://www.w3.org/2000/svg" shape-rendering="crispEdges">
<rect x="12" y="2" width="7" height="3" fill="#FFFEE8" />
<rect x="44" y="2" width="7" height="4" fill="#FFFEE8" />
<rect x="76" y="2" width="7" height="3" fill="#FFFEE8" />
<rect x="108" y="2" width="7" height="1" fill="#FFFEE8" />
<rect x="140" y="2" width="7" height="1" fill="#FFFEE8" />
<rect x="172" y="2" width="7" height="1" fill="#FFFEE8" />
<rect x="204" y="2" width="7" height="3" fill="#FFFEE8" />
<rect x="236" y="2" width="7" height="4" fill="#FFFEE8" />
<rect x="268" y="2" width="7" height="3" fill="#FFFEE8" />
<rect x="9" y="3" width="3" height="3" fill="#FFF19B" />
<rect x="19" y="3" width="3" height="5" fill="#FFFEE8" />
<rect x="41" y="3" width="2" height="4" fill="#FFF19B" />
<rect x="43" y="3" width="1" height="1" fill="#FFFEE8" />
<rect x="51" y="3" width="3" height="3" fill="#FFFEE8" />
<rect x="73" y="3" width="3" height="3" fill="#FFF19B" />
<rect x="83" y="3" width="3" height="2" fill="#FFFEE8" />
<rect x="105" y="3" width="3" height="1" fill="#FFFEE8" />
<rect x="108" y="3" width="3" height="3" fill="#FFF19B" />
<rect x="111" y="3" width="7" height="1" fill="#FFFEE8" />
<rect x="137" y="3" width="3" height="1" fill="#FFFEE8" />
<rect x="140" y="3" width="2" height="2" fill="#FFF19B" />
<rect x="142" y="3" width="8" height="1" fill="#FFFEE8" />
<rect x="169" y="3" width="3" height="1" fill="#FFFEE8" />
<rect x="172" y="3" width="3" height="3" fill="#FFF19B" />
<rect x="175" y="3" width="7" height="1" fill="#FFFEE8" />
<rect x="201" y="3" width="3" height="3" fill="#FFF19B" />
<rect x="211" y="3" width="3" height="2" fill="#FFFEE8" />
<rect x="233" y="3" width="2" height="4" fill="#FFF19B" />
<rect x="235" y="3" width="1" height="1" fill="#FFFEE8" />
<rect x="243" y="3" width="3" height="3" fill="#FFFEE8" />
<rect x="265" y="3" width="3" height="3" fill="#FFF19B" />
<rect x="275" y="3" width="3" height="5" fill="#FFFEE8" />
<rect x="8" y="4" width="1" height="3" fill="#FFF19B" />
<rect x="22" y="4" width="1" height="3" fill="#FFFEE8" />
<rect x="40" y="4" width="1" height="3" fill="#FFF19B" />
<rect x="43" y="4" width="1" height="5" fill="#FFF19B" />
<rect x="54" y="4" width="1" height="7" fill="#FFF19B" />
<rect x="72" y="4" width="1" height="2" fill="#FFF19B" />
<rect x="86" y="4" width="1" height="5" fill="#FFF19B" />
<rect x="104" y="4" width="4" height="3" fill="#FFF19B" />
<rect x="111" y="4" width="8" height="2" fill="#FFF19B" />
<rect x="136" y="4" width="4" height="2" fill="#FFF19B" />
<rect x="142" y="4" width="9" height="1" fill="#FFF19B" />
<rect x="168" y="4" width="4" height="3" fill="#FFF19B" />
<rect x="175" y="4" width="8" height="2" fill="#FFF19B" />
<rect x="200" y="4" width="1" height="2" fill="#FFF19B" />
<rect x="214" y="4" width="1" height="5" fill="#FFF19B" />
<rect x="232" y="4" width="1" height="3" fill="#FFF19B" />
<rect x="235" y="4" width="1" height="5" fill="#FFF19B" />
<rect x="246" y="4" width="1" height="7" fill="#FFF19B" />
<rect x="264" y="4" width="1" height="3" fill="#FFF19B" />
<rect x="278" y="4" width="1" height="3" fill="#FFFEE8" />
<rect x="6" y="5" width="2" height="3" fill="#FFF19B" />
<rect x="12" y="5" width="1" height="7" fill="#FFF19B" />
<rect x="13" y="5" width="6" height="2" fill="#FFFEE8" />
<rect x="23" y="5" width="2" height="8" fill="#FFF19B" />
<rect x="38" y="5" width="2" height="1" fill="#FFF19B" />
<rect x="55" y="5" width="2" height="5" fill="#FFF19B" />
<rect x="70" y="5" width="2" height="1" fill="#FFF19B" />
<rect x="76" y="5" width="1" height="2" fill="#FFF19B" />
<rect x="77" y="5" width="8" height="1" fill="#FFFEE8" />
<rect x="85" y="5" width="1" height="4" fill="#FFF19B" />
<rect x="87" y="5" width="2" height="4" fill="#FFF19B" />
<rect x="102" y="5" width="2" height="3" fill="#FFF19B" />
<rect x="119" y="5" width="2" height="2" fill="#FFF19B" />
<rect x="134" y="5" width="2" height="3" fill="#FFF19B" />
<rect x="140" y="5" width="6" height="9" fill="#FFEE6D" />
<rect x="146" y="5" width="7" height="1" fill="#FFF19B" />
<rect x="166" y="5" width="2" height="3" fill="#FFF19B" />
<rect x="183" y="5" width="2" height="2" fill="#FFF19B" />
<rect x="198" y="5" width="2" height="1" fill="#FFF19B" />
<rect x="204" y="5" width="1" height="2" fill="#FFF19B" />
<rect x="205" y="5" width="8" height="1" fill="#FFFEE8" />
<rect x="213" y="5" width="1" height="4" fill="#FFF19B" />
<rect x="215" y="5" width="2" height="4" fill="#FFF19B" />
<rect x="230" y="5" width="2" height="1" fill="#FFF19B" />
<rect x="247" y="5" width="2" height="5" fill="#FFF19B" />
<rect x="262" y="5" width="2" height="3" fill="#FFF19B" />
<rect x="268" y="5" width="1" height="7" fill="#FFF19B" />
<rect x="269" y="5" width="6" height="2" fill="#FFFEE8" />
<rect x="279" y="5" width="2" height="8" fill="#FFF19B" />
<rect x="5" y="6" width="1" height="3" fill="#FFF19B" />
<rect x="9" y="6" width="1" height="1" fill="#FFF19B" />
<rect x="10" y="6" width="1" height="19" fill="#FFEE6D" />
<rect x="11" y="6" width="1" height="4" fill="#FFF19B" />
<rect x="25" y="6" width="1" height="6" fill="#FFF19B" />
<rect x="37" y="6" width="2" height="15" fill="#FFEE6D" />
<rect x="39" y="6" width="1" height="1" fill="#FFF19B" />
<rect x="44" y="6" width="1" height="4" fill="#FFF19B" />
<rect x="45" y="6" width="8" height="1" fill="#FFFEE8" />
<rect x="53" y="6" width="1" height="5" fill="#FFF19B" />
<rect x="57" y="6" width="1" height="4" fill="#FFF19B" />
<rect x="69" y="6" width="5" height="15" fill="#FFEE6D" />
<rect x="74" y="6" width="2" height="1" fill="#FFF19B" />
<rect x="77" y="6" width="2" height="2" fill="#FFF19B" />
<rect x="79" y="6" width="4" height="1" fill="#FFFEE8" />
<rect x="83" y="6" width="2" height="3" fill="#FFF19B" />
<rect x="89" y="6" width="1" height="4" fill="#FFF19B" />
<rect x="101" y="6" width="1" height="3" fill="#FFF19B" />
<rect x="108" y="6" width="5" height="9" fill="#FFEE6D" />
<rect x="113" y="6" width="6" height="1" fill="#FFF19B" />
<rect x="121" y="6" width="1" height="2" fill="#FFF19B" />
<rect x="133" y="6" width="1" height="3" fill="#FFF19B" />
<rect x="136" y="6" width="1" height="1" fill="#FFF19B" />
<rect x="137" y="6" width="3" height="18" fill="#FFEE6D" />
<rect x="146" y="6" width="2" height="6" fill="#FFEE6D" />
<rect x="148" y="6" width="6" height="1" fill="#FFF19B" />
<rect x="165" y="6" width="1" height="3" fill="#FFF19B" />
<rect x="172" y="6" width="5" height="9" fill="#FFEE6D" />
<rect x="177" y="6" width="6" height="1" fill="#FFF19B" />
<rect x="185" y="6" width="1" height="2" fill="#FFF19B" />
<rect x="197" y="6" width="5" height="15" fill="#FFEE6D" />
<rect x="202" y="6" width="2" height="1" fill="#FFF19B" />
<rect x="205" y="6" width="2" height="2" fill="#FFF19B" />
<rect x="207" y="6" width="4" height="1" fill="#FFFEE8" />
<rect x="211" y="6" width="2" height="3" fill="#FFF19B" />
<rect x="217" y="6" width="1" height="4" fill="#FFF19B" />
<rect x="229" y="6" width="2" height="15" fill="#FFEE6D" />
<rect x="231" y="6" width="1" height="1" fill="#FFF19B" />
<rect x="236" y="6" width="1" height="4" fill="#FFF19B" />
<rect x="237" y="6" width="8" height="1" fill="#FFFEE8" />
<rect x="245" y="6" width="1" height="5" fill="#FFF19B" />
<rect x="249" y="6" width="1" height="4" fill="#FFF19B" />
<rect x="261" y="6" width="1" height="3" fill="#FFF19B" />
<rect x="265" y="6" width="1" height="1" fill="#FFF19B" />
<rect x="266" y="6" width="1" height="19" fill="#FFEE6D" />
<rect x="267" y="6" width="1" height="4" fill="#FFF19B" />
<rect x="281" y="6" width="1" height="6" fill="#FFF19B" />
<rect x="8" y="7" width="2" height="17" fill="#FFEE6D" />
<rect x="13" y="7" width="1" height="6" fill="#FFF19B" />
<rect x="14" y="7" width="5" height="1" fill="#FFFEE8" />
<rect x="22" y="7" width="1" height="7" fill="#FFF19B" />
<rect x="39" y="7" width="3" height="16" fill="#FFEE6D" />
<rect x="42" y="7" width="1" height="2" fill="#FFF19B" />
<rect x="45" y="7" width="2" height="3" fill="#FFF19B" />
<rect x="47" y="7" width="4" height="1" fill="#FFFEE8" />
<rect x="51" y="7" width="2" height="5" fill="#FFF19B" />
<rect x="74" y="7" width="3" height="18" fill="#FFEE6D" />
<rect x="79" y="7" width="4" height="2" fill="#FFF19B" />
<rect x="104" y="7" width="4" height="17" fill="#FFEE6D" />
<rect x="113" y="7" width="7" height="4" fill="#FFEE6D" />
<rect x="120" y="7" width="1" height="1" fill="#FFF19B" />
<rect x="136" y="7" width="1" height="17" fill="#FFEE6D" />
<rect x="148" y="7" width="2" height="4" fill="#FFEE6D" />
<rect x="150" y="7" width="3" height="1" fill="#FFF19B" />
<rect x="168" y="7" width="4" height="17" fill="#FFEE6D" />
<rect x="177" y="7" width="7" height="4" fill="#FFEE6D" />
<rect x="184" y="7" width="1" height="1" fill="#FFF19B" />
<rect x="202" y="7" width="3" height="18" fill="#FFEE6D" />
<rect x="207" y="7" width="4" height="2" fill="#FFF19B" />
<rect x="231" y="7" width="3" height="16" fill="#FFEE6D" />
<rect x="234" y="7" width="1" height="2" fill="#FFF19B" />
<rect x="237" y="7" width="2" height="3" fill="#FFF19B" />
<rect x="239" y="7" width="4" height="1" fill="#FFFEE8" />
<rect x="243" y="7" width="2" height="5" fill="#FFF19B" />
<rect x="264" y="7" width="2" height="17" fill="#FFEE6D" />
<rect x="269" y="7" width="1" height="6" fill="#FFF19B" />
<rect x="270" y="7" width="5" height="1" fill="#FFFEE8" />
<rect x="278" y="7" width="1" height="7" fill="#FFF19B" />
<rect x="4" y="8" width="1" height="2" fill="#FFF19B" />
<rect x="6" y="8" width="1" height="1" fill="#FFF19B" />
<rect x="7" y="8" width="1" height="15" fill="#FFEE6D" />
<rect x="14" y="8" width="2" height="6" fill="#FFF19B" />
<rect x="16" y="8" width="4" height="1" fill="#FFFEE8" />
<rect x="20" y="8" width="2" height="6" fill="#FFF19B" />
<rect x="26" y="8" width="1" height="2" fill="#FFF19B" />
<rect x="36" y="8" width="1" height="11" fill="#FFEE6D" />
<rect x="47" y="8" width="4" height="3" fill="#FFF19B" />
<rect x="58" y="8" width="1" height="1" fill="#FFF19B" />
<rect x="68" y="8" width="1" height="11" fill="#FFEE6D" />
<rect x="77" y="8" width="2" height="18" fill="#FFEE6D" />
<rect x="90" y="8" width="1" height="3" fill="#FFF19B" />
<rect x="100" y="8" width="1" height="2" fill="#FFF19B" />
<rect x="102" y="8" width="2" height="14" fill="#FFEE6D" />
<rect x="120" y="8" width="3" height="1" fill="#FFEE6D" />
<rect x="132" y="8" width="1" height="1" fill="#FFF19B" />
<rect x="134" y="8" width="2" height="14" fill="#FFEE6D" />
<rect x="150" y="8" width="2" height="1" fill="#FFEE6D" />
<rect x="164" y="8" width="1" height="2" fill="#FFF19B" />
<rect x="166" y="8" width="2" height="14" fill="#FFEE6D" />
<rect x="184" y="8" width="3" height="1" fill="#FFEE6D" />
<rect x="196" y="8" width="1" height="11" fill="#FFEE6D" />
<rect x="205" y="8" width="2" height="18" fill="#FFEE6D" />
<rect x="218" y="8" width="1" height="3" fill="#FFF19B" />
<rect x="228" y="8" width="1" height="11" fill="#FFEE6D" />
<rect x="239" y="8" width="4" height="3" fill="#FFF19B" />
<rect x="250" y="8" width="1" height="1" fill="#FFF19B" />
<rect x="260" y="8" width="1" height="2" fill="#FFF19B" />
<rect x="262" y="8" width="1" height="1" fill="#FFF19B" />
<rect x="263" y="8" width="1" height="15" fill="#FFEE6D" />
<rect x="270" y="8" width="2" height="6" fill="#FFF19B" />
<rect x="272" y="8" width="4" height="1" fill="#FFFEE8" />
<rect x="276" y="8" width="2" height="6" fill="#FFF19B" />
<rect x="282" y="8" width="1" height="2" fill="#FFF19B" />
<rect x="3" y="9" width="1" height="1" fill="#FFF19B" />
<rect x="5" y="9" width="2" height="12" fill="#FFEE6D" />
<rect x="16" y="9" width="4" height="6" fill="#FFF19B" />
<rect x="27" y="9" width="1" height="11" fill="#FFEE6D" />
<rect x="35" y="9" width="1" height="8" fill="#FFEE6D" />
<rect x="42" y="9" width="2" height="16" fill="#FFEE6D" />
<rect x="58" y="9" width="2" height="5" fill="#FFEE6D" />
<rect x="67" y="9" width="1" height="8" fill="#FFEE6D" />
<rect x="79" y="9" width="1" height="18" fill="#FFEE6D" />
<rect x="80" y="9" width="3" height="1" fill="#FFF19B" />
<rect x="83" y="9" width="5" height="4" fill="#FFEE6D" />
<rect x="88" y="9" width="1" height="1" fill="#FFF19B" />
<rect x="91" y="9" width="1" height="3" fill="#FFF19B" />
<rect x="99" y="9" width="1" height="2" fill="#FFF19B" />
<rect x="101" y="9" width="1" height="12" fill="#FFEE6D" />
<rect x="120" y="9" width="2" height="1" fill="#FFEE6D" />
<rect x="131" y="9" width="3" height="8" fill="#FFEE6D" />
<rect x="150" y="9" width="1" height="1" fill="#FFEE6D" />
<rect x="163" y="9" width="1" height="2" fill="#FFF19B" />
<rect x="165" y="9" width="1" height="12" fill="#FFEE6D" />
<rect x="184" y="9" width="2" height="1" fill="#FFEE6D" />
<rect x="195" y="9" width="1" height="8" fill="#FFEE6D" />
<rect x="207" y="9" width="1" height="18" fill="#FFEE6D" />
<rect x="208" y="9" width="3" height="1" fill="#FFF19B" />
<rect x="211" y="9" width="5" height="4" fill="#FFEE6D" />
<rect x="216" y="9" width="1" height="1" fill="#FFF19B" />
<rect x="219" y="9" width="1" height="3" fill="#FFF19B" />
<rect x="227" y="9" width="1" height="8" fill="#FFEE6D" />
<rect x="234" y="9" width="2" height="16" fill="#FFEE6D" />
<rect x="250" y="9" width="2" height="5" fill="#FFEE6D" />
<rect x="259" y="9" width="1" height="1" fill="#FFF19B" />
<rect x="261" y="9" width="2" height="12" fill="#FFEE6D" />
<rect x="272" y="9" width="4" height="6" fill="#FFF19B" />
<rect x="283" y="9" width="1" height="11" fill="#FFEE6D" />
<rect x="3" y="10" width="2" height="7" fill="#FFEE6D" />
<rect x="11" y="10" width="1" height="15" fill="#FFEE6D" />
<rect x="26" y="10" width="1" height="12" fill="#FFEE6D" />
<rect x="44" y="10" width="2" height="16" fill="#FFEE6D" />
<rect x="46" y="10" width="1" height="1" fill="#FFF19B" />
<rect x="55" y="10" width="3" height="5" fill="#FFEE6D" />
<rect x="80" y="10" width="3" height="5" fill="#FFEE6D" />
<rect x="88" y="10" width="2" height="3" fill="#FFEE6D" />
<rect x="100" y="10" width="1" height="9" fill="#FFEE6D" />
<rect x="164" y="10" width="1" height="9" fill="#FFEE6D" />
<rect x="208" y="10" width="3" height="5" fill="#FFEE6D" />
<rect x="216" y="10" width="2" height="3" fill="#FFEE6D" />
<rect x="236" y="10" width="2" height="16" fill="#FFEE6D" />
<rect x="238" y="10" width="1" height="1" fill="#FFF19B" />
<rect x="247" y="10" width="3" height="5" fill="#FFEE6D" />
<rect x="259" y="10" width="2" height="7" fill="#FFEE6D" />
<rect x="267" y="10" width="1" height="15" fill="#FFEE6D" />
<rect x="282" y="10" width="1" height="12" fill="#FFEE6D" />
<rect x="46" y="11" width="2" height="16" fill="#FFEE6D" />
<rect x="48" y="11" width="3" height="1" fill="#FFF19B" />
<rect x="53" y="11" width="2" height="4" fill="#FFEE6D" />
<rect x="90" y="11" width="1" height="1" fill="#FFEE6D" />
<rect x="99" y="11" width="1" height="6" fill="#FFEE6D" />
<rect x="113" y="11" width="6" height="1" fill="#FFEE6D" />
<rect x="148" y="11" width="1" height="1" fill="#FFEE6D" />
<rect x="163" y="11" width="1" height="6" fill="#FFEE6D" />
<rect x="177" y="11" width="6" height="1" fill="#FFEE6D" />
<rect x="218" y="11" width="1" height="1" fill="#FFEE6D" />
<rect x="238" y="11" width="2" height="16" fill="#FFEE6D" />
<rect x="240" y="11" width="3" height="1" fill="#FFF19B" />
<rect x="245" y="11" width="2" height="4" fill="#FFEE6D" />
<rect x="2" y="12" width="1" height="7" fill="#F0B541" />
<rect x="12" y="12" width="1" height="14" fill="#FFEE6D" />
<rect x="25" y="12" width="1" height="11" fill="#FFEE6D" />
<rect x="28" y="12" width="1" height="7" fill="#FFEE6D" />
<rect x="34" y="12" width="1" height="7" fill="#F0B541" />
<rect x="48" y="12" width="5" height="3" fill="#FFEE6D" />
<rect x="60" y="12" width="1" height="2" fill="#FFEE6D" />
<rect x="66" y="12" width="1" height="7" fill="#F0B541" />
<rect x="98" y="12" width="1" height="7" fill="#F0B541" />
<rect x="113" y="12" width="4" height="1" fill="#FFEE6D" />
<rect x="130" y="12" width="1" height="7" fill="#F0B541" />
<rect x="146" y="12" width="1" height="1" fill="#FFEE6D" />
<rect x="162" y="12" width="1" height="7" fill="#F0B541" />
<rect x="177" y="12" width="4" height="1" fill="#FFEE6D" />
<rect x="194" y="12" width="1" height="7" fill="#F0B541" />
<rect x="226" y="12" width="1" height="7" fill="#F0B541" />
<rect x="240" y="12" width="5" height="3" fill="#FFEE6D" />
<rect x="252" y="12" width="1" height="2" fill="#FFEE6D" />
<rect x="258" y="12" width="1" height="7" fill="#F0B541" />
<rect x="268" y="12" width="1" height="14" fill="#FFEE6D" />
<rect x="281" y="12" width="1" height="11" fill="#FFEE6D" />
<rect x="284" y="12" width="1" height="7" fill="#FFEE6D" />
<rect x="13" y="13" width="1" height="13" fill="#FFEE6D" />
<rect x="23" y="13" width="2" height="11" fill="#FFEE6D" />
<rect x="83" y="13" width="3" height="1" fill="#FFEE6D" />
<rect x="113" y="13" width="2" height="1" fill="#FFEE6D" />
<rect x="177" y="13" width="2" height="1" fill="#FFEE6D" />
<rect x="211" y="13" width="3" height="1" fill="#FFEE6D" />
<rect x="269" y="13" width="1" height="13" fill="#FFEE6D" />
<rect x="279" y="13" width="2" height="11" fill="#FFEE6D" />
<rect x="14" y="14" width="2" height="13" fill="#FFEE6D" />
<rect x="20" y="14" width="3" height="11" fill="#FFEE6D" />
<rect x="113" y="14" width="1" height="1" fill="#FFEE6D" />
<rect x="140" y="14" width="5" height="1" fill="#FFEE6D" />
<rect x="177" y="14" width="1" height="1" fill="#FFEE6D" />
<rect x="270" y="14" width="2" height="13" fill="#FFEE6D" />
<rect x="276" y="14" width="3" height="11" fill="#FFEE6D" />
<rect x="16" y="15" width="4" height="11" fill="#FFEE6D" />
<rect x="48" y="15" width="4" height="11" fill="#FFEE6D" />
<rect x="108" y="15" width="4" height="11" fill="#FFEE6D" />
<rect x="140" y="15" width="4" height="11" fill="#FFEE6D" />
<rect x="172" y="15" width="4" height="11" fill="#FFEE6D" />
<rect x="240" y="15" width="4" height="11" fill="#FFEE6D" />
<rect x="272" y="15" width="4" height="11" fill="#FFEE6D" />
<rect x="52" y="16" width="6" height="7" fill="#FFEE6D" />
<rect x="80" y="16" width="3" height="10" fill="#FFEE6D" />
<rect x="112" y="16" width="2" height="11" fill="#FFEE6D" />
<rect x="144" y="16" width="1" height="11" fill="#FFEE6D" />
<rect x="176" y="16" width="2" height="11" fill="#FFEE6D" />
<rect x="208" y="16" width="3" height="10" fill="#FFEE6D" />
<rect x="244" y="16" width="6" height="7" fill="#FFEE6D" />
<rect x="3" y="17" width="1" height="2" fill="#FFCD50" />
<rect x="4" y="17" width="1" height="2" fill="#FFEE6D" />
<rect x="35" y="17" width="1" height="2" fill="#FFCD50" />
<rect x="58" y="17" width="2" height="2" fill="#FFEE6D" />
<rect x="60" y="17" width="1" height="2" fill="#FFCD50" />
<rect x="67" y="17" width="1" height="2" fill="#FFCD50" />
<rect x="83" y="17" width="3" height="9" fill="#FFEE6D" />
<rect x="99" y="17" width="1" height="2" fill="#FFCD50" />
<rect x="114" y="17" width="1" height="9" fill="#FFEE6D" />
<rect x="131" y="17" width="1" height="2" fill="#FFCD50" />
<rect x="132" y="17" width="2" height="2" fill="#FFEE6D" />
<rect x="145" y="17" width="1" height="10" fill="#FFEE6D" />
<rect x="163" y="17" width="1" height="2" fill="#FFCD50" />
<rect x="178" y="17" width="1" height="9" fill="#FFEE6D" />
<rect x="195" y="17" width="1" height="2" fill="#FFCD50" />
<rect x="211" y="17" width="3" height="9" fill="#FFEE6D" />
<rect x="227" y="17" width="1" height="2" fill="#FFCD50" />
<rect x="250" y="17" width="2" height="2" fill="#FFEE6D" />
<rect x="252" y="17" width="1" height="2" fill="#FFCD50" />
<rect x="259" y="17" width="1" height="2" fill="#FFCD50" />
<rect x="260" y="17" width="1" height="2" fill="#FFEE6D" />
<rect x="86" y="18" width="4" height="5" fill="#FFEE6D" />
<rect x="115" y="18" width="2" height="8" fill="#FFEE6D" />
<rect x="146" y="18" width="1" height="8" fill="#FFEE6D" />
<rect x="179" y="18" width="2" height="8" fill="#FFEE6D" />
<rect x="214" y="18" width="4" height="5" fill="#FFEE6D" />
<rect x="3" y="19" width="1" height="3" fill="#F0B541" />
<rect x="4" y="19" width="1" height="2" fill="#FFCD50" />
<rect x="35" y="19" width="1" height="3" fill="#F0B541" />
<rect x="36" y="19" width="1" height="2" fill="#FFCD50" />
<rect x="58" y="19" width="1" height="3" fill="#FFEE6D" />
<rect x="59" y="19" width="1" height="3" fill="#FFCD50" />
<rect x="67" y="19" width="1" height="3" fill="#F0B541" />
<rect x="68" y="19" width="1" height="2" fill="#FFCD50" />
<rect x="90" y="19" width="1" height="3" fill="#FFEE6D" />
<rect x="91" y="19" width="1" height="3" fill="#FFCD50" />
<rect x="99" y="19" width="1" height="3" fill="#F0B541" />
<rect x="100" y="19" width="1" height="2" fill="#FFCD50" />
<rect x="117" y="19" width="2" height="6" fill="#FFEE6D" />
<rect x="131" y="19" width="1" height="3" fill="#F0B541" />
<rect x="132" y="19" width="1" height="2" fill="#FFCD50" />
<rect x="133" y="19" width="1" height="2" fill="#FFEE6D" />
<rect x="147" y="19" width="2" height="7" fill="#FFEE6D" />
<rect x="163" y="19" width="1" height="3" fill="#F0B541" />
<rect x="164" y="19" width="1" height="2" fill="#FFCD50" />
<rect x="181" y="19" width="2" height="6" fill="#FFEE6D" />
<rect x="195" y="19" width="1" height="3" fill="#F0B541" />
<rect x="196" y="19" width="1" height="2" fill="#FFCD50" />
<rect x="218" y="19" width="1" height="3" fill="#FFEE6D" />
<rect x="219" y="19" width="1" height="3" fill="#FFCD50" />
<rect x="227" y="19" width="1" height="3" fill="#F0B541" />
<rect x="228" y="19" width="1" height="2" fill="#FFCD50" />
<rect x="250" y="19" width="1" height="3" fill="#FFEE6D" />
<rect x="251" y="19" width="1" height="3" fill="#FFCD50" />
<rect x="259" y="19" width="1" height="3" fill="#F0B541" />
<rect x="260" y="19" width="1" height="2" fill="#FFCD50" />
<rect x="27" y="20" width="1" height="2" fill="#FFCD50" />
<rect x="119" y="20" width="1" height="5" fill="#FFEE6D" />
<rect x="149" y="20" width="1" height="6" fill="#FFEE6D" />
<rect x="183" y="20" width="1" height="5" fill="#FFEE6D" />
<rect x="283" y="20" width="1" height="2" fill="#FFCD50" />
<rect x="4" y="21" width="1" height="2" fill="#F0B541" />
<rect x="5" y="21" width="1" height="1" fill="#FFCD50" />
<rect x="6" y="21" width="1" height="1" fill="#FFEE6D" />
<rect x="36" y="21" width="1" height="2" fill="#F0B541" />
<rect x="37" y="21" width="1" height="1" fill="#FFCD50" />
<rect x="38" y="21" width="1" height="1" fill="#FFEE6D" />
<rect x="68" y="21" width="1" height="2" fill="#F0B541" />
<rect x="69" y="21" width="1" height="1" fill="#FFCD50" />
<rect x="70" y="21" width="4" height="1" fill="#FFEE6D" />
<rect x="100" y="21" width="1" height="2" fill="#F0B541" />
<rect x="101" y="21" width="1" height="1" fill="#FFCD50" />
<rect x="120" y="21" width="2" height="2" fill="#FFEE6D" />
<rect x="132" y="21" width="1" height="2" fill="#F0B541" />
<rect x="133" y="21" width="1" height="1" fill="#FFCD50" />
<rect x="150" y="21" width="1" height="4" fill="#FFEE6D" />
<rect x="164" y="21" width="1" height="2" fill="#F0B541" />
<rect x="165" y="21" width="1" height="1" fill="#FFCD50" />
<rect x="184" y="21" width="2" height="2" fill="#FFEE6D" />
<rect x="196" y="21" width="1" height="2" fill="#F0B541" />
<rect x="197" y="21" width="1" height="1" fill="#FFCD50" />
<rect x="198" y="21" width="4" height="1" fill="#FFEE6D" />
<rect x="228" y="21" width="1" height="2" fill="#F0B541" />
<rect x="229" y="21" width="1" height="1" fill="#FFCD50" />
<rect x="230" y="21" width="1" height="1" fill="#FFEE6D" />
<rect x="260" y="21" width="1" height="2" fill="#F0B541" />
<rect x="261" y="21" width="1" height="1" fill="#FFCD50" />
<rect x="262" y="21" width="1" height="1" fill="#FFEE6D" />
<rect x="5" y="22" width="1" height="3" fill="#F0B541" />
<rect x="6" y="22" width="1" height="2" fill="#FFCD50" />
<rect x="26" y="22" width="1" height="1" fill="#FFCD50" />
<rect x="37" y="22" width="1" height="3" fill="#F0B541" />
<rect x="38" y="22" width="1" height="2" fill="#FFCD50" />
<rect x="58" y="22" width="1" height="1" fill="#FFCD50" />
<rect x="69" y="22" width="1" height="3" fill="#F0B541" />
<rect x="70" y="22" width="1" height="2" fill="#FFCD50" />
<rect x="71" y="22" width="3" height="1" fill="#FFEE6D" />
<rect x="90" y="22" width="1" height="1" fill="#FFCD50" />
<rect x="101" y="22" width="1" height="3" fill="#F0B541" />
<rect x="102" y="22" width="1" height="2" fill="#FFCD50" />
<rect x="103" y="22" width="1" height="1" fill="#FFEE6D" />
<rect x="122" y="22" width="1" height="1" fill="#FFCD50" />
<rect x="133" y="22" width="1" height="3" fill="#F0B541" />
<rect x="134" y="22" width="1" height="2" fill="#FFCD50" />
<rect x="135" y="22" width="1" height="1" fill="#FFEE6D" />
<rect x="151" y="22" width="1" height="3" fill="#FFEE6D" />
<rect x="165" y="22" width="1" height="3" fill="#F0B541" />
<rect x="166" y="22" width="1" height="2" fill="#FFCD50" />
<rect x="167" y="22" width="1" height="1" fill="#FFEE6D" />
<rect x="186" y="22" width="1" height="1" fill="#FFCD50" />
<rect x="197" y="22" width="1" height="3" fill="#F0B541" />
<rect x="198" y="22" width="1" height="2" fill="#FFCD50" />
<rect x="199" y="22" width="3" height="1" fill="#FFEE6D" />
<rect x="218" y="22" width="1" height="1" fill="#FFCD50" />
<rect x="229" y="22" width="1" height="3" fill="#F0B541" />
<rect x="230" y="22" width="1" height="2" fill="#FFCD50" />
<rect x="250" y="22" width="1" height="1" fill="#FFCD50" />
<rect x="261" y="22" width="1" height="3" fill="#F0B541" />
<rect x="262" y="22" width="1" height="2" fill="#FFCD50" />
<rect x="282" y="22" width="1" height="1" fill="#FFCD50" />
<rect x="7" y="23" width="1" height="2" fill="#FFCD50" />
<rect x="25" y="23" width="1" height="2" fill="#FFCD50" />
<rect x="39" y="23" width="1" height="2" fill="#FFCD50" />
<rect x="40" y="23" width="2" height="1" fill="#FFEE6D" />
<rect x="52" y="23" width="5" height="1" fill="#FFEE6D" />
<rect x="57" y="23" width="1" height="2" fill="#FFCD50" />
<rect x="71" y="23" width="1" height="2" fill="#FFCD50" />
<rect x="72" y="23" width="2" height="1" fill="#FFEE6D" />
<rect x="86" y="23" width="3" height="1" fill="#FFEE6D" />
<rect x="89" y="23" width="1" height="2" fill="#FFCD50" />
<rect x="103" y="23" width="1" height="2" fill="#FFCD50" />
<rect x="120" y="23" width="1" height="1" fill="#FFEE6D" />
<rect x="121" y="23" width="1" height="2" fill="#FFCD50" />
<rect x="135" y="23" width="1" height="2" fill="#FFCD50" />
<rect x="152" y="23" width="1" height="1" fill="#FFEE6D" />
<rect x="167" y="23" width="1" height="2" fill="#FFCD50" />
<rect x="184" y="23" width="1" height="1" fill="#FFEE6D" />
<rect x="185" y="23" width="1" height="2" fill="#FFCD50" />
<rect x="199" y="23" width="1" height="2" fill="#FFCD50" />
<rect x="200" y="23" width="2" height="1" fill="#FFEE6D" />
<rect x="214" y="23" width="3" height="1" fill="#FFEE6D" />
<rect x="217" y="23" width="1" height="2" fill="#FFCD50" />
<rect x="231" y="23" width="1" height="2" fill="#FFCD50" />
<rect x="232" y="23" width="2" height="1" fill="#FFEE6D" />
<rect x="244" y="23" width="5" height="1" fill="#FFEE6D" />
<rect x="249" y="23" width="1" height="2" fill="#FFCD50" />
<rect x="263" y="23" width="1" height="2" fill="#FFCD50" />
<rect x="281" y="23" width="1" height="2" fill="#FFCD50" />
<rect x="6" y="24" width="1" height="2" fill="#F0B541" />
<rect x="8" y="24" width="2" height="2" fill="#FFCD50" />
<rect x="23" y="24" width="1" height="1" fill="#FFEE6D" />
<rect x="24" y="24" width="1" height="2" fill="#FFCD50" />
<rect x="38" y="24" width="1" height="2" fill="#F0B541" />
<rect x="40" y="24" width="2" height="2" fill="#FFCD50" />
<rect x="52" y="24" width="4" height="1" fill="#FFEE6D" />
<rect x="56" y="24" width="1" height="2" fill="#FFCD50" />
<rect x="70" y="24" width="1" height="2" fill="#F0B541" />
<rect x="72" y="24" width="2" height="2" fill="#FFCD50" />
<rect x="86" y="24" width="2" height="1" fill="#FFEE6D" />
<rect x="88" y="24" width="1" height="2" fill="#FFCD50" />
<rect x="102" y="24" width="1" height="2" fill="#F0B541" />
<rect x="104" y="24" width="2" height="2" fill="#FFCD50" />
<rect x="106" y="24" width="2" height="1" fill="#FFEE6D" />
<rect x="120" y="24" width="1" height="2" fill="#FFCD50" />
<rect x="134" y="24" width="1" height="2" fill="#F0B541" />
<rect x="136" y="24" width="2" height="2" fill="#FFCD50" />
<rect x="138" y="24" width="2" height="1" fill="#FFEE6D" />
<rect x="152" y="24" width="2" height="1" fill="#FFCD50" />
<rect x="166" y="24" width="1" height="2" fill="#F0B541" />
<rect x="168" y="24" width="2" height="2" fill="#FFCD50" />
<rect x="170" y="24" width="2" height="1" fill="#FFEE6D" />
<rect x="184" y="24" width="1" height="2" fill="#FFCD50" />
<rect x="198" y="24" width="1" height="2" fill="#F0B541" />
<rect x="200" y="24" width="2" height="2" fill="#FFCD50" />
<rect x="214" y="24" width="2" height="1" fill="#FFEE6D" />
<rect x="216" y="24" width="1" height="2" fill="#FFCD50" />
<rect x="230" y="24" width="1" height="2" fill="#F0B541" />
<rect x="232" y="24" width="2" height="2" fill="#FFCD50" />
<rect x="244" y="24" width="4" height="1" fill="#FFEE6D" />
<rect x="248" y="24" width="1" height="2" fill="#FFCD50" />
<rect x="262" y="24" width="1" height="2" fill="#F0B541" />
<rect x="264" y="24" width="2" height="2" fill="#FFCD50" />
<rect x="279" y="24" width="1" height="1" fill="#FFEE6D" />
<rect x="280" y="24" width="1" height="2" fill="#FFCD50" />
<rect x="7" y="25" width="1" height="1" fill="#F0B541" />
<rect x="10" y="25" width="2" height="2" fill="#FFCD50" />
<rect x="20" y="25" width="2" height="1" fill="#FFEE6D" />
<rect x="22" y="25" width="2" height="1" fill="#FFCD50" />
<rect x="39" y="25" width="1" height="1" fill="#F0B541" />
<rect x="42" y="25" width="2" height="2" fill="#FFCD50" />
<rect x="52" y="25" width="2" height="1" fill="#FFEE6D" />
<rect x="54" y="25" width="2" height="1" fill="#FFCD50" />
<rect x="71" y="25" width="1" height="1" fill="#F0B541" />
<rect x="74" y="25" width="2" height="2" fill="#FFCD50" />
<rect x="76" y="25" width="1" height="1" fill="#FFEE6D" />
<rect x="86" y="25" width="2" height="1" fill="#FFCD50" />
<rect x="103" y="25" width="1" height="1" fill="#F0B541" />
<rect x="106" y="25" width="2" height="2" fill="#FFCD50" />
<rect x="117" y="25" width="1" height="1" fill="#FFEE6D" />
<rect x="118" y="25" width="2" height="1" fill="#FFCD50" />
<rect x="135" y="25" width="1" height="1" fill="#F0B541" />
<rect x="138" y="25" width="2" height="2" fill="#FFCD50" />
<rect x="150" y="25" width="3" height="1" fill="#FFCD50" />
<rect x="167" y="25" width="1" height="1" fill="#F0B541" />
<rect x="170" y="25" width="2" height="2" fill="#FFCD50" />
<rect x="181" y="25" width="1" height="1" fill="#FFEE6D" />
<rect x="182" y="25" width="2" height="1" fill="#FFCD50" />
<rect x="199" y="25" width="1" height="1" fill="#F0B541" />
<rect x="202" y="25" width="2" height="2" fill="#FFCD50" />
<rect x="204" y="25" width="1" height="1" fill="#FFEE6D" />
<rect x="214" y="25" width="2" height="1" fill="#FFCD50" />
<rect x="231" y="25" width="1" height="1" fill="#F0B541" />
<rect x="234" y="25" width="2" height="2" fill="#FFCD50" />
<rect x="244" y="25" width="2" height="1" fill="#FFEE6D" />
<rect x="246" y="25" width="2" height="1" fill="#FFCD50" />
<rect x="263" y="25" width="1" height="1" fill="#F0B541" />
<rect x="266" y="25" width="2" height="2" fill="#FFCD50" />
<rect x="276" y="25" width="2" height="1" fill="#FFEE6D" />
<rect x="278" y="25" width="2" height="1" fill="#FFCD50" />
<rect x="8" y="26" width="2" height="1" fill="#F0B541" />
<rect x="12" y="26" width="2" height="2" fill="#FFCD50" />
<rect x="16" y="26" width="2" height="1" fill="#FFEE6D" />
<rect x="18" y="26" width="5" height="1" fill="#FFCD50" />
<rect x="40" y="26" width="2" height="1" fill="#F0B541" />
<rect x="44" y="26" width="2" height="2" fill="#FFCD50" />
<rect x="48" y="26" width="2" height="1" fill="#FFEE6D" />
<rect x="50" y="26" width="5" height="1" fill="#FFCD50" />
<rect x="72" y="26" width="2" height="1" fill="#F0B541" />
<rect x="76" y="26" width="2" height="2" fill="#FFCD50" />
<rect x="78" y="26" width="1" height="1" fill="#FFEE6D" />
<rect x="80" y="26" width="2" height="1" fill="#FFEE6D" />
<rect x="82" y="26" width="5" height="1" fill="#FFCD50" />
<rect x="104" y="26" width="2" height="1" fill="#F0B541" />
<rect x="108" y="26" width="2" height="2" fill="#FFCD50" />
<rect x="110" y="26" width="2" height="1" fill="#FFEE6D" />
<rect x="114" y="26" width="5" height="1" fill="#FFCD50" />
<rect x="136" y="26" width="2" height="1" fill="#F0B541" />
<rect x="140" y="26" width="2" height="2" fill="#FFCD50" />
<rect x="142" y="26" width="2" height="1" fill="#FFEE6D" />
<rect x="146" y="26" width="5" height="1" fill="#FFCD50" />
<rect x="168" y="26" width="2" height="1" fill="#F0B541" />
<rect x="172" y="26" width="2" height="2" fill="#FFCD50" />
<rect x="174" y="26" width="2" height="1" fill="#FFEE6D" />
<rect x="178" y="26" width="5" height="1" fill="#FFCD50" />
<rect x="200" y="26" width="2" height="1" fill="#F0B541" />
<rect x="204" y="26" width="2" height="2" fill="#FFCD50" />
<rect x="206" y="26" width="1" height="1" fill="#FFEE6D" />
<rect x="208" y="26" width="2" height="1" fill="#FFEE6D" />
<rect x="210" y="26" width="5" height="1" fill="#FFCD50" />
<rect x="232" y="26" width="2" height="1" fill="#F0B541" />
<rect x="236" y="26" width="2" height="2" fill="#FFCD50" />
<rect x="240" y="26" width="2" height="1" fill="#FFEE6D" />
<rect x="242" y="26" width="5" height="1" fill="#FFCD50" />
<rect x="264" y="26" width="2" height="1" fill="#F0B541" />
<rect x="268" y="26" width="2" height="2" fill="#FFCD50" />
<rect x="272" y="26" width="2" height="1" fill="#FFEE6D" />
<rect x="274" y="26" width="5" height="1" fill="#FFCD50" />
<rect x="9" y="27" width="3" height="1" fill="#F0B541" />
<rect x="14" y="27" width="5" height="1" fill="#FFCD50" />
<rect x="19" y="27" width="3" height="1" fill="#F0B541" />
<rect x="41" y="27" width="3" height="1" fill="#F0B541" />
<rect x="46" y="27" width="5" height="1" fill="#FFCD50" />
<rect x="51" y="27" width="3" height="1" fill="#F0B541" />
<rect x="73" y="27" width="3" height="1" fill="#F0B541" />
<rect x="78" y="27" width="5" height="1" fill="#FFCD50" />
<rect x="83" y="27" width="3" height="1" fill="#F0B541" />
<rect x="105" y="27" width="3" height="1" fill="#F0B541" />
<rect x="110" y="27" width="5" height="1" fill="#FFCD50" />
<rect x="115" y="27" width="3" height="1" fill="#F0B541" />
<rect x="137" y="27" width="3" height="1" fill="#F0B541" />
<rect x="142" y="27" width="5" height="1" fill="#FFCD50" />
<rect x="147" y="27" width="3" height="1" fill="#F0B541" />
<rect x="169" y="27" width="3" height="1" fill="#F0B541" />
<rect x="174" y="27" width="5" height="1" fill="#FFCD50" />
<rect x="179" y="27" width="3" height="1" fill="#F0B541" />
<rect x="201" y="27" width="3" height="1" fill="#F0B541" />
<rect x="206" y="27" width="5" height="1" fill="#FFCD50" />
<rect x="211" y="27" width="3" height="1" fill="#F0B541" />
<rect x="233" y="27" width="3" height="1" fill="#F0B541" />
<rect x="238" y="27" width="5" height="1" fill="#FFCD50" />
<rect x="243" y="27" width="3" height="1" fill="#F0B541" />
<rect x="265" y="27" width="3" height="1" fill="#F0B541" />
<rect x="270" y="27" width="5" height="1" fill="#FFCD50" />
<rect x="275" y="27" width="3" height="1" fill="#F0B541" />
<rect x="12" y="28" width="7" height="1" fill="#F0B541" />
<rect x="44" y="28" width="7" height="1" fill="#F0B541" />
<rect x="76" y="28" width="7" height="1" fill="#F0B541" />
<rect x="108" y="28" width="7" height="1" fill="#F0B541" />
<rect x="140" y="28" width="7" height="1" fill="#F0B541" />
<rect x="172" y="28" width="7" height="1" fill="#F0B541" />
<rect x="204" y="28" width="7" height="1" fill="#F0B541" />
<rect x="236" y="28" width="7" height="1" fill="#F0B541" />
<rect x="268" y="28" width="7" height="1" fill="#F0B541" />
</svg>