<?xml version="1.0" encoding="UTF-8" ?>
<svg version="1.1" width="64" height="25" xmlns="http://www.w3.org/2000/svg" shape-rendering="crispEdges">
<rect x="6" y="0" width="1" height="5" fill="#FBFF86" />
<rect x="57" y="0" width="1" height="3" fill="#FBFF86" />
<rect x="5" y="1" width="1" height="6" fill="#FBFF86" />
<rect x="7" y="1" width="1" height="2" fill="#FBFF86" />
<rect x="56" y="1" width="1" height="3" fill="#FBFF86" />
<rect x="58" y="1" width="1" height="2" fill="#F79617" />
<rect x="8" y="2" width="1" height="1" fill="#F79617" />
<rect x="55" y="2" width="1" height="3" fill="#FBFF86" />
<rect x="4" y="3" width="1" height="5" fill="#FBFF86" />
<rect x="7" y="3" width="2" height="8" fill="#F9C22B" />
<rect x="9" y="3" width="1" height="1" fill="#F79617" />
<rect x="54" y="3" width="1" height="3" fill="#FBFF86" />
<rect x="57" y="3" width="2" height="9" fill="#F9C22B" />
<rect x="59" y="3" width="1" height="3" fill="#F79617" />
<rect x="3" y="4" width="1" height="6" fill="#FBFF86" />
<rect x="9" y="4" width="1" height="7" fill="#F9C22B" />
<rect x="10" y="4" width="1" height="1" fill="#F79617" />
<rect x="53" y="4" width="1" height="3" fill="#FBFF86" />
<rect x="56" y="4" width="1" height="7" fill="#F9C22B" />
<rect x="60" y="4" width="1" height="4" fill="#F79617" />
<rect x="6" y="5" width="1" height="7" fill="#F9C22B" />
<rect x="10" y="5" width="1" height="6" fill="#F9C22B" />
<rect x="11" y="5" width="2" height="1" fill="#F79617" />
<rect x="51" y="5" width="2" height="2" fill="#FBFF86" />
<rect x="55" y="5" width="1" height="6" fill="#F9C22B" />
<rect x="11" y="6" width="3" height="5" fill="#F9C22B" />
<rect x="14" y="6" width="1" height="1" fill="#F79617" />
<rect x="49" y="6" width="2" height="2" fill="#FBFF86" />
<rect x="54" y="6" width="1" height="5" fill="#F9C22B" />
<rect x="59" y="6" width="1" height="6" fill="#F9C22B" />
<rect x="2" y="7" width="1" height="4" fill="#FBFF86" />
<rect x="5" y="7" width="1" height="5" fill="#F9C22B" />
<rect x="14" y="7" width="2" height="4" fill="#F9C22B" />
<rect x="48" y="7" width="1" height="1" fill="#FBFF86" />
<rect x="51" y="7" width="1" height="1" fill="#FBFF86" />
<rect x="52" y="7" width="2" height="4" fill="#F9C22B" />
<rect x="61" y="7" width="1" height="3" fill="#F79617" />
<rect x="4" y="8" width="1" height="4" fill="#F9C22B" />
<rect x="16" y="8" width="3" height="1" fill="#F9C22B" />
<rect x="19" y="8" width="1" height="1" fill="#FBFF86" />
<rect x="44" y="8" width="1" height="1" fill="#FBFF86" />
<rect x="45" y="8" width="7" height="1" fill="#F9C22B" />
<rect x="60" y="8" width="1" height="5" fill="#F9C22B" />
<rect x="16" y="9" width="2" height="1" fill="#F9C22B" />
<rect x="18" y="9" width="1" height="1" fill="#FBFF86" />
<rect x="19" y="9" width="11" height="1" fill="#F9C22B" />
<rect x="30" y="9" width="1" height="1" fill="#FBFF86" />
<rect x="31" y="9" width="2" height="2" fill="#F9C22B" />
<rect x="33" y="9" width="1" height="1" fill="#FBFF86" />
<rect x="34" y="9" width="11" height="1" fill="#F9C22B" />
<rect x="45" y="9" width="1" height="1" fill="#FBFF86" />
<rect x="46" y="9" width="6" height="1" fill="#F9C22B" />
<rect x="1" y="10" width="1" height="1" fill="#FBFF86" />
<rect x="3" y="10" width="1" height="3" fill="#F9C22B" />
<rect x="16" y="10" width="1" height="1" fill="#F9C22B" />
<rect x="17" y="10" width="1" height="1" fill="#FBFF86" />
<rect x="18" y="10" width="11" height="1" fill="#F9C22B" />
<rect x="29" y="10" width="1" height="1" fill="#FBFF86" />
<rect x="30" y="10" width="1" height="1" fill="#F9C22B" />
<rect x="33" y="10" width="1" height="1" fill="#F9C22B" />
<rect x="34" y="10" width="1" height="1" fill="#FBFF86" />
<rect x="35" y="10" width="11" height="1" fill="#F9C22B" />
<rect x="46" y="10" width="1" height="1" fill="#FBFF86" />
<rect x="47" y="10" width="5" height="1" fill="#F9C22B" />
<rect x="61" y="10" width="1" height="5" fill="#F9C22B" />
<rect x="62" y="10" width="1" height="1" fill="#FBFF86" />
<rect x="0" y="11" width="3" height="4" fill="#F9C22B" />
<rect x="62" y="11" width="2" height="5" fill="#F9C22B" />
<rect x="0" y="15" width="2" height="1" fill="#F9C22B" />
<rect x="0" y="16" width="2" height="6" fill="#F79617" />
<rect x="62" y="16" width="2" height="6" fill="#F79617" />
<rect x="2" y="19" width="1" height="4" fill="#F79617" />
<rect x="61" y="19" width="1" height="4" fill="#F79617" />
<rect x="3" y="20" width="1" height="3" fill="#F79617" />
<rect x="60" y="20" width="1" height="3" fill="#F79617" />
<rect x="4" y="21" width="1" height="3" fill="#F79617" />
<rect x="59" y="21" width="1" height="3" fill="#F79617" />
<rect x="5" y="22" width="54" height="2" fill="#F79617" />
<rect x="8" y="24" width="48" height="1" fill="#F79617" />
</svg>