<?xml version="1.0" encoding="UTF-8" ?>
<svg version="1.1" width="15" height="25" xmlns="http://www.w3.org/2000/svg" shape-rendering="crispEdges">
<rect x="9" y="2" width="2" height="8" fill="#6F7070" />
<rect x="8" y="3" width="1" height="3" fill="#6F7070" />
<rect x="11" y="3" width="1" height="6" fill="#6F7070" />
<rect x="5" y="4" width="3" height="2" fill="#6F7070" />
<rect x="3" y="5" width="2" height="9" fill="#6F7070" />
<rect x="2" y="6" width="1" height="4" fill="#6F7070" />
<rect x="5" y="6" width="1" height="1" fill="#6F7070" />
<rect x="6" y="6" width="3" height="3" fill="#1E1E1E" />
<rect x="12" y="6" width="1" height="2" fill="#6F7070" />
<rect x="5" y="7" width="1" height="2" fill="#1E1E1E" />
<rect x="12" y="8" width="1" height="1" fill="#303030" />
<rect x="5" y="9" width="1" height="4" fill="#6F7070" />
<rect x="6" y="9" width="2" height="1" fill="#1E1E1E" />
<rect x="8" y="9" width="1" height="2" fill="#6F7070" />
<rect x="11" y="9" width="1" height="1" fill="#303030" />
<rect x="12" y="9" width="1" height="2" fill="#2E2E2E" />
<rect x="6" y="10" width="1" height="3" fill="#6F7070" />
<rect x="7" y="10" width="1" height="1" fill="#1E1E1E" />
<rect x="9" y="10" width="2" height="1" fill="#303030" />
<rect x="11" y="10" width="1" height="2" fill="#2E2E2E" />
<rect x="7" y="11" width="1" height="1" fill="#6F7070" />
<rect x="8" y="11" width="2" height="1" fill="#303030" />
<rect x="10" y="11" width="1" height="1" fill="#2E2E2E" />
<rect x="12" y="11" width="1" height="1" fill="#2A2A2A" />
<rect x="7" y="12" width="1" height="2" fill="#303030" />
<rect x="8" y="12" width="2" height="1" fill="#2E2E2E" />
<rect x="10" y="12" width="2" height="1" fill="#2A2A2A" />
<rect x="12" y="12" width="1" height="3" fill="#292929" />
<rect x="5" y="13" width="2" height="1" fill="#303030" />
<rect x="8" y="13" width="2" height="1" fill="#6F7070" />
<rect x="10" y="13" width="1" height="1" fill="#2A2A2A" />
<rect x="11" y="13" width="1" height="2" fill="#292929" />
<rect x="13" y="13" width="1" height="1" fill="#292929" />
<rect x="4" y="14" width="2" height="1" fill="#303030" />
<rect x="6" y="14" width="2" height="2" fill="#2E2E2E" />
<rect x="8" y="14" width="1" height="2" fill="#6F7070" />
<rect x="9" y="14" width="1" height="1" fill="#292929" />
<rect x="10" y="14" width="1" height="1" fill="#6F7070" />
<rect x="13" y="14" width="1" height="3" fill="#232323" />
<rect x="5" y="15" width="1" height="1" fill="#2E2E2E" />
<rect x="9" y="15" width="2" height="1" fill="#272727" />
<rect x="11" y="15" width="1" height="1" fill="#6F7070" />
<rect x="12" y="15" width="1" height="1" fill="#232323" />
<rect x="6" y="16" width="2" height="1" fill="#2A2A2A" />
<rect x="8" y="16" width="1" height="2" fill="#232323" />
<rect x="9" y="16" width="2" height="1" fill="#6F7070" />
<rect x="11" y="16" width="2" height="7" fill="#1E1E1E" />
<rect x="7" y="17" width="1" height="1" fill="#292929" />
<rect x="9" y="17" width="2" height="5" fill="#1E1E1E" />
<rect x="10" y="22" width="1" height="2" fill="#1E1E1E" />
<rect x="11" y="23" width="1" height="1" fill="#1E1E1E" />
</svg>