<?xml version="1.0" encoding="UTF-8" ?>
<svg version="1.1" width="64" height="64" xmlns="http://www.w3.org/2000/svg" shape-rendering="crispEdges">
<rect x="0" y="0" width="18" height="1" fill="#323353" />
<rect x="18" y="0" width="28" height="1" fill="#323354" />
<rect x="46" y="0" width="18" height="1" fill="#323353" />
<rect x="0" y="1" width="17" height="1" fill="#323353" />
<rect x="17" y="1" width="5" height="1" fill="#323354" />
<rect x="22" y="1" width="4" height="1" fill="#343557" />
<rect x="26" y="1" width="4" height="1" fill="#36375A" />
<rect x="30" y="1" width="4" height="1" fill="#38395D" />
<rect x="34" y="1" width="4" height="1" fill="#36375A" />
<rect x="38" y="1" width="4" height="1" fill="#343557" />
<rect x="42" y="1" width="5" height="1" fill="#323354" />
<rect x="47" y="1" width="17" height="1" fill="#323353" />
<rect x="0" y="2" width="6" height="1" fill="#323353" />
<rect x="6" y="2" width="6" height="1" fill="#8FD3FF" />
<rect x="12" y="2" width="6" height="1" fill="#4D9BE6" />
<rect x="18" y="2" width="28" height="1" fill="#FBFF86" />
<rect x="46" y="2" width="6" height="1" fill="#4D9BE6" />
<rect x="52" y="2" width="6" height="1" fill="#8FD3FF" />
<rect x="58" y="2" width="6" height="1" fill="#323353" />
<rect x="0" y="3" width="5" height="1" fill="#323353" />
<rect x="5" y="3" width="6" height="1" fill="#8FD3FF" />
<rect x="11" y="3" width="3" height="1" fill="#4D9BE6" />
<rect x="14" y="3" width="10" height="1" fill="#FBFF86" />
<rect x="24" y="3" width="16" height="2" fill="#38395D" />
<rect x="40" y="3" width="10" height="1" fill="#FBFF86" />
<rect x="50" y="3" width="3" height="1" fill="#4D9BE6" />
<rect x="53" y="3" width="6" height="1" fill="#8FD3FF" />
<rect x="59" y="3" width="5" height="1" fill="#323353" />
<rect x="0" y="4" width="4" height="1" fill="#323353" />
<rect x="4" y="4" width="6" height="1" fill="#8FD3FF" />
<rect x="10" y="4" width="3" height="1" fill="#4D9BE6" />
<rect x="13" y="4" width="4" height="1" fill="#FBFF86" />
<rect x="17" y="4" width="1" height="1" fill="#343557" />
<rect x="18" y="4" width="4" height="1" fill="#36375A" />
<rect x="22" y="4" width="2" height="1" fill="#38395D" />
<rect x="40" y="4" width="2" height="1" fill="#38395D" />
<rect x="42" y="4" width="4" height="1" fill="#36375A" />
<rect x="46" y="4" width="1" height="1" fill="#343557" />
<rect x="47" y="4" width="4" height="1" fill="#FBFF86" />
<rect x="51" y="4" width="3" height="1" fill="#4D9BE6" />
<rect x="54" y="4" width="6" height="1" fill="#8FD3FF" />
<rect x="60" y="4" width="4" height="1" fill="#323353" />
<rect x="0" y="5" width="3" height="1" fill="#323353" />
<rect x="3" y="5" width="5" height="1" fill="#8FD3FF" />
<rect x="8" y="5" width="4" height="1" fill="#323353" />
<rect x="12" y="5" width="1" height="1" fill="#323354" />
<rect x="13" y="5" width="4" height="1" fill="#343557" />
<rect x="17" y="5" width="1" height="1" fill="#36375A" />
<rect x="18" y="5" width="3" height="1" fill="#37385B" />
<rect x="21" y="5" width="1" height="1" fill="#383A5E" />
<rect x="22" y="5" width="4" height="1" fill="#3A3C61" />
<rect x="26" y="5" width="4" height="1" fill="#3F4068" />
<rect x="30" y="5" width="4" height="1" fill="#40416A" />
<rect x="34" y="5" width="4" height="1" fill="#3F4068" />
<rect x="38" y="5" width="4" height="1" fill="#3A3C61" />
<rect x="42" y="5" width="1" height="1" fill="#383A5E" />
<rect x="43" y="5" width="3" height="1" fill="#37385B" />
<rect x="46" y="5" width="1" height="1" fill="#36375A" />
<rect x="47" y="5" width="4" height="1" fill="#343557" />
<rect x="51" y="5" width="1" height="1" fill="#323354" />
<rect x="52" y="5" width="4" height="1" fill="#323353" />
<rect x="56" y="5" width="5" height="1" fill="#8FD3FF" />
<rect x="61" y="5" width="3" height="1" fill="#323353" />
<rect x="0" y="6" width="2" height="11" fill="#323353" />
<rect x="2" y="6" width="5" height="1" fill="#8FD3FF" />
<rect x="7" y="6" width="4" height="1" fill="#323353" />
<rect x="11" y="6" width="3" height="1" fill="#343557" />
<rect x="14" y="6" width="1" height="1" fill="#353658" />
<rect x="15" y="6" width="3" height="1" fill="#37385B" />
<rect x="18" y="6" width="1" height="1" fill="#383A5E" />
<rect x="19" y="6" width="3" height="1" fill="#3A3C61" />
<rect x="22" y="6" width="4" height="1" fill="#3F4068" />
<rect x="26" y="6" width="4" height="1" fill="#40426B" />
<rect x="30" y="6" width="4" height="3" fill="#41436C" />
<rect x="34" y="6" width="4" height="1" fill="#40426B" />
<rect x="38" y="6" width="4" height="1" fill="#3F4068" />
<rect x="42" y="6" width="3" height="1" fill="#3A3C61" />
<rect x="45" y="6" width="1" height="1" fill="#383A5E" />
<rect x="46" y="6" width="3" height="1" fill="#37385B" />
<rect x="49" y="6" width="1" height="1" fill="#353658" />
<rect x="50" y="6" width="3" height="1" fill="#343557" />
<rect x="53" y="6" width="4" height="1" fill="#323353" />
<rect x="57" y="6" width="5" height="1" fill="#8FD3FF" />
<rect x="62" y="6" width="2" height="11" fill="#323353" />
<rect x="2" y="7" width="4" height="1" fill="#8FD3FF" />
<rect x="6" y="7" width="4" height="1" fill="#323353" />
<rect x="10" y="7" width="1" height="1" fill="#333455" />
<rect x="11" y="7" width="1" height="1" fill="#343557" />
<rect x="12" y="7" width="2" height="1" fill="#353658" />
<rect x="14" y="7" width="2" height="1" fill="#37385B" />
<rect x="16" y="7" width="2" height="1" fill="#383A5E" />
<rect x="18" y="7" width="2" height="1" fill="#3A3C61" />
<rect x="20" y="7" width="4" height="1" fill="#3F4068" />
<rect x="24" y="7" width="4" height="1" fill="#40426B" />
<rect x="28" y="7" width="2" height="2" fill="#41436C" />
<rect x="34" y="7" width="2" height="2" fill="#41436C" />
<rect x="36" y="7" width="4" height="1" fill="#40426B" />
<rect x="40" y="7" width="4" height="1" fill="#3F4068" />
<rect x="44" y="7" width="2" height="1" fill="#3A3C61" />
<rect x="46" y="7" width="2" height="1" fill="#383A5E" />
<rect x="48" y="7" width="2" height="1" fill="#37385B" />
<rect x="50" y="7" width="2" height="1" fill="#353658" />
<rect x="52" y="7" width="1" height="1" fill="#343557" />
<rect x="53" y="7" width="1" height="1" fill="#333455" />
<rect x="54" y="7" width="4" height="1" fill="#323353" />
<rect x="58" y="7" width="4" height="1" fill="#8FD3FF" />
<rect x="2" y="8" width="3" height="2" fill="#8FD3FF" />
<rect x="5" y="8" width="4" height="1" fill="#323353" />
<rect x="9" y="8" width="1" height="1" fill="#333455" />
<rect x="10" y="8" width="3" height="1" fill="#353658" />
<rect x="13" y="8" width="1" height="1" fill="#37385B" />
<rect x="14" y="8" width="3" height="1" fill="#383A5E" />
<rect x="17" y="8" width="1" height="1" fill="#3A3C61" />
<rect x="18" y="8" width="4" height="1" fill="#3F4068" />
<rect x="22" y="8" width="4" height="1" fill="#40426B" />
<rect x="26" y="8" width="2" height="1" fill="#41436C" />
<rect x="36" y="8" width="2" height="1" fill="#41436C" />
<rect x="38" y="8" width="4" height="1" fill="#40426B" />
<rect x="42" y="8" width="4" height="1" fill="#3F4068" />
<rect x="46" y="8" width="1" height="1" fill="#3A3C61" />
<rect x="47" y="8" width="3" height="1" fill="#383A5E" />
<rect x="50" y="8" width="1" height="1" fill="#37385B" />
<rect x="51" y="8" width="3" height="1" fill="#353658" />
<rect x="54" y="8" width="1" height="1" fill="#333455" />
<rect x="55" y="8" width="4" height="1" fill="#323353" />
<rect x="59" y="8" width="3" height="2" fill="#8FD3FF" />
<rect x="5" y="9" width="3" height="1" fill="#323353" />
<rect x="8" y="9" width="1" height="1" fill="#333455" />
<rect x="9" y="9" width="3" height="1" fill="#353658" />
<rect x="12" y="9" width="1" height="1" fill="#37385B" />
<rect x="13" y="9" width="3" height="1" fill="#383A5E" />
<rect x="16" y="9" width="1" height="1" fill="#3A3C61" />
<rect x="17" y="9" width="4" height="1" fill="#3F4068" />
<rect x="21" y="9" width="1" height="1" fill="#40426B" />
<rect x="22" y="9" width="3" height="1" fill="#42446E" />
<rect x="25" y="9" width="1" height="1" fill="#43456F" />
<rect x="26" y="9" width="4" height="1" fill="#454772" />
<rect x="30" y="9" width="4" height="4" fill="#474975" />
<rect x="34" y="9" width="4" height="1" fill="#454772" />
<rect x="38" y="9" width="1" height="1" fill="#43456F" />
<rect x="39" y="9" width="3" height="1" fill="#42446E" />
<rect x="42" y="9" width="1" height="1" fill="#40426B" />
<rect x="43" y="9" width="4" height="1" fill="#3F4068" />
<rect x="47" y="9" width="1" height="1" fill="#3A3C61" />
<rect x="48" y="9" width="3" height="1" fill="#383A5E" />
<rect x="51" y="9" width="1" height="1" fill="#37385B" />
<rect x="52" y="9" width="3" height="1" fill="#353658" />
<rect x="55" y="9" width="1" height="1" fill="#333455" />
<rect x="56" y="9" width="3" height="1" fill="#323353" />
<rect x="2" y="10" width="1" height="1" fill="#8FD3FF" />
<rect x="3" y="10" width="2" height="4" fill="#4D9BE6" />
<rect x="5" y="10" width="2" height="1" fill="#323353" />
<rect x="7" y="10" width="2" height="1" fill="#343557" />
<rect x="9" y="10" width="2" height="1" fill="#353658" />
<rect x="11" y="10" width="4" height="1" fill="#383A5E" />
<rect x="15" y="10" width="3" height="1" fill="#3F4068" />
<rect x="18" y="10" width="1" height="1" fill="#40426B" />
<rect x="19" y="10" width="3" height="1" fill="#42446E" />
<rect x="22" y="10" width="1" height="1" fill="#444671" />
<rect x="23" y="10" width="3" height="1" fill="#454772" />
<rect x="26" y="10" width="4" height="3" fill="#474975" />
<rect x="34" y="10" width="4" height="3" fill="#474975" />
<rect x="38" y="10" width="3" height="1" fill="#454772" />
<rect x="41" y="10" width="1" height="1" fill="#444671" />
<rect x="42" y="10" width="3" height="1" fill="#42446E" />
<rect x="45" y="10" width="1" height="1" fill="#40426B" />
<rect x="46" y="10" width="3" height="1" fill="#3F4068" />
<rect x="49" y="10" width="4" height="1" fill="#383A5E" />
<rect x="53" y="10" width="2" height="1" fill="#353658" />
<rect x="55" y="10" width="2" height="1" fill="#343557" />
<rect x="57" y="10" width="2" height="1" fill="#323353" />
<rect x="59" y="10" width="2" height="4" fill="#4D9BE6" />
<rect x="61" y="10" width="1" height="1" fill="#8FD3FF" />
<rect x="2" y="11" width="1" height="42" fill="#4D9BE6" />
<rect x="5" y="11" width="1" height="1" fill="#323353" />
<rect x="6" y="11" width="1" height="1" fill="#323354" />
<rect x="7" y="11" width="1" height="2" fill="#343557" />
<rect x="8" y="11" width="2" height="1" fill="#353658" />
<rect x="10" y="11" width="1" height="1" fill="#37385B" />
<rect x="11" y="11" width="3" height="1" fill="#383A5E" />
<rect x="14" y="11" width="1" height="1" fill="#3D3E65" />
<rect x="15" y="11" width="1" height="1" fill="#3F4068" />
<rect x="16" y="11" width="2" height="1" fill="#40426B" />
<rect x="18" y="11" width="2" height="1" fill="#42446E" />
<rect x="20" y="11" width="2" height="1" fill="#444671" />
<rect x="22" y="11" width="2" height="1" fill="#454772" />
<rect x="24" y="11" width="2" height="3" fill="#474975" />
<rect x="38" y="11" width="2" height="3" fill="#474975" />
<rect x="40" y="11" width="2" height="1" fill="#454772" />
<rect x="42" y="11" width="2" height="1" fill="#444671" />
<rect x="44" y="11" width="2" height="1" fill="#42446E" />
<rect x="46" y="11" width="2" height="1" fill="#40426B" />
<rect x="48" y="11" width="1" height="1" fill="#3F4068" />
<rect x="49" y="11" width="1" height="1" fill="#3D3E65" />
<rect x="50" y="11" width="3" height="1" fill="#383A5E" />
<rect x="53" y="11" width="1" height="1" fill="#37385B" />
<rect x="54" y="11" width="2" height="1" fill="#353658" />
<rect x="56" y="11" width="1" height="2" fill="#343557" />
<rect x="57" y="11" width="1" height="1" fill="#323354" />
<rect x="58" y="11" width="1" height="1" fill="#323353" />
<rect x="61" y="11" width="1" height="42" fill="#4D9BE6" />
<rect x="5" y="12" width="1" height="1" fill="#323354" />
<rect x="6" y="12" width="1" height="4" fill="#343557" />
<rect x="8" y="12" width="1" height="1" fill="#353658" />
<rect x="9" y="12" width="1" height="1" fill="#37385B" />
<rect x="10" y="12" width="3" height="1" fill="#383A5E" />
<rect x="13" y="12" width="1" height="1" fill="#3D3E65" />
<rect x="14" y="12" width="3" height="1" fill="#40426B" />
<rect x="17" y="12" width="1" height="1" fill="#42446E" />
<rect x="18" y="12" width="3" height="1" fill="#444671" />
<rect x="21" y="12" width="1" height="1" fill="#454772" />
<rect x="22" y="12" width="2" height="2" fill="#474975" />
<rect x="40" y="12" width="2" height="2" fill="#474975" />
<rect x="42" y="12" width="1" height="1" fill="#454772" />
<rect x="43" y="12" width="3" height="1" fill="#444671" />
<rect x="46" y="12" width="1" height="1" fill="#42446E" />
<rect x="47" y="12" width="3" height="1" fill="#40426B" />
<rect x="50" y="12" width="1" height="1" fill="#3D3E65" />
<rect x="51" y="12" width="3" height="1" fill="#383A5E" />
<rect x="54" y="12" width="1" height="1" fill="#37385B" />
<rect x="55" y="12" width="1" height="1" fill="#353658" />
<rect x="57" y="12" width="1" height="4" fill="#343557" />
<rect x="58" y="12" width="1" height="1" fill="#323354" />
<rect x="5" y="13" width="1" height="4" fill="#343557" />
<rect x="7" y="13" width="1" height="1" fill="#353658" />
<rect x="8" y="13" width="1" height="2" fill="#37385B" />
<rect x="9" y="13" width="3" height="1" fill="#383A5E" />
<rect x="12" y="13" width="1" height="1" fill="#3D3E65" />
<rect x="13" y="13" width="3" height="1" fill="#40426B" />
<rect x="16" y="13" width="1" height="1" fill="#42446E" />
<rect x="17" y="13" width="3" height="1" fill="#444671" />
<rect x="20" y="13" width="1" height="1" fill="#454772" />
<rect x="21" y="13" width="1" height="2" fill="#474975" />
<rect x="26" y="13" width="12" height="38" fill="#484A77" />
<rect x="42" y="13" width="1" height="2" fill="#474975" />
<rect x="43" y="13" width="1" height="1" fill="#454772" />
<rect x="44" y="13" width="3" height="1" fill="#444671" />
<rect x="47" y="13" width="1" height="1" fill="#42446E" />
<rect x="48" y="13" width="3" height="1" fill="#40426B" />
<rect x="51" y="13" width="1" height="1" fill="#3D3E65" />
<rect x="52" y="13" width="3" height="1" fill="#383A5E" />
<rect x="55" y="13" width="1" height="2" fill="#37385B" />
<rect x="56" y="13" width="1" height="1" fill="#353658" />
<rect x="58" y="13" width="1" height="4" fill="#343557" />
<rect x="3" y="14" width="1" height="12" fill="#4D9BE6" />
<rect x="4" y="14" width="1" height="1" fill="#323354" />
<rect x="7" y="14" width="1" height="3" fill="#37385B" />
<rect x="9" y="14" width="2" height="1" fill="#383A5E" />
<rect x="11" y="14" width="2" height="1" fill="#3F4068" />
<rect x="13" y="14" width="2" height="1" fill="#40426B" />
<rect x="15" y="14" width="4" height="1" fill="#444671" />
<rect x="19" y="14" width="2" height="1" fill="#474975" />
<rect x="22" y="14" width="4" height="36" fill="#484A77" />
<rect x="38" y="14" width="4" height="36" fill="#484A77" />
<rect x="43" y="14" width="2" height="1" fill="#474975" />
<rect x="45" y="14" width="4" height="1" fill="#444671" />
<rect x="49" y="14" width="2" height="1" fill="#40426B" />
<rect x="51" y="14" width="2" height="1" fill="#3F4068" />
<rect x="53" y="14" width="2" height="1" fill="#383A5E" />
<rect x="56" y="14" width="1" height="3" fill="#37385B" />
<rect x="59" y="14" width="1" height="1" fill="#323354" />
<rect x="60" y="14" width="1" height="12" fill="#4D9BE6" />
<rect x="4" y="15" width="1" height="4" fill="#343557" />
<rect x="8" y="15" width="2" height="1" fill="#383A5E" />
<rect x="10" y="15" width="1" height="1" fill="#3A3C61" />
<rect x="11" y="15" width="1" height="2" fill="#3F4068" />
<rect x="12" y="15" width="2" height="1" fill="#40426B" />
<rect x="14" y="15" width="1" height="1" fill="#42446E" />
<rect x="15" y="15" width="3" height="1" fill="#444671" />
<rect x="18" y="15" width="1" height="1" fill="#464874" />
<rect x="19" y="15" width="1" height="1" fill="#474975" />
<rect x="20" y="15" width="2" height="34" fill="#484A77" />
<rect x="42" y="15" width="2" height="34" fill="#484A77" />
<rect x="44" y="15" width="1" height="1" fill="#474975" />
<rect x="45" y="15" width="1" height="1" fill="#464874" />
<rect x="46" y="15" width="3" height="1" fill="#444671" />
<rect x="49" y="15" width="1" height="1" fill="#42446E" />
<rect x="50" y="15" width="2" height="1" fill="#40426B" />
<rect x="52" y="15" width="1" height="2" fill="#3F4068" />
<rect x="53" y="15" width="1" height="1" fill="#3A3C61" />
<rect x="54" y="15" width="2" height="1" fill="#383A5E" />
<rect x="59" y="15" width="1" height="4" fill="#343557" />
<rect x="6" y="16" width="1" height="1" fill="#36375A" />
<rect x="8" y="16" width="1" height="1" fill="#383A5E" />
<rect x="9" y="16" width="1" height="1" fill="#3A3C61" />
<rect x="10" y="16" width="1" height="4" fill="#3F4068" />
<rect x="12" y="16" width="1" height="1" fill="#40426B" />
<rect x="13" y="16" width="1" height="1" fill="#42446E" />
<rect x="14" y="16" width="3" height="1" fill="#444671" />
<rect x="17" y="16" width="1" height="1" fill="#464874" />
<rect x="18" y="16" width="2" height="32" fill="#484A77" />
<rect x="44" y="16" width="2" height="32" fill="#484A77" />
<rect x="46" y="16" width="1" height="1" fill="#464874" />
<rect x="47" y="16" width="3" height="1" fill="#444671" />
<rect x="50" y="16" width="1" height="1" fill="#42446E" />
<rect x="51" y="16" width="1" height="1" fill="#40426B" />
<rect x="53" y="16" width="1" height="4" fill="#3F4068" />
<rect x="54" y="16" width="1" height="1" fill="#3A3C61" />
<rect x="55" y="16" width="1" height="1" fill="#383A5E" />
<rect x="57" y="16" width="1" height="1" fill="#36375A" />
<rect x="0" y="17" width="1" height="2" fill="#323353" />
<rect x="1" y="17" width="1" height="30" fill="#323354" />
<rect x="5" y="17" width="1" height="4" fill="#36375A" />
<rect x="6" y="17" width="1" height="3" fill="#37385B" />
<rect x="7" y="17" width="1" height="1" fill="#383A5E" />
<rect x="8" y="17" width="1" height="2" fill="#3A3C61" />
<rect x="9" y="17" width="1" height="4" fill="#3F4068" />
<rect x="11" y="17" width="1" height="1" fill="#40426B" />
<rect x="12" y="17" width="1" height="2" fill="#42446E" />
<rect x="13" y="17" width="3" height="1" fill="#444671" />
<rect x="16" y="17" width="1" height="1" fill="#464874" />
<rect x="17" y="17" width="1" height="30" fill="#484A77" />
<rect x="46" y="17" width="1" height="30" fill="#484A77" />
<rect x="47" y="17" width="1" height="1" fill="#464874" />
<rect x="48" y="17" width="3" height="1" fill="#444671" />
<rect x="51" y="17" width="1" height="2" fill="#42446E" />
<rect x="52" y="17" width="1" height="1" fill="#40426B" />
<rect x="54" y="17" width="1" height="4" fill="#3F4068" />
<rect x="55" y="17" width="1" height="2" fill="#3A3C61" />
<rect x="56" y="17" width="1" height="1" fill="#383A5E" />
<rect x="57" y="17" width="1" height="3" fill="#37385B" />
<rect x="58" y="17" width="1" height="4" fill="#36375A" />
<rect x="62" y="17" width="1" height="30" fill="#323354" />
<rect x="63" y="17" width="1" height="2" fill="#323353" />
<rect x="7" y="18" width="1" height="3" fill="#3A3C61" />
<rect x="11" y="18" width="1" height="3" fill="#42446E" />
<rect x="13" y="18" width="2" height="1" fill="#444671" />
<rect x="15" y="18" width="2" height="1" fill="#474975" />
<rect x="47" y="18" width="2" height="1" fill="#474975" />
<rect x="49" y="18" width="2" height="1" fill="#444671" />
<rect x="52" y="18" width="1" height="3" fill="#42446E" />
<rect x="56" y="18" width="1" height="3" fill="#3A3C61" />
<rect x="0" y="19" width="1" height="26" fill="#323354" />
<rect x="4" y="19" width="1" height="4" fill="#36375A" />
<rect x="8" y="19" width="1" height="4" fill="#3F4068" />
<rect x="12" y="19" width="2" height="1" fill="#444671" />
<rect x="14" y="19" width="1" height="1" fill="#454772" />
<rect x="15" y="19" width="1" height="2" fill="#474975" />
<rect x="16" y="19" width="1" height="26" fill="#484A77" />
<rect x="47" y="19" width="1" height="26" fill="#484A77" />
<rect x="48" y="19" width="1" height="2" fill="#474975" />
<rect x="49" y="19" width="1" height="1" fill="#454772" />
<rect x="50" y="19" width="2" height="1" fill="#444671" />
<rect x="55" y="19" width="1" height="4" fill="#3F4068" />
<rect x="59" y="19" width="1" height="4" fill="#36375A" />
<rect x="63" y="19" width="1" height="26" fill="#323354" />
<rect x="6" y="20" width="1" height="1" fill="#383A5E" />
<rect x="10" y="20" width="1" height="1" fill="#40426B" />
<rect x="12" y="20" width="1" height="1" fill="#444671" />
<rect x="13" y="20" width="1" height="1" fill="#454772" />
<rect x="14" y="20" width="1" height="5" fill="#474975" />
<rect x="49" y="20" width="1" height="5" fill="#474975" />
<rect x="50" y="20" width="1" height="1" fill="#454772" />
<rect x="51" y="20" width="1" height="1" fill="#444671" />
<rect x="53" y="20" width="1" height="1" fill="#40426B" />
<rect x="57" y="20" width="1" height="1" fill="#383A5E" />
<rect x="5" y="21" width="1" height="22" fill="#38395D" />
<rect x="6" y="21" width="1" height="4" fill="#3A3C61" />
<rect x="7" y="21" width="1" height="4" fill="#3F4068" />
<rect x="9" y="21" width="1" height="4" fill="#40426B" />
<rect x="10" y="21" width="1" height="3" fill="#42446E" />
<rect x="11" y="21" width="1" height="1" fill="#444671" />
<rect x="12" y="21" width="1" height="2" fill="#454772" />
<rect x="13" y="21" width="1" height="22" fill="#474975" />
<rect x="15" y="21" width="1" height="22" fill="#484A77" />
<rect x="48" y="21" width="1" height="22" fill="#484A77" />
<rect x="50" y="21" width="1" height="22" fill="#474975" />
<rect x="51" y="21" width="1" height="2" fill="#454772" />
<rect x="52" y="21" width="1" height="1" fill="#444671" />
<rect x="53" y="21" width="1" height="3" fill="#42446E" />
<rect x="54" y="21" width="1" height="4" fill="#40426B" />
<rect x="56" y="21" width="1" height="4" fill="#3F4068" />
<rect x="57" y="21" width="1" height="4" fill="#3A3C61" />
<rect x="58" y="21" width="1" height="22" fill="#38395D" />
<rect x="11" y="22" width="1" height="3" fill="#454772" />
<rect x="52" y="22" width="1" height="3" fill="#454772" />
<rect x="4" y="23" width="1" height="18" fill="#38395D" />
<rect x="8" y="23" width="1" height="4" fill="#40426B" />
<rect x="12" y="23" width="1" height="18" fill="#474975" />
<rect x="51" y="23" width="1" height="18" fill="#474975" />
<rect x="55" y="23" width="1" height="4" fill="#40426B" />
<rect x="59" y="23" width="1" height="18" fill="#38395D" />
<rect x="10" y="24" width="1" height="1" fill="#43456F" />
<rect x="53" y="24" width="1" height="1" fill="#43456F" />
<rect x="6" y="25" width="1" height="4" fill="#3F4068" />
<rect x="7" y="25" width="1" height="4" fill="#40426B" />
<rect x="9" y="25" width="1" height="14" fill="#41436C" />
<rect x="10" y="25" width="1" height="4" fill="#454772" />
<rect x="11" y="25" width="1" height="14" fill="#474975" />
<rect x="14" y="25" width="1" height="14" fill="#484A77" />
<rect x="49" y="25" width="1" height="14" fill="#484A77" />
<rect x="52" y="25" width="1" height="14" fill="#474975" />
<rect x="53" y="25" width="1" height="4" fill="#454772" />
<rect x="54" y="25" width="1" height="14" fill="#41436C" />
<rect x="56" y="25" width="1" height="4" fill="#40426B" />
<rect x="57" y="25" width="1" height="4" fill="#3F4068" />
<rect x="3" y="26" width="1" height="12" fill="#38395D" />
<rect x="60" y="26" width="1" height="12" fill="#38395D" />
<rect x="8" y="27" width="1" height="10" fill="#41436C" />
<rect x="55" y="27" width="1" height="10" fill="#41436C" />
<rect x="6" y="29" width="1" height="2" fill="#40426B" />
<rect x="7" y="29" width="1" height="6" fill="#41436C" />
<rect x="10" y="29" width="1" height="6" fill="#474975" />
<rect x="53" y="29" width="1" height="6" fill="#474975" />
<rect x="56" y="29" width="1" height="6" fill="#41436C" />
<rect x="57" y="29" width="1" height="2" fill="#40426B" />
<rect x="6" y="31" width="1" height="2" fill="#40416A" />
<rect x="57" y="31" width="1" height="2" fill="#40416A" />
<rect x="6" y="33" width="1" height="2" fill="#40426B" />
<rect x="57" y="33" width="1" height="2" fill="#40426B" />
<rect x="6" y="35" width="1" height="4" fill="#3F4068" />
<rect x="7" y="35" width="1" height="4" fill="#40426B" />
<rect x="10" y="35" width="1" height="4" fill="#454772" />
<rect x="53" y="35" width="1" height="4" fill="#454772" />
<rect x="56" y="35" width="1" height="4" fill="#40426B" />
<rect x="57" y="35" width="1" height="4" fill="#3F4068" />
<rect x="8" y="37" width="1" height="4" fill="#40426B" />
<rect x="55" y="37" width="1" height="4" fill="#40426B" />
<rect x="3" y="38" width="1" height="16" fill="#4D9BE6" />
<rect x="60" y="38" width="1" height="16" fill="#4D9BE6" />
<rect x="6" y="39" width="1" height="4" fill="#3A3C61" />
<rect x="7" y="39" width="1" height="4" fill="#3F4068" />
<rect x="9" y="39" width="1" height="4" fill="#40426B" />
<rect x="10" y="39" width="1" height="1" fill="#43456F" />
<rect x="11" y="39" width="1" height="3" fill="#454772" />
<rect x="14" y="39" width="1" height="5" fill="#474975" />
<rect x="49" y="39" width="1" height="5" fill="#474975" />
<rect x="52" y="39" width="1" height="3" fill="#454772" />
<rect x="53" y="39" width="1" height="1" fill="#43456F" />
<rect x="54" y="39" width="1" height="4" fill="#40426B" />
<rect x="56" y="39" width="1" height="4" fill="#3F4068" />
<rect x="57" y="39" width="1" height="4" fill="#3A3C61" />
<rect x="10" y="40" width="1" height="3" fill="#42446E" />
<rect x="53" y="40" width="1" height="3" fill="#42446E" />
<rect x="4" y="41" width="1" height="4" fill="#36375A" />
<rect x="8" y="41" width="1" height="4" fill="#3F4068" />
<rect x="12" y="41" width="1" height="2" fill="#454772" />
<rect x="51" y="41" width="1" height="2" fill="#454772" />
<rect x="55" y="41" width="1" height="4" fill="#3F4068" />
<rect x="59" y="41" width="1" height="4" fill="#36375A" />
<rect x="11" y="42" width="1" height="1" fill="#444671" />
<rect x="52" y="42" width="1" height="1" fill="#444671" />
<rect x="5" y="43" width="1" height="4" fill="#36375A" />
<rect x="6" y="43" width="1" height="1" fill="#383A5E" />
<rect x="7" y="43" width="1" height="3" fill="#3A3C61" />
<rect x="9" y="43" width="1" height="4" fill="#3F4068" />
<rect x="10" y="43" width="1" height="1" fill="#40426B" />
<rect x="11" y="43" width="1" height="3" fill="#42446E" />
<rect x="12" y="43" width="1" height="2" fill="#444671" />
<rect x="13" y="43" width="1" height="1" fill="#454772" />
<rect x="15" y="43" width="1" height="3" fill="#474975" />
<rect x="48" y="43" width="1" height="3" fill="#474975" />
<rect x="50" y="43" width="1" height="1" fill="#454772" />
<rect x="51" y="43" width="1" height="2" fill="#444671" />
<rect x="52" y="43" width="1" height="3" fill="#42446E" />
<rect x="53" y="43" width="1" height="1" fill="#40426B" />
<rect x="54" y="43" width="1" height="4" fill="#3F4068" />
<rect x="56" y="43" width="1" height="3" fill="#3A3C61" />
<rect x="57" y="43" width="1" height="1" fill="#383A5E" />
<rect x="58" y="43" width="1" height="4" fill="#36375A" />
<rect x="6" y="44" width="1" height="3" fill="#37385B" />
<rect x="10" y="44" width="1" height="4" fill="#3F4068" />
<rect x="13" y="44" width="1" height="3" fill="#444671" />
<rect x="14" y="44" width="1" height="1" fill="#454772" />
<rect x="49" y="44" width="1" height="1" fill="#454772" />
<rect x="50" y="44" width="1" height="3" fill="#444671" />
<rect x="53" y="44" width="1" height="4" fill="#3F4068" />
<rect x="57" y="44" width="1" height="3" fill="#37385B" />
<rect x="0" y="45" width="1" height="19" fill="#323353" />
<rect x="4" y="45" width="1" height="4" fill="#343557" />
<rect x="8" y="45" width="1" height="2" fill="#3A3C61" />
<rect x="12" y="45" width="1" height="2" fill="#42446E" />
<rect x="14" y="45" width="1" height="3" fill="#444671" />
<rect x="16" y="45" width="1" height="1" fill="#474975" />
<rect x="47" y="45" width="1" height="1" fill="#474975" />
<rect x="49" y="45" width="1" height="3" fill="#444671" />
<rect x="51" y="45" width="1" height="2" fill="#42446E" />
<rect x="55" y="45" width="1" height="2" fill="#3A3C61" />
<rect x="59" y="45" width="1" height="4" fill="#343557" />
<rect x="63" y="45" width="1" height="19" fill="#323353" />
<rect x="7" y="46" width="1" height="1" fill="#383A5E" />
<rect x="11" y="46" width="1" height="1" fill="#40426B" />
<rect x="15" y="46" width="1" height="4" fill="#444671" />
<rect x="16" y="46" width="1" height="1" fill="#464874" />
<rect x="47" y="46" width="1" height="1" fill="#464874" />
<rect x="48" y="46" width="1" height="4" fill="#444671" />
<rect x="52" y="46" width="1" height="1" fill="#40426B" />
<rect x="56" y="46" width="1" height="1" fill="#383A5E" />
<rect x="1" y="47" width="1" height="17" fill="#323353" />
<rect x="5" y="47" width="1" height="4" fill="#343557" />
<rect x="6" y="47" width="1" height="1" fill="#36375A" />
<rect x="7" y="47" width="1" height="3" fill="#37385B" />
<rect x="8" y="47" width="1" height="2" fill="#383A5E" />
<rect x="9" y="47" width="1" height="1" fill="#3A3C61" />
<rect x="11" y="47" width="1" height="3" fill="#3F4068" />
<rect x="12" y="47" width="1" height="2" fill="#40426B" />
<rect x="13" y="47" width="1" height="1" fill="#42446E" />
<rect x="16" y="47" width="1" height="3" fill="#444671" />
<rect x="17" y="47" width="1" height="1" fill="#464874" />
<rect x="46" y="47" width="1" height="1" fill="#464874" />
<rect x="47" y="47" width="1" height="3" fill="#444671" />
<rect x="50" y="47" width="1" height="1" fill="#42446E" />
<rect x="51" y="47" width="1" height="2" fill="#40426B" />
<rect x="52" y="47" width="1" height="3" fill="#3F4068" />
<rect x="54" y="47" width="1" height="1" fill="#3A3C61" />
<rect x="55" y="47" width="1" height="2" fill="#383A5E" />
<rect x="56" y="47" width="1" height="3" fill="#37385B" />
<rect x="57" y="47" width="1" height="1" fill="#36375A" />
<rect x="58" y="47" width="1" height="4" fill="#343557" />
<rect x="62" y="47" width="1" height="17" fill="#323353" />
<rect x="6" y="48" width="1" height="4" fill="#343557" />
<rect x="9" y="48" width="1" height="3" fill="#383A5E" />
<rect x="10" y="48" width="1" height="1" fill="#3A3C61" />
<rect x="13" y="48" width="1" height="3" fill="#40426B" />
<rect x="14" y="48" width="1" height="1" fill="#42446E" />
<rect x="17" y="48" width="1" height="3" fill="#444671" />
<rect x="18" y="48" width="1" height="1" fill="#464874" />
<rect x="19" y="48" width="1" height="2" fill="#474975" />
<rect x="44" y="48" width="1" height="2" fill="#474975" />
<rect x="45" y="48" width="1" height="1" fill="#464874" />
<rect x="46" y="48" width="1" height="3" fill="#444671" />
<rect x="49" y="48" width="1" height="1" fill="#42446E" />
<rect x="50" y="48" width="1" height="3" fill="#40426B" />
<rect x="53" y="48" width="1" height="1" fill="#3A3C61" />
<rect x="54" y="48" width="1" height="3" fill="#383A5E" />
<rect x="57" y="48" width="1" height="4" fill="#343557" />
<rect x="4" y="49" width="1" height="1" fill="#323354" />
<rect x="8" y="49" width="1" height="2" fill="#37385B" />
<rect x="10" y="49" width="1" height="3" fill="#383A5E" />
<rect x="12" y="49" width="1" height="1" fill="#3F4068" />
<rect x="14" y="49" width="1" height="3" fill="#40426B" />
<rect x="18" y="49" width="1" height="3" fill="#444671" />
<rect x="20" y="49" width="2" height="1" fill="#474975" />
<rect x="42" y="49" width="2" height="1" fill="#474975" />
<rect x="45" y="49" width="1" height="3" fill="#444671" />
<rect x="49" y="49" width="1" height="3" fill="#40426B" />
<rect x="51" y="49" width="1" height="1" fill="#3F4068" />
<rect x="53" y="49" width="1" height="3" fill="#383A5E" />
<rect x="55" y="49" width="1" height="2" fill="#37385B" />
<rect x="59" y="49" width="1" height="1" fill="#323354" />
<rect x="4" y="50" width="1" height="4" fill="#4D9BE6" />
<rect x="7" y="50" width="1" height="1" fill="#353658" />
<rect x="11" y="50" width="1" height="4" fill="#383A5E" />
<rect x="12" y="50" width="1" height="1" fill="#3D3E65" />
<rect x="15" y="50" width="1" height="2" fill="#40426B" />
<rect x="16" y="50" width="1" height="1" fill="#42446E" />
<rect x="19" y="50" width="1" height="2" fill="#444671" />
<rect x="20" y="50" width="1" height="1" fill="#454772" />
<rect x="21" y="50" width="5" height="1" fill="#474975" />
<rect x="38" y="50" width="5" height="1" fill="#474975" />
<rect x="43" y="50" width="1" height="1" fill="#454772" />
<rect x="44" y="50" width="1" height="2" fill="#444671" />
<rect x="47" y="50" width="1" height="1" fill="#42446E" />
<rect x="48" y="50" width="1" height="2" fill="#40426B" />
<rect x="51" y="50" width="1" height="1" fill="#3D3E65" />
<rect x="52" y="50" width="1" height="4" fill="#383A5E" />
<rect x="56" y="50" width="1" height="1" fill="#353658" />
<rect x="59" y="50" width="1" height="4" fill="#4D9BE6" />
<rect x="5" y="51" width="1" height="1" fill="#323354" />
<rect x="7" y="51" width="1" height="3" fill="#343557" />
<rect x="8" y="51" width="1" height="2" fill="#353658" />
<rect x="9" y="51" width="1" height="1" fill="#37385B" />
<rect x="12" y="51" width="1" height="3" fill="#383A5E" />
<rect x="13" y="51" width="1" height="1" fill="#3D3E65" />
<rect x="16" y="51" width="1" height="2" fill="#40426B" />
<rect x="17" y="51" width="1" height="1" fill="#42446E" />
<rect x="20" y="51" width="1" height="2" fill="#444671" />
<rect x="21" y="51" width="1" height="1" fill="#454772" />
<rect x="22" y="51" width="20" height="1" fill="#474975" />
<rect x="42" y="51" width="1" height="1" fill="#454772" />
<rect x="43" y="51" width="1" height="2" fill="#444671" />
<rect x="46" y="51" width="1" height="1" fill="#42446E" />
<rect x="47" y="51" width="1" height="2" fill="#40426B" />
<rect x="50" y="51" width="1" height="1" fill="#3D3E65" />
<rect x="51" y="51" width="1" height="3" fill="#383A5E" />
<rect x="54" y="51" width="1" height="1" fill="#37385B" />
<rect x="55" y="51" width="1" height="2" fill="#353658" />
<rect x="56" y="51" width="1" height="3" fill="#343557" />
<rect x="58" y="51" width="1" height="1" fill="#323354" />
<rect x="5" y="52" width="1" height="4" fill="#323353" />
<rect x="6" y="52" width="1" height="1" fill="#323354" />
<rect x="9" y="52" width="1" height="3" fill="#353658" />
<rect x="10" y="52" width="1" height="1" fill="#37385B" />
<rect x="13" y="52" width="1" height="3" fill="#383A5E" />
<rect x="14" y="52" width="1" height="1" fill="#3D3E65" />
<rect x="15" y="52" width="1" height="2" fill="#3F4068" />
<rect x="17" y="52" width="1" height="1" fill="#40426B" />
<rect x="18" y="52" width="2" height="1" fill="#42446E" />
<rect x="21" y="52" width="1" height="1" fill="#444671" />
<rect x="22" y="52" width="2" height="1" fill="#454772" />
<rect x="24" y="52" width="16" height="1" fill="#474975" />
<rect x="40" y="52" width="2" height="1" fill="#454772" />
<rect x="42" y="52" width="1" height="1" fill="#444671" />
<rect x="44" y="52" width="2" height="1" fill="#42446E" />
<rect x="46" y="52" width="1" height="1" fill="#40426B" />
<rect x="48" y="52" width="1" height="2" fill="#3F4068" />
<rect x="49" y="52" width="1" height="1" fill="#3D3E65" />
<rect x="50" y="52" width="1" height="3" fill="#383A5E" />
<rect x="53" y="52" width="1" height="1" fill="#37385B" />
<rect x="54" y="52" width="1" height="3" fill="#353658" />
<rect x="57" y="52" width="1" height="1" fill="#323354" />
<rect x="58" y="52" width="1" height="4" fill="#323353" />
<rect x="2" y="53" width="1" height="5" fill="#8FD3FF" />
<rect x="6" y="53" width="1" height="4" fill="#323353" />
<rect x="8" y="53" width="1" height="1" fill="#343557" />
<rect x="10" y="53" width="1" height="3" fill="#353658" />
<rect x="14" y="53" width="1" height="3" fill="#383A5E" />
<rect x="16" y="53" width="2" height="1" fill="#3F4068" />
<rect x="18" y="53" width="1" height="1" fill="#40426B" />
<rect x="19" y="53" width="3" height="1" fill="#42446E" />
<rect x="22" y="53" width="1" height="1" fill="#444671" />
<rect x="23" y="53" width="3" height="1" fill="#454772" />
<rect x="26" y="53" width="12" height="1" fill="#474975" />
<rect x="38" y="53" width="3" height="1" fill="#454772" />
<rect x="41" y="53" width="1" height="1" fill="#444671" />
<rect x="42" y="53" width="3" height="1" fill="#42446E" />
<rect x="45" y="53" width="1" height="1" fill="#40426B" />
<rect x="46" y="53" width="2" height="1" fill="#3F4068" />
<rect x="49" y="53" width="1" height="3" fill="#383A5E" />
<rect x="53" y="53" width="1" height="3" fill="#353658" />
<rect x="55" y="53" width="1" height="1" fill="#343557" />
<rect x="57" y="53" width="1" height="4" fill="#323353" />
<rect x="61" y="53" width="1" height="5" fill="#8FD3FF" />
<rect x="3" y="54" width="2" height="5" fill="#8FD3FF" />
<rect x="7" y="54" width="1" height="4" fill="#323353" />
<rect x="8" y="54" width="1" height="1" fill="#333455" />
<rect x="11" y="54" width="1" height="2" fill="#353658" />
<rect x="12" y="54" width="1" height="1" fill="#37385B" />
<rect x="15" y="54" width="1" height="2" fill="#383A5E" />
<rect x="16" y="54" width="1" height="1" fill="#3A3C61" />
<rect x="17" y="54" width="4" height="1" fill="#3F4068" />
<rect x="21" y="54" width="1" height="1" fill="#40426B" />
<rect x="22" y="54" width="3" height="1" fill="#42446E" />
<rect x="25" y="54" width="1" height="1" fill="#43456F" />
<rect x="26" y="54" width="4" height="1" fill="#454772" />
<rect x="30" y="54" width="4" height="1" fill="#474975" />
<rect x="34" y="54" width="4" height="1" fill="#454772" />
<rect x="38" y="54" width="1" height="1" fill="#43456F" />
<rect x="39" y="54" width="3" height="1" fill="#42446E" />
<rect x="42" y="54" width="1" height="1" fill="#40426B" />
<rect x="43" y="54" width="4" height="1" fill="#3F4068" />
<rect x="47" y="54" width="1" height="1" fill="#3A3C61" />
<rect x="48" y="54" width="1" height="2" fill="#383A5E" />
<rect x="51" y="54" width="1" height="1" fill="#37385B" />
<rect x="52" y="54" width="1" height="2" fill="#353658" />
<rect x="55" y="54" width="1" height="1" fill="#333455" />
<rect x="56" y="54" width="1" height="4" fill="#323353" />
<rect x="59" y="54" width="2" height="5" fill="#8FD3FF" />
<rect x="8" y="55" width="1" height="4" fill="#323353" />
<rect x="9" y="55" width="1" height="1" fill="#333455" />
<rect x="12" y="55" width="1" height="2" fill="#353658" />
<rect x="13" y="55" width="1" height="1" fill="#37385B" />
<rect x="16" y="55" width="1" height="2" fill="#383A5E" />
<rect x="17" y="55" width="1" height="1" fill="#3A3C61" />
<rect x="18" y="55" width="4" height="1" fill="#3F4068" />
<rect x="22" y="55" width="4" height="1" fill="#40426B" />
<rect x="26" y="55" width="12" height="1" fill="#41436C" />
<rect x="38" y="55" width="4" height="1" fill="#40426B" />
<rect x="42" y="55" width="4" height="1" fill="#3F4068" />
<rect x="46" y="55" width="1" height="1" fill="#3A3C61" />
<rect x="47" y="55" width="1" height="2" fill="#383A5E" />
<rect x="50" y="55" width="1" height="1" fill="#37385B" />
<rect x="51" y="55" width="1" height="2" fill="#353658" />
<rect x="54" y="55" width="1" height="1" fill="#333455" />
<rect x="55" y="55" width="1" height="4" fill="#323353" />
<rect x="5" y="56" width="1" height="5" fill="#8FD3FF" />
<rect x="9" y="56" width="1" height="3" fill="#323353" />
<rect x="10" y="56" width="1" height="1" fill="#333455" />
<rect x="11" y="56" width="1" height="2" fill="#343557" />
<rect x="13" y="56" width="1" height="1" fill="#353658" />
<rect x="14" y="56" width="2" height="1" fill="#37385B" />
<rect x="17" y="56" width="1" height="1" fill="#383A5E" />
<rect x="18" y="56" width="2" height="1" fill="#3A3C61" />
<rect x="20" y="56" width="4" height="1" fill="#3F4068" />
<rect x="24" y="56" width="4" height="1" fill="#40426B" />
<rect x="28" y="56" width="8" height="1" fill="#41436C" />
<rect x="36" y="56" width="4" height="1" fill="#40426B" />
<rect x="40" y="56" width="4" height="1" fill="#3F4068" />
<rect x="44" y="56" width="2" height="1" fill="#3A3C61" />
<rect x="46" y="56" width="1" height="1" fill="#383A5E" />
<rect x="48" y="56" width="2" height="1" fill="#37385B" />
<rect x="50" y="56" width="1" height="1" fill="#353658" />
<rect x="52" y="56" width="1" height="2" fill="#343557" />
<rect x="53" y="56" width="1" height="1" fill="#333455" />
<rect x="54" y="56" width="1" height="3" fill="#323353" />
<rect x="58" y="56" width="1" height="5" fill="#8FD3FF" />
<rect x="6" y="57" width="1" height="5" fill="#8FD3FF" />
<rect x="10" y="57" width="1" height="2" fill="#323353" />
<rect x="12" y="57" width="2" height="1" fill="#343557" />
<rect x="14" y="57" width="1" height="1" fill="#353658" />
<rect x="15" y="57" width="3" height="1" fill="#37385B" />
<rect x="18" y="57" width="1" height="1" fill="#383A5E" />
<rect x="19" y="57" width="3" height="1" fill="#3A3C61" />
<rect x="22" y="57" width="4" height="1" fill="#3F4068" />
<rect x="26" y="57" width="4" height="1" fill="#40426B" />
<rect x="30" y="57" width="4" height="1" fill="#41436C" />
<rect x="34" y="57" width="4" height="1" fill="#40426B" />
<rect x="38" y="57" width="4" height="1" fill="#3F4068" />
<rect x="42" y="57" width="3" height="1" fill="#3A3C61" />
<rect x="45" y="57" width="1" height="1" fill="#383A5E" />
<rect x="46" y="57" width="3" height="1" fill="#37385B" />
<rect x="49" y="57" width="1" height="1" fill="#353658" />
<rect x="50" y="57" width="2" height="1" fill="#343557" />
<rect x="53" y="57" width="1" height="2" fill="#323353" />
<rect x="57" y="57" width="1" height="5" fill="#8FD3FF" />
<rect x="2" y="58" width="1" height="6" fill="#323353" />
<rect x="7" y="58" width="1" height="4" fill="#8FD3FF" />
<rect x="11" y="58" width="1" height="1" fill="#323353" />
<rect x="12" y="58" width="1" height="1" fill="#323354" />
<rect x="13" y="58" width="4" height="1" fill="#343557" />
<rect x="17" y="58" width="1" height="1" fill="#36375A" />
<rect x="18" y="58" width="3" height="1" fill="#37385B" />
<rect x="21" y="58" width="1" height="1" fill="#383A5E" />
<rect x="22" y="58" width="4" height="1" fill="#3A3C61" />
<rect x="26" y="58" width="4" height="1" fill="#3F4068" />
<rect x="30" y="58" width="4" height="1" fill="#40416A" />
<rect x="34" y="58" width="4" height="1" fill="#3F4068" />
<rect x="38" y="58" width="4" height="1" fill="#3A3C61" />
<rect x="42" y="58" width="1" height="1" fill="#383A5E" />
<rect x="43" y="58" width="3" height="1" fill="#37385B" />
<rect x="46" y="58" width="1" height="1" fill="#36375A" />
<rect x="47" y="58" width="4" height="1" fill="#343557" />
<rect x="51" y="58" width="1" height="1" fill="#323354" />
<rect x="52" y="58" width="1" height="1" fill="#323353" />
<rect x="56" y="58" width="1" height="4" fill="#8FD3FF" />
<rect x="61" y="58" width="1" height="6" fill="#323353" />
<rect x="3" y="59" width="1" height="5" fill="#323353" />
<rect x="4" y="59" width="1" height="1" fill="#8FD3FF" />
<rect x="8" y="59" width="2" height="3" fill="#8FD3FF" />
<rect x="10" y="59" width="3" height="1" fill="#4D9BE6" />
<rect x="13" y="59" width="4" height="1" fill="#FBFF86" />
<rect x="17" y="59" width="1" height="1" fill="#343557" />
<rect x="18" y="59" width="4" height="1" fill="#36375A" />
<rect x="22" y="59" width="20" height="1" fill="#38395D" />
<rect x="42" y="59" width="4" height="1" fill="#36375A" />
<rect x="46" y="59" width="1" height="1" fill="#343557" />
<rect x="47" y="59" width="4" height="1" fill="#FBFF86" />
<rect x="51" y="59" width="3" height="1" fill="#4D9BE6" />
<rect x="54" y="59" width="2" height="3" fill="#8FD3FF" />
<rect x="59" y="59" width="1" height="1" fill="#8FD3FF" />
<rect x="60" y="59" width="1" height="5" fill="#323353" />
<rect x="4" y="60" width="1" height="4" fill="#323353" />
<rect x="10" y="60" width="1" height="2" fill="#8FD3FF" />
<rect x="11" y="60" width="3" height="1" fill="#4D9BE6" />
<rect x="14" y="60" width="10" height="1" fill="#FBFF86" />
<rect x="24" y="60" width="16" height="1" fill="#38395D" />
<rect x="40" y="60" width="10" height="1" fill="#FBFF86" />
<rect x="50" y="60" width="3" height="1" fill="#4D9BE6" />
<rect x="53" y="60" width="1" height="2" fill="#8FD3FF" />
<rect x="59" y="60" width="1" height="4" fill="#323353" />
<rect x="5" y="61" width="1" height="3" fill="#323353" />
<rect x="11" y="61" width="1" height="1" fill="#8FD3FF" />
<rect x="12" y="61" width="6" height="1" fill="#4D9BE6" />
<rect x="18" y="61" width="28" height="1" fill="#FBFF86" />
<rect x="46" y="61" width="6" height="1" fill="#4D9BE6" />
<rect x="52" y="61" width="1" height="1" fill="#8FD3FF" />
<rect x="58" y="61" width="1" height="3" fill="#323353" />
<rect x="6" y="62" width="11" height="2" fill="#323353" />
<rect x="17" y="62" width="5" height="1" fill="#323354" />
<rect x="22" y="62" width="4" height="1" fill="#343557" />
<rect x="26" y="62" width="4" height="1" fill="#36375A" />
<rect x="30" y="62" width="4" height="1" fill="#38395D" />
<rect x="34" y="62" width="4" height="1" fill="#36375A" />
<rect x="38" y="62" width="4" height="1" fill="#343557" />
<rect x="42" y="62" width="5" height="1" fill="#323354" />
<rect x="47" y="62" width="11" height="2" fill="#323353" />
<rect x="17" y="63" width="1" height="1" fill="#323353" />
<rect x="18" y="63" width="28" height="1" fill="#323354" />
<rect x="46" y="63" width="1" height="1" fill="#323353" />
</svg>