<?xml version="1.0" encoding="UTF-8" ?>
<svg version="1.1" width="16" height="11" xmlns="http://www.w3.org/2000/svg" shape-rendering="crispEdges">
<rect x="0" y="0" width="16" height="3" fill="#4D9BE6" />
<rect x="0" y="3" width="1" height="1" fill="#4D9BE6" />
<rect x="1" y="3" width="4" height="2" fill="#4D65B4" />
<rect x="5" y="3" width="11" height="1" fill="#4D9BE6" />
<rect x="0" y="4" width="1" height="2" fill="#4D65B4" />
<rect x="5" y="4" width="2" height="2" fill="#4D65B4" />
<rect x="7" y="4" width="9" height="1" fill="#4D9BE6" />
<rect x="1" y="5" width="4" height="1" fill="#8FD3FF" />
<rect x="7" y="5" width="2" height="2" fill="#4D65B4" />
<rect x="9" y="5" width="6" height="1" fill="#4D9BE6" />
<rect x="15" y="5" width="1" height="2" fill="#4D65B4" />
<rect x="0" y="6" width="1" height="1" fill="#8FD3FF" />
<rect x="1" y="6" width="4" height="5" fill="#4D9BE6" />
<rect x="5" y="6" width="2" height="1" fill="#8FD3FF" />
<rect x="9" y="6" width="6" height="2" fill="#4D65B4" />
<rect x="0" y="7" width="1" height="4" fill="#4D9BE6" />
<rect x="5" y="7" width="2" height="4" fill="#4D9BE6" />
<rect x="7" y="7" width="2" height="1" fill="#8FD3FF" />
<rect x="15" y="7" width="1" height="1" fill="#8FD3FF" />
<rect x="7" y="8" width="2" height="3" fill="#4D9BE6" />
<rect x="9" y="8" width="6" height="1" fill="#8FD3FF" />
<rect x="15" y="8" width="1" height="3" fill="#4D9BE6" />
<rect x="9" y="9" width="6" height="2" fill="#4D9BE6" />
</svg>