<?xml version="1.0" encoding="UTF-8" ?>
<svg version="1.1" width="150" height="150" xmlns="http://www.w3.org/2000/svg" shape-rendering="crispEdges">
<rect x="0" y="0" width="16" height="16" fill="#0033A2" />
<rect x="18" y="0" width="29" height="1" fill="#1760F0" />
<rect x="49" y="0" width="29" height="1" fill="#1760F0" />
<rect x="128" y="0" width="4" height="1" fill="#002192" />
<rect x="132" y="0" width="8" height="3" fill="#00196A" />
<rect x="140" y="0" width="3" height="1" fill="#002192" />
<rect x="143" y="0" width="1" height="32" fill="#1760F0" />
<rect x="17" y="1" width="1" height="1" fill="#1760F0" />
<rect x="18" y="1" width="12" height="3" fill="#00196A" />
<rect x="30" y="1" width="15" height="1" fill="#002192" />
<rect x="45" y="1" width="6" height="1" fill="#1760F0" />
<rect x="51" y="1" width="15" height="1" fill="#002192" />
<rect x="66" y="1" width="12" height="1" fill="#00196A" />
<rect x="78" y="1" width="1" height="1" fill="#1760F0" />
<rect x="128" y="1" width="3" height="3" fill="#002192" />
<rect x="131" y="1" width="1" height="12" fill="#00196A" />
<rect x="140" y="1" width="1" height="1" fill="#00196A" />
<rect x="141" y="1" width="2" height="2" fill="#002192" />
<rect x="16" y="2" width="1" height="28" fill="#1760F0" />
<rect x="17" y="2" width="1" height="12" fill="#00196A" />
<rect x="30" y="2" width="1" height="12" fill="#00196A" />
<rect x="31" y="2" width="7" height="1" fill="#002192" />
<rect x="38" y="2" width="1" height="3" fill="#6084F9" />
<rect x="39" y="2" width="7" height="1" fill="#002192" />
<rect x="46" y="2" width="4" height="1" fill="#1760F0" />
<rect x="50" y="2" width="15" height="1" fill="#002192" />
<rect x="65" y="2" width="2" height="1" fill="#00196A" />
<rect x="67" y="2" width="1" height="3" fill="#6084F9" />
<rect x="68" y="2" width="8" height="1" fill="#00196A" />
<rect x="76" y="2" width="1" height="3" fill="#6084F9" />
<rect x="77" y="2" width="2" height="1" fill="#00196A" />
<rect x="79" y="2" width="1" height="28" fill="#1760F0" />
<rect x="140" y="2" width="1" height="3" fill="#6084F9" />
<rect x="31" y="3" width="2" height="1" fill="#002192" />
<rect x="33" y="3" width="4" height="10" fill="#00196A" />
<rect x="37" y="3" width="1" height="1" fill="#6084F9" />
<rect x="39" y="3" width="1" height="1" fill="#6084F9" />
<rect x="40" y="3" width="4" height="7" fill="#00196A" />
<rect x="44" y="3" width="3" height="1" fill="#002192" />
<rect x="47" y="3" width="2" height="12" fill="#1760F0" />
<rect x="49" y="3" width="3" height="1" fill="#002192" />
<rect x="52" y="3" width="11" height="2" fill="#00196A" />
<rect x="63" y="3" width="2" height="1" fill="#002192" />
<rect x="65" y="3" width="1" height="11" fill="#00196A" />
<rect x="66" y="3" width="1" height="1" fill="#6084F9" />
<rect x="68" y="3" width="1" height="1" fill="#6084F9" />
<rect x="69" y="3" width="6" height="6" fill="#00196A" />
<rect x="75" y="3" width="1" height="1" fill="#6084F9" />
<rect x="77" y="3" width="1" height="1" fill="#6084F9" />
<rect x="78" y="3" width="1" height="11" fill="#00196A" />
<rect x="132" y="3" width="7" height="11" fill="#00196A" />
<rect x="139" y="3" width="1" height="1" fill="#6084F9" />
<rect x="141" y="3" width="1" height="1" fill="#6084F9" />
<rect x="142" y="3" width="1" height="29" fill="#002192" />
<rect x="18" y="4" width="2" height="1" fill="#00196A" />
<rect x="20" y="4" width="1" height="3" fill="#6084F9" />
<rect x="21" y="4" width="9" height="1" fill="#00196A" />
<rect x="31" y="4" width="2" height="8" fill="#00196A" />
<rect x="37" y="4" width="1" height="9" fill="#00196A" />
<rect x="39" y="4" width="1" height="9" fill="#00196A" />
<rect x="44" y="4" width="1" height="7" fill="#00196A" />
<rect x="45" y="4" width="2" height="1" fill="#002192" />
<rect x="49" y="4" width="2" height="1" fill="#002192" />
<rect x="51" y="4" width="1" height="6" fill="#00196A" />
<rect x="63" y="4" width="2" height="8" fill="#00196A" />
<rect x="66" y="4" width="1" height="11" fill="#00196A" />
<rect x="68" y="4" width="1" height="6" fill="#00196A" />
<rect x="75" y="4" width="1" height="22" fill="#00196A" />
<rect x="77" y="4" width="1" height="11" fill="#00196A" />
<rect x="128" y="4" width="2" height="12" fill="#002192" />
<rect x="130" y="4" width="1" height="8" fill="#00196A" />
<rect x="139" y="4" width="1" height="16" fill="#00196A" />
<rect x="141" y="4" width="1" height="8" fill="#00196A" />
<rect x="18" y="5" width="1" height="10" fill="#00196A" />
<rect x="19" y="5" width="1" height="1" fill="#6084F9" />
<rect x="21" y="5" width="1" height="1" fill="#6084F9" />
<rect x="22" y="5" width="8" height="6" fill="#00196A" />
<rect x="38" y="5" width="1" height="8" fill="#00196A" />
<rect x="45" y="5" width="1" height="6" fill="#00196A" />
<rect x="46" y="5" width="1" height="8" fill="#002192" />
<rect x="49" y="5" width="1" height="8" fill="#002192" />
<rect x="50" y="5" width="1" height="6" fill="#00196A" />
<rect x="52" y="5" width="7" height="1" fill="#00196A" />
<rect x="59" y="5" width="1" height="3" fill="#6084F9" />
<rect x="60" y="5" width="3" height="1" fill="#00196A" />
<rect x="67" y="5" width="1" height="10" fill="#00196A" />
<rect x="76" y="5" width="1" height="10" fill="#00196A" />
<rect x="140" y="5" width="1" height="9" fill="#00196A" />
<rect x="19" y="6" width="1" height="9" fill="#00196A" />
<rect x="21" y="6" width="1" height="17" fill="#00196A" />
<rect x="52" y="6" width="6" height="5" fill="#00196A" />
<rect x="58" y="6" width="1" height="1" fill="#6084F9" />
<rect x="60" y="6" width="1" height="1" fill="#6084F9" />
<rect x="61" y="6" width="2" height="7" fill="#00196A" />
<rect x="20" y="7" width="1" height="17" fill="#00196A" />
<rect x="58" y="7" width="1" height="6" fill="#00196A" />
<rect x="60" y="7" width="1" height="6" fill="#00196A" />
<rect x="59" y="8" width="1" height="5" fill="#00196A" />
<rect x="69" y="9" width="1" height="3" fill="#6084F9" />
<rect x="70" y="9" width="5" height="1" fill="#00196A" />
<rect x="40" y="10" width="3" height="1" fill="#00196A" />
<rect x="43" y="10" width="1" height="3" fill="#6084F9" />
<rect x="51" y="10" width="1" height="3" fill="#6084F9" />
<rect x="68" y="10" width="1" height="1" fill="#6084F9" />
<rect x="70" y="10" width="1" height="1" fill="#6084F9" />
<rect x="71" y="10" width="4" height="10" fill="#00196A" />
<rect x="22" y="11" width="5" height="1" fill="#00196A" />
<rect x="27" y="11" width="1" height="3" fill="#6084F9" />
<rect x="28" y="11" width="2" height="1" fill="#00196A" />
<rect x="40" y="11" width="2" height="2" fill="#00196A" />
<rect x="42" y="11" width="1" height="1" fill="#6084F9" />
<rect x="44" y="11" width="1" height="1" fill="#6084F9" />
<rect x="45" y="11" width="1" height="3" fill="#002192" />
<rect x="50" y="11" width="1" height="1" fill="#6084F9" />
<rect x="52" y="11" width="1" height="1" fill="#6084F9" />
<rect x="53" y="11" width="5" height="2" fill="#00196A" />
<rect x="68" y="11" width="1" height="20" fill="#00196A" />
<rect x="70" y="11" width="1" height="20" fill="#00196A" />
<rect x="22" y="12" width="4" height="12" fill="#00196A" />
<rect x="26" y="12" width="1" height="1" fill="#6084F9" />
<rect x="28" y="12" width="1" height="1" fill="#6084F9" />
<rect x="29" y="12" width="1" height="3" fill="#00196A" />
<rect x="31" y="12" width="2" height="3" fill="#002192" />
<rect x="42" y="12" width="1" height="1" fill="#00196A" />
<rect x="44" y="12" width="1" height="3" fill="#002192" />
<rect x="50" y="12" width="1" height="2" fill="#002192" />
<rect x="52" y="12" width="1" height="1" fill="#00196A" />
<rect x="63" y="12" width="2" height="3" fill="#002192" />
<rect x="69" y="12" width="1" height="19" fill="#00196A" />
<rect x="130" y="12" width="1" height="2" fill="#002192" />
<rect x="141" y="12" width="1" height="8" fill="#002192" />
<rect x="26" y="13" width="1" height="18" fill="#00196A" />
<rect x="28" y="13" width="1" height="2" fill="#00196A" />
<rect x="33" y="13" width="11" height="2" fill="#002192" />
<rect x="46" y="13" width="1" height="6" fill="#1760F0" />
<rect x="49" y="13" width="1" height="6" fill="#1760F0" />
<rect x="51" y="13" width="12" height="2" fill="#002192" />
<rect x="131" y="13" width="1" height="3" fill="#6084F9" />
<rect x="17" y="14" width="1" height="4" fill="#002192" />
<rect x="27" y="14" width="1" height="7" fill="#00196A" />
<rect x="30" y="14" width="1" height="4" fill="#002192" />
<rect x="45" y="14" width="1" height="4" fill="#1760F0" />
<rect x="50" y="14" width="1" height="4" fill="#1760F0" />
<rect x="65" y="14" width="1" height="4" fill="#002192" />
<rect x="78" y="14" width="1" height="4" fill="#002192" />
<rect x="130" y="14" width="1" height="1" fill="#6084F9" />
<rect x="132" y="14" width="1" height="1" fill="#6084F9" />
<rect x="133" y="14" width="6" height="5" fill="#00196A" />
<rect x="140" y="14" width="1" height="3" fill="#002192" />
<rect x="18" y="15" width="2" height="2" fill="#002192" />
<rect x="28" y="15" width="2" height="2" fill="#002192" />
<rect x="31" y="15" width="1" height="5" fill="#002192" />
<rect x="32" y="15" width="13" height="2" fill="#1760F0" />
<rect x="51" y="15" width="13" height="2" fill="#1760F0" />
<rect x="64" y="15" width="1" height="5" fill="#002192" />
<rect x="66" y="15" width="2" height="2" fill="#002192" />
<rect x="76" y="15" width="2" height="2" fill="#002192" />
<rect x="130" y="15" width="1" height="5" fill="#002192" />
<rect x="132" y="15" width="1" height="14" fill="#00196A" />
<rect x="0" y="16" width="16" height="1" fill="#000557" />
<rect x="96" y="16" width="1" height="16" fill="#1760F0" />
<rect x="97" y="16" width="3" height="1" fill="#002192" />
<rect x="100" y="16" width="8" height="3" fill="#00196A" />
<rect x="108" y="16" width="4" height="1" fill="#002192" />
<rect x="128" y="16" width="1" height="16" fill="#1760F0" />
<rect x="129" y="16" width="1" height="16" fill="#002192" />
<rect x="131" y="16" width="1" height="1" fill="#002192" />
<rect x="0" y="17" width="16" height="2" fill="#001C57" />
<rect x="18" y="17" width="2" height="14" fill="#00196A" />
<rect x="28" y="17" width="2" height="3" fill="#00196A" />
<rect x="32" y="17" width="13" height="1" fill="#002192" />
<rect x="47" y="17" width="2" height="14" fill="#1760F0" />
<rect x="51" y="17" width="13" height="2" fill="#002192" />
<rect x="66" y="17" width="2" height="9" fill="#00196A" />
<rect x="76" y="17" width="2" height="10" fill="#00196A" />
<rect x="97" y="17" width="2" height="3" fill="#002192" />
<rect x="99" y="17" width="1" height="13" fill="#00196A" />
<rect x="108" y="17" width="1" height="2" fill="#00196A" />
<rect x="109" y="17" width="3" height="3" fill="#002192" />
<rect x="131" y="17" width="1" height="11" fill="#00196A" />
<rect x="140" y="17" width="1" height="13" fill="#00196A" />
<rect x="17" y="18" width="1" height="12" fill="#00196A" />
<rect x="30" y="18" width="1" height="12" fill="#00196A" />
<rect x="32" y="18" width="6" height="1" fill="#002192" />
<rect x="38" y="18" width="1" height="3" fill="#6084F9" />
<rect x="39" y="18" width="7" height="1" fill="#002192" />
<rect x="50" y="18" width="1" height="3" fill="#002192" />
<rect x="65" y="18" width="1" height="9" fill="#00196A" />
<rect x="78" y="18" width="1" height="12" fill="#00196A" />
<rect x="0" y="19" width="16" height="2" fill="#000557" />
<rect x="32" y="19" width="1" height="1" fill="#002192" />
<rect x="33" y="19" width="4" height="10" fill="#00196A" />
<rect x="37" y="19" width="1" height="1" fill="#6084F9" />
<rect x="39" y="19" width="1" height="1" fill="#6084F9" />
<rect x="40" y="19" width="4" height="7" fill="#00196A" />
<rect x="44" y="19" width="3" height="1" fill="#002192" />
<rect x="49" y="19" width="1" height="10" fill="#002192" />
<rect x="51" y="19" width="1" height="1" fill="#002192" />
<rect x="52" y="19" width="11" height="2" fill="#00196A" />
<rect x="63" y="19" width="1" height="1" fill="#002192" />
<rect x="100" y="19" width="1" height="1" fill="#00196A" />
<rect x="101" y="19" width="1" height="3" fill="#6084F9" />
<rect x="102" y="19" width="6" height="1" fill="#00196A" />
<rect x="108" y="19" width="1" height="3" fill="#6084F9" />
<rect x="133" y="19" width="5" height="1" fill="#00196A" />
<rect x="138" y="19" width="1" height="3" fill="#6084F9" />
<rect x="28" y="20" width="1" height="3" fill="#6084F9" />
<rect x="29" y="20" width="1" height="1" fill="#00196A" />
<rect x="31" y="20" width="2" height="8" fill="#00196A" />
<rect x="37" y="20" width="1" height="9" fill="#00196A" />
<rect x="39" y="20" width="1" height="9" fill="#00196A" />
<rect x="44" y="20" width="1" height="7" fill="#00196A" />
<rect x="45" y="20" width="2" height="1" fill="#002192" />
<rect x="51" y="20" width="1" height="6" fill="#00196A" />
<rect x="63" y="20" width="2" height="8" fill="#00196A" />
<rect x="71" y="20" width="2" height="1" fill="#00196A" />
<rect x="73" y="20" width="1" height="3" fill="#6084F9" />
<rect x="74" y="20" width="1" height="1" fill="#00196A" />
<rect x="97" y="20" width="1" height="12" fill="#002192" />
<rect x="98" y="20" width="1" height="8" fill="#00196A" />
<rect x="100" y="20" width="1" height="1" fill="#6084F9" />
<rect x="102" y="20" width="1" height="1" fill="#6084F9" />
<rect x="103" y="20" width="4" height="8" fill="#00196A" />
<rect x="107" y="20" width="1" height="1" fill="#6084F9" />
<rect x="109" y="20" width="1" height="1" fill="#6084F9" />
<rect x="110" y="20" width="2" height="12" fill="#002192" />
<rect x="130" y="20" width="1" height="8" fill="#00196A" />
<rect x="133" y="20" width="4" height="12" fill="#00196A" />
<rect x="137" y="20" width="1" height="1" fill="#6084F9" />
<rect x="139" y="20" width="1" height="1" fill="#6084F9" />
<rect x="141" y="20" width="1" height="8" fill="#00196A" />
<rect x="0" y="21" width="16" height="2" fill="#001C57" />
<rect x="27" y="21" width="1" height="1" fill="#6084F9" />
<rect x="29" y="21" width="1" height="1" fill="#6084F9" />
<rect x="38" y="21" width="1" height="8" fill="#00196A" />
<rect x="45" y="21" width="1" height="6" fill="#00196A" />
<rect x="46" y="21" width="1" height="8" fill="#002192" />
<rect x="50" y="21" width="1" height="6" fill="#00196A" />
<rect x="52" y="21" width="7" height="1" fill="#00196A" />
<rect x="59" y="21" width="1" height="3" fill="#6084F9" />
<rect x="60" y="21" width="3" height="1" fill="#00196A" />
<rect x="71" y="21" width="1" height="10" fill="#00196A" />
<rect x="72" y="21" width="1" height="1" fill="#6084F9" />
<rect x="74" y="21" width="1" height="1" fill="#6084F9" />
<rect x="100" y="21" width="1" height="11" fill="#00196A" />
<rect x="102" y="21" width="1" height="11" fill="#00196A" />
<rect x="107" y="21" width="1" height="6" fill="#00196A" />
<rect x="109" y="21" width="1" height="7" fill="#00196A" />
<rect x="137" y="21" width="1" height="11" fill="#00196A" />
<rect x="139" y="21" width="1" height="11" fill="#00196A" />
<rect x="27" y="22" width="1" height="4" fill="#00196A" />
<rect x="29" y="22" width="1" height="4" fill="#00196A" />
<rect x="52" y="22" width="6" height="5" fill="#00196A" />
<rect x="58" y="22" width="1" height="1" fill="#6084F9" />
<rect x="60" y="22" width="1" height="1" fill="#6084F9" />
<rect x="61" y="22" width="2" height="7" fill="#00196A" />
<rect x="72" y="22" width="1" height="9" fill="#00196A" />
<rect x="74" y="22" width="1" height="5" fill="#00196A" />
<rect x="101" y="22" width="1" height="10" fill="#00196A" />
<rect x="108" y="22" width="1" height="6" fill="#00196A" />
<rect x="138" y="22" width="1" height="10" fill="#00196A" />
<rect x="0" y="23" width="16" height="2" fill="#000557" />
<rect x="21" y="23" width="1" height="3" fill="#6084F9" />
<rect x="28" y="23" width="1" height="2" fill="#00196A" />
<rect x="58" y="23" width="1" height="6" fill="#00196A" />
<rect x="60" y="23" width="1" height="6" fill="#00196A" />
<rect x="73" y="23" width="1" height="8" fill="#00196A" />
<rect x="20" y="24" width="1" height="1" fill="#6084F9" />
<rect x="22" y="24" width="1" height="1" fill="#6084F9" />
<rect x="23" y="24" width="3" height="7" fill="#00196A" />
<rect x="59" y="24" width="1" height="5" fill="#00196A" />
<rect x="0" y="25" width="16" height="2" fill="#001C57" />
<rect x="20" y="25" width="1" height="6" fill="#00196A" />
<rect x="22" y="25" width="1" height="6" fill="#00196A" />
<rect x="28" y="25" width="1" height="3" fill="#6084F9" />
<rect x="21" y="26" width="1" height="5" fill="#00196A" />
<rect x="27" y="26" width="1" height="1" fill="#6084F9" />
<rect x="29" y="26" width="1" height="1" fill="#6084F9" />
<rect x="40" y="26" width="3" height="1" fill="#00196A" />
<rect x="43" y="26" width="1" height="3" fill="#6084F9" />
<rect x="51" y="26" width="1" height="3" fill="#6084F9" />
<rect x="66" y="26" width="1" height="3" fill="#6084F9" />
<rect x="67" y="26" width="1" height="1" fill="#00196A" />
<rect x="75" y="26" width="1" height="3" fill="#6084F9" />
<rect x="0" y="27" width="16" height="2" fill="#000557" />
<rect x="27" y="27" width="1" height="4" fill="#00196A" />
<rect x="29" y="27" width="1" height="4" fill="#00196A" />
<rect x="40" y="27" width="2" height="2" fill="#00196A" />
<rect x="42" y="27" width="1" height="1" fill="#6084F9" />
<rect x="44" y="27" width="1" height="1" fill="#6084F9" />
<rect x="45" y="27" width="1" height="3" fill="#002192" />
<rect x="50" y="27" width="1" height="1" fill="#6084F9" />
<rect x="52" y="27" width="1" height="1" fill="#6084F9" />
<rect x="53" y="27" width="5" height="2" fill="#00196A" />
<rect x="65" y="27" width="1" height="1" fill="#6084F9" />
<rect x="67" y="27" width="1" height="1" fill="#6084F9" />
<rect x="74" y="27" width="1" height="1" fill="#6084F9" />
<rect x="76" y="27" width="1" height="1" fill="#6084F9" />
<rect x="77" y="27" width="1" height="4" fill="#00196A" />
<rect x="107" y="27" width="1" height="3" fill="#6084F9" />
<rect x="28" y="28" width="1" height="3" fill="#00196A" />
<rect x="31" y="28" width="2" height="3" fill="#002192" />
<rect x="42" y="28" width="1" height="1" fill="#00196A" />
<rect x="44" y="28" width="1" height="3" fill="#002192" />
<rect x="50" y="28" width="1" height="2" fill="#002192" />
<rect x="52" y="28" width="1" height="1" fill="#00196A" />
<rect x="63" y="28" width="2" height="3" fill="#002192" />
<rect x="65" y="28" width="1" height="2" fill="#00196A" />
<rect x="67" y="28" width="1" height="3" fill="#00196A" />
<rect x="74" y="28" width="1" height="3" fill="#00196A" />
<rect x="76" y="28" width="1" height="3" fill="#00196A" />
<rect x="98" y="28" width="1" height="4" fill="#002192" />
<rect x="103" y="28" width="3" height="4" fill="#00196A" />
<rect x="106" y="28" width="1" height="1" fill="#6084F9" />
<rect x="108" y="28" width="1" height="1" fill="#6084F9" />
<rect x="109" y="28" width="1" height="4" fill="#002192" />
<rect x="130" y="28" width="1" height="1" fill="#002192" />
<rect x="131" y="28" width="1" height="3" fill="#6084F9" />
<rect x="141" y="28" width="1" height="4" fill="#002192" />
<rect x="0" y="29" width="16" height="2" fill="#001C57" />
<rect x="33" y="29" width="11" height="2" fill="#002192" />
<rect x="46" y="29" width="1" height="3" fill="#1760F0" />
<rect x="49" y="29" width="1" height="3" fill="#1760F0" />
<rect x="51" y="29" width="12" height="2" fill="#002192" />
<rect x="66" y="29" width="1" height="2" fill="#00196A" />
<rect x="75" y="29" width="1" height="2" fill="#00196A" />
<rect x="106" y="29" width="1" height="3" fill="#00196A" />
<rect x="108" y="29" width="1" height="1" fill="#00196A" />
<rect x="130" y="29" width="1" height="1" fill="#6084F9" />
<rect x="132" y="29" width="1" height="1" fill="#6084F9" />
<rect x="17" y="30" width="1" height="1" fill="#1760F0" />
<rect x="30" y="30" width="1" height="1" fill="#002192" />
<rect x="45" y="30" width="1" height="2" fill="#1760F0" />
<rect x="50" y="30" width="1" height="2" fill="#1760F0" />
<rect x="65" y="30" width="1" height="1" fill="#002192" />
<rect x="78" y="30" width="1" height="1" fill="#1760F0" />
<rect x="99" y="30" width="1" height="2" fill="#002192" />
<rect x="107" y="30" width="1" height="2" fill="#00196A" />
<rect x="108" y="30" width="1" height="2" fill="#002192" />
<rect x="130" y="30" width="1" height="2" fill="#002192" />
<rect x="132" y="30" width="1" height="2" fill="#00196A" />
<rect x="140" y="30" width="1" height="2" fill="#002192" />
<rect x="0" y="31" width="16" height="1" fill="#000557" />
<rect x="18" y="31" width="27" height="1" fill="#1760F0" />
<rect x="51" y="31" width="27" height="1" fill="#1760F0" />
<rect x="131" y="31" width="1" height="1" fill="#002192" />
<rect x="1" y="48" width="14" height="1" fill="#1760F0" />
<rect x="80" y="48" width="16" height="1" fill="#002192" />
<rect x="96" y="48" width="16" height="1" fill="#1760F0" />
<rect x="128" y="48" width="16" height="1" fill="#1760F0" />
<rect x="0" y="49" width="3" height="1" fill="#1760F0" />
<rect x="3" y="49" width="10" height="1" fill="#002192" />
<rect x="13" y="49" width="3" height="1" fill="#1760F0" />
<rect x="80" y="49" width="13" height="1" fill="#002192" />
<rect x="93" y="49" width="1" height="3" fill="#6084F9" />
<rect x="94" y="49" width="18" height="1" fill="#002192" />
<rect x="128" y="49" width="16" height="1" fill="#002192" />
<rect x="0" y="50" width="2" height="1" fill="#1760F0" />
<rect x="2" y="50" width="3" height="1" fill="#002192" />
<rect x="5" y="50" width="6" height="25" fill="#00196A" />
<rect x="11" y="50" width="3" height="1" fill="#002192" />
<rect x="14" y="50" width="2" height="1" fill="#1760F0" />
<rect x="80" y="50" width="2" height="1" fill="#002192" />
<rect x="82" y="50" width="1" height="3" fill="#6084F9" />
<rect x="83" y="50" width="9" height="1" fill="#00196A" />
<rect x="92" y="50" width="1" height="1" fill="#6084F9" />
<rect x="94" y="50" width="1" height="1" fill="#6084F9" />
<rect x="95" y="50" width="4" height="1" fill="#002192" />
<rect x="99" y="50" width="10" height="1" fill="#00196A" />
<rect x="109" y="50" width="3" height="1" fill="#002192" />
<rect x="128" y="50" width="3" height="1" fill="#002192" />
<rect x="131" y="50" width="10" height="3" fill="#00196A" />
<rect x="141" y="50" width="3" height="1" fill="#002192" />
<rect x="0" y="51" width="1" height="28" fill="#1760F0" />
<rect x="1" y="51" width="3" height="1" fill="#002192" />
<rect x="4" y="51" width="1" height="3" fill="#00196A" />
<rect x="11" y="51" width="1" height="1" fill="#00196A" />
<rect x="12" y="51" width="1" height="3" fill="#6084F9" />
<rect x="13" y="51" width="2" height="1" fill="#002192" />
<rect x="15" y="51" width="1" height="28" fill="#1760F0" />
<rect x="80" y="51" width="1" height="1" fill="#002192" />
<rect x="81" y="51" width="1" height="1" fill="#6084F9" />
<rect x="83" y="51" width="1" height="1" fill="#6084F9" />
<rect x="84" y="51" width="9" height="8" fill="#00196A" />
<rect x="94" y="51" width="1" height="10" fill="#00196A" />
<rect x="95" y="51" width="2" height="1" fill="#002192" />
<rect x="97" y="51" width="3" height="1" fill="#00196A" />
<rect x="100" y="51" width="1" height="3" fill="#6084F9" />
<rect x="101" y="51" width="10" height="1" fill="#00196A" />
<rect x="111" y="51" width="1" height="1" fill="#002192" />
<rect x="128" y="51" width="1" height="1" fill="#002192" />
<rect x="129" y="51" width="2" height="3" fill="#00196A" />
<rect x="141" y="51" width="2" height="1" fill="#00196A" />
<rect x="143" y="51" width="1" height="1" fill="#002192" />
<rect x="1" y="52" width="2" height="2" fill="#002192" />
<rect x="3" y="52" width="1" height="1" fill="#00196A" />
<rect x="11" y="52" width="1" height="1" fill="#6084F9" />
<rect x="13" y="52" width="1" height="1" fill="#6084F9" />
<rect x="14" y="52" width="1" height="25" fill="#002192" />
<rect x="80" y="52" width="2" height="8" fill="#00196A" />
<rect x="83" y="52" width="1" height="10" fill="#00196A" />
<rect x="93" y="52" width="1" height="8" fill="#00196A" />
<rect x="95" y="52" width="4" height="8" fill="#00196A" />
<rect x="99" y="52" width="1" height="1" fill="#6084F9" />
<rect x="101" y="52" width="1" height="1" fill="#6084F9" />
<rect x="102" y="52" width="10" height="6" fill="#00196A" />
<rect x="128" y="52" width="1" height="8" fill="#00196A" />
<rect x="141" y="52" width="1" height="3" fill="#6084F9" />
<rect x="142" y="52" width="2" height="1" fill="#00196A" />
<rect x="3" y="53" width="1" height="3" fill="#6084F9" />
<rect x="11" y="53" width="1" height="8" fill="#00196A" />
<rect x="13" y="53" width="1" height="8" fill="#002192" />
<rect x="82" y="53" width="1" height="8" fill="#00196A" />
<rect x="99" y="53" width="1" height="9" fill="#00196A" />
<rect x="101" y="53" width="1" height="9" fill="#00196A" />
<rect x="131" y="53" width="1" height="3" fill="#6084F9" />
<rect x="132" y="53" width="8" height="1" fill="#00196A" />
<rect x="140" y="53" width="1" height="1" fill="#6084F9" />
<rect x="142" y="53" width="1" height="1" fill="#6084F9" />
<rect x="143" y="53" width="1" height="7" fill="#00196A" />
<rect x="1" y="54" width="1" height="23" fill="#002192" />
<rect x="2" y="54" width="1" height="1" fill="#6084F9" />
<rect x="4" y="54" width="1" height="1" fill="#6084F9" />
<rect x="12" y="54" width="1" height="6" fill="#00196A" />
<rect x="100" y="54" width="1" height="8" fill="#00196A" />
<rect x="129" y="54" width="1" height="7" fill="#00196A" />
<rect x="130" y="54" width="1" height="1" fill="#6084F9" />
<rect x="132" y="54" width="1" height="1" fill="#6084F9" />
<rect x="133" y="54" width="8" height="5" fill="#00196A" />
<rect x="142" y="54" width="1" height="7" fill="#00196A" />
<rect x="2" y="55" width="1" height="12" fill="#002192" />
<rect x="4" y="55" width="1" height="12" fill="#00196A" />
<rect x="130" y="55" width="1" height="6" fill="#00196A" />
<rect x="132" y="55" width="1" height="7" fill="#00196A" />
<rect x="141" y="55" width="1" height="5" fill="#00196A" />
<rect x="3" y="56" width="1" height="7" fill="#00196A" />
<rect x="131" y="56" width="1" height="6" fill="#00196A" />
<rect x="102" y="58" width="5" height="1" fill="#00196A" />
<rect x="107" y="58" width="1" height="3" fill="#6084F9" />
<rect x="108" y="58" width="4" height="1" fill="#00196A" />
<rect x="84" y="59" width="8" height="1" fill="#00196A" />
<rect x="92" y="59" width="1" height="3" fill="#6084F9" />
<rect x="102" y="59" width="4" height="3" fill="#00196A" />
<rect x="106" y="59" width="1" height="1" fill="#6084F9" />
<rect x="108" y="59" width="1" height="1" fill="#6084F9" />
<rect x="109" y="59" width="3" height="1" fill="#00196A" />
<rect x="133" y="59" width="7" height="1" fill="#00196A" />
<rect x="140" y="59" width="1" height="3" fill="#6084F9" />
<rect x="12" y="60" width="1" height="3" fill="#6084F9" />
<rect x="80" y="60" width="1" height="3" fill="#002192" />
<rect x="81" y="60" width="1" height="1" fill="#00196A" />
<rect x="84" y="60" width="7" height="2" fill="#00196A" />
<rect x="91" y="60" width="1" height="1" fill="#6084F9" />
<rect x="93" y="60" width="1" height="1" fill="#6084F9" />
<rect x="95" y="60" width="2" height="3" fill="#002192" />
<rect x="97" y="60" width="2" height="1" fill="#00196A" />
<rect x="106" y="60" width="1" height="2" fill="#00196A" />
<rect x="108" y="60" width="3" height="1" fill="#00196A" />
<rect x="111" y="60" width="1" height="3" fill="#002192" />
<rect x="128" y="60" width="1" height="4" fill="#002192" />
<rect x="133" y="60" width="6" height="2" fill="#00196A" />
<rect x="139" y="60" width="1" height="1" fill="#6084F9" />
<rect x="141" y="60" width="1" height="1" fill="#6084F9" />
<rect x="143" y="60" width="1" height="4" fill="#002192" />
<rect x="11" y="61" width="1" height="1" fill="#6084F9" />
<rect x="13" y="61" width="1" height="1" fill="#6084F9" />
<rect x="81" y="61" width="2" height="2" fill="#002192" />
<rect x="91" y="61" width="1" height="1" fill="#00196A" />
<rect x="93" y="61" width="2" height="2" fill="#002192" />
<rect x="97" y="61" width="2" height="2" fill="#002192" />
<rect x="107" y="61" width="2" height="1" fill="#00196A" />
<rect x="109" y="61" width="2" height="2" fill="#002192" />
<rect x="129" y="61" width="2" height="3" fill="#002192" />
<rect x="139" y="61" width="1" height="1" fill="#00196A" />
<rect x="141" y="61" width="2" height="3" fill="#002192" />
<rect x="11" y="62" width="1" height="7" fill="#00196A" />
<rect x="13" y="62" width="1" height="7" fill="#002192" />
<rect x="83" y="62" width="10" height="1" fill="#002192" />
<rect x="99" y="62" width="10" height="1" fill="#002192" />
<rect x="131" y="62" width="10" height="2" fill="#002192" />
<rect x="3" y="63" width="1" height="2" fill="#002192" />
<rect x="12" y="63" width="1" height="2" fill="#002192" />
<rect x="80" y="63" width="32" height="1" fill="#1760F0" />
<rect x="3" y="65" width="1" height="1" fill="#00196A" />
<rect x="12" y="65" width="1" height="3" fill="#00196A" />
<rect x="3" y="66" width="1" height="3" fill="#6084F9" />
<rect x="2" y="67" width="1" height="1" fill="#6084F9" />
<rect x="4" y="67" width="1" height="1" fill="#6084F9" />
<rect x="2" y="68" width="1" height="10" fill="#002192" />
<rect x="4" y="68" width="1" height="9" fill="#00196A" />
<rect x="12" y="68" width="1" height="3" fill="#6084F9" />
<rect x="3" y="69" width="1" height="7" fill="#00196A" />
<rect x="11" y="69" width="1" height="1" fill="#6084F9" />
<rect x="13" y="69" width="1" height="1" fill="#6084F9" />
<rect x="11" y="70" width="1" height="7" fill="#00196A" />
<rect x="13" y="70" width="1" height="8" fill="#002192" />
<rect x="12" y="71" width="1" height="5" fill="#00196A" />
<rect x="5" y="75" width="2" height="1" fill="#00196A" />
<rect x="7" y="75" width="1" height="3" fill="#6084F9" />
<rect x="8" y="75" width="3" height="1" fill="#00196A" />
<rect x="3" y="76" width="1" height="3" fill="#002192" />
<rect x="5" y="76" width="1" height="2" fill="#00196A" />
<rect x="6" y="76" width="1" height="1" fill="#6084F9" />
<rect x="8" y="76" width="1" height="1" fill="#6084F9" />
<rect x="9" y="76" width="2" height="2" fill="#00196A" />
<rect x="12" y="76" width="1" height="3" fill="#002192" />
<rect x="1" y="77" width="1" height="3" fill="#1760F0" />
<rect x="4" y="77" width="1" height="2" fill="#002192" />
<rect x="6" y="77" width="1" height="1" fill="#00196A" />
<rect x="8" y="77" width="1" height="1" fill="#00196A" />
<rect x="11" y="77" width="1" height="2" fill="#002192" />
<rect x="14" y="77" width="1" height="3" fill="#1760F0" />
<rect x="2" y="78" width="1" height="2" fill="#1760F0" />
<rect x="5" y="78" width="6" height="1" fill="#002192" />
<rect x="13" y="78" width="1" height="2" fill="#1760F0" />
<rect x="3" y="79" width="10" height="1" fill="#1760F0" />
<rect x="55" y="97" width="2" height="14" fill="#00196A" />
<rect x="54" y="99" width="1" height="10" fill="#00196A" />
<rect x="57" y="99" width="1" height="10" fill="#00196A" />
<rect x="53" y="101" width="1" height="6" fill="#00196A" />
<rect x="58" y="101" width="1" height="6" fill="#00196A" />
<rect x="52" y="102" width="1" height="4" fill="#00196A" />
<rect x="59" y="102" width="1" height="4" fill="#00196A" />
<rect x="50" y="103" width="2" height="2" fill="#00196A" />
<rect x="60" y="103" width="2" height="2" fill="#00196A" />
<rect x="49" y="104" width="1" height="1" fill="#00196A" />
<rect x="62" y="104" width="1" height="1" fill="#00196A" />
</svg>