<?xml version="1.0" encoding="UTF-8" ?>
<svg version="1.1" width="81" height="41" xmlns="http://www.w3.org/2000/svg" shape-rendering="crispEdges">
<rect x="40" y="0" width="1" height="2" fill="#FBFF86" />
<rect x="40" y="2" width="1" height="4" fill="#F9C22B" />
<rect x="39" y="3" width="1" height="1" fill="#FBFF86" />
<rect x="41" y="3" width="1" height="5" fill="#F9C22B" />
<rect x="39" y="4" width="1" height="4" fill="#F9C22B" />
<rect x="38" y="5" width="1" height="1" fill="#FBFF86" />
<rect x="42" y="5" width="1" height="5" fill="#F9C22B" />
<rect x="38" y="6" width="1" height="4" fill="#F9C22B" />
<rect x="40" y="6" width="1" height="5" fill="#45293F" />
<rect x="39" y="8" width="1" height="2" fill="#45293F" />
<rect x="41" y="8" width="1" height="29" fill="#45293F" />
<rect x="16" y="9" width="3" height="1" fill="#F9C22B" />
<rect x="31" y="9" width="2" height="3" fill="#FBFF86" />
<rect x="37" y="9" width="1" height="3" fill="#F9C22B" />
<rect x="43" y="9" width="1" height="3" fill="#F9C22B" />
<rect x="48" y="9" width="2" height="3" fill="#F9C22B" />
<rect x="62" y="9" width="3" height="1" fill="#F9C22B" />
<rect x="15" y="10" width="1" height="1" fill="#F9C22B" />
<rect x="16" y="10" width="1" height="5" fill="#FBFF86" />
<rect x="17" y="10" width="3" height="1" fill="#F9C22B" />
<rect x="30" y="10" width="1" height="2" fill="#FBFF86" />
<rect x="33" y="10" width="1" height="2" fill="#FBFF86" />
<rect x="38" y="10" width="2" height="6" fill="#6B3E75" />
<rect x="42" y="10" width="1" height="27" fill="#45293F" />
<rect x="47" y="10" width="1" height="1" fill="#F79617" />
<rect x="50" y="10" width="1" height="5" fill="#F9C22B" />
<rect x="61" y="10" width="2" height="1" fill="#F9C22B" />
<rect x="63" y="10" width="1" height="3" fill="#F79617" />
<rect x="64" y="10" width="2" height="1" fill="#F9C22B" />
<rect x="14" y="11" width="1" height="2" fill="#F9C22B" />
<rect x="15" y="11" width="1" height="5" fill="#FBFF86" />
<rect x="17" y="11" width="1" height="3" fill="#FBFF86" />
<rect x="18" y="11" width="3" height="2" fill="#F9C22B" />
<rect x="29" y="11" width="1" height="2" fill="#FBFF86" />
<rect x="34" y="11" width="1" height="1" fill="#F9C22B" />
<rect x="40" y="11" width="1" height="3" fill="#6B3E75" />
<rect x="46" y="11" width="1" height="4" fill="#F79617" />
<rect x="47" y="11" width="1" height="2" fill="#FBFF86" />
<rect x="51" y="11" width="1" height="4" fill="#F9C22B" />
<rect x="60" y="11" width="2" height="3" fill="#F9C22B" />
<rect x="62" y="11" width="1" height="7" fill="#F79617" />
<rect x="64" y="11" width="1" height="1" fill="#F79617" />
<rect x="65" y="11" width="2" height="3" fill="#F9C22B" />
<rect x="21" y="12" width="1" height="3" fill="#F9C22B" />
<rect x="28" y="12" width="1" height="2" fill="#FBFF86" />
<rect x="30" y="12" width="1" height="3" fill="#F9C22B" />
<rect x="31" y="12" width="1" height="1" fill="#FBFF86" />
<rect x="32" y="12" width="2" height="2" fill="#F9C22B" />
<rect x="34" y="12" width="1" height="6" fill="#F79617" />
<rect x="36" y="12" width="1" height="2" fill="#F9C22B" />
<rect x="37" y="12" width="1" height="1" fill="#45293F" />
<rect x="43" y="12" width="1" height="25" fill="#45293F" />
<rect x="44" y="12" width="1" height="2" fill="#F9C22B" />
<rect x="48" y="12" width="1" height="2" fill="#FBFF86" />
<rect x="49" y="12" width="1" height="4" fill="#F9C22B" />
<rect x="52" y="12" width="1" height="4" fill="#F9C22B" />
<rect x="59" y="12" width="1" height="2" fill="#F9C22B" />
<rect x="64" y="12" width="1" height="4" fill="#FBFF86" />
<rect x="13" y="13" width="1" height="8" fill="#F9C22B" />
<rect x="14" y="13" width="1" height="3" fill="#FBFF86" />
<rect x="18" y="13" width="1" height="8" fill="#F9C22B" />
<rect x="19" y="13" width="2" height="2" fill="#FBFF86" />
<rect x="22" y="13" width="1" height="8" fill="#F9C22B" />
<rect x="27" y="13" width="1" height="2" fill="#FBFF86" />
<rect x="29" y="13" width="1" height="2" fill="#F9C22B" />
<rect x="31" y="13" width="1" height="3" fill="#F9C22B" />
<rect x="35" y="13" width="1" height="3" fill="#F79617" />
<rect x="37" y="13" width="1" height="5" fill="#6B3E75" />
<rect x="45" y="13" width="1" height="3" fill="#F9C22B" />
<rect x="47" y="13" width="1" height="3" fill="#F79617" />
<rect x="53" y="13" width="1" height="4" fill="#F9C22B" />
<rect x="58" y="13" width="1" height="2" fill="#F9C22B" />
<rect x="63" y="13" width="1" height="2" fill="#FBFF86" />
<rect x="67" y="13" width="1" height="8" fill="#F9C22B" />
<rect x="17" y="14" width="1" height="7" fill="#F9C22B" />
<rect x="26" y="14" width="1" height="2" fill="#FBFF86" />
<rect x="28" y="14" width="1" height="1" fill="#F9C22B" />
<rect x="32" y="14" width="1" height="3" fill="#F9C22B" />
<rect x="33" y="14" width="1" height="2" fill="#F79617" />
<rect x="36" y="14" width="1" height="1" fill="#45293F" />
<rect x="40" y="14" width="1" height="23" fill="#45293F" />
<rect x="44" y="14" width="1" height="22" fill="#45293F" />
<rect x="48" y="14" width="1" height="3" fill="#F79617" />
<rect x="54" y="14" width="1" height="4" fill="#F9C22B" />
<rect x="59" y="14" width="1" height="5" fill="#F79617" />
<rect x="60" y="14" width="1" height="3" fill="#F9C22B" />
<rect x="61" y="14" width="1" height="3" fill="#F79617" />
<rect x="65" y="14" width="1" height="2" fill="#FBFF86" />
<rect x="66" y="14" width="1" height="7" fill="#F9C22B" />
<rect x="12" y="15" width="1" height="6" fill="#F9C22B" />
<rect x="16" y="15" width="1" height="6" fill="#F9C22B" />
<rect x="19" y="15" width="1" height="6" fill="#F9C22B" />
<rect x="20" y="15" width="2" height="1" fill="#FBFF86" />
<rect x="23" y="15" width="1" height="6" fill="#F9C22B" />
<rect x="25" y="15" width="1" height="5" fill="#F9C22B" />
<rect x="27" y="15" width="1" height="1" fill="#F9C22B" />
<rect x="28" y="15" width="2" height="5" fill="#6B3E75" />
<rect x="30" y="15" width="1" height="2" fill="#45293F" />
<rect x="36" y="15" width="1" height="2" fill="#6B3E75" />
<rect x="46" y="15" width="1" height="3" fill="#F9C22B" />
<rect x="50" y="15" width="2" height="21" fill="#45293F" />
<rect x="55" y="15" width="1" height="5" fill="#F9C22B" />
<rect x="57" y="15" width="1" height="6" fill="#F9C22B" />
<rect x="58" y="15" width="1" height="3" fill="#F79617" />
<rect x="63" y="15" width="1" height="4" fill="#F79617" />
<rect x="68" y="15" width="1" height="6" fill="#F9C22B" />
<rect x="11" y="16" width="1" height="2" fill="#F9C22B" />
<rect x="14" y="16" width="2" height="5" fill="#F9C22B" />
<rect x="20" y="16" width="2" height="5" fill="#F9C22B" />
<rect x="24" y="16" width="1" height="4" fill="#F9C22B" />
<rect x="26" y="16" width="1" height="2" fill="#F9C22B" />
<rect x="27" y="16" width="1" height="5" fill="#6B3E75" />
<rect x="31" y="16" width="1" height="20" fill="#45293F" />
<rect x="33" y="16" width="1" height="2" fill="#F9C22B" />
<rect x="35" y="16" width="1" height="20" fill="#45293F" />
<rect x="38" y="16" width="1" height="2" fill="#6B3E75" />
<rect x="39" y="16" width="1" height="21" fill="#45293F" />
<rect x="45" y="16" width="1" height="20" fill="#45293F" />
<rect x="47" y="16" width="1" height="2" fill="#F9C22B" />
<rect x="49" y="16" width="1" height="20" fill="#45293F" />
<rect x="52" y="16" width="1" height="20" fill="#45293F" />
<rect x="56" y="16" width="1" height="4" fill="#F9C22B" />
<rect x="64" y="16" width="2" height="2" fill="#F79617" />
<rect x="69" y="16" width="1" height="5" fill="#F9C22B" />
<rect x="8" y="17" width="1" height="4" fill="#F9C22B" />
<rect x="9" y="17" width="2" height="4" fill="#FBFF86" />
<rect x="30" y="17" width="1" height="1" fill="#6B3E75" />
<rect x="32" y="17" width="1" height="19" fill="#45293F" />
<rect x="36" y="17" width="1" height="19" fill="#45293F" />
<rect x="48" y="17" width="1" height="19" fill="#45293F" />
<rect x="53" y="17" width="1" height="19" fill="#45293F" />
<rect x="60" y="17" width="1" height="3" fill="#F79617" />
<rect x="61" y="17" width="1" height="4" fill="#F9C22B" />
<rect x="70" y="17" width="3" height="4" fill="#F9C22B" />
<rect x="5" y="18" width="2" height="3" fill="#FBFF86" />
<rect x="7" y="18" width="1" height="2" fill="#F9C22B" />
<rect x="11" y="18" width="1" height="3" fill="#FBFF86" />
<rect x="26" y="18" width="1" height="2" fill="#6B3E75" />
<rect x="30" y="18" width="1" height="18" fill="#45293F" />
<rect x="33" y="18" width="2" height="18" fill="#45293F" />
<rect x="37" y="18" width="2" height="19" fill="#45293F" />
<rect x="46" y="18" width="2" height="18" fill="#45293F" />
<rect x="54" y="18" width="1" height="18" fill="#45293F" />
<rect x="58" y="18" width="1" height="3" fill="#F9C22B" />
<rect x="62" y="18" width="1" height="3" fill="#F9C22B" />
<rect x="64" y="18" width="1" height="1" fill="#F79617" />
<rect x="65" y="18" width="1" height="3" fill="#F9C22B" />
<rect x="73" y="18" width="3" height="3" fill="#F9C22B" />
<rect x="3" y="19" width="2" height="3" fill="#F9C22B" />
<rect x="59" y="19" width="1" height="2" fill="#F9C22B" />
<rect x="63" y="19" width="2" height="2" fill="#F9C22B" />
<rect x="76" y="19" width="2" height="3" fill="#F9C22B" />
<rect x="2" y="20" width="1" height="5" fill="#F9C22B" />
<rect x="7" y="20" width="1" height="1" fill="#FBFF86" />
<rect x="24" y="20" width="3" height="16" fill="#45293F" />
<rect x="28" y="20" width="1" height="1" fill="#6B3E75" />
<rect x="29" y="20" width="1" height="16" fill="#45293F" />
<rect x="55" y="20" width="2" height="16" fill="#45293F" />
<rect x="60" y="20" width="1" height="1" fill="#F9C22B" />
<rect x="78" y="20" width="1" height="5" fill="#F9C22B" />
<rect x="1" y="21" width="1" height="4" fill="#F9C22B" />
<rect x="5" y="21" width="1" height="1" fill="#FBFF86" />
<rect x="6" y="21" width="2" height="1" fill="#45293F" />
<rect x="8" y="21" width="1" height="3" fill="#6B3E75" />
<rect x="9" y="21" width="15" height="1" fill="#45293F" />
<rect x="27" y="21" width="2" height="15" fill="#45293F" />
<rect x="57" y="21" width="18" height="13" fill="#45293F" />
<rect x="75" y="21" width="1" height="1" fill="#F9C22B" />
<rect x="79" y="21" width="1" height="4" fill="#F9C22B" />
<rect x="3" y="22" width="1" height="1" fill="#F9C22B" />
<rect x="4" y="22" width="2" height="1" fill="#45293F" />
<rect x="6" y="22" width="2" height="4" fill="#6B3E75" />
<rect x="9" y="22" width="1" height="1" fill="#6B3E75" />
<rect x="10" y="22" width="14" height="12" fill="#45293F" />
<rect x="75" y="22" width="2" height="12" fill="#45293F" />
<rect x="77" y="22" width="1" height="1" fill="#F9C22B" />
<rect x="0" y="23" width="1" height="11" fill="#F79617" />
<rect x="3" y="23" width="2" height="1" fill="#45293F" />
<rect x="5" y="23" width="1" height="5" fill="#6B3E75" />
<rect x="9" y="23" width="1" height="11" fill="#45293F" />
<rect x="77" y="23" width="1" height="10" fill="#45293F" />
<rect x="80" y="23" width="1" height="11" fill="#F79617" />
<rect x="3" y="24" width="1" height="1" fill="#45293F" />
<rect x="4" y="24" width="1" height="4" fill="#6B3E75" />
<rect x="8" y="24" width="1" height="10" fill="#45293F" />
<rect x="1" y="25" width="1" height="10" fill="#F79617" />
<rect x="2" y="25" width="1" height="6" fill="#45293F" />
<rect x="3" y="25" width="1" height="2" fill="#6B3E75" />
<rect x="78" y="25" width="1" height="6" fill="#45293F" />
<rect x="79" y="25" width="1" height="10" fill="#F79617" />
<rect x="6" y="26" width="1" height="1" fill="#6B3E75" />
<rect x="7" y="26" width="1" height="8" fill="#45293F" />
<rect x="3" y="27" width="1" height="6" fill="#45293F" />
<rect x="6" y="27" width="1" height="7" fill="#45293F" />
<rect x="4" y="28" width="2" height="6" fill="#45293F" />
<rect x="2" y="31" width="1" height="5" fill="#F79617" />
<rect x="78" y="31" width="1" height="5" fill="#F79617" />
<rect x="3" y="33" width="1" height="3" fill="#F79617" />
<rect x="77" y="33" width="1" height="3" fill="#F79617" />
<rect x="4" y="34" width="1" height="1" fill="#F79617" />
<rect x="5" y="34" width="11" height="3" fill="#FB6B1D" />
<rect x="16" y="34" width="8" height="1" fill="#45293F" />
<rect x="57" y="34" width="8" height="1" fill="#45293F" />
<rect x="65" y="34" width="11" height="3" fill="#FB6B1D" />
<rect x="76" y="34" width="1" height="1" fill="#F79617" />
<rect x="4" y="35" width="1" height="2" fill="#FB6B1D" />
<rect x="16" y="35" width="7" height="4" fill="#FB6B1D" />
<rect x="23" y="35" width="1" height="1" fill="#45293F" />
<rect x="57" y="35" width="1" height="1" fill="#45293F" />
<rect x="58" y="35" width="7" height="4" fill="#FB6B1D" />
<rect x="76" y="35" width="1" height="2" fill="#FB6B1D" />
<rect x="23" y="36" width="14" height="4" fill="#FB6B1D" />
<rect x="44" y="36" width="14" height="4" fill="#FB6B1D" />
<rect x="7" y="37" width="9" height="1" fill="#FB6B1D" />
<rect x="37" y="37" width="7" height="3" fill="#FB6B1D" />
<rect x="65" y="37" width="9" height="1" fill="#FB6B1D" />
<rect x="12" y="38" width="4" height="1" fill="#FB6B1D" />
<rect x="65" y="38" width="4" height="1" fill="#FB6B1D" />
<rect x="38" y="40" width="5" height="1" fill="#FB6B1D" />
</svg>