<?xml version="1.0" encoding="UTF-8" ?>
<svg version="1.1" width="101" height="50" xmlns="http://www.w3.org/2000/svg" shape-rendering="crispEdges">
<rect x="6" y="0" width="1" height="15" fill="#323353" />
<rect x="9" y="0" width="1" height="15" fill="#323353" />
<rect x="91" y="0" width="1" height="15" fill="#323353" />
<rect x="94" y="0" width="1" height="15" fill="#323353" />
<rect x="5" y="15" width="23" height="2" fill="#F9C22B" />
<rect x="73" y="15" width="23" height="2" fill="#F9C22B" />
<rect x="4" y="16" width="1" height="4" fill="#F9C22B" />
<rect x="28" y="16" width="45" height="2" fill="#F9C22B" />
<rect x="96" y="16" width="1" height="4" fill="#F9C22B" />
<rect x="3" y="17" width="1" height="5" fill="#F9C22B" />
<rect x="5" y="17" width="4" height="1" fill="#F9C22B" />
<rect x="9" y="17" width="14" height="1" fill="#622D45" />
<rect x="23" y="17" width="5" height="1" fill="#F9C22B" />
<rect x="73" y="17" width="5" height="1" fill="#F9C22B" />
<rect x="78" y="17" width="14" height="1" fill="#622D45" />
<rect x="92" y="17" width="4" height="1" fill="#F9C22B" />
<rect x="97" y="17" width="1" height="5" fill="#F9C22B" />
<rect x="2" y="18" width="1" height="6" fill="#F9C22B" />
<rect x="5" y="18" width="1" height="1" fill="#F9C22B" />
<rect x="6" y="18" width="3" height="1" fill="#622D45" />
<rect x="9" y="18" width="3" height="28" fill="#753C54" />
<rect x="12" y="18" width="1" height="28" fill="#69374F" />
<rect x="13" y="18" width="3" height="29" fill="#753C54" />
<rect x="16" y="18" width="1" height="29" fill="#69374F" />
<rect x="17" y="18" width="3" height="29" fill="#753C54" />
<rect x="20" y="18" width="1" height="29" fill="#69374F" />
<rect x="21" y="18" width="2" height="29" fill="#753C54" />
<rect x="23" y="18" width="8" height="1" fill="#622D45" />
<rect x="31" y="18" width="39" height="1" fill="#F9C22B" />
<rect x="70" y="18" width="8" height="1" fill="#622D45" />
<rect x="78" y="18" width="2" height="29" fill="#753C54" />
<rect x="80" y="18" width="1" height="29" fill="#69374F" />
<rect x="81" y="18" width="3" height="29" fill="#753C54" />
<rect x="84" y="18" width="1" height="29" fill="#69374F" />
<rect x="85" y="18" width="3" height="29" fill="#753C54" />
<rect x="88" y="18" width="1" height="28" fill="#69374F" />
<rect x="89" y="18" width="3" height="28" fill="#753C54" />
<rect x="92" y="18" width="3" height="1" fill="#622D45" />
<rect x="95" y="18" width="1" height="1" fill="#F9C22B" />
<rect x="98" y="18" width="1" height="6" fill="#F9C22B" />
<rect x="1" y="19" width="1" height="16" fill="#F9C22B" />
<rect x="5" y="19" width="1" height="1" fill="#622D45" />
<rect x="6" y="19" width="2" height="25" fill="#753C54" />
<rect x="8" y="19" width="1" height="27" fill="#69374F" />
<rect x="23" y="19" width="1" height="28" fill="#753C54" />
<rect x="24" y="19" width="1" height="28" fill="#69374F" />
<rect x="25" y="19" width="3" height="28" fill="#753C54" />
<rect x="28" y="19" width="1" height="28" fill="#69374F" />
<rect x="29" y="19" width="2" height="28" fill="#753C54" />
<rect x="31" y="19" width="39" height="1" fill="#622D45" />
<rect x="70" y="19" width="2" height="28" fill="#753C54" />
<rect x="72" y="19" width="1" height="28" fill="#69374F" />
<rect x="73" y="19" width="3" height="28" fill="#753C54" />
<rect x="76" y="19" width="1" height="28" fill="#69374F" />
<rect x="77" y="19" width="1" height="28" fill="#753C54" />
<rect x="92" y="19" width="1" height="27" fill="#69374F" />
<rect x="93" y="19" width="2" height="25" fill="#753C54" />
<rect x="95" y="19" width="1" height="1" fill="#622D45" />
<rect x="99" y="19" width="1" height="16" fill="#F9C22B" />
<rect x="0" y="20" width="1" height="15" fill="#F9C22B" />
<rect x="4" y="20" width="1" height="1" fill="#622D45" />
<rect x="5" y="20" width="1" height="1" fill="#69374F" />
<rect x="31" y="20" width="1" height="27" fill="#753C54" />
<rect x="32" y="20" width="1" height="27" fill="#69374F" />
<rect x="33" y="20" width="3" height="27" fill="#753C54" />
<rect x="36" y="20" width="1" height="27" fill="#69374F" />
<rect x="37" y="20" width="3" height="27" fill="#753C54" />
<rect x="40" y="20" width="1" height="27" fill="#69374F" />
<rect x="41" y="20" width="3" height="27" fill="#753C54" />
<rect x="44" y="20" width="1" height="27" fill="#69374F" />
<rect x="45" y="20" width="3" height="27" fill="#753C54" />
<rect x="48" y="20" width="1" height="27" fill="#69374F" />
<rect x="49" y="20" width="3" height="27" fill="#753C54" />
<rect x="52" y="20" width="1" height="27" fill="#69374F" />
<rect x="53" y="20" width="3" height="27" fill="#753C54" />
<rect x="56" y="20" width="1" height="27" fill="#69374F" />
<rect x="57" y="20" width="3" height="27" fill="#753C54" />
<rect x="60" y="20" width="1" height="27" fill="#69374F" />
<rect x="61" y="20" width="3" height="27" fill="#753C54" />
<rect x="64" y="20" width="1" height="27" fill="#69374F" />
<rect x="65" y="20" width="3" height="27" fill="#753C54" />
<rect x="68" y="20" width="1" height="27" fill="#69374F" />
<rect x="69" y="20" width="1" height="27" fill="#753C54" />
<rect x="95" y="20" width="1" height="23" fill="#753C54" />
<rect x="96" y="20" width="1" height="1" fill="#622D45" />
<rect x="100" y="20" width="1" height="15" fill="#F9C22B" />
<rect x="4" y="21" width="1" height="21" fill="#69374F" />
<rect x="5" y="21" width="1" height="22" fill="#753C54" />
<rect x="96" y="21" width="1" height="21" fill="#69374F" />
<rect x="3" y="22" width="1" height="1" fill="#622D45" />
<rect x="97" y="22" width="1" height="1" fill="#622D45" />
<rect x="3" y="23" width="1" height="17" fill="#753C54" />
<rect x="97" y="23" width="1" height="17" fill="#753C54" />
<rect x="2" y="24" width="1" height="16" fill="#622D45" />
<rect x="98" y="24" width="1" height="16" fill="#622D45" />
<rect x="0" y="35" width="2" height="7" fill="#FB6B1D" />
<rect x="99" y="35" width="2" height="7" fill="#FB6B1D" />
<rect x="2" y="40" width="1" height="5" fill="#FB6B1D" />
<rect x="3" y="40" width="1" height="2" fill="#622D45" />
<rect x="97" y="40" width="1" height="2" fill="#622D45" />
<rect x="98" y="40" width="1" height="5" fill="#FB6B1D" />
<rect x="1" y="42" width="1" height="2" fill="#FB6B1D" />
<rect x="3" y="42" width="1" height="4" fill="#FB6B1D" />
<rect x="4" y="42" width="1" height="1" fill="#622D45" />
<rect x="96" y="42" width="1" height="1" fill="#622D45" />
<rect x="97" y="42" width="1" height="4" fill="#FB6B1D" />
<rect x="99" y="42" width="1" height="2" fill="#FB6B1D" />
<rect x="4" y="43" width="1" height="4" fill="#FB6B1D" />
<rect x="5" y="43" width="1" height="1" fill="#622D45" />
<rect x="95" y="43" width="1" height="1" fill="#622D45" />
<rect x="96" y="43" width="1" height="4" fill="#FB6B1D" />
<rect x="5" y="44" width="1" height="4" fill="#FB6B1D" />
<rect x="6" y="44" width="1" height="1" fill="#622D45" />
<rect x="7" y="44" width="1" height="1" fill="#753C54" />
<rect x="93" y="44" width="1" height="1" fill="#753C54" />
<rect x="94" y="44" width="1" height="1" fill="#622D45" />
<rect x="95" y="44" width="1" height="4" fill="#FB6B1D" />
<rect x="6" y="45" width="1" height="3" fill="#FB6B1D" />
<rect x="7" y="45" width="1" height="1" fill="#622D45" />
<rect x="93" y="45" width="1" height="1" fill="#622D45" />
<rect x="94" y="45" width="1" height="3" fill="#FB6B1D" />
<rect x="7" y="46" width="4" height="1" fill="#FB6B1D" />
<rect x="11" y="46" width="1" height="3" fill="#B33831" />
<rect x="12" y="46" width="1" height="1" fill="#622D45" />
<rect x="88" y="46" width="1" height="1" fill="#622D45" />
<rect x="89" y="46" width="1" height="3" fill="#B33831" />
<rect x="90" y="46" width="4" height="1" fill="#FB6B1D" />
<rect x="7" y="47" width="2" height="1" fill="#FB6B1D" />
<rect x="9" y="47" width="2" height="2" fill="#B33831" />
<rect x="12" y="47" width="77" height="2" fill="#B33831" />
<rect x="90" y="47" width="2" height="2" fill="#B33831" />
<rect x="92" y="47" width="2" height="1" fill="#FB6B1D" />
<rect x="7" y="48" width="2" height="1" fill="#B33831" />
<rect x="92" y="48" width="2" height="1" fill="#B33831" />
<rect x="32" y="49" width="37" height="1" fill="#B33831" />
</svg>